G04 #@! TF.GenerationSoftware,KiCad,Pcbnew,(5.99.0-823-ga085f82be)*
G04 #@! TF.CreationDate,2020-04-11T14:47:26-07:00*
G04 #@! TF.ProjectId,USBtoTTL_Serial,55534274-6f54-4544-9c5f-53657269616c,n/c*
G04 #@! TF.SameCoordinates,Original*
G04 #@! TF.FileFunction,Copper,L2,Bot*
G04 #@! TF.FilePolarity,Positive*
%FSLAX46Y46*%
G04 Gerber Fmt 4.6, Leading zero omitted, Abs format (unit mm)*
G04 Created by KiCad (PCBNEW (5.99.0-823-ga085f82be)) date 2020-04-11 14:47:26*
%MOMM*%
%LPD*%
G04 APERTURE LIST*
%ADD10C,1.740000*%
%ADD11R,0.900000X1.200000*%
%ADD12R,1.700000X1.700000*%
%ADD13C,1.700000*%
%ADD14C,3.500000*%
%ADD15R,0.900000X0.800000*%
%ADD16C,1.500000*%
%ADD17C,0.800000*%
%ADD18C,0.635000*%
%ADD19C,0.304800*%
%ADD20C,2.032000*%
%ADD21C,0.254000*%
G04 APERTURE END LIST*
G04 #@! TA.AperFunction,SMDPad,CuDef*
G36*
X172630671Y-110079030D02*
G01*
X172711777Y-110133223D01*
X172765970Y-110214329D01*
X172785000Y-110309999D01*
X172785000Y-110960001D01*
X172765970Y-111055671D01*
X172711777Y-111136777D01*
X172630671Y-111190970D01*
X172535001Y-111210000D01*
X171634999Y-111210000D01*
X171539329Y-111190970D01*
X171458223Y-111136777D01*
X171404030Y-111055671D01*
X171385000Y-110960001D01*
X171385000Y-110309999D01*
X171404030Y-110214329D01*
X171458223Y-110133223D01*
X171539329Y-110079030D01*
X171634999Y-110060000D01*
X172535001Y-110060000D01*
X172630671Y-110079030D01*
G37*
G04 #@! TD.AperFunction*
G04 #@! TA.AperFunction,SMDPad,CuDef*
G36*
X172630671Y-108029030D02*
G01*
X172711777Y-108083223D01*
X172765970Y-108164329D01*
X172785000Y-108259999D01*
X172785000Y-108910001D01*
X172765970Y-109005671D01*
X172711777Y-109086777D01*
X172630671Y-109140970D01*
X172535001Y-109160000D01*
X171634999Y-109160000D01*
X171539329Y-109140970D01*
X171458223Y-109086777D01*
X171404030Y-109005671D01*
X171385000Y-108910001D01*
X171385000Y-108259999D01*
X171404030Y-108164329D01*
X171458223Y-108083223D01*
X171539329Y-108029030D01*
X171634999Y-108010000D01*
X172535001Y-108010000D01*
X172630671Y-108029030D01*
G37*
G04 #@! TD.AperFunction*
G04 #@! TA.AperFunction,SMDPad,CuDef*
G36*
X172630671Y-108029030D02*
G01*
X172711777Y-108083223D01*
X172765970Y-108164329D01*
X172785000Y-108259999D01*
X172785000Y-108910001D01*
X172765970Y-109005671D01*
X172711777Y-109086777D01*
X172630671Y-109140970D01*
X172535001Y-109160000D01*
X171634999Y-109160000D01*
X171539329Y-109140970D01*
X171458223Y-109086777D01*
X171404030Y-109005671D01*
X171385000Y-108910001D01*
X171385000Y-108259999D01*
X171404030Y-108164329D01*
X171458223Y-108083223D01*
X171539329Y-108029030D01*
X171634999Y-108010000D01*
X172535001Y-108010000D01*
X172630671Y-108029030D01*
G37*
G04 #@! TD.AperFunction*
G04 #@! TA.AperFunction,SMDPad,CuDef*
G36*
X172630671Y-105979030D02*
G01*
X172711777Y-106033223D01*
X172765970Y-106114329D01*
X172785000Y-106209999D01*
X172785000Y-106860001D01*
X172765970Y-106955671D01*
X172711777Y-107036777D01*
X172630671Y-107090970D01*
X172535001Y-107110000D01*
X171634999Y-107110000D01*
X171539329Y-107090970D01*
X171458223Y-107036777D01*
X171404030Y-106955671D01*
X171385000Y-106860001D01*
X171385000Y-106209999D01*
X171404030Y-106114329D01*
X171458223Y-106033223D01*
X171539329Y-105979030D01*
X171634999Y-105960000D01*
X172535001Y-105960000D01*
X172630671Y-105979030D01*
G37*
G04 #@! TD.AperFunction*
G04 #@! TA.AperFunction,SMDPad,CuDef*
G36*
X156875671Y-118699030D02*
G01*
X156956777Y-118753223D01*
X157010970Y-118834329D01*
X157030000Y-118929999D01*
X157030000Y-119830001D01*
X157010970Y-119925671D01*
X156956777Y-120006777D01*
X156875671Y-120060970D01*
X156780001Y-120080000D01*
X156129999Y-120080000D01*
X156034329Y-120060970D01*
X155953223Y-120006777D01*
X155899030Y-119925671D01*
X155880000Y-119830001D01*
X155880000Y-118929999D01*
X155899030Y-118834329D01*
X155953223Y-118753223D01*
X156034329Y-118699030D01*
X156129999Y-118680000D01*
X156780001Y-118680000D01*
X156875671Y-118699030D01*
G37*
G04 #@! TD.AperFunction*
G04 #@! TA.AperFunction,SMDPad,CuDef*
G36*
X158925671Y-118699030D02*
G01*
X159006777Y-118753223D01*
X159060970Y-118834329D01*
X159080000Y-118929999D01*
X159080000Y-119830001D01*
X159060970Y-119925671D01*
X159006777Y-120006777D01*
X158925671Y-120060970D01*
X158830001Y-120080000D01*
X158179999Y-120080000D01*
X158084329Y-120060970D01*
X158003223Y-120006777D01*
X157949030Y-119925671D01*
X157930000Y-119830001D01*
X157930000Y-118929999D01*
X157949030Y-118834329D01*
X158003223Y-118753223D01*
X158084329Y-118699030D01*
X158179999Y-118680000D01*
X158830001Y-118680000D01*
X158925671Y-118699030D01*
G37*
G04 #@! TD.AperFunction*
D10*
X139700000Y-115570000D03*
X139700000Y-113030000D03*
X139700000Y-110490000D03*
G04 #@! TA.AperFunction,ComponentPad*
G36*
X140415671Y-107099030D02*
G01*
X140496777Y-107153223D01*
X140550970Y-107234329D01*
X140570000Y-107329999D01*
X140570000Y-108570001D01*
X140550970Y-108665671D01*
X140496777Y-108746777D01*
X140415671Y-108800970D01*
X140320001Y-108820000D01*
X139079999Y-108820000D01*
X138984329Y-108800970D01*
X138903223Y-108746777D01*
X138849030Y-108665671D01*
X138830000Y-108570001D01*
X138830000Y-107329999D01*
X138849030Y-107234329D01*
X138903223Y-107153223D01*
X138984329Y-107099030D01*
X139079999Y-107080000D01*
X140320001Y-107080000D01*
X140415671Y-107099030D01*
G37*
G04 #@! TD.AperFunction*
X130810000Y-115570000D03*
X130810000Y-113030000D03*
X130810000Y-110490000D03*
G04 #@! TA.AperFunction,ComponentPad*
G36*
X131525671Y-107099030D02*
G01*
X131606777Y-107153223D01*
X131660970Y-107234329D01*
X131680000Y-107329999D01*
X131680000Y-108570001D01*
X131660970Y-108665671D01*
X131606777Y-108746777D01*
X131525671Y-108800970D01*
X131430001Y-108820000D01*
X130189999Y-108820000D01*
X130094329Y-108800970D01*
X130013223Y-108746777D01*
X129959030Y-108665671D01*
X129940000Y-108570001D01*
X129940000Y-107329999D01*
X129959030Y-107234329D01*
X130013223Y-107153223D01*
X130094329Y-107099030D01*
X130189999Y-107080000D01*
X131430001Y-107080000D01*
X131525671Y-107099030D01*
G37*
G04 #@! TD.AperFunction*
X121920000Y-115570000D03*
X121920000Y-113030000D03*
X121920000Y-110490000D03*
G04 #@! TA.AperFunction,ComponentPad*
G36*
X122635671Y-107099030D02*
G01*
X122716777Y-107153223D01*
X122770970Y-107234329D01*
X122790000Y-107329999D01*
X122790000Y-108570001D01*
X122770970Y-108665671D01*
X122716777Y-108746777D01*
X122635671Y-108800970D01*
X122540001Y-108820000D01*
X121299999Y-108820000D01*
X121204329Y-108800970D01*
X121123223Y-108746777D01*
X121069030Y-108665671D01*
X121050000Y-108570001D01*
X121050000Y-107329999D01*
X121069030Y-107234329D01*
X121123223Y-107153223D01*
X121204329Y-107099030D01*
X121299999Y-107080000D01*
X122540001Y-107080000D01*
X122635671Y-107099030D01*
G37*
G04 #@! TD.AperFunction*
X113030000Y-115570000D03*
X113030000Y-113030000D03*
X113030000Y-110490000D03*
G04 #@! TA.AperFunction,ComponentPad*
G36*
X113745671Y-107099030D02*
G01*
X113826777Y-107153223D01*
X113880970Y-107234329D01*
X113900000Y-107329999D01*
X113900000Y-108570001D01*
X113880970Y-108665671D01*
X113826777Y-108746777D01*
X113745671Y-108800970D01*
X113650001Y-108820000D01*
X112409999Y-108820000D01*
X112314329Y-108800970D01*
X112233223Y-108746777D01*
X112179030Y-108665671D01*
X112160000Y-108570001D01*
X112160000Y-107329999D01*
X112179030Y-107234329D01*
X112233223Y-107153223D01*
X112314329Y-107099030D01*
X112409999Y-107080000D01*
X113650001Y-107080000D01*
X113745671Y-107099030D01*
G37*
G04 #@! TD.AperFunction*
X104140000Y-115570000D03*
X104140000Y-113030000D03*
X104140000Y-110490000D03*
G04 #@! TA.AperFunction,ComponentPad*
G36*
X104855671Y-107099030D02*
G01*
X104936777Y-107153223D01*
X104990970Y-107234329D01*
X105010000Y-107329999D01*
X105010000Y-108570001D01*
X104990970Y-108665671D01*
X104936777Y-108746777D01*
X104855671Y-108800970D01*
X104760001Y-108820000D01*
X103519999Y-108820000D01*
X103424329Y-108800970D01*
X103343223Y-108746777D01*
X103289030Y-108665671D01*
X103270000Y-108570001D01*
X103270000Y-107329999D01*
X103289030Y-107234329D01*
X103343223Y-107153223D01*
X103424329Y-107099030D01*
X103519999Y-107080000D01*
X104760001Y-107080000D01*
X104855671Y-107099030D01*
G37*
G04 #@! TD.AperFunction*
X95250000Y-115570000D03*
X95250000Y-113030000D03*
X95250000Y-110490000D03*
G04 #@! TA.AperFunction,ComponentPad*
G36*
X95965671Y-107099030D02*
G01*
X96046777Y-107153223D01*
X96100970Y-107234329D01*
X96120000Y-107329999D01*
X96120000Y-108570001D01*
X96100970Y-108665671D01*
X96046777Y-108746777D01*
X95965671Y-108800970D01*
X95870001Y-108820000D01*
X94629999Y-108820000D01*
X94534329Y-108800970D01*
X94453223Y-108746777D01*
X94399030Y-108665671D01*
X94380000Y-108570001D01*
X94380000Y-107329999D01*
X94399030Y-107234329D01*
X94453223Y-107153223D01*
X94534329Y-107099030D01*
X94629999Y-107080000D01*
X95870001Y-107080000D01*
X95965671Y-107099030D01*
G37*
G04 #@! TD.AperFunction*
X86360000Y-115570000D03*
X86360000Y-113030000D03*
X86360000Y-110490000D03*
G04 #@! TA.AperFunction,ComponentPad*
G36*
X87075671Y-107099030D02*
G01*
X87156777Y-107153223D01*
X87210970Y-107234329D01*
X87230000Y-107329999D01*
X87230000Y-108570001D01*
X87210970Y-108665671D01*
X87156777Y-108746777D01*
X87075671Y-108800970D01*
X86980001Y-108820000D01*
X85739999Y-108820000D01*
X85644329Y-108800970D01*
X85563223Y-108746777D01*
X85509030Y-108665671D01*
X85490000Y-108570001D01*
X85490000Y-107329999D01*
X85509030Y-107234329D01*
X85563223Y-107153223D01*
X85644329Y-107099030D01*
X85739999Y-107080000D01*
X86980001Y-107080000D01*
X87075671Y-107099030D01*
G37*
G04 #@! TD.AperFunction*
X77470000Y-115570000D03*
X77470000Y-113030000D03*
X77470000Y-110490000D03*
G04 #@! TA.AperFunction,ComponentPad*
G36*
X78185671Y-107099030D02*
G01*
X78266777Y-107153223D01*
X78320970Y-107234329D01*
X78340000Y-107329999D01*
X78340000Y-108570001D01*
X78320970Y-108665671D01*
X78266777Y-108746777D01*
X78185671Y-108800970D01*
X78090001Y-108820000D01*
X76849999Y-108820000D01*
X76754329Y-108800970D01*
X76673223Y-108746777D01*
X76619030Y-108665671D01*
X76600000Y-108570001D01*
X76600000Y-107329999D01*
X76619030Y-107234329D01*
X76673223Y-107153223D01*
X76754329Y-107099030D01*
X76849999Y-107080000D01*
X78090001Y-107080000D01*
X78185671Y-107099030D01*
G37*
G04 #@! TD.AperFunction*
X148590000Y-110490000D03*
G04 #@! TA.AperFunction,ComponentPad*
G36*
X149305671Y-107099030D02*
G01*
X149386777Y-107153223D01*
X149440970Y-107234329D01*
X149460000Y-107329999D01*
X149460000Y-108570001D01*
X149440970Y-108665671D01*
X149386777Y-108746777D01*
X149305671Y-108800970D01*
X149210001Y-108820000D01*
X147969999Y-108820000D01*
X147874329Y-108800970D01*
X147793223Y-108746777D01*
X147739030Y-108665671D01*
X147720000Y-108570001D01*
X147720000Y-107329999D01*
X147739030Y-107234329D01*
X147793223Y-107153223D01*
X147874329Y-107099030D01*
X147969999Y-107080000D01*
X149210001Y-107080000D01*
X149305671Y-107099030D01*
G37*
G04 #@! TD.AperFunction*
D11*
X141350000Y-118110000D03*
X138050000Y-118110000D03*
X135000000Y-118110000D03*
X131700000Y-118110000D03*
X127380000Y-118110000D03*
X124080000Y-118110000D03*
X118490000Y-118110000D03*
X115190000Y-118110000D03*
X109600000Y-118110000D03*
X106300000Y-118110000D03*
X100710000Y-118110000D03*
X97410000Y-118110000D03*
X91820000Y-118110000D03*
X88520000Y-118110000D03*
X84200000Y-118110000D03*
X80900000Y-118110000D03*
G04 #@! TA.AperFunction,SMDPad,CuDef*
G36*
X163225671Y-108412030D02*
G01*
X163306777Y-108466223D01*
X163360970Y-108547329D01*
X163380000Y-108642999D01*
X163380000Y-109543001D01*
X163360970Y-109638671D01*
X163306777Y-109719777D01*
X163225671Y-109773970D01*
X163130001Y-109793000D01*
X162479999Y-109793000D01*
X162384329Y-109773970D01*
X162303223Y-109719777D01*
X162249030Y-109638671D01*
X162230000Y-109543001D01*
X162230000Y-108642999D01*
X162249030Y-108547329D01*
X162303223Y-108466223D01*
X162384329Y-108412030D01*
X162479999Y-108393000D01*
X163130001Y-108393000D01*
X163225671Y-108412030D01*
G37*
G04 #@! TD.AperFunction*
G04 #@! TA.AperFunction,SMDPad,CuDef*
G36*
X165275671Y-108412030D02*
G01*
X165356777Y-108466223D01*
X165410970Y-108547329D01*
X165430000Y-108642999D01*
X165430000Y-109543001D01*
X165410970Y-109638671D01*
X165356777Y-109719777D01*
X165275671Y-109773970D01*
X165180001Y-109793000D01*
X164529999Y-109793000D01*
X164434329Y-109773970D01*
X164353223Y-109719777D01*
X164299030Y-109638671D01*
X164280000Y-109543001D01*
X164280000Y-108642999D01*
X164299030Y-108547329D01*
X164353223Y-108466223D01*
X164434329Y-108412030D01*
X164529999Y-108393000D01*
X165180001Y-108393000D01*
X165275671Y-108412030D01*
G37*
G04 #@! TD.AperFunction*
G04 #@! TA.AperFunction,SMDPad,CuDef*
G36*
X166781671Y-119715030D02*
G01*
X166862777Y-119769223D01*
X166916970Y-119850329D01*
X166936000Y-119945999D01*
X166936000Y-120846001D01*
X166916970Y-120941671D01*
X166862777Y-121022777D01*
X166781671Y-121076970D01*
X166686001Y-121096000D01*
X166035999Y-121096000D01*
X165940329Y-121076970D01*
X165859223Y-121022777D01*
X165805030Y-120941671D01*
X165786000Y-120846001D01*
X165786000Y-119945999D01*
X165805030Y-119850329D01*
X165859223Y-119769223D01*
X165940329Y-119715030D01*
X166035999Y-119696000D01*
X166686001Y-119696000D01*
X166781671Y-119715030D01*
G37*
G04 #@! TD.AperFunction*
G04 #@! TA.AperFunction,SMDPad,CuDef*
G36*
X168831671Y-119715030D02*
G01*
X168912777Y-119769223D01*
X168966970Y-119850329D01*
X168986000Y-119945999D01*
X168986000Y-120846001D01*
X168966970Y-120941671D01*
X168912777Y-121022777D01*
X168831671Y-121076970D01*
X168736001Y-121096000D01*
X168085999Y-121096000D01*
X167990329Y-121076970D01*
X167909223Y-121022777D01*
X167855030Y-120941671D01*
X167836000Y-120846001D01*
X167836000Y-119945999D01*
X167855030Y-119850329D01*
X167909223Y-119769223D01*
X167990329Y-119715030D01*
X168085999Y-119696000D01*
X168736001Y-119696000D01*
X168831671Y-119715030D01*
G37*
G04 #@! TD.AperFunction*
G04 #@! TA.AperFunction,SMDPad,CuDef*
G36*
X159288671Y-108412030D02*
G01*
X159369777Y-108466223D01*
X159423970Y-108547329D01*
X159443000Y-108642999D01*
X159443000Y-109543001D01*
X159423970Y-109638671D01*
X159369777Y-109719777D01*
X159288671Y-109773970D01*
X159193001Y-109793000D01*
X158542999Y-109793000D01*
X158447329Y-109773970D01*
X158366223Y-109719777D01*
X158312030Y-109638671D01*
X158293000Y-109543001D01*
X158293000Y-108642999D01*
X158312030Y-108547329D01*
X158366223Y-108466223D01*
X158447329Y-108412030D01*
X158542999Y-108393000D01*
X159193001Y-108393000D01*
X159288671Y-108412030D01*
G37*
G04 #@! TD.AperFunction*
G04 #@! TA.AperFunction,SMDPad,CuDef*
G36*
X161338671Y-108412030D02*
G01*
X161419777Y-108466223D01*
X161473970Y-108547329D01*
X161493000Y-108642999D01*
X161493000Y-109543001D01*
X161473970Y-109638671D01*
X161419777Y-109719777D01*
X161338671Y-109773970D01*
X161243001Y-109793000D01*
X160592999Y-109793000D01*
X160497329Y-109773970D01*
X160416223Y-109719777D01*
X160362030Y-109638671D01*
X160343000Y-109543001D01*
X160343000Y-108642999D01*
X160362030Y-108547329D01*
X160416223Y-108466223D01*
X160497329Y-108412030D01*
X160592999Y-108393000D01*
X161243001Y-108393000D01*
X161338671Y-108412030D01*
G37*
G04 #@! TD.AperFunction*
G04 #@! TA.AperFunction,SMDPad,CuDef*
G36*
X168831671Y-117683030D02*
G01*
X168912777Y-117737223D01*
X168966970Y-117818329D01*
X168986000Y-117913999D01*
X168986000Y-118814001D01*
X168966970Y-118909671D01*
X168912777Y-118990777D01*
X168831671Y-119044970D01*
X168736001Y-119064000D01*
X168085999Y-119064000D01*
X167990329Y-119044970D01*
X167909223Y-118990777D01*
X167855030Y-118909671D01*
X167836000Y-118814001D01*
X167836000Y-117913999D01*
X167855030Y-117818329D01*
X167909223Y-117737223D01*
X167990329Y-117683030D01*
X168085999Y-117664000D01*
X168736001Y-117664000D01*
X168831671Y-117683030D01*
G37*
G04 #@! TD.AperFunction*
G04 #@! TA.AperFunction,SMDPad,CuDef*
G36*
X166781671Y-117683030D02*
G01*
X166862777Y-117737223D01*
X166916970Y-117818329D01*
X166936000Y-117913999D01*
X166936000Y-118814001D01*
X166916970Y-118909671D01*
X166862777Y-118990777D01*
X166781671Y-119044970D01*
X166686001Y-119064000D01*
X166035999Y-119064000D01*
X165940329Y-119044970D01*
X165859223Y-118990777D01*
X165805030Y-118909671D01*
X165786000Y-118814001D01*
X165786000Y-117913999D01*
X165805030Y-117818329D01*
X165859223Y-117737223D01*
X165940329Y-117683030D01*
X166035999Y-117664000D01*
X166686001Y-117664000D01*
X166781671Y-117683030D01*
G37*
G04 #@! TD.AperFunction*
G04 #@! TA.AperFunction,SMDPad,CuDef*
G36*
X164259671Y-117175030D02*
G01*
X164340777Y-117229223D01*
X164394970Y-117310329D01*
X164414000Y-117405999D01*
X164414000Y-118306001D01*
X164394970Y-118401671D01*
X164340777Y-118482777D01*
X164259671Y-118536970D01*
X164164001Y-118556000D01*
X163513999Y-118556000D01*
X163418329Y-118536970D01*
X163337223Y-118482777D01*
X163283030Y-118401671D01*
X163264000Y-118306001D01*
X163264000Y-117405999D01*
X163283030Y-117310329D01*
X163337223Y-117229223D01*
X163418329Y-117175030D01*
X163513999Y-117156000D01*
X164164001Y-117156000D01*
X164259671Y-117175030D01*
G37*
G04 #@! TD.AperFunction*
G04 #@! TA.AperFunction,SMDPad,CuDef*
G36*
X162209671Y-117175030D02*
G01*
X162290777Y-117229223D01*
X162344970Y-117310329D01*
X162364000Y-117405999D01*
X162364000Y-118306001D01*
X162344970Y-118401671D01*
X162290777Y-118482777D01*
X162209671Y-118536970D01*
X162114001Y-118556000D01*
X161463999Y-118556000D01*
X161368329Y-118536970D01*
X161287223Y-118482777D01*
X161233030Y-118401671D01*
X161214000Y-118306001D01*
X161214000Y-117405999D01*
X161233030Y-117310329D01*
X161287223Y-117229223D01*
X161368329Y-117175030D01*
X161463999Y-117156000D01*
X162114001Y-117156000D01*
X162209671Y-117175030D01*
G37*
G04 #@! TD.AperFunction*
G04 #@! TA.AperFunction,SMDPad,CuDef*
G36*
X166781671Y-111968030D02*
G01*
X166862777Y-112022223D01*
X166916970Y-112103329D01*
X166936000Y-112198999D01*
X166936000Y-113099001D01*
X166916970Y-113194671D01*
X166862777Y-113275777D01*
X166781671Y-113329970D01*
X166686001Y-113349000D01*
X166035999Y-113349000D01*
X165940329Y-113329970D01*
X165859223Y-113275777D01*
X165805030Y-113194671D01*
X165786000Y-113099001D01*
X165786000Y-112198999D01*
X165805030Y-112103329D01*
X165859223Y-112022223D01*
X165940329Y-111968030D01*
X166035999Y-111949000D01*
X166686001Y-111949000D01*
X166781671Y-111968030D01*
G37*
G04 #@! TD.AperFunction*
G04 #@! TA.AperFunction,SMDPad,CuDef*
G36*
X168831671Y-111968030D02*
G01*
X168912777Y-112022223D01*
X168966970Y-112103329D01*
X168986000Y-112198999D01*
X168986000Y-113099001D01*
X168966970Y-113194671D01*
X168912777Y-113275777D01*
X168831671Y-113329970D01*
X168736001Y-113349000D01*
X168085999Y-113349000D01*
X167990329Y-113329970D01*
X167909223Y-113275777D01*
X167855030Y-113194671D01*
X167836000Y-113099001D01*
X167836000Y-112198999D01*
X167855030Y-112103329D01*
X167909223Y-112022223D01*
X167990329Y-111968030D01*
X168085999Y-111949000D01*
X168736001Y-111949000D01*
X168831671Y-111968030D01*
G37*
G04 #@! TD.AperFunction*
G04 #@! TA.AperFunction,SMDPad,CuDef*
G36*
X167289671Y-109555030D02*
G01*
X167370777Y-109609223D01*
X167424970Y-109690329D01*
X167444000Y-109785999D01*
X167444000Y-110686001D01*
X167424970Y-110781671D01*
X167370777Y-110862777D01*
X167289671Y-110916970D01*
X167194001Y-110936000D01*
X166543999Y-110936000D01*
X166448329Y-110916970D01*
X166367223Y-110862777D01*
X166313030Y-110781671D01*
X166294000Y-110686001D01*
X166294000Y-109785999D01*
X166313030Y-109690329D01*
X166367223Y-109609223D01*
X166448329Y-109555030D01*
X166543999Y-109536000D01*
X167194001Y-109536000D01*
X167289671Y-109555030D01*
G37*
G04 #@! TD.AperFunction*
G04 #@! TA.AperFunction,SMDPad,CuDef*
G36*
X169339671Y-109555030D02*
G01*
X169420777Y-109609223D01*
X169474970Y-109690329D01*
X169494000Y-109785999D01*
X169494000Y-110686001D01*
X169474970Y-110781671D01*
X169420777Y-110862777D01*
X169339671Y-110916970D01*
X169244001Y-110936000D01*
X168593999Y-110936000D01*
X168498329Y-110916970D01*
X168417223Y-110862777D01*
X168363030Y-110781671D01*
X168344000Y-110686001D01*
X168344000Y-109785999D01*
X168363030Y-109690329D01*
X168417223Y-109609223D01*
X168498329Y-109555030D01*
X168593999Y-109536000D01*
X169244001Y-109536000D01*
X169339671Y-109555030D01*
G37*
G04 #@! TD.AperFunction*
G04 #@! TA.AperFunction,SMDPad,CuDef*
G36*
X157947671Y-114714030D02*
G01*
X158028777Y-114768223D01*
X158082970Y-114849329D01*
X158102000Y-114945000D01*
X158102000Y-116195000D01*
X158082970Y-116290671D01*
X158028777Y-116371777D01*
X157947671Y-116425970D01*
X157852000Y-116445000D01*
X156927000Y-116445000D01*
X156831329Y-116425970D01*
X156750223Y-116371777D01*
X156696030Y-116290671D01*
X156677000Y-116195000D01*
X156677000Y-114945000D01*
X156696030Y-114849329D01*
X156750223Y-114768223D01*
X156831329Y-114714030D01*
X156927000Y-114695000D01*
X157852000Y-114695000D01*
X157947671Y-114714030D01*
G37*
G04 #@! TD.AperFunction*
G04 #@! TA.AperFunction,SMDPad,CuDef*
G36*
X160922671Y-114714030D02*
G01*
X161003777Y-114768223D01*
X161057970Y-114849329D01*
X161077000Y-114945000D01*
X161077000Y-116195000D01*
X161057970Y-116290671D01*
X161003777Y-116371777D01*
X160922671Y-116425970D01*
X160827000Y-116445000D01*
X159902000Y-116445000D01*
X159806329Y-116425970D01*
X159725223Y-116371777D01*
X159671030Y-116290671D01*
X159652000Y-116195000D01*
X159652000Y-114945000D01*
X159671030Y-114849329D01*
X159725223Y-114768223D01*
X159806329Y-114714030D01*
X159902000Y-114695000D01*
X160827000Y-114695000D01*
X160922671Y-114714030D01*
G37*
G04 #@! TD.AperFunction*
G04 #@! TA.AperFunction,SMDPad,CuDef*
G36*
X160922671Y-112174030D02*
G01*
X161003777Y-112228223D01*
X161057970Y-112309329D01*
X161077000Y-112405000D01*
X161077000Y-113655000D01*
X161057970Y-113750671D01*
X161003777Y-113831777D01*
X160922671Y-113885970D01*
X160827000Y-113905000D01*
X159902000Y-113905000D01*
X159806329Y-113885970D01*
X159725223Y-113831777D01*
X159671030Y-113750671D01*
X159652000Y-113655000D01*
X159652000Y-112405000D01*
X159671030Y-112309329D01*
X159725223Y-112228223D01*
X159806329Y-112174030D01*
X159902000Y-112155000D01*
X160827000Y-112155000D01*
X160922671Y-112174030D01*
G37*
G04 #@! TD.AperFunction*
G04 #@! TA.AperFunction,SMDPad,CuDef*
G36*
X157947671Y-112174030D02*
G01*
X158028777Y-112228223D01*
X158082970Y-112309329D01*
X158102000Y-112405000D01*
X158102000Y-113655000D01*
X158082970Y-113750671D01*
X158028777Y-113831777D01*
X157947671Y-113885970D01*
X157852000Y-113905000D01*
X156927000Y-113905000D01*
X156831329Y-113885970D01*
X156750223Y-113831777D01*
X156696030Y-113750671D01*
X156677000Y-113655000D01*
X156677000Y-112405000D01*
X156696030Y-112309329D01*
X156750223Y-112228223D01*
X156831329Y-112174030D01*
X156927000Y-112155000D01*
X157852000Y-112155000D01*
X157947671Y-112174030D01*
G37*
G04 #@! TD.AperFunction*
D12*
X176530000Y-110490000D03*
D13*
X176530000Y-112990000D03*
X178530000Y-112990000D03*
X178530000Y-110490000D03*
D14*
X181240000Y-105720000D03*
X181240000Y-117760000D03*
G04 #@! TA.AperFunction,SMDPad,CuDef*
G36*
X164894671Y-111714030D02*
G01*
X164975777Y-111768223D01*
X165029970Y-111849329D01*
X165049000Y-111944999D01*
X165049000Y-112845001D01*
X165029970Y-112940671D01*
X164975777Y-113021777D01*
X164894671Y-113075970D01*
X164799001Y-113095000D01*
X164148999Y-113095000D01*
X164053329Y-113075970D01*
X163972223Y-113021777D01*
X163918030Y-112940671D01*
X163899000Y-112845001D01*
X163899000Y-111944999D01*
X163918030Y-111849329D01*
X163972223Y-111768223D01*
X164053329Y-111714030D01*
X164148999Y-111695000D01*
X164799001Y-111695000D01*
X164894671Y-111714030D01*
G37*
G04 #@! TD.AperFunction*
G04 #@! TA.AperFunction,SMDPad,CuDef*
G36*
X162844671Y-111714030D02*
G01*
X162925777Y-111768223D01*
X162979970Y-111849329D01*
X162999000Y-111944999D01*
X162999000Y-112845001D01*
X162979970Y-112940671D01*
X162925777Y-113021777D01*
X162844671Y-113075970D01*
X162749001Y-113095000D01*
X162098999Y-113095000D01*
X162003329Y-113075970D01*
X161922223Y-113021777D01*
X161868030Y-112940671D01*
X161849000Y-112845001D01*
X161849000Y-111944999D01*
X161868030Y-111849329D01*
X161922223Y-111768223D01*
X162003329Y-111714030D01*
X162098999Y-111695000D01*
X162749001Y-111695000D01*
X162844671Y-111714030D01*
G37*
G04 #@! TD.AperFunction*
G04 #@! TA.AperFunction,SMDPad,CuDef*
G36*
X153700671Y-112349030D02*
G01*
X153781777Y-112403223D01*
X153835970Y-112484329D01*
X153855000Y-112579999D01*
X153855000Y-113480001D01*
X153835970Y-113575671D01*
X153781777Y-113656777D01*
X153700671Y-113710970D01*
X153605001Y-113730000D01*
X152954999Y-113730000D01*
X152859329Y-113710970D01*
X152778223Y-113656777D01*
X152724030Y-113575671D01*
X152705000Y-113480001D01*
X152705000Y-112579999D01*
X152724030Y-112484329D01*
X152778223Y-112403223D01*
X152859329Y-112349030D01*
X152954999Y-112330000D01*
X153605001Y-112330000D01*
X153700671Y-112349030D01*
G37*
G04 #@! TD.AperFunction*
G04 #@! TA.AperFunction,SMDPad,CuDef*
G36*
X155750671Y-112349030D02*
G01*
X155831777Y-112403223D01*
X155885970Y-112484329D01*
X155905000Y-112579999D01*
X155905000Y-113480001D01*
X155885970Y-113575671D01*
X155831777Y-113656777D01*
X155750671Y-113710970D01*
X155655001Y-113730000D01*
X155004999Y-113730000D01*
X154909329Y-113710970D01*
X154828223Y-113656777D01*
X154774030Y-113575671D01*
X154755000Y-113480001D01*
X154755000Y-112579999D01*
X154774030Y-112484329D01*
X154828223Y-112403223D01*
X154909329Y-112349030D01*
X155004999Y-112330000D01*
X155655001Y-112330000D01*
X155750671Y-112349030D01*
G37*
G04 #@! TD.AperFunction*
G04 #@! TA.AperFunction,SMDPad,CuDef*
G36*
X155750671Y-114889030D02*
G01*
X155831777Y-114943223D01*
X155885970Y-115024329D01*
X155905000Y-115119999D01*
X155905000Y-116020001D01*
X155885970Y-116115671D01*
X155831777Y-116196777D01*
X155750671Y-116250970D01*
X155655001Y-116270000D01*
X155004999Y-116270000D01*
X154909329Y-116250970D01*
X154828223Y-116196777D01*
X154774030Y-116115671D01*
X154755000Y-116020001D01*
X154755000Y-115119999D01*
X154774030Y-115024329D01*
X154828223Y-114943223D01*
X154909329Y-114889030D01*
X155004999Y-114870000D01*
X155655001Y-114870000D01*
X155750671Y-114889030D01*
G37*
G04 #@! TD.AperFunction*
G04 #@! TA.AperFunction,SMDPad,CuDef*
G36*
X153700671Y-114889030D02*
G01*
X153781777Y-114943223D01*
X153835970Y-115024329D01*
X153855000Y-115119999D01*
X153855000Y-116020001D01*
X153835970Y-116115671D01*
X153781777Y-116196777D01*
X153700671Y-116250970D01*
X153605001Y-116270000D01*
X152954999Y-116270000D01*
X152859329Y-116250970D01*
X152778223Y-116196777D01*
X152724030Y-116115671D01*
X152705000Y-116020001D01*
X152705000Y-115119999D01*
X152724030Y-115024329D01*
X152778223Y-114943223D01*
X152859329Y-114889030D01*
X152954999Y-114870000D01*
X153605001Y-114870000D01*
X153700671Y-114889030D01*
G37*
G04 #@! TD.AperFunction*
D15*
X166386000Y-116520000D03*
X166386000Y-114620000D03*
X168386000Y-115570000D03*
D16*
X163830000Y-106045000D03*
X158950000Y-106045000D03*
D17*
X170180000Y-104140000D03*
X170180000Y-109855000D03*
X168910000Y-106680000D03*
X160528000Y-117729000D03*
X165354000Y-113665000D03*
X166370000Y-109220000D03*
X159131000Y-111760000D03*
X160401000Y-111506000D03*
X161671000Y-111506000D03*
X156205761Y-118098790D03*
X162560000Y-115570000D03*
X158750000Y-116840000D03*
X165735000Y-121285000D03*
D18*
X168919000Y-110236000D02*
X169799000Y-110236000D01*
X169799000Y-110236000D02*
X170180000Y-109855000D01*
X172974000Y-110490000D02*
X172230000Y-110490000D01*
X172230000Y-110490000D02*
X172085000Y-110635000D01*
X172085000Y-106535000D02*
X169055000Y-106535000D01*
X169055000Y-106535000D02*
X168910000Y-106680000D01*
X169330001Y-108370001D02*
X167219999Y-108370001D01*
X170854001Y-108370001D02*
X169330001Y-108370001D01*
X169330001Y-108370001D02*
X171870001Y-108370001D01*
X171870001Y-108370001D02*
X172085000Y-108585000D01*
X153280000Y-115570000D02*
X153280000Y-113030000D01*
X160918000Y-109093000D02*
X162805000Y-109093000D01*
D19*
X163830000Y-108068000D02*
X164855000Y-109093000D01*
X163830000Y-106045000D02*
X163830000Y-108068000D01*
D18*
X172974000Y-110490000D02*
X171704000Y-111760000D01*
X176530000Y-110490000D02*
X172974000Y-110490000D01*
X168411000Y-120396000D02*
X168411000Y-118364000D01*
X168411000Y-115595000D02*
X168386000Y-115570000D01*
X168411000Y-118364000D02*
X168411000Y-115595000D01*
X168386000Y-115078000D02*
X171704000Y-111760000D01*
X168386000Y-115570000D02*
X168386000Y-115078000D01*
D19*
X158950000Y-109011000D02*
X158868000Y-109093000D01*
X158950000Y-106045000D02*
X158950000Y-109011000D01*
X166386000Y-112674000D02*
X166361000Y-112649000D01*
X165025000Y-114620000D02*
X161789000Y-117856000D01*
X166386000Y-114620000D02*
X165025000Y-114620000D01*
X161662000Y-117729000D02*
X161789000Y-117856000D01*
X160528000Y-117729000D02*
X161662000Y-117729000D01*
D18*
X165354000Y-113656000D02*
X166361000Y-112649000D01*
X165354000Y-113665000D02*
X165354000Y-113656000D01*
X165431000Y-113665000D02*
X166386000Y-114620000D01*
X165354000Y-113665000D02*
X165431000Y-113665000D01*
D19*
X166869000Y-109719000D02*
X166370000Y-109220000D01*
X166869000Y-110236000D02*
X166869000Y-109719000D01*
X166633000Y-110236000D02*
X166869000Y-110236000D01*
X164474000Y-112395000D02*
X166633000Y-110236000D01*
D18*
X166769999Y-108820001D02*
X166370000Y-109220000D01*
X167219999Y-108370001D02*
X166769999Y-108820001D01*
D19*
X157389500Y-115570000D02*
X155330000Y-115570000D01*
X159131000Y-114336500D02*
X159131000Y-111760000D01*
X160364500Y-115570000D02*
X159131000Y-114336500D01*
X160364500Y-111542500D02*
X160401000Y-111506000D01*
X160364500Y-113030000D02*
X160364500Y-111542500D01*
X157389500Y-113030000D02*
X155330000Y-113030000D01*
X162424000Y-112259000D02*
X161671000Y-111506000D01*
X162424000Y-112395000D02*
X162424000Y-112259000D01*
D20*
X77470000Y-107950000D02*
X86360000Y-107950000D01*
X86360000Y-107950000D02*
X95250000Y-107950000D01*
X95250000Y-107950000D02*
X104140000Y-107950000D01*
X104140000Y-107950000D02*
X113030000Y-107950000D01*
X113030000Y-107950000D02*
X121920000Y-107950000D01*
X121920000Y-107950000D02*
X130810000Y-107950000D01*
X130810000Y-107950000D02*
X139700000Y-107950000D01*
X139700000Y-107950000D02*
X148590000Y-107950000D01*
X148590000Y-110490000D02*
X139700000Y-110490000D01*
X139700000Y-110490000D02*
X130810000Y-110490000D01*
X130810000Y-110490000D02*
X121920000Y-110490000D01*
X121920000Y-110490000D02*
X113030000Y-110490000D01*
X113030000Y-110490000D02*
X104140000Y-110490000D01*
X104140000Y-110490000D02*
X95250000Y-110490000D01*
X95250000Y-110490000D02*
X86360000Y-110490000D01*
X86360000Y-110490000D02*
X77470000Y-110490000D01*
D18*
X77470000Y-113030000D02*
X78740000Y-113030000D01*
X80900000Y-115190000D02*
X80900000Y-118110000D01*
X78740000Y-113030000D02*
X80900000Y-115190000D01*
X86360000Y-113030000D02*
X87630000Y-113030000D01*
X87630000Y-113030000D02*
X88900000Y-114300000D01*
X88520000Y-114680000D02*
X88520000Y-118110000D01*
X88900000Y-114300000D02*
X88520000Y-114680000D01*
X95250000Y-113030000D02*
X96520000Y-113030000D01*
X97410000Y-113920000D02*
X97410000Y-118110000D01*
X96520000Y-113030000D02*
X97410000Y-113920000D01*
X104140000Y-113030000D02*
X105410000Y-113030000D01*
X106300000Y-113920000D02*
X106300000Y-118110000D01*
X105410000Y-113030000D02*
X106300000Y-113920000D01*
X113030000Y-113030000D02*
X114300000Y-113030000D01*
X115190000Y-113920000D02*
X115190000Y-118110000D01*
X114300000Y-113030000D02*
X115190000Y-113920000D01*
X121920000Y-113030000D02*
X123190000Y-113030000D01*
X124080000Y-113920000D02*
X124080000Y-118110000D01*
X123190000Y-113030000D02*
X124080000Y-113920000D01*
X133350000Y-114300000D02*
X133350000Y-116460000D01*
X133350000Y-116460000D02*
X131700000Y-118110000D01*
X132080000Y-113030000D02*
X133350000Y-114300000D01*
X130810000Y-113030000D02*
X132080000Y-113030000D01*
X139700000Y-113030000D02*
X138430000Y-113030000D01*
X138430000Y-113030000D02*
X137160000Y-114300000D01*
X137160000Y-117220000D02*
X138050000Y-118110000D01*
X137160000Y-114300000D02*
X137160000Y-117220000D01*
X84200000Y-118110000D02*
X84200000Y-119760000D01*
X84200000Y-119760000D02*
X85090000Y-120650000D01*
X142240000Y-119000000D02*
X141350000Y-118110000D01*
X142240000Y-120650000D02*
X142240000Y-119000000D01*
X135000000Y-120270000D02*
X134620000Y-120650000D01*
X135000000Y-118110000D02*
X135000000Y-120270000D01*
X134620000Y-120650000D02*
X142240000Y-120650000D01*
X127380000Y-120270000D02*
X127000000Y-120650000D01*
X127380000Y-118110000D02*
X127380000Y-120270000D01*
X127000000Y-120650000D02*
X134620000Y-120650000D01*
X118490000Y-120270000D02*
X118110000Y-120650000D01*
X118110000Y-120650000D02*
X127000000Y-120650000D01*
X118490000Y-118110000D02*
X118490000Y-120270000D01*
X109600000Y-120270000D02*
X109220000Y-120650000D01*
X109600000Y-118110000D02*
X109600000Y-120270000D01*
X109220000Y-120650000D02*
X118110000Y-120650000D01*
X100710000Y-120270000D02*
X100330000Y-120650000D01*
X100330000Y-120650000D02*
X109220000Y-120650000D01*
X100710000Y-118110000D02*
X100710000Y-120270000D01*
X91820000Y-118110000D02*
X91820000Y-120270000D01*
X91440000Y-120650000D02*
X100330000Y-120650000D01*
X91820000Y-120270000D02*
X91440000Y-120650000D01*
X85090000Y-120650000D02*
X91440000Y-120650000D01*
X151130000Y-113030000D02*
X148590000Y-110490000D01*
X153280000Y-113030000D02*
X151130000Y-113030000D01*
X151130000Y-115570000D02*
X151130000Y-116840000D01*
X148590000Y-113030000D02*
X151130000Y-115570000D01*
X144780000Y-113030000D02*
X148590000Y-113030000D01*
X141350000Y-116460000D02*
X144780000Y-113030000D01*
X153670000Y-119380000D02*
X156455000Y-119380000D01*
X151130000Y-116840000D02*
X153670000Y-119380000D01*
X141350000Y-118110000D02*
X141350000Y-116460000D01*
X166361000Y-120396000D02*
X166361000Y-118364000D01*
X164347000Y-118364000D02*
X163839000Y-117856000D01*
X166361000Y-118364000D02*
X164347000Y-118364000D01*
X166386000Y-118339000D02*
X166361000Y-118364000D01*
X166386000Y-116520000D02*
X166386000Y-118339000D01*
X156455000Y-118348029D02*
X156205761Y-118098790D01*
X156455000Y-119380000D02*
X156455000Y-118348029D01*
X168411000Y-110744000D02*
X168919000Y-110236000D01*
X168411000Y-112649000D02*
X168411000Y-110744000D01*
X160918000Y-109093000D02*
X159521000Y-110490000D01*
X159521000Y-110490000D02*
X153670000Y-110490000D01*
X153670000Y-112640000D02*
X153280000Y-113030000D01*
X153670000Y-110490000D02*
X153670000Y-112640000D01*
X162560000Y-114309000D02*
X162560000Y-115570000D01*
X164474000Y-112395000D02*
X162560000Y-114309000D01*
X158750000Y-119135000D02*
X158505000Y-119380000D01*
X158750000Y-116840000D02*
X158750000Y-119135000D01*
X160918000Y-105782000D02*
X160918000Y-109093000D01*
X162560000Y-104140000D02*
X160918000Y-105782000D01*
X175570000Y-105720000D02*
X173990000Y-104140000D01*
X173990000Y-104140000D02*
X162560000Y-104140000D01*
X181240000Y-105720000D02*
X175570000Y-105720000D01*
X166361000Y-120659000D02*
X165735000Y-121285000D01*
X166361000Y-120396000D02*
X166361000Y-120659000D01*
G36*
X150176500Y-115964952D02*
G01*
X150176501Y-116777501D01*
X150169360Y-116831741D01*
X150169360Y-116848259D01*
X150199956Y-117080654D01*
X150204231Y-117096608D01*
X150293933Y-117313167D01*
X150302191Y-117327471D01*
X150342884Y-117380504D01*
X150444886Y-117513436D01*
X150456565Y-117525115D01*
X150499970Y-117558421D01*
X152951579Y-120010031D01*
X152984885Y-120053436D01*
X152996564Y-120065115D01*
X153182528Y-120207809D01*
X153196832Y-120216067D01*
X153413391Y-120305769D01*
X153429345Y-120310044D01*
X153599321Y-120332422D01*
X153661740Y-120340640D01*
X153678258Y-120340640D01*
X153732489Y-120333500D01*
X155406990Y-120333500D01*
X155452696Y-120404620D01*
X155464499Y-120418241D01*
X155642849Y-120572783D01*
X155658011Y-120582527D01*
X155872676Y-120680561D01*
X155889969Y-120685639D01*
X156119093Y-120718582D01*
X156128070Y-120719224D01*
X156784184Y-120719224D01*
X156797614Y-120717780D01*
X157133353Y-120644745D01*
X157154188Y-120636115D01*
X157354620Y-120507304D01*
X157368241Y-120495501D01*
X157478974Y-120367709D01*
X157502696Y-120404620D01*
X157514499Y-120418241D01*
X157692849Y-120572783D01*
X157708011Y-120582527D01*
X157922676Y-120680561D01*
X157939969Y-120685639D01*
X158169093Y-120718582D01*
X158178070Y-120719224D01*
X158834184Y-120719224D01*
X158847614Y-120717780D01*
X159183353Y-120644745D01*
X159204188Y-120636115D01*
X159404620Y-120507304D01*
X159418241Y-120495501D01*
X159572783Y-120317151D01*
X159582527Y-120301989D01*
X159680561Y-120087324D01*
X159685639Y-120070031D01*
X159718582Y-119840907D01*
X159719224Y-119831930D01*
X159719224Y-118925816D01*
X159717780Y-118912386D01*
X159703500Y-118846740D01*
X159703500Y-118369205D01*
X159704884Y-118371009D01*
X159885991Y-118552116D01*
X159899095Y-118562171D01*
X160120905Y-118690233D01*
X160136165Y-118696554D01*
X160383562Y-118762844D01*
X160399938Y-118765000D01*
X160656063Y-118765000D01*
X160672438Y-118762844D01*
X160705340Y-118754028D01*
X160786696Y-118880620D01*
X160798499Y-118894241D01*
X160976849Y-119048783D01*
X160992011Y-119058527D01*
X161206676Y-119156561D01*
X161223969Y-119161639D01*
X161453093Y-119194582D01*
X161462070Y-119195224D01*
X162118184Y-119195224D01*
X162131614Y-119193780D01*
X162467353Y-119120745D01*
X162488188Y-119112115D01*
X162688620Y-118983304D01*
X162702241Y-118971501D01*
X162812974Y-118843709D01*
X162836696Y-118880620D01*
X162848499Y-118894241D01*
X163026849Y-119048783D01*
X163042011Y-119058527D01*
X163256676Y-119156561D01*
X163273969Y-119161639D01*
X163503093Y-119194582D01*
X163512070Y-119195224D01*
X163637191Y-119195224D01*
X163711000Y-119121415D01*
X163711000Y-118057809D01*
X163967000Y-118057809D01*
X163967000Y-119121415D01*
X164040809Y-119195224D01*
X164168184Y-119195224D01*
X164181614Y-119193780D01*
X164517353Y-119120745D01*
X164538188Y-119112115D01*
X164738620Y-118983304D01*
X164752241Y-118971501D01*
X164906783Y-118793151D01*
X164916527Y-118777989D01*
X165014561Y-118563324D01*
X165019639Y-118546031D01*
X165052582Y-118316907D01*
X165053224Y-118307930D01*
X165053224Y-118057809D01*
X164979415Y-117984000D01*
X164040809Y-117984000D01*
X163967000Y-118057809D01*
X163711000Y-118057809D01*
X163711000Y-117728000D01*
X164979415Y-117728000D01*
X165053224Y-117654191D01*
X165053224Y-117401816D01*
X165051780Y-117388386D01*
X164978745Y-117052647D01*
X164970115Y-117031812D01*
X164841304Y-116831380D01*
X164829501Y-116817759D01*
X164651151Y-116663217D01*
X164635989Y-116653473D01*
X164421324Y-116555439D01*
X164404031Y-116550361D01*
X164234044Y-116525921D01*
X165351566Y-115408400D01*
X165434277Y-115408400D01*
X165514990Y-115504590D01*
X165531879Y-115518761D01*
X165612549Y-115565336D01*
X165607662Y-115567880D01*
X165451410Y-115698990D01*
X165437239Y-115715879D01*
X165336641Y-115890120D01*
X165329100Y-115910837D01*
X165295122Y-116103538D01*
X165294163Y-116114499D01*
X165294163Y-116318191D01*
X165367972Y-116392000D01*
X166514000Y-116392000D01*
X166514000Y-116648000D01*
X165367972Y-116648000D01*
X165294163Y-116721809D01*
X165294163Y-116928258D01*
X165296319Y-116944634D01*
X165371137Y-117223859D01*
X165383881Y-117248340D01*
X165415375Y-117285872D01*
X165293217Y-117426849D01*
X165283473Y-117442011D01*
X165185439Y-117656676D01*
X165180361Y-117673969D01*
X165147418Y-117903093D01*
X165146776Y-117912070D01*
X165146776Y-118162191D01*
X165220585Y-118236000D01*
X166489000Y-118236001D01*
X166488999Y-118492000D01*
X165220585Y-118491999D01*
X165146776Y-118565808D01*
X165146776Y-118818184D01*
X165148220Y-118831614D01*
X165221255Y-119167353D01*
X165229885Y-119188188D01*
X165356727Y-119385556D01*
X165293217Y-119458849D01*
X165283473Y-119474011D01*
X165185439Y-119688676D01*
X165180361Y-119705969D01*
X165147418Y-119935093D01*
X165146776Y-119944070D01*
X165146776Y-120194191D01*
X165220585Y-120268000D01*
X166489000Y-120268001D01*
X166488999Y-120524000D01*
X165220585Y-120523999D01*
X165146776Y-120597808D01*
X165146776Y-120850184D01*
X165148220Y-120863614D01*
X165212477Y-121159000D01*
X143051290Y-121159000D01*
X143067809Y-121137472D01*
X143076067Y-121123168D01*
X143165769Y-120906609D01*
X143170044Y-120890655D01*
X143200640Y-120658259D01*
X143200640Y-120641741D01*
X143193500Y-120587508D01*
X143193500Y-119062489D01*
X143200640Y-119008258D01*
X143200640Y-118991740D01*
X143192422Y-118929320D01*
X143170044Y-118759344D01*
X143165769Y-118743391D01*
X143076067Y-118526832D01*
X143067809Y-118512528D01*
X142925115Y-118326564D01*
X142913436Y-118314885D01*
X142870035Y-118281582D01*
X142823051Y-118234598D01*
X145084541Y-118234598D01*
X145085035Y-118243164D01*
X145122133Y-118536832D01*
X145123785Y-118545252D01*
X145200397Y-118831168D01*
X145203176Y-118839285D01*
X145317881Y-119112159D01*
X145321736Y-119119824D01*
X145472413Y-119374606D01*
X145477273Y-119381677D01*
X145661134Y-119613652D01*
X145666909Y-119619998D01*
X145880551Y-119824873D01*
X145887133Y-119830377D01*
X146126605Y-120004363D01*
X146133873Y-120008922D01*
X146394740Y-120148798D01*
X146402560Y-120152329D01*
X146679998Y-120255507D01*
X146688224Y-120257944D01*
X146977098Y-120322514D01*
X146985579Y-120323812D01*
X147280543Y-120348581D01*
X147289122Y-120348716D01*
X147584718Y-120333225D01*
X147593236Y-120332194D01*
X147883996Y-120276728D01*
X147892295Y-120274551D01*
X148172836Y-120180138D01*
X148180762Y-120176855D01*
X148445895Y-120045242D01*
X148453303Y-120040914D01*
X148698121Y-119874536D01*
X148704873Y-119869242D01*
X148924846Y-119671178D01*
X148930816Y-119665016D01*
X149121873Y-119438930D01*
X149126953Y-119432015D01*
X149285559Y-119182093D01*
X149289653Y-119174553D01*
X149412873Y-118905417D01*
X149415905Y-118897391D01*
X149501459Y-118614022D01*
X149503375Y-118605659D01*
X149549731Y-118312974D01*
X149550505Y-118303766D01*
X149554073Y-117962988D01*
X149553493Y-117953766D01*
X149513276Y-117660176D01*
X149511536Y-117651774D01*
X149431936Y-117366675D01*
X149429072Y-117358588D01*
X149311515Y-117086930D01*
X149307580Y-117079306D01*
X149154243Y-116826116D01*
X149149309Y-116819096D01*
X148963029Y-116589060D01*
X148957188Y-116582775D01*
X148741412Y-116380147D01*
X148734772Y-116374713D01*
X148493493Y-116203244D01*
X148486177Y-116198761D01*
X148223859Y-116061625D01*
X148216003Y-116058176D01*
X147937500Y-115957909D01*
X147929248Y-115955558D01*
X147639715Y-115894016D01*
X147631220Y-115892807D01*
X147336013Y-115871128D01*
X147327433Y-115871083D01*
X147032015Y-115889669D01*
X147023508Y-115890789D01*
X146733346Y-115949297D01*
X146725070Y-115951561D01*
X146445533Y-116048905D01*
X146437641Y-116052272D01*
X146173901Y-116186654D01*
X146166539Y-116191060D01*
X145923476Y-116359992D01*
X145916781Y-116365357D01*
X145698894Y-116565713D01*
X145692988Y-116571937D01*
X145504309Y-116800011D01*
X145499302Y-116806979D01*
X145343323Y-117058549D01*
X145339308Y-117066131D01*
X145218912Y-117336543D01*
X145215964Y-117344601D01*
X145133382Y-117628850D01*
X145131554Y-117637233D01*
X145088313Y-117930059D01*
X145087640Y-117938613D01*
X145084541Y-118234598D01*
X142823051Y-118234598D01*
X142441837Y-117853385D01*
X142441837Y-117501742D01*
X142439681Y-117485366D01*
X142364863Y-117206142D01*
X142352120Y-117181662D01*
X142303500Y-117123719D01*
X142303500Y-116854951D01*
X145174951Y-113983500D01*
X148195049Y-113983500D01*
X150176500Y-115964952D01*
G37*
D21*
X150176500Y-115964952D02*
X150176501Y-116777501D01*
X150169360Y-116831741D01*
X150169360Y-116848259D01*
X150199956Y-117080654D01*
X150204231Y-117096608D01*
X150293933Y-117313167D01*
X150302191Y-117327471D01*
X150342884Y-117380504D01*
X150444886Y-117513436D01*
X150456565Y-117525115D01*
X150499970Y-117558421D01*
X152951579Y-120010031D01*
X152984885Y-120053436D01*
X152996564Y-120065115D01*
X153182528Y-120207809D01*
X153196832Y-120216067D01*
X153413391Y-120305769D01*
X153429345Y-120310044D01*
X153599321Y-120332422D01*
X153661740Y-120340640D01*
X153678258Y-120340640D01*
X153732489Y-120333500D01*
X155406990Y-120333500D01*
X155452696Y-120404620D01*
X155464499Y-120418241D01*
X155642849Y-120572783D01*
X155658011Y-120582527D01*
X155872676Y-120680561D01*
X155889969Y-120685639D01*
X156119093Y-120718582D01*
X156128070Y-120719224D01*
X156784184Y-120719224D01*
X156797614Y-120717780D01*
X157133353Y-120644745D01*
X157154188Y-120636115D01*
X157354620Y-120507304D01*
X157368241Y-120495501D01*
X157478974Y-120367709D01*
X157502696Y-120404620D01*
X157514499Y-120418241D01*
X157692849Y-120572783D01*
X157708011Y-120582527D01*
X157922676Y-120680561D01*
X157939969Y-120685639D01*
X158169093Y-120718582D01*
X158178070Y-120719224D01*
X158834184Y-120719224D01*
X158847614Y-120717780D01*
X159183353Y-120644745D01*
X159204188Y-120636115D01*
X159404620Y-120507304D01*
X159418241Y-120495501D01*
X159572783Y-120317151D01*
X159582527Y-120301989D01*
X159680561Y-120087324D01*
X159685639Y-120070031D01*
X159718582Y-119840907D01*
X159719224Y-119831930D01*
X159719224Y-118925816D01*
X159717780Y-118912386D01*
X159703500Y-118846740D01*
X159703500Y-118369205D01*
X159704884Y-118371009D01*
X159885991Y-118552116D01*
X159899095Y-118562171D01*
X160120905Y-118690233D01*
X160136165Y-118696554D01*
X160383562Y-118762844D01*
X160399938Y-118765000D01*
X160656063Y-118765000D01*
X160672438Y-118762844D01*
X160705340Y-118754028D01*
X160786696Y-118880620D01*
X160798499Y-118894241D01*
X160976849Y-119048783D01*
X160992011Y-119058527D01*
X161206676Y-119156561D01*
X161223969Y-119161639D01*
X161453093Y-119194582D01*
X161462070Y-119195224D01*
X162118184Y-119195224D01*
X162131614Y-119193780D01*
X162467353Y-119120745D01*
X162488188Y-119112115D01*
X162688620Y-118983304D01*
X162702241Y-118971501D01*
X162812974Y-118843709D01*
X162836696Y-118880620D01*
X162848499Y-118894241D01*
X163026849Y-119048783D01*
X163042011Y-119058527D01*
X163256676Y-119156561D01*
X163273969Y-119161639D01*
X163503093Y-119194582D01*
X163512070Y-119195224D01*
X163637191Y-119195224D01*
X163711000Y-119121415D01*
X163711000Y-118057809D01*
X163967000Y-118057809D01*
X163967000Y-119121415D01*
X164040809Y-119195224D01*
X164168184Y-119195224D01*
X164181614Y-119193780D01*
X164517353Y-119120745D01*
X164538188Y-119112115D01*
X164738620Y-118983304D01*
X164752241Y-118971501D01*
X164906783Y-118793151D01*
X164916527Y-118777989D01*
X165014561Y-118563324D01*
X165019639Y-118546031D01*
X165052582Y-118316907D01*
X165053224Y-118307930D01*
X165053224Y-118057809D01*
X164979415Y-117984000D01*
X164040809Y-117984000D01*
X163967000Y-118057809D01*
X163711000Y-118057809D01*
X163711000Y-117728000D01*
X164979415Y-117728000D01*
X165053224Y-117654191D01*
X165053224Y-117401816D01*
X165051780Y-117388386D01*
X164978745Y-117052647D01*
X164970115Y-117031812D01*
X164841304Y-116831380D01*
X164829501Y-116817759D01*
X164651151Y-116663217D01*
X164635989Y-116653473D01*
X164421324Y-116555439D01*
X164404031Y-116550361D01*
X164234044Y-116525921D01*
X165351566Y-115408400D01*
X165434277Y-115408400D01*
X165514990Y-115504590D01*
X165531879Y-115518761D01*
X165612549Y-115565336D01*
X165607662Y-115567880D01*
X165451410Y-115698990D01*
X165437239Y-115715879D01*
X165336641Y-115890120D01*
X165329100Y-115910837D01*
X165295122Y-116103538D01*
X165294163Y-116114499D01*
X165294163Y-116318191D01*
X165367972Y-116392000D01*
X166514000Y-116392000D01*
X166514000Y-116648000D01*
X165367972Y-116648000D01*
X165294163Y-116721809D01*
X165294163Y-116928258D01*
X165296319Y-116944634D01*
X165371137Y-117223859D01*
X165383881Y-117248340D01*
X165415375Y-117285872D01*
X165293217Y-117426849D01*
X165283473Y-117442011D01*
X165185439Y-117656676D01*
X165180361Y-117673969D01*
X165147418Y-117903093D01*
X165146776Y-117912070D01*
X165146776Y-118162191D01*
X165220585Y-118236000D01*
X166489000Y-118236001D01*
X166488999Y-118492000D01*
X165220585Y-118491999D01*
X165146776Y-118565808D01*
X165146776Y-118818184D01*
X165148220Y-118831614D01*
X165221255Y-119167353D01*
X165229885Y-119188188D01*
X165356727Y-119385556D01*
X165293217Y-119458849D01*
X165283473Y-119474011D01*
X165185439Y-119688676D01*
X165180361Y-119705969D01*
X165147418Y-119935093D01*
X165146776Y-119944070D01*
X165146776Y-120194191D01*
X165220585Y-120268000D01*
X166489000Y-120268001D01*
X166488999Y-120524000D01*
X165220585Y-120523999D01*
X165146776Y-120597808D01*
X165146776Y-120850184D01*
X165148220Y-120863614D01*
X165212477Y-121159000D01*
X143051290Y-121159000D01*
X143067809Y-121137472D01*
X143076067Y-121123168D01*
X143165769Y-120906609D01*
X143170044Y-120890655D01*
X143200640Y-120658259D01*
X143200640Y-120641741D01*
X143193500Y-120587508D01*
X143193500Y-119062489D01*
X143200640Y-119008258D01*
X143200640Y-118991740D01*
X143192422Y-118929320D01*
X143170044Y-118759344D01*
X143165769Y-118743391D01*
X143076067Y-118526832D01*
X143067809Y-118512528D01*
X142925115Y-118326564D01*
X142913436Y-118314885D01*
X142870035Y-118281582D01*
X142823051Y-118234598D01*
X145084541Y-118234598D01*
X145085035Y-118243164D01*
X145122133Y-118536832D01*
X145123785Y-118545252D01*
X145200397Y-118831168D01*
X145203176Y-118839285D01*
X145317881Y-119112159D01*
X145321736Y-119119824D01*
X145472413Y-119374606D01*
X145477273Y-119381677D01*
X145661134Y-119613652D01*
X145666909Y-119619998D01*
X145880551Y-119824873D01*
X145887133Y-119830377D01*
X146126605Y-120004363D01*
X146133873Y-120008922D01*
X146394740Y-120148798D01*
X146402560Y-120152329D01*
X146679998Y-120255507D01*
X146688224Y-120257944D01*
X146977098Y-120322514D01*
X146985579Y-120323812D01*
X147280543Y-120348581D01*
X147289122Y-120348716D01*
X147584718Y-120333225D01*
X147593236Y-120332194D01*
X147883996Y-120276728D01*
X147892295Y-120274551D01*
X148172836Y-120180138D01*
X148180762Y-120176855D01*
X148445895Y-120045242D01*
X148453303Y-120040914D01*
X148698121Y-119874536D01*
X148704873Y-119869242D01*
X148924846Y-119671178D01*
X148930816Y-119665016D01*
X149121873Y-119438930D01*
X149126953Y-119432015D01*
X149285559Y-119182093D01*
X149289653Y-119174553D01*
X149412873Y-118905417D01*
X149415905Y-118897391D01*
X149501459Y-118614022D01*
X149503375Y-118605659D01*
X149549731Y-118312974D01*
X149550505Y-118303766D01*
X149554073Y-117962988D01*
X149553493Y-117953766D01*
X149513276Y-117660176D01*
X149511536Y-117651774D01*
X149431936Y-117366675D01*
X149429072Y-117358588D01*
X149311515Y-117086930D01*
X149307580Y-117079306D01*
X149154243Y-116826116D01*
X149149309Y-116819096D01*
X148963029Y-116589060D01*
X148957188Y-116582775D01*
X148741412Y-116380147D01*
X148734772Y-116374713D01*
X148493493Y-116203244D01*
X148486177Y-116198761D01*
X148223859Y-116061625D01*
X148216003Y-116058176D01*
X147937500Y-115957909D01*
X147929248Y-115955558D01*
X147639715Y-115894016D01*
X147631220Y-115892807D01*
X147336013Y-115871128D01*
X147327433Y-115871083D01*
X147032015Y-115889669D01*
X147023508Y-115890789D01*
X146733346Y-115949297D01*
X146725070Y-115951561D01*
X146445533Y-116048905D01*
X146437641Y-116052272D01*
X146173901Y-116186654D01*
X146166539Y-116191060D01*
X145923476Y-116359992D01*
X145916781Y-116365357D01*
X145698894Y-116565713D01*
X145692988Y-116571937D01*
X145504309Y-116800011D01*
X145499302Y-116806979D01*
X145343323Y-117058549D01*
X145339308Y-117066131D01*
X145218912Y-117336543D01*
X145215964Y-117344601D01*
X145133382Y-117628850D01*
X145131554Y-117637233D01*
X145088313Y-117930059D01*
X145087640Y-117938613D01*
X145084541Y-118234598D01*
X142823051Y-118234598D01*
X142441837Y-117853385D01*
X142441837Y-117501742D01*
X142439681Y-117485366D01*
X142364863Y-117206142D01*
X142352120Y-117181662D01*
X142303500Y-117123719D01*
X142303500Y-116854951D01*
X145174951Y-113983500D01*
X148195049Y-113983500D01*
X150176500Y-115964952D01*
G36*
X179859473Y-103770196D02*
G01*
X179852659Y-103775038D01*
X179709924Y-103891451D01*
X179704261Y-104003242D01*
X181187809Y-105486790D01*
X181292191Y-105486790D01*
X182777502Y-104001479D01*
X182769271Y-103886665D01*
X182544677Y-103718648D01*
X182537666Y-103714095D01*
X182388985Y-103631000D01*
X184659000Y-103631000D01*
X184659000Y-121159000D01*
X169561135Y-121159000D01*
X169586561Y-121103324D01*
X169591639Y-121086031D01*
X169624582Y-120856907D01*
X169625224Y-120847930D01*
X169625224Y-119941816D01*
X169623780Y-119928386D01*
X169550745Y-119592647D01*
X169542115Y-119571812D01*
X169481999Y-119478270D01*
X179702749Y-119478270D01*
X179705585Y-119586503D01*
X179759307Y-119634871D01*
X179765875Y-119640039D01*
X180020275Y-119814231D01*
X180027471Y-119818486D01*
X180302675Y-119957501D01*
X180310370Y-119960768D01*
X180601542Y-120062165D01*
X180609602Y-120064385D01*
X180911627Y-120126382D01*
X180919909Y-120127517D01*
X181227480Y-120149024D01*
X181235840Y-120149053D01*
X181543554Y-120129693D01*
X181551844Y-120128616D01*
X181854295Y-120068730D01*
X181862369Y-120066566D01*
X182154243Y-119967205D01*
X182161961Y-119963992D01*
X182438129Y-119826901D01*
X182445354Y-119822696D01*
X182700965Y-119650284D01*
X182707570Y-119645161D01*
X182773573Y-119586561D01*
X182776800Y-119477819D01*
X181292191Y-117993210D01*
X181187809Y-117993210D01*
X179702749Y-119478270D01*
X169481999Y-119478270D01*
X169415273Y-119374444D01*
X169478783Y-119301151D01*
X169488527Y-119285989D01*
X169586561Y-119071324D01*
X169591639Y-119054031D01*
X169624582Y-118824907D01*
X169625224Y-118815930D01*
X169625224Y-117909816D01*
X169623780Y-117896386D01*
X169582323Y-117705809D01*
X178851558Y-117705809D01*
X178864470Y-118013860D01*
X178865372Y-118022171D01*
X178918912Y-118325810D01*
X178920906Y-118333928D01*
X179014133Y-118627819D01*
X179017183Y-118635602D01*
X179148461Y-118914580D01*
X179152514Y-118921892D01*
X179319535Y-119181057D01*
X179324519Y-119187768D01*
X179412792Y-119291490D01*
X179523062Y-119295919D01*
X181006790Y-117812191D01*
X181006790Y-117707809D01*
X181473210Y-117707809D01*
X181473210Y-117812191D01*
X182957154Y-119296135D01*
X183066915Y-119292110D01*
X183145467Y-119201105D01*
X183150498Y-119194429D01*
X183319324Y-118936437D01*
X183323428Y-118929153D01*
X183456650Y-118651098D01*
X183459755Y-118643336D01*
X183555031Y-118350105D01*
X183557081Y-118342001D01*
X183612879Y-118037985D01*
X183613896Y-118028137D01*
X183624161Y-117608149D01*
X183623626Y-117598262D01*
X183582746Y-117291884D01*
X183581094Y-117283689D01*
X183500255Y-116986152D01*
X183497533Y-116978248D01*
X183378053Y-116694017D01*
X183374310Y-116686542D01*
X183218289Y-116420611D01*
X183213590Y-116413696D01*
X183070590Y-116230665D01*
X182957284Y-116223735D01*
X181473210Y-117707809D01*
X181006790Y-117707809D01*
X179519527Y-116220546D01*
X179403212Y-116230109D01*
X179211764Y-116497522D01*
X179207359Y-116504627D01*
X179062610Y-116776859D01*
X179059183Y-116784484D01*
X178951710Y-117073470D01*
X178949322Y-117081481D01*
X178881014Y-117382142D01*
X178879706Y-117390399D01*
X178851763Y-117697452D01*
X178851558Y-117705809D01*
X169582323Y-117705809D01*
X169550745Y-117560647D01*
X169542115Y-117539812D01*
X169413304Y-117339380D01*
X169401501Y-117325759D01*
X169364500Y-117293697D01*
X169364500Y-116322611D01*
X169435359Y-116199880D01*
X169442900Y-116179163D01*
X169466866Y-116043242D01*
X179704261Y-116043242D01*
X181187809Y-117526790D01*
X181292191Y-117526790D01*
X182777502Y-116041479D01*
X182769271Y-115926665D01*
X182544677Y-115758648D01*
X182537666Y-115754095D01*
X182268525Y-115603677D01*
X182260973Y-115600091D01*
X181974302Y-115486590D01*
X181966343Y-115484035D01*
X181667179Y-115409445D01*
X181658951Y-115407964D01*
X181352550Y-115373596D01*
X181344199Y-115373217D01*
X181035944Y-115379674D01*
X181027616Y-115380403D01*
X180722923Y-115427572D01*
X180714765Y-115429395D01*
X180418987Y-115516448D01*
X180411142Y-115519334D01*
X180129475Y-115644739D01*
X180122080Y-115648638D01*
X179859473Y-115810196D01*
X179852659Y-115815038D01*
X179709924Y-115931451D01*
X179704261Y-116043242D01*
X169466866Y-116043242D01*
X169476878Y-115986462D01*
X169477837Y-115975501D01*
X169477837Y-115334614D01*
X172419736Y-112392717D01*
X172419749Y-112392702D01*
X173368952Y-111443500D01*
X175061451Y-111443500D01*
X175115137Y-111643859D01*
X175127880Y-111668339D01*
X175258990Y-111824590D01*
X175275879Y-111838761D01*
X175450120Y-111939359D01*
X175470837Y-111946900D01*
X175473824Y-111947427D01*
X175382029Y-112041822D01*
X175375263Y-112050074D01*
X175238683Y-112248798D01*
X175233403Y-112258073D01*
X175132260Y-112476968D01*
X175128618Y-112487000D01*
X175065802Y-112719807D01*
X175063903Y-112730309D01*
X175041211Y-112970372D01*
X175041109Y-112981043D01*
X175059188Y-113221497D01*
X175060885Y-113232034D01*
X175119221Y-113466005D01*
X175122669Y-113476104D01*
X175219591Y-113696900D01*
X175224692Y-113706275D01*
X175357430Y-113907584D01*
X175364038Y-113915965D01*
X175528798Y-114092032D01*
X175536722Y-114099180D01*
X175728792Y-114244968D01*
X175737808Y-114250679D01*
X175951696Y-114362021D01*
X175961545Y-114366131D01*
X176191134Y-114439844D01*
X176201535Y-114442236D01*
X176440262Y-114476212D01*
X176450917Y-114476817D01*
X176691956Y-114470084D01*
X176702561Y-114468885D01*
X176939019Y-114421636D01*
X176949270Y-114418667D01*
X177174387Y-114332253D01*
X177183991Y-114327600D01*
X177391330Y-114204491D01*
X177400012Y-114198286D01*
X177527053Y-114090167D01*
X177528798Y-114092032D01*
X177536722Y-114099180D01*
X177728792Y-114244968D01*
X177737808Y-114250679D01*
X177951696Y-114362021D01*
X177961545Y-114366131D01*
X178191134Y-114439844D01*
X178201535Y-114442236D01*
X178440262Y-114476212D01*
X178450917Y-114476817D01*
X178691956Y-114470084D01*
X178702561Y-114468885D01*
X178939019Y-114421636D01*
X178949270Y-114418667D01*
X179174387Y-114332253D01*
X179183991Y-114327600D01*
X179391330Y-114204491D01*
X179400012Y-114198286D01*
X179583645Y-114042004D01*
X179591158Y-114034424D01*
X179745833Y-113849435D01*
X179751962Y-113840698D01*
X179873256Y-113632294D01*
X179877825Y-113622650D01*
X179962272Y-113396787D01*
X179965151Y-113386511D01*
X180010392Y-113149351D01*
X180011507Y-113138128D01*
X180014077Y-112870341D01*
X180013178Y-112859099D01*
X179972499Y-112621114D01*
X179969817Y-112610784D01*
X179889723Y-112383343D01*
X179885339Y-112373612D01*
X179768067Y-112162916D01*
X179762107Y-112154064D01*
X179611013Y-111966140D01*
X179603647Y-111958417D01*
X179423049Y-111798638D01*
X179414486Y-111792267D01*
X179330842Y-111740406D01*
X179412936Y-111691662D01*
X179428285Y-111569304D01*
X178348980Y-110490000D01*
X178401171Y-110437809D01*
X178763210Y-110437809D01*
X178763210Y-110542191D01*
X179610119Y-111389100D01*
X179733085Y-111373129D01*
X179873256Y-111132294D01*
X179877825Y-111122650D01*
X179962272Y-110896787D01*
X179965151Y-110886511D01*
X180010392Y-110649351D01*
X180011507Y-110638128D01*
X180014077Y-110370341D01*
X180013178Y-110359099D01*
X179972499Y-110121114D01*
X179969817Y-110110784D01*
X179889723Y-109883343D01*
X179885339Y-109873612D01*
X179768068Y-109662917D01*
X179762109Y-109654066D01*
X179718981Y-109600422D01*
X179606682Y-109594337D01*
X178763210Y-110437809D01*
X178401171Y-110437809D01*
X179426767Y-109412214D01*
X179412765Y-109291199D01*
X179209549Y-109165201D01*
X179200036Y-109160365D01*
X178976619Y-109069645D01*
X178966427Y-109066480D01*
X178730919Y-109014700D01*
X178720340Y-109013298D01*
X178479475Y-109001939D01*
X178468809Y-109002339D01*
X178229474Y-109031727D01*
X178219030Y-109033918D01*
X177988068Y-109103210D01*
X177978142Y-109107130D01*
X177824496Y-109183400D01*
X177801010Y-109155410D01*
X177784121Y-109141239D01*
X177609880Y-109040641D01*
X177589163Y-109033100D01*
X177396462Y-108999122D01*
X177385501Y-108998163D01*
X175671742Y-108998163D01*
X175655366Y-109000319D01*
X175376142Y-109075137D01*
X175351662Y-109087880D01*
X175195410Y-109218990D01*
X175181239Y-109235879D01*
X175080641Y-109410120D01*
X175073100Y-109430837D01*
X175054469Y-109536500D01*
X173157036Y-109536500D01*
X173277783Y-109397151D01*
X173287527Y-109381989D01*
X173385561Y-109167324D01*
X173390639Y-109150031D01*
X173423582Y-108920907D01*
X173424224Y-108911930D01*
X173424224Y-108255816D01*
X173422780Y-108242386D01*
X173349745Y-107906647D01*
X173341115Y-107885812D01*
X173212304Y-107685380D01*
X173200501Y-107671759D01*
X173072709Y-107561026D01*
X173109620Y-107537304D01*
X173123241Y-107525501D01*
X173198827Y-107438270D01*
X179702749Y-107438270D01*
X179705585Y-107546503D01*
X179759307Y-107594871D01*
X179765875Y-107600039D01*
X180020275Y-107774231D01*
X180027471Y-107778486D01*
X180302675Y-107917501D01*
X180310370Y-107920768D01*
X180601542Y-108022165D01*
X180609602Y-108024385D01*
X180911627Y-108086382D01*
X180919909Y-108087517D01*
X181227480Y-108109024D01*
X181235840Y-108109053D01*
X181543554Y-108089693D01*
X181551844Y-108088616D01*
X181854295Y-108028730D01*
X181862369Y-108026566D01*
X182154243Y-107927205D01*
X182161961Y-107923992D01*
X182438129Y-107786901D01*
X182445354Y-107782696D01*
X182700965Y-107610284D01*
X182707570Y-107605161D01*
X182773573Y-107546561D01*
X182776800Y-107437819D01*
X181292191Y-105953210D01*
X181187809Y-105953210D01*
X179702749Y-107438270D01*
X173198827Y-107438270D01*
X173277783Y-107347151D01*
X173287527Y-107331989D01*
X173385561Y-107117324D01*
X173390639Y-107100031D01*
X173423582Y-106870907D01*
X173424224Y-106861930D01*
X173424224Y-106205816D01*
X173422780Y-106192386D01*
X173349745Y-105856647D01*
X173341115Y-105835812D01*
X173231860Y-105665809D01*
X178851558Y-105665809D01*
X178864470Y-105973860D01*
X178865372Y-105982171D01*
X178918912Y-106285810D01*
X178920906Y-106293928D01*
X179014133Y-106587819D01*
X179017183Y-106595602D01*
X179148461Y-106874580D01*
X179152514Y-106881892D01*
X179319535Y-107141057D01*
X179324519Y-107147768D01*
X179412792Y-107251490D01*
X179523062Y-107255919D01*
X181006790Y-105772191D01*
X181006790Y-105667809D01*
X181473210Y-105667809D01*
X181473210Y-105772191D01*
X182957154Y-107256135D01*
X183066915Y-107252110D01*
X183145467Y-107161105D01*
X183150498Y-107154429D01*
X183319324Y-106896437D01*
X183323428Y-106889153D01*
X183456650Y-106611098D01*
X183459755Y-106603336D01*
X183555031Y-106310105D01*
X183557081Y-106302001D01*
X183612879Y-105997985D01*
X183613896Y-105988137D01*
X183624161Y-105568149D01*
X183623626Y-105558262D01*
X183582746Y-105251884D01*
X183581094Y-105243689D01*
X183500255Y-104946152D01*
X183497533Y-104938248D01*
X183378053Y-104654017D01*
X183374310Y-104646542D01*
X183218289Y-104380611D01*
X183213590Y-104373696D01*
X183070590Y-104190665D01*
X182957284Y-104183735D01*
X181473210Y-105667809D01*
X181006790Y-105667809D01*
X179519527Y-104180546D01*
X179403212Y-104190109D01*
X179211764Y-104457522D01*
X179207359Y-104464627D01*
X179062610Y-104736859D01*
X179059183Y-104744484D01*
X178951710Y-105033470D01*
X178949322Y-105041481D01*
X178881014Y-105342142D01*
X178879706Y-105350399D01*
X178851763Y-105657452D01*
X178851558Y-105665809D01*
X173231860Y-105665809D01*
X173212304Y-105635380D01*
X173200501Y-105621759D01*
X173022151Y-105467217D01*
X173006989Y-105457473D01*
X172792324Y-105359439D01*
X172775031Y-105354361D01*
X172545907Y-105321418D01*
X172536930Y-105320776D01*
X171630816Y-105320776D01*
X171617386Y-105322220D01*
X171281647Y-105395255D01*
X171260812Y-105403885D01*
X171060380Y-105532696D01*
X171046759Y-105544499D01*
X171014697Y-105581500D01*
X169117492Y-105581500D01*
X169063259Y-105574360D01*
X169046741Y-105574360D01*
X168984320Y-105582578D01*
X168814345Y-105604956D01*
X168798390Y-105609231D01*
X168606077Y-105688890D01*
X168518165Y-105712446D01*
X168502905Y-105718767D01*
X168281095Y-105846829D01*
X168267991Y-105856884D01*
X168086884Y-106037991D01*
X168076829Y-106051095D01*
X167948767Y-106272905D01*
X167942446Y-106288165D01*
X167876156Y-106535562D01*
X167874000Y-106551938D01*
X167874000Y-106808062D01*
X167876156Y-106824438D01*
X167942446Y-107071835D01*
X167948767Y-107087095D01*
X168076829Y-107308905D01*
X168086884Y-107322009D01*
X168181376Y-107416501D01*
X167282488Y-107416501D01*
X167228257Y-107409361D01*
X167211739Y-107409361D01*
X167149320Y-107417579D01*
X166979344Y-107439957D01*
X166963390Y-107444232D01*
X166746831Y-107533934D01*
X166732527Y-107542192D01*
X166546563Y-107684886D01*
X166534884Y-107696565D01*
X166501575Y-107739974D01*
X165993107Y-108248442D01*
X165978165Y-108252446D01*
X165976137Y-108253286D01*
X165857304Y-108068380D01*
X165845501Y-108054759D01*
X165667151Y-107900217D01*
X165651989Y-107890473D01*
X165437324Y-107792439D01*
X165420031Y-107787361D01*
X165190907Y-107754418D01*
X165181930Y-107753776D01*
X164630740Y-107753776D01*
X164618400Y-107741436D01*
X164618400Y-107183015D01*
X164738921Y-107095452D01*
X164747378Y-107088074D01*
X164910575Y-106917894D01*
X164917592Y-106909135D01*
X165048073Y-106712746D01*
X165053429Y-106702882D01*
X165147070Y-106486490D01*
X165150594Y-106475834D01*
X165204624Y-106245474D01*
X165206271Y-106232704D01*
X165214209Y-105929582D01*
X165213233Y-105916742D01*
X165171332Y-105683870D01*
X165168371Y-105673045D01*
X165086183Y-105452048D01*
X165081351Y-105441919D01*
X164961327Y-105238969D01*
X164954778Y-105229855D01*
X164800711Y-105051367D01*
X164792651Y-105043557D01*
X164609412Y-104895173D01*
X164600097Y-104888914D01*
X164393478Y-104775323D01*
X164383201Y-104770812D01*
X164159731Y-104695606D01*
X164148819Y-104692986D01*
X163915563Y-104658542D01*
X163904359Y-104657896D01*
X163668690Y-104665302D01*
X163657549Y-104666651D01*
X163426916Y-104715673D01*
X163416189Y-104718973D01*
X163197883Y-104808063D01*
X163187911Y-104813210D01*
X162988831Y-104939549D01*
X162979927Y-104946382D01*
X162806367Y-105105979D01*
X162798814Y-105114280D01*
X162656259Y-105302089D01*
X162650295Y-105311596D01*
X162543251Y-105521682D01*
X162539065Y-105532095D01*
X162470915Y-105757817D01*
X162468639Y-105768807D01*
X162441539Y-106003028D01*
X162441245Y-106014247D01*
X162456050Y-106249567D01*
X162457748Y-106260661D01*
X162513991Y-106489640D01*
X162517626Y-106500257D01*
X162613528Y-106715657D01*
X162618986Y-106725463D01*
X162751517Y-106920477D01*
X162758625Y-106929161D01*
X162923596Y-107097624D01*
X162932130Y-107104913D01*
X163041601Y-107182709D01*
X163041601Y-107753776D01*
X163006809Y-107753776D01*
X162933000Y-107827585D01*
X162932999Y-108891192D01*
X162933000Y-108891193D01*
X162932999Y-110358415D01*
X163006808Y-110432224D01*
X163134184Y-110432224D01*
X163147614Y-110430780D01*
X163483353Y-110357745D01*
X163504188Y-110349115D01*
X163704620Y-110220304D01*
X163718241Y-110208501D01*
X163828974Y-110080709D01*
X163852696Y-110117620D01*
X163864499Y-110131241D01*
X164042849Y-110285783D01*
X164058011Y-110295527D01*
X164272676Y-110393561D01*
X164289969Y-110398639D01*
X164519093Y-110431582D01*
X164528070Y-110432224D01*
X165184184Y-110432224D01*
X165197614Y-110430780D01*
X165358185Y-110395850D01*
X164698260Y-111055776D01*
X164144816Y-111055776D01*
X164131386Y-111057220D01*
X163795647Y-111130255D01*
X163774812Y-111138885D01*
X163574380Y-111267696D01*
X163560759Y-111279499D01*
X163450026Y-111407291D01*
X163426304Y-111370380D01*
X163414501Y-111356759D01*
X163236151Y-111202217D01*
X163220989Y-111192473D01*
X163006324Y-111094439D01*
X162989031Y-111089361D01*
X162759907Y-111056418D01*
X162750930Y-111055776D01*
X162607332Y-111055776D01*
X162504171Y-110877095D01*
X162494116Y-110863991D01*
X162313009Y-110682884D01*
X162299905Y-110672829D01*
X162078095Y-110544767D01*
X162062835Y-110538446D01*
X161815438Y-110472156D01*
X161799062Y-110470000D01*
X161542938Y-110470000D01*
X161526562Y-110472156D01*
X161279165Y-110538446D01*
X161263905Y-110544767D01*
X161042095Y-110672829D01*
X161036000Y-110677506D01*
X161029905Y-110672829D01*
X160808095Y-110544767D01*
X160792835Y-110538446D01*
X160545438Y-110472156D01*
X160529062Y-110470000D01*
X160272938Y-110470000D01*
X160256562Y-110472156D01*
X160009165Y-110538446D01*
X159993905Y-110544767D01*
X159772095Y-110672829D01*
X159758991Y-110682884D01*
X159604671Y-110837204D01*
X159538095Y-110798767D01*
X159522835Y-110792446D01*
X159275438Y-110726156D01*
X159259062Y-110724000D01*
X159002938Y-110724000D01*
X158986562Y-110726156D01*
X158739165Y-110792446D01*
X158723905Y-110798767D01*
X158502095Y-110926829D01*
X158488991Y-110936884D01*
X158307884Y-111117991D01*
X158297829Y-111131095D01*
X158169767Y-111352905D01*
X158163446Y-111368165D01*
X158113075Y-111556152D01*
X158109323Y-111554439D01*
X158092030Y-111549361D01*
X157862906Y-111516418D01*
X157853929Y-111515776D01*
X156922817Y-111515776D01*
X156909387Y-111517220D01*
X156573647Y-111590255D01*
X156552813Y-111598885D01*
X156352380Y-111727696D01*
X156338759Y-111739499D01*
X156206083Y-111892615D01*
X156142151Y-111837217D01*
X156126989Y-111827473D01*
X155912324Y-111729439D01*
X155895031Y-111724361D01*
X155665907Y-111691418D01*
X155656930Y-111690776D01*
X155000816Y-111690776D01*
X154987386Y-111692220D01*
X154651647Y-111765255D01*
X154630812Y-111773885D01*
X154430380Y-111902696D01*
X154416759Y-111914499D01*
X154306026Y-112042291D01*
X154282304Y-112005380D01*
X154270501Y-111991759D01*
X154092151Y-111837217D01*
X154076989Y-111827473D01*
X153862324Y-111729439D01*
X153845031Y-111724361D01*
X153615907Y-111691418D01*
X153606930Y-111690776D01*
X153481809Y-111690776D01*
X153408000Y-111764585D01*
X153407999Y-112828192D01*
X153408000Y-112828193D01*
X153407999Y-113158000D01*
X152139585Y-113157999D01*
X152065776Y-113231808D01*
X152065776Y-113484184D01*
X152067220Y-113497614D01*
X152140255Y-113833353D01*
X152148885Y-113854188D01*
X152277696Y-114054620D01*
X152289499Y-114068241D01*
X152467849Y-114222783D01*
X152483011Y-114232527D01*
X152629159Y-114299270D01*
X152601647Y-114305255D01*
X152580812Y-114313885D01*
X152380380Y-114442696D01*
X152366759Y-114454499D01*
X152212217Y-114632849D01*
X152202473Y-114648011D01*
X152104439Y-114862676D01*
X152099361Y-114879969D01*
X152066418Y-115109093D01*
X152065776Y-115118070D01*
X152065776Y-115372882D01*
X152060044Y-115329344D01*
X152055769Y-115313391D01*
X151966067Y-115096832D01*
X151957809Y-115082528D01*
X151815115Y-114896564D01*
X151803435Y-114884885D01*
X151760035Y-114851583D01*
X149486522Y-112578070D01*
X152065776Y-112578070D01*
X152065776Y-112828191D01*
X152139585Y-112902000D01*
X153078191Y-112902001D01*
X153152000Y-112828192D01*
X153152001Y-111764585D01*
X153078192Y-111690776D01*
X152950816Y-111690776D01*
X152937386Y-111692220D01*
X152601647Y-111765255D01*
X152580812Y-111773885D01*
X152380380Y-111902696D01*
X152366759Y-111914499D01*
X152212217Y-112092849D01*
X152202473Y-112108011D01*
X152104439Y-112322676D01*
X152099361Y-112339969D01*
X152066418Y-112569093D01*
X152065776Y-112578070D01*
X149486522Y-112578070D01*
X149308424Y-112399973D01*
X149275115Y-112356564D01*
X149263436Y-112344885D01*
X149077472Y-112202191D01*
X149063168Y-112193933D01*
X148846609Y-112104231D01*
X148830655Y-112099956D01*
X148660679Y-112077578D01*
X148598259Y-112069360D01*
X148581741Y-112069360D01*
X148527508Y-112076500D01*
X144842492Y-112076500D01*
X144788259Y-112069360D01*
X144771741Y-112069360D01*
X144709320Y-112077578D01*
X144539345Y-112099956D01*
X144523391Y-112104231D01*
X144306832Y-112193933D01*
X144292528Y-112202191D01*
X144106564Y-112344885D01*
X144094885Y-112356564D01*
X144061576Y-112399973D01*
X141177044Y-115284505D01*
X141161928Y-115196072D01*
X141159246Y-115185742D01*
X141078024Y-114955098D01*
X141073640Y-114945367D01*
X140954718Y-114731706D01*
X140948758Y-114722854D01*
X140795537Y-114532284D01*
X140788171Y-114524562D01*
X140605031Y-114362534D01*
X140596468Y-114356163D01*
X140506440Y-114300344D01*
X140573001Y-114260823D01*
X140581683Y-114254618D01*
X140767901Y-114096135D01*
X140775414Y-114088556D01*
X140932266Y-113900963D01*
X140938394Y-113892226D01*
X141061397Y-113680888D01*
X141065966Y-113671243D01*
X141151600Y-113442202D01*
X141154479Y-113431926D01*
X141200357Y-113191432D01*
X141201472Y-113180209D01*
X141204078Y-112908643D01*
X141203179Y-112897401D01*
X141161928Y-112656072D01*
X141159246Y-112645742D01*
X141078024Y-112415098D01*
X141073640Y-112405367D01*
X140954718Y-112191706D01*
X140948758Y-112182854D01*
X140795537Y-111992284D01*
X140788171Y-111984562D01*
X140605031Y-111822534D01*
X140596468Y-111816163D01*
X140506440Y-111760344D01*
X140597532Y-111706258D01*
X140612881Y-111583900D01*
X140608912Y-111579931D01*
X147681088Y-111579931D01*
X147688882Y-111694244D01*
X147778051Y-111761926D01*
X147787067Y-111767637D01*
X148003965Y-111880546D01*
X148013814Y-111884656D01*
X148246636Y-111959407D01*
X148257037Y-111961798D01*
X148499124Y-111996253D01*
X148509779Y-111996858D01*
X148754211Y-111990030D01*
X148764816Y-111988831D01*
X149004603Y-111940917D01*
X149014854Y-111937948D01*
X149243139Y-111850318D01*
X149252743Y-111845665D01*
X149487532Y-111706258D01*
X149502881Y-111583900D01*
X148642191Y-110723210D01*
X148537809Y-110723210D01*
X147681088Y-111579931D01*
X140608912Y-111579931D01*
X139752191Y-110723210D01*
X139647809Y-110723210D01*
X138791088Y-111579931D01*
X138798882Y-111694244D01*
X138887184Y-111761268D01*
X138715043Y-111886796D01*
X138706982Y-111893791D01*
X138536507Y-112069095D01*
X138530435Y-112076500D01*
X138492489Y-112076500D01*
X138438258Y-112069360D01*
X138421740Y-112069360D01*
X138359321Y-112077578D01*
X138189345Y-112099956D01*
X138173391Y-112104231D01*
X137956832Y-112193933D01*
X137942528Y-112202191D01*
X137756564Y-112344885D01*
X137744885Y-112356564D01*
X137711579Y-112399969D01*
X136529973Y-113581576D01*
X136486564Y-113614885D01*
X136474884Y-113626565D01*
X136350197Y-113789063D01*
X136332191Y-113812528D01*
X136323933Y-113826833D01*
X136234231Y-114043392D01*
X136229956Y-114059346D01*
X136199360Y-114291741D01*
X136199360Y-114308259D01*
X136206500Y-114362492D01*
X136206501Y-117157501D01*
X136199360Y-117211741D01*
X136199360Y-117228259D01*
X136229956Y-117460654D01*
X136234231Y-117476608D01*
X136323933Y-117693168D01*
X136332192Y-117707473D01*
X136344035Y-117722907D01*
X136344036Y-117722906D01*
X136474886Y-117893436D01*
X136486566Y-117905115D01*
X136529962Y-117938414D01*
X136958163Y-118366616D01*
X136958163Y-118718258D01*
X136960319Y-118734634D01*
X137035137Y-119013859D01*
X137047880Y-119038339D01*
X137178990Y-119194590D01*
X137195879Y-119208761D01*
X137370120Y-119309359D01*
X137390837Y-119316900D01*
X137583538Y-119350878D01*
X137594499Y-119351837D01*
X138508258Y-119351837D01*
X138524634Y-119349681D01*
X138803859Y-119274863D01*
X138828339Y-119262120D01*
X138984590Y-119131010D01*
X138998761Y-119114121D01*
X139099359Y-118939880D01*
X139106900Y-118919163D01*
X139140878Y-118726462D01*
X139141837Y-118715501D01*
X139141837Y-117501742D01*
X139139681Y-117485366D01*
X139064863Y-117206142D01*
X139052120Y-117181662D01*
X138921010Y-117025410D01*
X138904121Y-117011239D01*
X138729880Y-116910641D01*
X138709163Y-116903100D01*
X138516462Y-116869122D01*
X138505501Y-116868163D01*
X138156614Y-116868163D01*
X138113500Y-116825049D01*
X138113500Y-114694952D01*
X138673830Y-114134623D01*
X138685353Y-114146937D01*
X138693278Y-114154084D01*
X138887184Y-114301268D01*
X138715043Y-114426796D01*
X138706982Y-114433791D01*
X138536507Y-114609095D01*
X138529740Y-114617347D01*
X138391239Y-114818868D01*
X138385959Y-114828143D01*
X138283392Y-115050120D01*
X138279751Y-115060151D01*
X138216049Y-115296235D01*
X138214150Y-115306737D01*
X138191139Y-115550180D01*
X138191037Y-115560851D01*
X138209371Y-115804689D01*
X138211068Y-115815226D01*
X138270225Y-116052490D01*
X138273673Y-116062589D01*
X138371959Y-116286493D01*
X138377060Y-116295868D01*
X138511668Y-116500011D01*
X138518275Y-116508392D01*
X138685353Y-116686937D01*
X138693278Y-116694084D01*
X138888051Y-116841926D01*
X138897067Y-116847636D01*
X139113965Y-116960546D01*
X139123814Y-116964656D01*
X139356636Y-117039407D01*
X139367037Y-117041798D01*
X139609124Y-117076253D01*
X139619779Y-117076858D01*
X139864211Y-117070030D01*
X139874816Y-117068831D01*
X140114603Y-117020917D01*
X140124854Y-117017948D01*
X140353139Y-116930318D01*
X140362743Y-116925665D01*
X140396501Y-116905621D01*
X140396501Y-117114085D01*
X140300641Y-117280120D01*
X140293100Y-117300837D01*
X140259122Y-117493538D01*
X140258163Y-117504499D01*
X140258163Y-118718258D01*
X140260319Y-118734634D01*
X140335137Y-119013859D01*
X140347880Y-119038339D01*
X140478990Y-119194590D01*
X140495879Y-119208761D01*
X140670120Y-119309359D01*
X140690837Y-119316900D01*
X140883538Y-119350878D01*
X140894499Y-119351837D01*
X141243384Y-119351837D01*
X141286501Y-119394953D01*
X141286501Y-119696500D01*
X135953500Y-119696500D01*
X135953500Y-119105913D01*
X136049359Y-118939880D01*
X136056900Y-118919163D01*
X136090878Y-118726462D01*
X136091837Y-118715501D01*
X136091837Y-117501742D01*
X136089681Y-117485366D01*
X136014863Y-117206142D01*
X136002120Y-117181662D01*
X135871010Y-117025410D01*
X135854121Y-117011239D01*
X135679880Y-116910641D01*
X135659163Y-116903100D01*
X135466462Y-116869122D01*
X135455501Y-116868163D01*
X134541742Y-116868163D01*
X134525366Y-116870319D01*
X134246142Y-116945137D01*
X134221662Y-116957880D01*
X134076106Y-117080015D01*
X134177809Y-116947472D01*
X134186067Y-116933168D01*
X134275769Y-116716609D01*
X134280044Y-116700655D01*
X134302422Y-116530679D01*
X134310640Y-116468260D01*
X134310640Y-116451743D01*
X134303500Y-116397509D01*
X134303500Y-114362489D01*
X134310640Y-114308258D01*
X134310640Y-114291740D01*
X134299285Y-114205492D01*
X134280044Y-114059345D01*
X134275769Y-114043391D01*
X134186067Y-113826832D01*
X134177809Y-113812528D01*
X134035115Y-113626564D01*
X134023435Y-113614885D01*
X133980035Y-113581583D01*
X132798424Y-112399973D01*
X132765115Y-112356564D01*
X132753436Y-112344885D01*
X132567472Y-112202191D01*
X132553168Y-112193933D01*
X132336609Y-112104231D01*
X132320655Y-112099956D01*
X132150679Y-112077578D01*
X132088259Y-112069360D01*
X132071741Y-112069360D01*
X132017508Y-112076500D01*
X131973248Y-112076500D01*
X131905537Y-111992284D01*
X131898171Y-111984562D01*
X131715031Y-111822534D01*
X131706468Y-111816163D01*
X131616440Y-111760344D01*
X131707532Y-111706258D01*
X131722881Y-111583900D01*
X130862191Y-110723210D01*
X130757809Y-110723210D01*
X129901088Y-111579931D01*
X129908882Y-111694244D01*
X129997184Y-111761268D01*
X129825043Y-111886796D01*
X129816982Y-111893791D01*
X129646507Y-112069095D01*
X129639740Y-112077347D01*
X129501239Y-112278868D01*
X129495959Y-112288143D01*
X129393392Y-112510120D01*
X129389751Y-112520151D01*
X129326049Y-112756235D01*
X129324150Y-112766737D01*
X129301139Y-113010180D01*
X129301037Y-113020851D01*
X129319371Y-113264689D01*
X129321068Y-113275226D01*
X129380225Y-113512490D01*
X129383673Y-113522589D01*
X129481959Y-113746493D01*
X129487060Y-113755868D01*
X129621668Y-113960011D01*
X129628275Y-113968392D01*
X129795353Y-114146937D01*
X129803278Y-114154084D01*
X129997184Y-114301268D01*
X129825043Y-114426796D01*
X129816982Y-114433791D01*
X129646507Y-114609095D01*
X129639740Y-114617347D01*
X129501239Y-114818868D01*
X129495959Y-114828143D01*
X129393392Y-115050120D01*
X129389751Y-115060151D01*
X129326049Y-115296235D01*
X129324150Y-115306737D01*
X129301139Y-115550180D01*
X129301037Y-115560851D01*
X129319371Y-115804689D01*
X129321068Y-115815226D01*
X129380225Y-116052490D01*
X129383673Y-116062589D01*
X129481959Y-116286493D01*
X129487060Y-116295868D01*
X129621668Y-116500011D01*
X129628275Y-116508392D01*
X129795353Y-116686937D01*
X129803278Y-116694084D01*
X129998051Y-116841926D01*
X130007067Y-116847636D01*
X130223965Y-116960546D01*
X130233814Y-116964656D01*
X130466636Y-117039407D01*
X130477037Y-117041798D01*
X130719124Y-117076253D01*
X130729779Y-117076858D01*
X130781593Y-117075411D01*
X130765410Y-117088990D01*
X130751239Y-117105879D01*
X130650641Y-117280120D01*
X130643100Y-117300837D01*
X130609122Y-117493538D01*
X130608163Y-117504499D01*
X130608163Y-118718258D01*
X130610319Y-118734634D01*
X130685137Y-119013859D01*
X130697880Y-119038339D01*
X130828990Y-119194590D01*
X130845879Y-119208761D01*
X131020120Y-119309359D01*
X131040837Y-119316900D01*
X131233538Y-119350878D01*
X131244499Y-119351837D01*
X132158258Y-119351837D01*
X132174634Y-119349681D01*
X132453859Y-119274863D01*
X132478339Y-119262120D01*
X132634590Y-119131010D01*
X132648761Y-119114121D01*
X132749359Y-118939880D01*
X132756900Y-118919163D01*
X132790878Y-118726462D01*
X132791837Y-118715501D01*
X132791837Y-118366614D01*
X133980031Y-117178421D01*
X134023436Y-117145115D01*
X134035115Y-117133436D01*
X134035979Y-117132310D01*
X133950641Y-117280120D01*
X133943100Y-117300837D01*
X133909122Y-117493538D01*
X133908163Y-117504499D01*
X133908163Y-118718258D01*
X133910319Y-118734634D01*
X133985137Y-119013859D01*
X133997880Y-119038339D01*
X134046500Y-119096282D01*
X134046501Y-119696500D01*
X128333500Y-119696500D01*
X128333500Y-119105913D01*
X128429359Y-118939880D01*
X128436900Y-118919163D01*
X128470878Y-118726462D01*
X128471837Y-118715501D01*
X128471837Y-117501742D01*
X128469681Y-117485366D01*
X128394863Y-117206142D01*
X128382120Y-117181662D01*
X128251010Y-117025410D01*
X128234121Y-117011239D01*
X128059880Y-116910641D01*
X128039163Y-116903100D01*
X127846462Y-116869122D01*
X127835501Y-116868163D01*
X126921742Y-116868163D01*
X126905366Y-116870319D01*
X126626142Y-116945137D01*
X126601662Y-116957880D01*
X126445410Y-117088990D01*
X126431239Y-117105879D01*
X126330641Y-117280120D01*
X126323100Y-117300837D01*
X126289122Y-117493538D01*
X126288163Y-117504499D01*
X126288163Y-118718258D01*
X126290319Y-118734634D01*
X126365137Y-119013859D01*
X126377880Y-119038339D01*
X126426500Y-119096282D01*
X126426501Y-119696500D01*
X119443500Y-119696500D01*
X119443500Y-119105913D01*
X119539359Y-118939880D01*
X119546900Y-118919163D01*
X119580878Y-118726462D01*
X119581837Y-118715501D01*
X119581837Y-117501742D01*
X119579681Y-117485366D01*
X119504863Y-117206142D01*
X119492120Y-117181662D01*
X119361010Y-117025410D01*
X119344121Y-117011239D01*
X119169880Y-116910641D01*
X119149163Y-116903100D01*
X118956462Y-116869122D01*
X118945501Y-116868163D01*
X118031742Y-116868163D01*
X118015366Y-116870319D01*
X117736142Y-116945137D01*
X117711662Y-116957880D01*
X117555410Y-117088990D01*
X117541239Y-117105879D01*
X117440641Y-117280120D01*
X117433100Y-117300837D01*
X117399122Y-117493538D01*
X117398163Y-117504499D01*
X117398163Y-118718258D01*
X117400319Y-118734634D01*
X117475137Y-119013859D01*
X117487880Y-119038339D01*
X117536500Y-119096282D01*
X117536501Y-119696500D01*
X110553500Y-119696500D01*
X110553500Y-119105913D01*
X110649359Y-118939880D01*
X110656900Y-118919163D01*
X110690878Y-118726462D01*
X110691837Y-118715501D01*
X110691837Y-117501742D01*
X110689681Y-117485366D01*
X110614863Y-117206142D01*
X110602120Y-117181662D01*
X110471010Y-117025410D01*
X110454121Y-117011239D01*
X110279880Y-116910641D01*
X110259163Y-116903100D01*
X110066462Y-116869122D01*
X110055501Y-116868163D01*
X109141742Y-116868163D01*
X109125366Y-116870319D01*
X108846142Y-116945137D01*
X108821662Y-116957880D01*
X108665410Y-117088990D01*
X108651239Y-117105879D01*
X108550641Y-117280120D01*
X108543100Y-117300837D01*
X108509122Y-117493538D01*
X108508163Y-117504499D01*
X108508163Y-118718258D01*
X108510319Y-118734634D01*
X108585137Y-119013859D01*
X108597880Y-119038339D01*
X108646500Y-119096282D01*
X108646501Y-119696500D01*
X101663500Y-119696500D01*
X101663500Y-119105913D01*
X101759359Y-118939880D01*
X101766900Y-118919163D01*
X101800878Y-118726462D01*
X101801837Y-118715501D01*
X101801837Y-117501742D01*
X101799681Y-117485366D01*
X101724863Y-117206142D01*
X101712120Y-117181662D01*
X101581010Y-117025410D01*
X101564121Y-117011239D01*
X101389880Y-116910641D01*
X101369163Y-116903100D01*
X101176462Y-116869122D01*
X101165501Y-116868163D01*
X100251742Y-116868163D01*
X100235366Y-116870319D01*
X99956142Y-116945137D01*
X99931662Y-116957880D01*
X99775410Y-117088990D01*
X99761239Y-117105879D01*
X99660641Y-117280120D01*
X99653100Y-117300837D01*
X99619122Y-117493538D01*
X99618163Y-117504499D01*
X99618163Y-118718258D01*
X99620319Y-118734634D01*
X99695137Y-119013859D01*
X99707880Y-119038339D01*
X99756500Y-119096282D01*
X99756501Y-119696500D01*
X92773500Y-119696500D01*
X92773500Y-119105913D01*
X92869359Y-118939880D01*
X92876900Y-118919163D01*
X92910878Y-118726462D01*
X92911837Y-118715501D01*
X92911837Y-117501742D01*
X92909681Y-117485366D01*
X92834863Y-117206142D01*
X92822120Y-117181662D01*
X92691010Y-117025410D01*
X92674121Y-117011239D01*
X92499880Y-116910641D01*
X92479163Y-116903100D01*
X92286462Y-116869122D01*
X92275501Y-116868163D01*
X91361742Y-116868163D01*
X91345366Y-116870319D01*
X91066142Y-116945137D01*
X91041662Y-116957880D01*
X90885410Y-117088990D01*
X90871239Y-117105879D01*
X90770641Y-117280120D01*
X90763100Y-117300837D01*
X90729122Y-117493538D01*
X90728163Y-117504499D01*
X90728163Y-118718258D01*
X90730319Y-118734634D01*
X90805137Y-119013859D01*
X90817880Y-119038339D01*
X90866500Y-119096282D01*
X90866501Y-119696500D01*
X85484953Y-119696500D01*
X85153500Y-119365048D01*
X85153500Y-119105913D01*
X85249359Y-118939880D01*
X85256900Y-118919163D01*
X85290878Y-118726462D01*
X85291837Y-118715501D01*
X85291837Y-117501742D01*
X85289681Y-117485366D01*
X85214863Y-117206142D01*
X85202120Y-117181662D01*
X85071010Y-117025410D01*
X85054121Y-117011239D01*
X84879880Y-116910641D01*
X84859163Y-116903100D01*
X84666462Y-116869122D01*
X84655501Y-116868163D01*
X83741742Y-116868163D01*
X83725366Y-116870319D01*
X83446142Y-116945137D01*
X83421662Y-116957880D01*
X83265410Y-117088990D01*
X83251239Y-117105879D01*
X83150641Y-117280120D01*
X83143100Y-117300837D01*
X83109122Y-117493538D01*
X83108163Y-117504499D01*
X83108163Y-118718258D01*
X83110319Y-118734634D01*
X83185137Y-119013859D01*
X83197881Y-119038340D01*
X83246501Y-119096283D01*
X83246501Y-119697501D01*
X83239360Y-119751741D01*
X83239360Y-119768259D01*
X83269956Y-120000654D01*
X83274231Y-120016608D01*
X83363933Y-120233167D01*
X83372191Y-120247472D01*
X83400378Y-120284205D01*
X83514886Y-120433436D01*
X83526565Y-120445115D01*
X83569962Y-120478414D01*
X84250547Y-121159000D01*
X65531000Y-121159000D01*
X65531000Y-118234598D01*
X66344541Y-118234598D01*
X66345035Y-118243164D01*
X66382133Y-118536832D01*
X66383785Y-118545252D01*
X66460397Y-118831168D01*
X66463176Y-118839285D01*
X66577881Y-119112159D01*
X66581736Y-119119824D01*
X66732413Y-119374606D01*
X66737273Y-119381677D01*
X66921134Y-119613652D01*
X66926909Y-119619998D01*
X67140551Y-119824873D01*
X67147133Y-119830377D01*
X67386605Y-120004363D01*
X67393873Y-120008922D01*
X67654740Y-120148798D01*
X67662560Y-120152329D01*
X67939998Y-120255507D01*
X67948224Y-120257944D01*
X68237098Y-120322514D01*
X68245579Y-120323812D01*
X68540543Y-120348581D01*
X68549122Y-120348716D01*
X68844718Y-120333225D01*
X68853236Y-120332194D01*
X69143996Y-120276728D01*
X69152295Y-120274551D01*
X69432836Y-120180138D01*
X69440762Y-120176855D01*
X69705895Y-120045242D01*
X69713303Y-120040914D01*
X69958121Y-119874536D01*
X69964873Y-119869242D01*
X70184846Y-119671178D01*
X70190816Y-119665016D01*
X70381873Y-119438930D01*
X70386953Y-119432015D01*
X70545559Y-119182093D01*
X70549653Y-119174553D01*
X70672873Y-118905417D01*
X70675905Y-118897391D01*
X70761459Y-118614022D01*
X70763375Y-118605659D01*
X70809731Y-118312974D01*
X70810505Y-118303766D01*
X70814073Y-117962988D01*
X70813493Y-117953766D01*
X70773276Y-117660176D01*
X70771536Y-117651774D01*
X70691936Y-117366675D01*
X70689072Y-117358588D01*
X70571515Y-117086930D01*
X70567580Y-117079306D01*
X70414243Y-116826116D01*
X70409309Y-116819096D01*
X70223029Y-116589060D01*
X70217188Y-116582775D01*
X70001412Y-116380147D01*
X69994772Y-116374713D01*
X69753493Y-116203244D01*
X69746177Y-116198761D01*
X69483859Y-116061625D01*
X69476003Y-116058176D01*
X69197500Y-115957909D01*
X69189248Y-115955558D01*
X68899715Y-115894016D01*
X68891220Y-115892807D01*
X68596013Y-115871128D01*
X68587433Y-115871083D01*
X68292015Y-115889669D01*
X68283508Y-115890789D01*
X67993346Y-115949297D01*
X67985070Y-115951561D01*
X67705533Y-116048905D01*
X67697641Y-116052272D01*
X67433901Y-116186654D01*
X67426539Y-116191060D01*
X67183476Y-116359992D01*
X67176781Y-116365357D01*
X66958894Y-116565713D01*
X66952988Y-116571937D01*
X66764309Y-116800011D01*
X66759302Y-116806979D01*
X66603323Y-117058549D01*
X66599308Y-117066131D01*
X66478912Y-117336543D01*
X66475964Y-117344601D01*
X66393382Y-117628850D01*
X66391554Y-117637233D01*
X66348313Y-117930059D01*
X66347640Y-117938613D01*
X66344541Y-118234598D01*
X65531000Y-118234598D01*
X65531000Y-113020851D01*
X75961037Y-113020851D01*
X75979371Y-113264689D01*
X75981068Y-113275226D01*
X76040225Y-113512490D01*
X76043673Y-113522589D01*
X76141959Y-113746493D01*
X76147060Y-113755868D01*
X76281668Y-113960011D01*
X76288275Y-113968392D01*
X76455353Y-114146937D01*
X76463278Y-114154084D01*
X76657184Y-114301268D01*
X76485043Y-114426796D01*
X76476982Y-114433791D01*
X76306507Y-114609095D01*
X76299740Y-114617347D01*
X76161239Y-114818868D01*
X76155959Y-114828143D01*
X76053392Y-115050120D01*
X76049751Y-115060151D01*
X75986049Y-115296235D01*
X75984150Y-115306737D01*
X75961139Y-115550180D01*
X75961037Y-115560851D01*
X75979371Y-115804689D01*
X75981068Y-115815226D01*
X76040225Y-116052490D01*
X76043673Y-116062589D01*
X76141959Y-116286493D01*
X76147060Y-116295868D01*
X76281668Y-116500011D01*
X76288275Y-116508392D01*
X76455353Y-116686937D01*
X76463278Y-116694084D01*
X76658051Y-116841926D01*
X76667067Y-116847636D01*
X76883965Y-116960546D01*
X76893814Y-116964656D01*
X77126636Y-117039407D01*
X77137037Y-117041798D01*
X77379124Y-117076253D01*
X77389779Y-117076858D01*
X77634211Y-117070030D01*
X77644816Y-117068831D01*
X77884603Y-117020917D01*
X77894854Y-117017948D01*
X78123139Y-116930318D01*
X78132743Y-116925665D01*
X78343001Y-116800823D01*
X78351683Y-116794618D01*
X78537901Y-116636135D01*
X78545414Y-116628556D01*
X78702266Y-116440963D01*
X78708394Y-116432226D01*
X78831397Y-116220888D01*
X78835966Y-116211243D01*
X78921600Y-115982202D01*
X78924479Y-115971926D01*
X78970357Y-115731432D01*
X78971472Y-115720209D01*
X78974078Y-115448643D01*
X78973179Y-115437401D01*
X78931928Y-115196072D01*
X78929246Y-115185742D01*
X78848024Y-114955098D01*
X78843640Y-114945367D01*
X78724718Y-114731706D01*
X78718758Y-114722854D01*
X78565537Y-114532284D01*
X78558171Y-114524562D01*
X78375031Y-114362534D01*
X78366468Y-114356163D01*
X78276440Y-114300344D01*
X78343001Y-114260823D01*
X78351683Y-114254618D01*
X78494565Y-114133017D01*
X79946500Y-115584952D01*
X79946501Y-117114086D01*
X79850641Y-117280120D01*
X79843100Y-117300837D01*
X79809122Y-117493538D01*
X79808163Y-117504499D01*
X79808163Y-118718258D01*
X79810319Y-118734634D01*
X79885137Y-119013859D01*
X79897880Y-119038339D01*
X80028990Y-119194590D01*
X80045879Y-119208761D01*
X80220120Y-119309359D01*
X80240837Y-119316900D01*
X80433538Y-119350878D01*
X80444499Y-119351837D01*
X81358258Y-119351837D01*
X81374634Y-119349681D01*
X81653859Y-119274863D01*
X81678339Y-119262120D01*
X81834590Y-119131010D01*
X81848761Y-119114121D01*
X81949359Y-118939880D01*
X81956900Y-118919163D01*
X81990878Y-118726462D01*
X81991837Y-118715501D01*
X81991837Y-117501742D01*
X81989681Y-117485366D01*
X81914863Y-117206142D01*
X81902120Y-117181662D01*
X81853500Y-117123719D01*
X81853500Y-115252489D01*
X81860640Y-115198258D01*
X81860640Y-115181740D01*
X81852422Y-115119320D01*
X81830044Y-114949344D01*
X81825769Y-114933391D01*
X81736067Y-114716832D01*
X81727809Y-114702528D01*
X81585115Y-114516564D01*
X81573435Y-114504885D01*
X81530035Y-114471583D01*
X80079303Y-113020851D01*
X84851037Y-113020851D01*
X84869371Y-113264689D01*
X84871068Y-113275226D01*
X84930225Y-113512490D01*
X84933673Y-113522589D01*
X85031959Y-113746493D01*
X85037060Y-113755868D01*
X85171668Y-113960011D01*
X85178275Y-113968392D01*
X85345353Y-114146937D01*
X85353278Y-114154084D01*
X85547184Y-114301268D01*
X85375043Y-114426796D01*
X85366982Y-114433791D01*
X85196507Y-114609095D01*
X85189740Y-114617347D01*
X85051239Y-114818868D01*
X85045959Y-114828143D01*
X84943392Y-115050120D01*
X84939751Y-115060151D01*
X84876049Y-115296235D01*
X84874150Y-115306737D01*
X84851139Y-115550180D01*
X84851037Y-115560851D01*
X84869371Y-115804689D01*
X84871068Y-115815226D01*
X84930225Y-116052490D01*
X84933673Y-116062589D01*
X85031959Y-116286493D01*
X85037060Y-116295868D01*
X85171668Y-116500011D01*
X85178275Y-116508392D01*
X85345353Y-116686937D01*
X85353278Y-116694084D01*
X85548051Y-116841926D01*
X85557067Y-116847636D01*
X85773965Y-116960546D01*
X85783814Y-116964656D01*
X86016636Y-117039407D01*
X86027037Y-117041798D01*
X86269124Y-117076253D01*
X86279779Y-117076858D01*
X86524211Y-117070030D01*
X86534816Y-117068831D01*
X86774603Y-117020917D01*
X86784854Y-117017948D01*
X87013139Y-116930318D01*
X87022743Y-116925665D01*
X87233001Y-116800823D01*
X87241683Y-116794618D01*
X87427901Y-116636135D01*
X87435414Y-116628556D01*
X87566500Y-116471778D01*
X87566501Y-117114086D01*
X87470641Y-117280120D01*
X87463100Y-117300837D01*
X87429122Y-117493538D01*
X87428163Y-117504499D01*
X87428163Y-118718258D01*
X87430319Y-118734634D01*
X87505137Y-119013859D01*
X87517880Y-119038339D01*
X87648990Y-119194590D01*
X87665879Y-119208761D01*
X87840120Y-119309359D01*
X87860837Y-119316900D01*
X88053538Y-119350878D01*
X88064499Y-119351837D01*
X88978258Y-119351837D01*
X88994634Y-119349681D01*
X89273859Y-119274863D01*
X89298339Y-119262120D01*
X89454590Y-119131010D01*
X89468761Y-119114121D01*
X89569359Y-118939880D01*
X89576900Y-118919163D01*
X89610878Y-118726462D01*
X89611837Y-118715501D01*
X89611837Y-117501742D01*
X89609681Y-117485366D01*
X89534863Y-117206142D01*
X89522120Y-117181662D01*
X89473500Y-117123719D01*
X89473500Y-115074951D01*
X89530037Y-115018414D01*
X89573435Y-114985114D01*
X89585113Y-114973436D01*
X89628037Y-114917498D01*
X89628038Y-114917497D01*
X89727809Y-114787471D01*
X89736068Y-114773167D01*
X89825768Y-114556609D01*
X89830043Y-114540656D01*
X89860640Y-114308261D01*
X89860640Y-114291746D01*
X89857302Y-114266387D01*
X89857302Y-114266384D01*
X89830043Y-114059344D01*
X89825768Y-114043391D01*
X89736068Y-113826832D01*
X89727809Y-113812528D01*
X89620931Y-113673241D01*
X89620924Y-113673233D01*
X89585114Y-113626565D01*
X89573435Y-113614886D01*
X89530038Y-113581586D01*
X88969303Y-113020851D01*
X93741037Y-113020851D01*
X93759371Y-113264689D01*
X93761068Y-113275226D01*
X93820225Y-113512490D01*
X93823673Y-113522589D01*
X93921959Y-113746493D01*
X93927060Y-113755868D01*
X94061668Y-113960011D01*
X94068275Y-113968392D01*
X94235353Y-114146937D01*
X94243278Y-114154084D01*
X94437184Y-114301268D01*
X94265043Y-114426796D01*
X94256982Y-114433791D01*
X94086507Y-114609095D01*
X94079740Y-114617347D01*
X93941239Y-114818868D01*
X93935959Y-114828143D01*
X93833392Y-115050120D01*
X93829751Y-115060151D01*
X93766049Y-115296235D01*
X93764150Y-115306737D01*
X93741139Y-115550180D01*
X93741037Y-115560851D01*
X93759371Y-115804689D01*
X93761068Y-115815226D01*
X93820225Y-116052490D01*
X93823673Y-116062589D01*
X93921959Y-116286493D01*
X93927060Y-116295868D01*
X94061668Y-116500011D01*
X94068275Y-116508392D01*
X94235353Y-116686937D01*
X94243278Y-116694084D01*
X94438051Y-116841926D01*
X94447067Y-116847636D01*
X94663965Y-116960546D01*
X94673814Y-116964656D01*
X94906636Y-117039407D01*
X94917037Y-117041798D01*
X95159124Y-117076253D01*
X95169779Y-117076858D01*
X95414211Y-117070030D01*
X95424816Y-117068831D01*
X95664603Y-117020917D01*
X95674854Y-117017948D01*
X95903139Y-116930318D01*
X95912743Y-116925665D01*
X96123001Y-116800823D01*
X96131683Y-116794618D01*
X96317901Y-116636135D01*
X96325414Y-116628556D01*
X96456500Y-116471778D01*
X96456501Y-117114086D01*
X96360641Y-117280120D01*
X96353100Y-117300837D01*
X96319122Y-117493538D01*
X96318163Y-117504499D01*
X96318163Y-118718258D01*
X96320319Y-118734634D01*
X96395137Y-119013859D01*
X96407880Y-119038339D01*
X96538990Y-119194590D01*
X96555879Y-119208761D01*
X96730120Y-119309359D01*
X96750837Y-119316900D01*
X96943538Y-119350878D01*
X96954499Y-119351837D01*
X97868258Y-119351837D01*
X97884634Y-119349681D01*
X98163859Y-119274863D01*
X98188339Y-119262120D01*
X98344590Y-119131010D01*
X98358761Y-119114121D01*
X98459359Y-118939880D01*
X98466900Y-118919163D01*
X98500878Y-118726462D01*
X98501837Y-118715501D01*
X98501837Y-117501742D01*
X98499681Y-117485366D01*
X98424863Y-117206142D01*
X98412120Y-117181662D01*
X98363500Y-117123719D01*
X98363500Y-113982489D01*
X98370640Y-113928258D01*
X98370640Y-113911740D01*
X98362422Y-113849320D01*
X98340044Y-113679344D01*
X98335769Y-113663391D01*
X98246067Y-113446832D01*
X98237809Y-113432528D01*
X98095115Y-113246564D01*
X98083435Y-113234885D01*
X98040039Y-113201586D01*
X97859304Y-113020851D01*
X102631037Y-113020851D01*
X102649371Y-113264689D01*
X102651068Y-113275226D01*
X102710225Y-113512490D01*
X102713673Y-113522589D01*
X102811959Y-113746493D01*
X102817060Y-113755868D01*
X102951668Y-113960011D01*
X102958275Y-113968392D01*
X103125353Y-114146937D01*
X103133278Y-114154084D01*
X103327184Y-114301268D01*
X103155043Y-114426796D01*
X103146982Y-114433791D01*
X102976507Y-114609095D01*
X102969740Y-114617347D01*
X102831239Y-114818868D01*
X102825959Y-114828143D01*
X102723392Y-115050120D01*
X102719751Y-115060151D01*
X102656049Y-115296235D01*
X102654150Y-115306737D01*
X102631139Y-115550180D01*
X102631037Y-115560851D01*
X102649371Y-115804689D01*
X102651068Y-115815226D01*
X102710225Y-116052490D01*
X102713673Y-116062589D01*
X102811959Y-116286493D01*
X102817060Y-116295868D01*
X102951668Y-116500011D01*
X102958275Y-116508392D01*
X103125353Y-116686937D01*
X103133278Y-116694084D01*
X103328051Y-116841926D01*
X103337067Y-116847636D01*
X103553965Y-116960546D01*
X103563814Y-116964656D01*
X103796636Y-117039407D01*
X103807037Y-117041798D01*
X104049124Y-117076253D01*
X104059779Y-117076858D01*
X104304211Y-117070030D01*
X104314816Y-117068831D01*
X104554603Y-117020917D01*
X104564854Y-117017948D01*
X104793139Y-116930318D01*
X104802743Y-116925665D01*
X105013001Y-116800823D01*
X105021683Y-116794618D01*
X105207901Y-116636135D01*
X105215414Y-116628556D01*
X105346500Y-116471778D01*
X105346501Y-117114086D01*
X105250641Y-117280120D01*
X105243100Y-117300837D01*
X105209122Y-117493538D01*
X105208163Y-117504499D01*
X105208163Y-118718258D01*
X105210319Y-118734634D01*
X105285137Y-119013859D01*
X105297880Y-119038339D01*
X105428990Y-119194590D01*
X105445879Y-119208761D01*
X105620120Y-119309359D01*
X105640837Y-119316900D01*
X105833538Y-119350878D01*
X105844499Y-119351837D01*
X106758258Y-119351837D01*
X106774634Y-119349681D01*
X107053859Y-119274863D01*
X107078339Y-119262120D01*
X107234590Y-119131010D01*
X107248761Y-119114121D01*
X107349359Y-118939880D01*
X107356900Y-118919163D01*
X107390878Y-118726462D01*
X107391837Y-118715501D01*
X107391837Y-117501742D01*
X107389681Y-117485366D01*
X107314863Y-117206142D01*
X107302120Y-117181662D01*
X107253500Y-117123719D01*
X107253500Y-113982489D01*
X107260640Y-113928258D01*
X107260640Y-113911740D01*
X107252422Y-113849320D01*
X107230044Y-113679344D01*
X107225769Y-113663391D01*
X107136067Y-113446832D01*
X107127809Y-113432528D01*
X106985115Y-113246564D01*
X106973435Y-113234885D01*
X106930039Y-113201586D01*
X106749304Y-113020851D01*
X111521037Y-113020851D01*
X111539371Y-113264689D01*
X111541068Y-113275226D01*
X111600225Y-113512490D01*
X111603673Y-113522589D01*
X111701959Y-113746493D01*
X111707060Y-113755868D01*
X111841668Y-113960011D01*
X111848275Y-113968392D01*
X112015353Y-114146937D01*
X112023278Y-114154084D01*
X112217184Y-114301268D01*
X112045043Y-114426796D01*
X112036982Y-114433791D01*
X111866507Y-114609095D01*
X111859740Y-114617347D01*
X111721239Y-114818868D01*
X111715959Y-114828143D01*
X111613392Y-115050120D01*
X111609751Y-115060151D01*
X111546049Y-115296235D01*
X111544150Y-115306737D01*
X111521139Y-115550180D01*
X111521037Y-115560851D01*
X111539371Y-115804689D01*
X111541068Y-115815226D01*
X111600225Y-116052490D01*
X111603673Y-116062589D01*
X111701959Y-116286493D01*
X111707060Y-116295868D01*
X111841668Y-116500011D01*
X111848275Y-116508392D01*
X112015353Y-116686937D01*
X112023278Y-116694084D01*
X112218051Y-116841926D01*
X112227067Y-116847636D01*
X112443965Y-116960546D01*
X112453814Y-116964656D01*
X112686636Y-117039407D01*
X112697037Y-117041798D01*
X112939124Y-117076253D01*
X112949779Y-117076858D01*
X113194211Y-117070030D01*
X113204816Y-117068831D01*
X113444603Y-117020917D01*
X113454854Y-117017948D01*
X113683139Y-116930318D01*
X113692743Y-116925665D01*
X113903001Y-116800823D01*
X113911683Y-116794618D01*
X114097901Y-116636135D01*
X114105414Y-116628556D01*
X114236500Y-116471778D01*
X114236501Y-117114086D01*
X114140641Y-117280120D01*
X114133100Y-117300837D01*
X114099122Y-117493538D01*
X114098163Y-117504499D01*
X114098163Y-118718258D01*
X114100319Y-118734634D01*
X114175137Y-119013859D01*
X114187880Y-119038339D01*
X114318990Y-119194590D01*
X114335879Y-119208761D01*
X114510120Y-119309359D01*
X114530837Y-119316900D01*
X114723538Y-119350878D01*
X114734499Y-119351837D01*
X115648258Y-119351837D01*
X115664634Y-119349681D01*
X115943859Y-119274863D01*
X115968339Y-119262120D01*
X116124590Y-119131010D01*
X116138761Y-119114121D01*
X116239359Y-118939880D01*
X116246900Y-118919163D01*
X116280878Y-118726462D01*
X116281837Y-118715501D01*
X116281837Y-117501742D01*
X116279681Y-117485366D01*
X116204863Y-117206142D01*
X116192120Y-117181662D01*
X116143500Y-117123719D01*
X116143500Y-113982489D01*
X116150640Y-113928258D01*
X116150640Y-113911740D01*
X116142422Y-113849320D01*
X116120044Y-113679344D01*
X116115769Y-113663391D01*
X116026067Y-113446832D01*
X116017809Y-113432528D01*
X115875115Y-113246564D01*
X115863435Y-113234885D01*
X115820039Y-113201586D01*
X115639304Y-113020851D01*
X120411037Y-113020851D01*
X120429371Y-113264689D01*
X120431068Y-113275226D01*
X120490225Y-113512490D01*
X120493673Y-113522589D01*
X120591959Y-113746493D01*
X120597060Y-113755868D01*
X120731668Y-113960011D01*
X120738275Y-113968392D01*
X120905353Y-114146937D01*
X120913278Y-114154084D01*
X121107184Y-114301268D01*
X120935043Y-114426796D01*
X120926982Y-114433791D01*
X120756507Y-114609095D01*
X120749740Y-114617347D01*
X120611239Y-114818868D01*
X120605959Y-114828143D01*
X120503392Y-115050120D01*
X120499751Y-115060151D01*
X120436049Y-115296235D01*
X120434150Y-115306737D01*
X120411139Y-115550180D01*
X120411037Y-115560851D01*
X120429371Y-115804689D01*
X120431068Y-115815226D01*
X120490225Y-116052490D01*
X120493673Y-116062589D01*
X120591959Y-116286493D01*
X120597060Y-116295868D01*
X120731668Y-116500011D01*
X120738275Y-116508392D01*
X120905353Y-116686937D01*
X120913278Y-116694084D01*
X121108051Y-116841926D01*
X121117067Y-116847636D01*
X121333965Y-116960546D01*
X121343814Y-116964656D01*
X121576636Y-117039407D01*
X121587037Y-117041798D01*
X121829124Y-117076253D01*
X121839779Y-117076858D01*
X122084211Y-117070030D01*
X122094816Y-117068831D01*
X122334603Y-117020917D01*
X122344854Y-117017948D01*
X122573139Y-116930318D01*
X122582743Y-116925665D01*
X122793001Y-116800823D01*
X122801683Y-116794618D01*
X122987901Y-116636135D01*
X122995414Y-116628556D01*
X123126500Y-116471778D01*
X123126501Y-117114086D01*
X123030641Y-117280120D01*
X123023100Y-117300837D01*
X122989122Y-117493538D01*
X122988163Y-117504499D01*
X122988163Y-118718258D01*
X122990319Y-118734634D01*
X123065137Y-119013859D01*
X123077880Y-119038339D01*
X123208990Y-119194590D01*
X123225879Y-119208761D01*
X123400120Y-119309359D01*
X123420837Y-119316900D01*
X123613538Y-119350878D01*
X123624499Y-119351837D01*
X124538258Y-119351837D01*
X124554634Y-119349681D01*
X124833859Y-119274863D01*
X124858339Y-119262120D01*
X125014590Y-119131010D01*
X125028761Y-119114121D01*
X125129359Y-118939880D01*
X125136900Y-118919163D01*
X125170878Y-118726462D01*
X125171837Y-118715501D01*
X125171837Y-117501742D01*
X125169681Y-117485366D01*
X125094863Y-117206142D01*
X125082120Y-117181662D01*
X125033500Y-117123719D01*
X125033500Y-113982489D01*
X125040640Y-113928258D01*
X125040640Y-113911740D01*
X125032422Y-113849320D01*
X125010044Y-113679344D01*
X125005769Y-113663391D01*
X124916067Y-113446832D01*
X124907809Y-113432528D01*
X124765115Y-113246564D01*
X124753435Y-113234885D01*
X124710039Y-113201586D01*
X123908421Y-112399969D01*
X123875115Y-112356564D01*
X123863436Y-112344885D01*
X123677472Y-112202191D01*
X123663168Y-112193933D01*
X123446609Y-112104231D01*
X123430655Y-112099956D01*
X123260679Y-112077578D01*
X123198259Y-112069360D01*
X123181741Y-112069360D01*
X123127508Y-112076500D01*
X123083248Y-112076500D01*
X123015537Y-111992284D01*
X123008171Y-111984562D01*
X122825031Y-111822534D01*
X122816468Y-111816163D01*
X122726440Y-111760344D01*
X122817532Y-111706258D01*
X122832881Y-111583900D01*
X121972191Y-110723210D01*
X121867809Y-110723210D01*
X121011088Y-111579931D01*
X121018882Y-111694244D01*
X121107184Y-111761268D01*
X120935043Y-111886796D01*
X120926982Y-111893791D01*
X120756507Y-112069095D01*
X120749740Y-112077347D01*
X120611239Y-112278868D01*
X120605959Y-112288143D01*
X120503392Y-112510120D01*
X120499751Y-112520151D01*
X120436049Y-112756235D01*
X120434150Y-112766737D01*
X120411139Y-113010180D01*
X120411037Y-113020851D01*
X115639304Y-113020851D01*
X115018421Y-112399969D01*
X114985115Y-112356564D01*
X114973436Y-112344885D01*
X114787472Y-112202191D01*
X114773168Y-112193933D01*
X114556609Y-112104231D01*
X114540655Y-112099956D01*
X114370679Y-112077578D01*
X114308259Y-112069360D01*
X114291741Y-112069360D01*
X114237508Y-112076500D01*
X114193248Y-112076500D01*
X114125537Y-111992284D01*
X114118171Y-111984562D01*
X113935031Y-111822534D01*
X113926468Y-111816163D01*
X113836440Y-111760344D01*
X113927532Y-111706258D01*
X113942881Y-111583900D01*
X113082191Y-110723210D01*
X112977809Y-110723210D01*
X112121088Y-111579931D01*
X112128882Y-111694244D01*
X112217184Y-111761268D01*
X112045043Y-111886796D01*
X112036982Y-111893791D01*
X111866507Y-112069095D01*
X111859740Y-112077347D01*
X111721239Y-112278868D01*
X111715959Y-112288143D01*
X111613392Y-112510120D01*
X111609751Y-112520151D01*
X111546049Y-112756235D01*
X111544150Y-112766737D01*
X111521139Y-113010180D01*
X111521037Y-113020851D01*
X106749304Y-113020851D01*
X106128421Y-112399969D01*
X106095115Y-112356564D01*
X106083436Y-112344885D01*
X105897472Y-112202191D01*
X105883168Y-112193933D01*
X105666609Y-112104231D01*
X105650655Y-112099956D01*
X105480679Y-112077578D01*
X105418259Y-112069360D01*
X105401741Y-112069360D01*
X105347508Y-112076500D01*
X105303248Y-112076500D01*
X105235537Y-111992284D01*
X105228171Y-111984562D01*
X105045031Y-111822534D01*
X105036468Y-111816163D01*
X104946440Y-111760344D01*
X105037532Y-111706258D01*
X105052881Y-111583900D01*
X104192191Y-110723210D01*
X104087809Y-110723210D01*
X103231088Y-111579931D01*
X103238882Y-111694244D01*
X103327184Y-111761268D01*
X103155043Y-111886796D01*
X103146982Y-111893791D01*
X102976507Y-112069095D01*
X102969740Y-112077347D01*
X102831239Y-112278868D01*
X102825959Y-112288143D01*
X102723392Y-112510120D01*
X102719751Y-112520151D01*
X102656049Y-112756235D01*
X102654150Y-112766737D01*
X102631139Y-113010180D01*
X102631037Y-113020851D01*
X97859304Y-113020851D01*
X97238421Y-112399969D01*
X97205115Y-112356564D01*
X97193436Y-112344885D01*
X97007472Y-112202191D01*
X96993168Y-112193933D01*
X96776609Y-112104231D01*
X96760655Y-112099956D01*
X96590679Y-112077578D01*
X96528259Y-112069360D01*
X96511741Y-112069360D01*
X96457508Y-112076500D01*
X96413248Y-112076500D01*
X96345537Y-111992284D01*
X96338171Y-111984562D01*
X96155031Y-111822534D01*
X96146468Y-111816163D01*
X96056440Y-111760344D01*
X96147532Y-111706258D01*
X96162881Y-111583900D01*
X95302191Y-110723210D01*
X95197809Y-110723210D01*
X94341088Y-111579931D01*
X94348882Y-111694244D01*
X94437184Y-111761268D01*
X94265043Y-111886796D01*
X94256982Y-111893791D01*
X94086507Y-112069095D01*
X94079740Y-112077347D01*
X93941239Y-112278868D01*
X93935959Y-112288143D01*
X93833392Y-112510120D01*
X93829751Y-112520151D01*
X93766049Y-112756235D01*
X93764150Y-112766737D01*
X93741139Y-113010180D01*
X93741037Y-113020851D01*
X88969303Y-113020851D01*
X88348424Y-112399973D01*
X88315115Y-112356564D01*
X88303436Y-112344885D01*
X88117472Y-112202191D01*
X88103168Y-112193933D01*
X87886609Y-112104231D01*
X87870655Y-112099956D01*
X87700679Y-112077578D01*
X87638259Y-112069360D01*
X87621741Y-112069360D01*
X87567508Y-112076500D01*
X87523248Y-112076500D01*
X87455537Y-111992284D01*
X87448171Y-111984562D01*
X87265031Y-111822534D01*
X87256468Y-111816163D01*
X87166440Y-111760344D01*
X87257532Y-111706258D01*
X87272881Y-111583900D01*
X86412191Y-110723210D01*
X86307809Y-110723210D01*
X85451088Y-111579931D01*
X85458882Y-111694244D01*
X85547184Y-111761268D01*
X85375043Y-111886796D01*
X85366982Y-111893791D01*
X85196507Y-112069095D01*
X85189740Y-112077347D01*
X85051239Y-112278868D01*
X85045959Y-112288143D01*
X84943392Y-112510120D01*
X84939751Y-112520151D01*
X84876049Y-112756235D01*
X84874150Y-112766737D01*
X84851139Y-113010180D01*
X84851037Y-113020851D01*
X80079303Y-113020851D01*
X79458424Y-112399973D01*
X79425115Y-112356564D01*
X79413436Y-112344885D01*
X79227472Y-112202191D01*
X79213168Y-112193933D01*
X78996609Y-112104231D01*
X78980655Y-112099956D01*
X78810679Y-112077578D01*
X78748259Y-112069360D01*
X78731741Y-112069360D01*
X78677508Y-112076500D01*
X78633248Y-112076500D01*
X78565537Y-111992284D01*
X78558171Y-111984562D01*
X78375031Y-111822534D01*
X78366468Y-111816163D01*
X78276440Y-111760344D01*
X78367532Y-111706258D01*
X78382881Y-111583900D01*
X77522191Y-110723210D01*
X77417809Y-110723210D01*
X76561088Y-111579931D01*
X76568882Y-111694244D01*
X76657184Y-111761268D01*
X76485043Y-111886796D01*
X76476982Y-111893791D01*
X76306507Y-112069095D01*
X76299740Y-112077347D01*
X76161239Y-112278868D01*
X76155959Y-112288143D01*
X76053392Y-112510120D01*
X76049751Y-112520151D01*
X75986049Y-112756235D01*
X75984150Y-112766737D01*
X75961139Y-113010180D01*
X75961037Y-113020851D01*
X65531000Y-113020851D01*
X65531000Y-110480851D01*
X75961037Y-110480851D01*
X75979371Y-110724689D01*
X75981068Y-110735226D01*
X76040225Y-110972490D01*
X76043673Y-110982589D01*
X76141959Y-111206493D01*
X76147060Y-111215868D01*
X76260275Y-111387568D01*
X76379321Y-111399660D01*
X77236790Y-110542191D01*
X77236790Y-110437809D01*
X76379987Y-109581006D01*
X76262303Y-109591819D01*
X76161239Y-109738868D01*
X76155959Y-109748143D01*
X76053392Y-109970120D01*
X76049751Y-109980151D01*
X75986049Y-110216235D01*
X75984150Y-110226737D01*
X75961139Y-110470180D01*
X75961037Y-110480851D01*
X65531000Y-110480851D01*
X65531000Y-107944578D01*
X75810614Y-107944578D01*
X75838854Y-108254884D01*
X75841164Y-108266990D01*
X75929138Y-108565902D01*
X75933755Y-108577329D01*
X75978673Y-108663248D01*
X76035255Y-108923353D01*
X76043885Y-108944187D01*
X76172696Y-109144620D01*
X76184499Y-109158241D01*
X76362849Y-109312783D01*
X76378011Y-109322527D01*
X76572253Y-109411234D01*
X78564748Y-111403729D01*
X78687715Y-111387758D01*
X78831397Y-111140888D01*
X78835966Y-111131243D01*
X78921600Y-110902202D01*
X78924479Y-110891926D01*
X78970357Y-110651432D01*
X78971472Y-110640209D01*
X78974078Y-110368643D01*
X78973179Y-110357401D01*
X78931928Y-110116072D01*
X78929246Y-110105742D01*
X78848024Y-109875098D01*
X78843640Y-109865367D01*
X78724718Y-109651706D01*
X78718758Y-109642854D01*
X78685911Y-109602000D01*
X85145305Y-109602000D01*
X85051239Y-109738868D01*
X85045959Y-109748143D01*
X84943392Y-109970120D01*
X84939751Y-109980151D01*
X84876049Y-110216235D01*
X84874150Y-110226737D01*
X84851139Y-110470180D01*
X84851037Y-110480851D01*
X84869371Y-110724689D01*
X84871068Y-110735226D01*
X84930225Y-110972490D01*
X84933673Y-110982589D01*
X85031959Y-111206493D01*
X85037060Y-111215868D01*
X85150275Y-111387568D01*
X85269321Y-111399660D01*
X86360000Y-110308980D01*
X87454748Y-111403729D01*
X87577715Y-111387758D01*
X87721397Y-111140888D01*
X87725966Y-111131243D01*
X87811600Y-110902202D01*
X87814479Y-110891926D01*
X87860357Y-110651432D01*
X87861472Y-110640209D01*
X87864078Y-110368643D01*
X87863179Y-110357401D01*
X87821928Y-110116072D01*
X87819246Y-110105742D01*
X87738024Y-109875098D01*
X87733640Y-109865367D01*
X87614718Y-109651706D01*
X87608758Y-109642854D01*
X87575911Y-109602000D01*
X94035305Y-109602000D01*
X93941239Y-109738868D01*
X93935959Y-109748143D01*
X93833392Y-109970120D01*
X93829751Y-109980151D01*
X93766049Y-110216235D01*
X93764150Y-110226737D01*
X93741139Y-110470180D01*
X93741037Y-110480851D01*
X93759371Y-110724689D01*
X93761068Y-110735226D01*
X93820225Y-110972490D01*
X93823673Y-110982589D01*
X93921959Y-111206493D01*
X93927060Y-111215868D01*
X94040275Y-111387568D01*
X94159321Y-111399660D01*
X95250000Y-110308980D01*
X96344748Y-111403729D01*
X96467715Y-111387758D01*
X96611397Y-111140888D01*
X96615966Y-111131243D01*
X96701600Y-110902202D01*
X96704479Y-110891926D01*
X96750357Y-110651432D01*
X96751472Y-110640209D01*
X96754078Y-110368643D01*
X96753179Y-110357401D01*
X96711928Y-110116072D01*
X96709246Y-110105742D01*
X96628024Y-109875098D01*
X96623640Y-109865367D01*
X96504718Y-109651706D01*
X96498758Y-109642854D01*
X96465911Y-109602000D01*
X102925305Y-109602000D01*
X102831239Y-109738868D01*
X102825959Y-109748143D01*
X102723392Y-109970120D01*
X102719751Y-109980151D01*
X102656049Y-110216235D01*
X102654150Y-110226737D01*
X102631139Y-110470180D01*
X102631037Y-110480851D01*
X102649371Y-110724689D01*
X102651068Y-110735226D01*
X102710225Y-110972490D01*
X102713673Y-110982589D01*
X102811959Y-111206493D01*
X102817060Y-111215868D01*
X102930275Y-111387568D01*
X103049321Y-111399660D01*
X104140000Y-110308980D01*
X105234748Y-111403729D01*
X105357715Y-111387758D01*
X105501397Y-111140888D01*
X105505966Y-111131243D01*
X105591600Y-110902202D01*
X105594479Y-110891926D01*
X105640357Y-110651432D01*
X105641472Y-110640209D01*
X105644078Y-110368643D01*
X105643179Y-110357401D01*
X105601928Y-110116072D01*
X105599246Y-110105742D01*
X105518024Y-109875098D01*
X105513640Y-109865367D01*
X105394718Y-109651706D01*
X105388758Y-109642854D01*
X105355911Y-109602000D01*
X111815305Y-109602000D01*
X111721239Y-109738868D01*
X111715959Y-109748143D01*
X111613392Y-109970120D01*
X111609751Y-109980151D01*
X111546049Y-110216235D01*
X111544150Y-110226737D01*
X111521139Y-110470180D01*
X111521037Y-110480851D01*
X111539371Y-110724689D01*
X111541068Y-110735226D01*
X111600225Y-110972490D01*
X111603673Y-110982589D01*
X111701959Y-111206493D01*
X111707060Y-111215868D01*
X111820275Y-111387568D01*
X111939321Y-111399660D01*
X113030000Y-110308980D01*
X114124748Y-111403729D01*
X114247715Y-111387758D01*
X114391397Y-111140888D01*
X114395966Y-111131243D01*
X114481600Y-110902202D01*
X114484479Y-110891926D01*
X114530357Y-110651432D01*
X114531472Y-110640209D01*
X114534078Y-110368643D01*
X114533179Y-110357401D01*
X114491928Y-110116072D01*
X114489246Y-110105742D01*
X114408024Y-109875098D01*
X114403640Y-109865367D01*
X114284718Y-109651706D01*
X114278758Y-109642854D01*
X114245911Y-109602000D01*
X120705305Y-109602000D01*
X120611239Y-109738868D01*
X120605959Y-109748143D01*
X120503392Y-109970120D01*
X120499751Y-109980151D01*
X120436049Y-110216235D01*
X120434150Y-110226737D01*
X120411139Y-110470180D01*
X120411037Y-110480851D01*
X120429371Y-110724689D01*
X120431068Y-110735226D01*
X120490225Y-110972490D01*
X120493673Y-110982589D01*
X120591959Y-111206493D01*
X120597060Y-111215868D01*
X120710275Y-111387568D01*
X120829321Y-111399660D01*
X121920000Y-110308980D01*
X123014748Y-111403729D01*
X123137715Y-111387758D01*
X123281397Y-111140888D01*
X123285966Y-111131243D01*
X123371600Y-110902202D01*
X123374479Y-110891926D01*
X123420357Y-110651432D01*
X123421472Y-110640209D01*
X123424078Y-110368643D01*
X123423179Y-110357401D01*
X123381928Y-110116072D01*
X123379246Y-110105742D01*
X123298024Y-109875098D01*
X123293640Y-109865367D01*
X123174718Y-109651706D01*
X123168758Y-109642854D01*
X123135911Y-109602000D01*
X129595305Y-109602000D01*
X129501239Y-109738868D01*
X129495959Y-109748143D01*
X129393392Y-109970120D01*
X129389751Y-109980151D01*
X129326049Y-110216235D01*
X129324150Y-110226737D01*
X129301139Y-110470180D01*
X129301037Y-110480851D01*
X129319371Y-110724689D01*
X129321068Y-110735226D01*
X129380225Y-110972490D01*
X129383673Y-110982589D01*
X129481959Y-111206493D01*
X129487060Y-111215868D01*
X129600275Y-111387568D01*
X129719321Y-111399660D01*
X130810000Y-110308980D01*
X131904748Y-111403729D01*
X132027715Y-111387758D01*
X132171397Y-111140888D01*
X132175966Y-111131243D01*
X132261600Y-110902202D01*
X132264479Y-110891926D01*
X132310357Y-110651432D01*
X132311472Y-110640209D01*
X132314078Y-110368643D01*
X132313179Y-110357401D01*
X132271928Y-110116072D01*
X132269246Y-110105742D01*
X132188024Y-109875098D01*
X132183640Y-109865367D01*
X132064718Y-109651706D01*
X132058758Y-109642854D01*
X132025911Y-109602000D01*
X138485305Y-109602000D01*
X138391239Y-109738868D01*
X138385959Y-109748143D01*
X138283392Y-109970120D01*
X138279751Y-109980151D01*
X138216049Y-110216235D01*
X138214150Y-110226737D01*
X138191139Y-110470180D01*
X138191037Y-110480851D01*
X138209371Y-110724689D01*
X138211068Y-110735226D01*
X138270225Y-110972490D01*
X138273673Y-110982589D01*
X138371959Y-111206493D01*
X138377060Y-111215868D01*
X138490275Y-111387568D01*
X138609321Y-111399660D01*
X139700000Y-110308980D01*
X140794748Y-111403729D01*
X140917715Y-111387758D01*
X141061397Y-111140888D01*
X141065966Y-111131243D01*
X141151600Y-110902202D01*
X141154479Y-110891926D01*
X141200357Y-110651432D01*
X141201472Y-110640209D01*
X141204078Y-110368643D01*
X141203179Y-110357401D01*
X141161928Y-110116072D01*
X141159246Y-110105742D01*
X141078024Y-109875098D01*
X141073640Y-109865367D01*
X140954718Y-109651706D01*
X140948758Y-109642854D01*
X140915911Y-109602000D01*
X147375305Y-109602000D01*
X147281239Y-109738868D01*
X147275959Y-109748143D01*
X147173392Y-109970120D01*
X147169751Y-109980151D01*
X147106049Y-110216235D01*
X147104150Y-110226737D01*
X147081139Y-110470180D01*
X147081037Y-110480851D01*
X147099371Y-110724689D01*
X147101068Y-110735226D01*
X147160225Y-110972490D01*
X147163673Y-110982589D01*
X147261959Y-111206493D01*
X147267060Y-111215868D01*
X147380275Y-111387568D01*
X147499321Y-111399660D01*
X148461172Y-110437809D01*
X148823210Y-110437809D01*
X148823210Y-110542191D01*
X149684748Y-111403729D01*
X149807715Y-111387758D01*
X149951397Y-111140888D01*
X149955966Y-111131243D01*
X150041600Y-110902202D01*
X150044479Y-110891926D01*
X150090357Y-110651432D01*
X150091472Y-110640209D01*
X150094078Y-110368643D01*
X150093179Y-110357401D01*
X150051928Y-110116072D01*
X150049246Y-110105742D01*
X149968024Y-109875098D01*
X149963640Y-109865367D01*
X149844718Y-109651707D01*
X149838759Y-109642855D01*
X149793205Y-109586195D01*
X149680907Y-109580112D01*
X148823210Y-110437809D01*
X148461172Y-110437809D01*
X149500581Y-109398400D01*
X149563353Y-109384745D01*
X149584188Y-109376115D01*
X149784620Y-109247304D01*
X149798241Y-109235501D01*
X149952783Y-109057151D01*
X149962527Y-109041989D01*
X150060561Y-108827324D01*
X150065639Y-108810031D01*
X150088300Y-108652420D01*
X150117336Y-108598718D01*
X150122112Y-108587356D01*
X150214251Y-108289701D01*
X150216730Y-108277628D01*
X150249300Y-107967747D01*
X150249386Y-107955422D01*
X150221146Y-107645116D01*
X150218836Y-107633010D01*
X150130862Y-107334098D01*
X150126245Y-107322671D01*
X150081327Y-107236752D01*
X150024745Y-106976647D01*
X150016115Y-106955813D01*
X149887304Y-106755380D01*
X149875501Y-106741759D01*
X149697151Y-106587217D01*
X149681989Y-106577473D01*
X149467324Y-106479439D01*
X149450031Y-106474361D01*
X149294393Y-106451984D01*
X149249364Y-106427229D01*
X149238036Y-106422374D01*
X148940822Y-106328093D01*
X148928326Y-106325482D01*
X148670134Y-106298345D01*
X148663544Y-106298000D01*
X77391623Y-106298000D01*
X77385471Y-106298301D01*
X77153736Y-106321023D01*
X77141645Y-106323417D01*
X76843356Y-106413476D01*
X76831961Y-106418172D01*
X76755125Y-106459027D01*
X76496647Y-106515255D01*
X76475812Y-106523885D01*
X76275380Y-106652696D01*
X76261759Y-106664499D01*
X76107217Y-106842849D01*
X76097473Y-106858011D01*
X75999439Y-107072676D01*
X75994361Y-107089969D01*
X75971700Y-107247580D01*
X75942664Y-107301282D01*
X75937888Y-107312644D01*
X75845749Y-107610299D01*
X75843270Y-107622372D01*
X75810700Y-107932253D01*
X75810614Y-107944578D01*
X65531000Y-107944578D01*
X65531000Y-106014247D01*
X157561245Y-106014247D01*
X157576050Y-106249567D01*
X157577748Y-106260661D01*
X157633991Y-106489640D01*
X157637626Y-106500257D01*
X157733528Y-106715657D01*
X157738986Y-106725463D01*
X157871517Y-106920477D01*
X157878625Y-106929161D01*
X158043595Y-107097624D01*
X158052129Y-107104912D01*
X158161600Y-107182710D01*
X158161601Y-107841520D01*
X157968380Y-107965696D01*
X157954759Y-107977499D01*
X157800217Y-108155849D01*
X157790473Y-108171011D01*
X157692439Y-108385676D01*
X157687361Y-108402969D01*
X157654418Y-108632093D01*
X157653776Y-108641070D01*
X157653776Y-109547184D01*
X157655220Y-109560614D01*
X157728255Y-109896353D01*
X157736885Y-109917188D01*
X157865696Y-110117620D01*
X157877499Y-110131241D01*
X158055849Y-110285783D01*
X158071011Y-110295527D01*
X158285676Y-110393561D01*
X158302969Y-110398639D01*
X158532093Y-110431582D01*
X158541070Y-110432224D01*
X159197184Y-110432224D01*
X159210614Y-110430780D01*
X159546353Y-110357745D01*
X159567188Y-110349115D01*
X159767620Y-110220304D01*
X159781241Y-110208501D01*
X159891974Y-110080709D01*
X159915696Y-110117620D01*
X159927499Y-110131241D01*
X160105849Y-110285783D01*
X160121011Y-110295527D01*
X160335676Y-110393561D01*
X160352969Y-110398639D01*
X160582093Y-110431582D01*
X160591070Y-110432224D01*
X160716191Y-110432224D01*
X160790000Y-110358415D01*
X160790000Y-107827585D01*
X161046000Y-107827585D01*
X161046000Y-110358415D01*
X161119809Y-110432224D01*
X161247184Y-110432224D01*
X161260614Y-110430780D01*
X161596353Y-110357745D01*
X161617188Y-110349115D01*
X161817620Y-110220304D01*
X161831241Y-110208501D01*
X161862298Y-110172659D01*
X161992849Y-110285783D01*
X162008011Y-110295527D01*
X162222676Y-110393561D01*
X162239969Y-110398639D01*
X162469093Y-110431582D01*
X162478070Y-110432224D01*
X162603191Y-110432224D01*
X162677000Y-110358415D01*
X162677001Y-109294808D01*
X162677000Y-109294807D01*
X162677001Y-107827585D01*
X162603192Y-107753776D01*
X162475816Y-107753776D01*
X162462386Y-107755220D01*
X162126647Y-107828255D01*
X162105812Y-107836885D01*
X161905380Y-107965696D01*
X161891759Y-107977499D01*
X161860702Y-108013341D01*
X161730151Y-107900217D01*
X161714989Y-107890473D01*
X161500324Y-107792439D01*
X161483031Y-107787361D01*
X161253907Y-107754418D01*
X161244930Y-107753776D01*
X161119809Y-107753776D01*
X161046000Y-107827585D01*
X160790000Y-107827585D01*
X160716191Y-107753776D01*
X160588816Y-107753776D01*
X160575386Y-107755220D01*
X160239647Y-107828255D01*
X160218812Y-107836885D01*
X160018380Y-107965696D01*
X160004759Y-107977499D01*
X159894026Y-108105291D01*
X159870304Y-108068380D01*
X159858501Y-108054759D01*
X159738400Y-107950691D01*
X159738400Y-107183015D01*
X159858921Y-107095452D01*
X159867378Y-107088074D01*
X160030575Y-106917894D01*
X160037592Y-106909135D01*
X160168073Y-106712746D01*
X160173429Y-106702882D01*
X160267070Y-106486490D01*
X160270594Y-106475834D01*
X160324624Y-106245474D01*
X160326271Y-106232704D01*
X160334209Y-105929582D01*
X160333233Y-105916742D01*
X160291332Y-105683870D01*
X160288371Y-105673045D01*
X160206183Y-105452048D01*
X160201351Y-105441919D01*
X160081327Y-105238969D01*
X160074778Y-105229855D01*
X159920711Y-105051367D01*
X159912651Y-105043557D01*
X159729412Y-104895173D01*
X159720097Y-104888914D01*
X159513478Y-104775323D01*
X159503201Y-104770812D01*
X159279731Y-104695606D01*
X159268819Y-104692986D01*
X159035563Y-104658542D01*
X159024359Y-104657896D01*
X158788690Y-104665302D01*
X158777549Y-104666651D01*
X158546916Y-104715673D01*
X158536189Y-104718973D01*
X158317883Y-104808063D01*
X158307911Y-104813210D01*
X158108831Y-104939549D01*
X158099927Y-104946382D01*
X157926367Y-105105979D01*
X157918814Y-105114280D01*
X157776259Y-105302089D01*
X157770295Y-105311596D01*
X157663251Y-105521682D01*
X157659065Y-105532095D01*
X157590915Y-105757817D01*
X157588639Y-105768807D01*
X157561539Y-106003028D01*
X157561245Y-106014247D01*
X65531000Y-106014247D01*
X65531000Y-103631000D01*
X180085731Y-103631000D01*
X179859473Y-103770196D01*
G37*
X179859473Y-103770196D02*
X179852659Y-103775038D01*
X179709924Y-103891451D01*
X179704261Y-104003242D01*
X181187809Y-105486790D01*
X181292191Y-105486790D01*
X182777502Y-104001479D01*
X182769271Y-103886665D01*
X182544677Y-103718648D01*
X182537666Y-103714095D01*
X182388985Y-103631000D01*
X184659000Y-103631000D01*
X184659000Y-121159000D01*
X169561135Y-121159000D01*
X169586561Y-121103324D01*
X169591639Y-121086031D01*
X169624582Y-120856907D01*
X169625224Y-120847930D01*
X169625224Y-119941816D01*
X169623780Y-119928386D01*
X169550745Y-119592647D01*
X169542115Y-119571812D01*
X169481999Y-119478270D01*
X179702749Y-119478270D01*
X179705585Y-119586503D01*
X179759307Y-119634871D01*
X179765875Y-119640039D01*
X180020275Y-119814231D01*
X180027471Y-119818486D01*
X180302675Y-119957501D01*
X180310370Y-119960768D01*
X180601542Y-120062165D01*
X180609602Y-120064385D01*
X180911627Y-120126382D01*
X180919909Y-120127517D01*
X181227480Y-120149024D01*
X181235840Y-120149053D01*
X181543554Y-120129693D01*
X181551844Y-120128616D01*
X181854295Y-120068730D01*
X181862369Y-120066566D01*
X182154243Y-119967205D01*
X182161961Y-119963992D01*
X182438129Y-119826901D01*
X182445354Y-119822696D01*
X182700965Y-119650284D01*
X182707570Y-119645161D01*
X182773573Y-119586561D01*
X182776800Y-119477819D01*
X181292191Y-117993210D01*
X181187809Y-117993210D01*
X179702749Y-119478270D01*
X169481999Y-119478270D01*
X169415273Y-119374444D01*
X169478783Y-119301151D01*
X169488527Y-119285989D01*
X169586561Y-119071324D01*
X169591639Y-119054031D01*
X169624582Y-118824907D01*
X169625224Y-118815930D01*
X169625224Y-117909816D01*
X169623780Y-117896386D01*
X169582323Y-117705809D01*
X178851558Y-117705809D01*
X178864470Y-118013860D01*
X178865372Y-118022171D01*
X178918912Y-118325810D01*
X178920906Y-118333928D01*
X179014133Y-118627819D01*
X179017183Y-118635602D01*
X179148461Y-118914580D01*
X179152514Y-118921892D01*
X179319535Y-119181057D01*
X179324519Y-119187768D01*
X179412792Y-119291490D01*
X179523062Y-119295919D01*
X181006790Y-117812191D01*
X181006790Y-117707809D01*
X181473210Y-117707809D01*
X181473210Y-117812191D01*
X182957154Y-119296135D01*
X183066915Y-119292110D01*
X183145467Y-119201105D01*
X183150498Y-119194429D01*
X183319324Y-118936437D01*
X183323428Y-118929153D01*
X183456650Y-118651098D01*
X183459755Y-118643336D01*
X183555031Y-118350105D01*
X183557081Y-118342001D01*
X183612879Y-118037985D01*
X183613896Y-118028137D01*
X183624161Y-117608149D01*
X183623626Y-117598262D01*
X183582746Y-117291884D01*
X183581094Y-117283689D01*
X183500255Y-116986152D01*
X183497533Y-116978248D01*
X183378053Y-116694017D01*
X183374310Y-116686542D01*
X183218289Y-116420611D01*
X183213590Y-116413696D01*
X183070590Y-116230665D01*
X182957284Y-116223735D01*
X181473210Y-117707809D01*
X181006790Y-117707809D01*
X179519527Y-116220546D01*
X179403212Y-116230109D01*
X179211764Y-116497522D01*
X179207359Y-116504627D01*
X179062610Y-116776859D01*
X179059183Y-116784484D01*
X178951710Y-117073470D01*
X178949322Y-117081481D01*
X178881014Y-117382142D01*
X178879706Y-117390399D01*
X178851763Y-117697452D01*
X178851558Y-117705809D01*
X169582323Y-117705809D01*
X169550745Y-117560647D01*
X169542115Y-117539812D01*
X169413304Y-117339380D01*
X169401501Y-117325759D01*
X169364500Y-117293697D01*
X169364500Y-116322611D01*
X169435359Y-116199880D01*
X169442900Y-116179163D01*
X169466866Y-116043242D01*
X179704261Y-116043242D01*
X181187809Y-117526790D01*
X181292191Y-117526790D01*
X182777502Y-116041479D01*
X182769271Y-115926665D01*
X182544677Y-115758648D01*
X182537666Y-115754095D01*
X182268525Y-115603677D01*
X182260973Y-115600091D01*
X181974302Y-115486590D01*
X181966343Y-115484035D01*
X181667179Y-115409445D01*
X181658951Y-115407964D01*
X181352550Y-115373596D01*
X181344199Y-115373217D01*
X181035944Y-115379674D01*
X181027616Y-115380403D01*
X180722923Y-115427572D01*
X180714765Y-115429395D01*
X180418987Y-115516448D01*
X180411142Y-115519334D01*
X180129475Y-115644739D01*
X180122080Y-115648638D01*
X179859473Y-115810196D01*
X179852659Y-115815038D01*
X179709924Y-115931451D01*
X179704261Y-116043242D01*
X169466866Y-116043242D01*
X169476878Y-115986462D01*
X169477837Y-115975501D01*
X169477837Y-115334614D01*
X172419736Y-112392717D01*
X172419749Y-112392702D01*
X173368952Y-111443500D01*
X175061451Y-111443500D01*
X175115137Y-111643859D01*
X175127880Y-111668339D01*
X175258990Y-111824590D01*
X175275879Y-111838761D01*
X175450120Y-111939359D01*
X175470837Y-111946900D01*
X175473824Y-111947427D01*
X175382029Y-112041822D01*
X175375263Y-112050074D01*
X175238683Y-112248798D01*
X175233403Y-112258073D01*
X175132260Y-112476968D01*
X175128618Y-112487000D01*
X175065802Y-112719807D01*
X175063903Y-112730309D01*
X175041211Y-112970372D01*
X175041109Y-112981043D01*
X175059188Y-113221497D01*
X175060885Y-113232034D01*
X175119221Y-113466005D01*
X175122669Y-113476104D01*
X175219591Y-113696900D01*
X175224692Y-113706275D01*
X175357430Y-113907584D01*
X175364038Y-113915965D01*
X175528798Y-114092032D01*
X175536722Y-114099180D01*
X175728792Y-114244968D01*
X175737808Y-114250679D01*
X175951696Y-114362021D01*
X175961545Y-114366131D01*
X176191134Y-114439844D01*
X176201535Y-114442236D01*
X176440262Y-114476212D01*
X176450917Y-114476817D01*
X176691956Y-114470084D01*
X176702561Y-114468885D01*
X176939019Y-114421636D01*
X176949270Y-114418667D01*
X177174387Y-114332253D01*
X177183991Y-114327600D01*
X177391330Y-114204491D01*
X177400012Y-114198286D01*
X177527053Y-114090167D01*
X177528798Y-114092032D01*
X177536722Y-114099180D01*
X177728792Y-114244968D01*
X177737808Y-114250679D01*
X177951696Y-114362021D01*
X177961545Y-114366131D01*
X178191134Y-114439844D01*
X178201535Y-114442236D01*
X178440262Y-114476212D01*
X178450917Y-114476817D01*
X178691956Y-114470084D01*
X178702561Y-114468885D01*
X178939019Y-114421636D01*
X178949270Y-114418667D01*
X179174387Y-114332253D01*
X179183991Y-114327600D01*
X179391330Y-114204491D01*
X179400012Y-114198286D01*
X179583645Y-114042004D01*
X179591158Y-114034424D01*
X179745833Y-113849435D01*
X179751962Y-113840698D01*
X179873256Y-113632294D01*
X179877825Y-113622650D01*
X179962272Y-113396787D01*
X179965151Y-113386511D01*
X180010392Y-113149351D01*
X180011507Y-113138128D01*
X180014077Y-112870341D01*
X180013178Y-112859099D01*
X179972499Y-112621114D01*
X179969817Y-112610784D01*
X179889723Y-112383343D01*
X179885339Y-112373612D01*
X179768067Y-112162916D01*
X179762107Y-112154064D01*
X179611013Y-111966140D01*
X179603647Y-111958417D01*
X179423049Y-111798638D01*
X179414486Y-111792267D01*
X179330842Y-111740406D01*
X179412936Y-111691662D01*
X179428285Y-111569304D01*
X178348980Y-110490000D01*
X178401171Y-110437809D01*
X178763210Y-110437809D01*
X178763210Y-110542191D01*
X179610119Y-111389100D01*
X179733085Y-111373129D01*
X179873256Y-111132294D01*
X179877825Y-111122650D01*
X179962272Y-110896787D01*
X179965151Y-110886511D01*
X180010392Y-110649351D01*
X180011507Y-110638128D01*
X180014077Y-110370341D01*
X180013178Y-110359099D01*
X179972499Y-110121114D01*
X179969817Y-110110784D01*
X179889723Y-109883343D01*
X179885339Y-109873612D01*
X179768068Y-109662917D01*
X179762109Y-109654066D01*
X179718981Y-109600422D01*
X179606682Y-109594337D01*
X178763210Y-110437809D01*
X178401171Y-110437809D01*
X179426767Y-109412214D01*
X179412765Y-109291199D01*
X179209549Y-109165201D01*
X179200036Y-109160365D01*
X178976619Y-109069645D01*
X178966427Y-109066480D01*
X178730919Y-109014700D01*
X178720340Y-109013298D01*
X178479475Y-109001939D01*
X178468809Y-109002339D01*
X178229474Y-109031727D01*
X178219030Y-109033918D01*
X177988068Y-109103210D01*
X177978142Y-109107130D01*
X177824496Y-109183400D01*
X177801010Y-109155410D01*
X177784121Y-109141239D01*
X177609880Y-109040641D01*
X177589163Y-109033100D01*
X177396462Y-108999122D01*
X177385501Y-108998163D01*
X175671742Y-108998163D01*
X175655366Y-109000319D01*
X175376142Y-109075137D01*
X175351662Y-109087880D01*
X175195410Y-109218990D01*
X175181239Y-109235879D01*
X175080641Y-109410120D01*
X175073100Y-109430837D01*
X175054469Y-109536500D01*
X173157036Y-109536500D01*
X173277783Y-109397151D01*
X173287527Y-109381989D01*
X173385561Y-109167324D01*
X173390639Y-109150031D01*
X173423582Y-108920907D01*
X173424224Y-108911930D01*
X173424224Y-108255816D01*
X173422780Y-108242386D01*
X173349745Y-107906647D01*
X173341115Y-107885812D01*
X173212304Y-107685380D01*
X173200501Y-107671759D01*
X173072709Y-107561026D01*
X173109620Y-107537304D01*
X173123241Y-107525501D01*
X173198827Y-107438270D01*
X179702749Y-107438270D01*
X179705585Y-107546503D01*
X179759307Y-107594871D01*
X179765875Y-107600039D01*
X180020275Y-107774231D01*
X180027471Y-107778486D01*
X180302675Y-107917501D01*
X180310370Y-107920768D01*
X180601542Y-108022165D01*
X180609602Y-108024385D01*
X180911627Y-108086382D01*
X180919909Y-108087517D01*
X181227480Y-108109024D01*
X181235840Y-108109053D01*
X181543554Y-108089693D01*
X181551844Y-108088616D01*
X181854295Y-108028730D01*
X181862369Y-108026566D01*
X182154243Y-107927205D01*
X182161961Y-107923992D01*
X182438129Y-107786901D01*
X182445354Y-107782696D01*
X182700965Y-107610284D01*
X182707570Y-107605161D01*
X182773573Y-107546561D01*
X182776800Y-107437819D01*
X181292191Y-105953210D01*
X181187809Y-105953210D01*
X179702749Y-107438270D01*
X173198827Y-107438270D01*
X173277783Y-107347151D01*
X173287527Y-107331989D01*
X173385561Y-107117324D01*
X173390639Y-107100031D01*
X173423582Y-106870907D01*
X173424224Y-106861930D01*
X173424224Y-106205816D01*
X173422780Y-106192386D01*
X173349745Y-105856647D01*
X173341115Y-105835812D01*
X173231860Y-105665809D01*
X178851558Y-105665809D01*
X178864470Y-105973860D01*
X178865372Y-105982171D01*
X178918912Y-106285810D01*
X178920906Y-106293928D01*
X179014133Y-106587819D01*
X179017183Y-106595602D01*
X179148461Y-106874580D01*
X179152514Y-106881892D01*
X179319535Y-107141057D01*
X179324519Y-107147768D01*
X179412792Y-107251490D01*
X179523062Y-107255919D01*
X181006790Y-105772191D01*
X181006790Y-105667809D01*
X181473210Y-105667809D01*
X181473210Y-105772191D01*
X182957154Y-107256135D01*
X183066915Y-107252110D01*
X183145467Y-107161105D01*
X183150498Y-107154429D01*
X183319324Y-106896437D01*
X183323428Y-106889153D01*
X183456650Y-106611098D01*
X183459755Y-106603336D01*
X183555031Y-106310105D01*
X183557081Y-106302001D01*
X183612879Y-105997985D01*
X183613896Y-105988137D01*
X183624161Y-105568149D01*
X183623626Y-105558262D01*
X183582746Y-105251884D01*
X183581094Y-105243689D01*
X183500255Y-104946152D01*
X183497533Y-104938248D01*
X183378053Y-104654017D01*
X183374310Y-104646542D01*
X183218289Y-104380611D01*
X183213590Y-104373696D01*
X183070590Y-104190665D01*
X182957284Y-104183735D01*
X181473210Y-105667809D01*
X181006790Y-105667809D01*
X179519527Y-104180546D01*
X179403212Y-104190109D01*
X179211764Y-104457522D01*
X179207359Y-104464627D01*
X179062610Y-104736859D01*
X179059183Y-104744484D01*
X178951710Y-105033470D01*
X178949322Y-105041481D01*
X178881014Y-105342142D01*
X178879706Y-105350399D01*
X178851763Y-105657452D01*
X178851558Y-105665809D01*
X173231860Y-105665809D01*
X173212304Y-105635380D01*
X173200501Y-105621759D01*
X173022151Y-105467217D01*
X173006989Y-105457473D01*
X172792324Y-105359439D01*
X172775031Y-105354361D01*
X172545907Y-105321418D01*
X172536930Y-105320776D01*
X171630816Y-105320776D01*
X171617386Y-105322220D01*
X171281647Y-105395255D01*
X171260812Y-105403885D01*
X171060380Y-105532696D01*
X171046759Y-105544499D01*
X171014697Y-105581500D01*
X169117492Y-105581500D01*
X169063259Y-105574360D01*
X169046741Y-105574360D01*
X168984320Y-105582578D01*
X168814345Y-105604956D01*
X168798390Y-105609231D01*
X168606077Y-105688890D01*
X168518165Y-105712446D01*
X168502905Y-105718767D01*
X168281095Y-105846829D01*
X168267991Y-105856884D01*
X168086884Y-106037991D01*
X168076829Y-106051095D01*
X167948767Y-106272905D01*
X167942446Y-106288165D01*
X167876156Y-106535562D01*
X167874000Y-106551938D01*
X167874000Y-106808062D01*
X167876156Y-106824438D01*
X167942446Y-107071835D01*
X167948767Y-107087095D01*
X168076829Y-107308905D01*
X168086884Y-107322009D01*
X168181376Y-107416501D01*
X167282488Y-107416501D01*
X167228257Y-107409361D01*
X167211739Y-107409361D01*
X167149320Y-107417579D01*
X166979344Y-107439957D01*
X166963390Y-107444232D01*
X166746831Y-107533934D01*
X166732527Y-107542192D01*
X166546563Y-107684886D01*
X166534884Y-107696565D01*
X166501575Y-107739974D01*
X165993107Y-108248442D01*
X165978165Y-108252446D01*
X165976137Y-108253286D01*
X165857304Y-108068380D01*
X165845501Y-108054759D01*
X165667151Y-107900217D01*
X165651989Y-107890473D01*
X165437324Y-107792439D01*
X165420031Y-107787361D01*
X165190907Y-107754418D01*
X165181930Y-107753776D01*
X164630740Y-107753776D01*
X164618400Y-107741436D01*
X164618400Y-107183015D01*
X164738921Y-107095452D01*
X164747378Y-107088074D01*
X164910575Y-106917894D01*
X164917592Y-106909135D01*
X165048073Y-106712746D01*
X165053429Y-106702882D01*
X165147070Y-106486490D01*
X165150594Y-106475834D01*
X165204624Y-106245474D01*
X165206271Y-106232704D01*
X165214209Y-105929582D01*
X165213233Y-105916742D01*
X165171332Y-105683870D01*
X165168371Y-105673045D01*
X165086183Y-105452048D01*
X165081351Y-105441919D01*
X164961327Y-105238969D01*
X164954778Y-105229855D01*
X164800711Y-105051367D01*
X164792651Y-105043557D01*
X164609412Y-104895173D01*
X164600097Y-104888914D01*
X164393478Y-104775323D01*
X164383201Y-104770812D01*
X164159731Y-104695606D01*
X164148819Y-104692986D01*
X163915563Y-104658542D01*
X163904359Y-104657896D01*
X163668690Y-104665302D01*
X163657549Y-104666651D01*
X163426916Y-104715673D01*
X163416189Y-104718973D01*
X163197883Y-104808063D01*
X163187911Y-104813210D01*
X162988831Y-104939549D01*
X162979927Y-104946382D01*
X162806367Y-105105979D01*
X162798814Y-105114280D01*
X162656259Y-105302089D01*
X162650295Y-105311596D01*
X162543251Y-105521682D01*
X162539065Y-105532095D01*
X162470915Y-105757817D01*
X162468639Y-105768807D01*
X162441539Y-106003028D01*
X162441245Y-106014247D01*
X162456050Y-106249567D01*
X162457748Y-106260661D01*
X162513991Y-106489640D01*
X162517626Y-106500257D01*
X162613528Y-106715657D01*
X162618986Y-106725463D01*
X162751517Y-106920477D01*
X162758625Y-106929161D01*
X162923596Y-107097624D01*
X162932130Y-107104913D01*
X163041601Y-107182709D01*
X163041601Y-107753776D01*
X163006809Y-107753776D01*
X162933000Y-107827585D01*
X162932999Y-108891192D01*
X162933000Y-108891193D01*
X162932999Y-110358415D01*
X163006808Y-110432224D01*
X163134184Y-110432224D01*
X163147614Y-110430780D01*
X163483353Y-110357745D01*
X163504188Y-110349115D01*
X163704620Y-110220304D01*
X163718241Y-110208501D01*
X163828974Y-110080709D01*
X163852696Y-110117620D01*
X163864499Y-110131241D01*
X164042849Y-110285783D01*
X164058011Y-110295527D01*
X164272676Y-110393561D01*
X164289969Y-110398639D01*
X164519093Y-110431582D01*
X164528070Y-110432224D01*
X165184184Y-110432224D01*
X165197614Y-110430780D01*
X165358185Y-110395850D01*
X164698260Y-111055776D01*
X164144816Y-111055776D01*
X164131386Y-111057220D01*
X163795647Y-111130255D01*
X163774812Y-111138885D01*
X163574380Y-111267696D01*
X163560759Y-111279499D01*
X163450026Y-111407291D01*
X163426304Y-111370380D01*
X163414501Y-111356759D01*
X163236151Y-111202217D01*
X163220989Y-111192473D01*
X163006324Y-111094439D01*
X162989031Y-111089361D01*
X162759907Y-111056418D01*
X162750930Y-111055776D01*
X162607332Y-111055776D01*
X162504171Y-110877095D01*
X162494116Y-110863991D01*
X162313009Y-110682884D01*
X162299905Y-110672829D01*
X162078095Y-110544767D01*
X162062835Y-110538446D01*
X161815438Y-110472156D01*
X161799062Y-110470000D01*
X161542938Y-110470000D01*
X161526562Y-110472156D01*
X161279165Y-110538446D01*
X161263905Y-110544767D01*
X161042095Y-110672829D01*
X161036000Y-110677506D01*
X161029905Y-110672829D01*
X160808095Y-110544767D01*
X160792835Y-110538446D01*
X160545438Y-110472156D01*
X160529062Y-110470000D01*
X160272938Y-110470000D01*
X160256562Y-110472156D01*
X160009165Y-110538446D01*
X159993905Y-110544767D01*
X159772095Y-110672829D01*
X159758991Y-110682884D01*
X159604671Y-110837204D01*
X159538095Y-110798767D01*
X159522835Y-110792446D01*
X159275438Y-110726156D01*
X159259062Y-110724000D01*
X159002938Y-110724000D01*
X158986562Y-110726156D01*
X158739165Y-110792446D01*
X158723905Y-110798767D01*
X158502095Y-110926829D01*
X158488991Y-110936884D01*
X158307884Y-111117991D01*
X158297829Y-111131095D01*
X158169767Y-111352905D01*
X158163446Y-111368165D01*
X158113075Y-111556152D01*
X158109323Y-111554439D01*
X158092030Y-111549361D01*
X157862906Y-111516418D01*
X157853929Y-111515776D01*
X156922817Y-111515776D01*
X156909387Y-111517220D01*
X156573647Y-111590255D01*
X156552813Y-111598885D01*
X156352380Y-111727696D01*
X156338759Y-111739499D01*
X156206083Y-111892615D01*
X156142151Y-111837217D01*
X156126989Y-111827473D01*
X155912324Y-111729439D01*
X155895031Y-111724361D01*
X155665907Y-111691418D01*
X155656930Y-111690776D01*
X155000816Y-111690776D01*
X154987386Y-111692220D01*
X154651647Y-111765255D01*
X154630812Y-111773885D01*
X154430380Y-111902696D01*
X154416759Y-111914499D01*
X154306026Y-112042291D01*
X154282304Y-112005380D01*
X154270501Y-111991759D01*
X154092151Y-111837217D01*
X154076989Y-111827473D01*
X153862324Y-111729439D01*
X153845031Y-111724361D01*
X153615907Y-111691418D01*
X153606930Y-111690776D01*
X153481809Y-111690776D01*
X153408000Y-111764585D01*
X153407999Y-112828192D01*
X153408000Y-112828193D01*
X153407999Y-113158000D01*
X152139585Y-113157999D01*
X152065776Y-113231808D01*
X152065776Y-113484184D01*
X152067220Y-113497614D01*
X152140255Y-113833353D01*
X152148885Y-113854188D01*
X152277696Y-114054620D01*
X152289499Y-114068241D01*
X152467849Y-114222783D01*
X152483011Y-114232527D01*
X152629159Y-114299270D01*
X152601647Y-114305255D01*
X152580812Y-114313885D01*
X152380380Y-114442696D01*
X152366759Y-114454499D01*
X152212217Y-114632849D01*
X152202473Y-114648011D01*
X152104439Y-114862676D01*
X152099361Y-114879969D01*
X152066418Y-115109093D01*
X152065776Y-115118070D01*
X152065776Y-115372882D01*
X152060044Y-115329344D01*
X152055769Y-115313391D01*
X151966067Y-115096832D01*
X151957809Y-115082528D01*
X151815115Y-114896564D01*
X151803435Y-114884885D01*
X151760035Y-114851583D01*
X149486522Y-112578070D01*
X152065776Y-112578070D01*
X152065776Y-112828191D01*
X152139585Y-112902000D01*
X153078191Y-112902001D01*
X153152000Y-112828192D01*
X153152001Y-111764585D01*
X153078192Y-111690776D01*
X152950816Y-111690776D01*
X152937386Y-111692220D01*
X152601647Y-111765255D01*
X152580812Y-111773885D01*
X152380380Y-111902696D01*
X152366759Y-111914499D01*
X152212217Y-112092849D01*
X152202473Y-112108011D01*
X152104439Y-112322676D01*
X152099361Y-112339969D01*
X152066418Y-112569093D01*
X152065776Y-112578070D01*
X149486522Y-112578070D01*
X149308424Y-112399973D01*
X149275115Y-112356564D01*
X149263436Y-112344885D01*
X149077472Y-112202191D01*
X149063168Y-112193933D01*
X148846609Y-112104231D01*
X148830655Y-112099956D01*
X148660679Y-112077578D01*
X148598259Y-112069360D01*
X148581741Y-112069360D01*
X148527508Y-112076500D01*
X144842492Y-112076500D01*
X144788259Y-112069360D01*
X144771741Y-112069360D01*
X144709320Y-112077578D01*
X144539345Y-112099956D01*
X144523391Y-112104231D01*
X144306832Y-112193933D01*
X144292528Y-112202191D01*
X144106564Y-112344885D01*
X144094885Y-112356564D01*
X144061576Y-112399973D01*
X141177044Y-115284505D01*
X141161928Y-115196072D01*
X141159246Y-115185742D01*
X141078024Y-114955098D01*
X141073640Y-114945367D01*
X140954718Y-114731706D01*
X140948758Y-114722854D01*
X140795537Y-114532284D01*
X140788171Y-114524562D01*
X140605031Y-114362534D01*
X140596468Y-114356163D01*
X140506440Y-114300344D01*
X140573001Y-114260823D01*
X140581683Y-114254618D01*
X140767901Y-114096135D01*
X140775414Y-114088556D01*
X140932266Y-113900963D01*
X140938394Y-113892226D01*
X141061397Y-113680888D01*
X141065966Y-113671243D01*
X141151600Y-113442202D01*
X141154479Y-113431926D01*
X141200357Y-113191432D01*
X141201472Y-113180209D01*
X141204078Y-112908643D01*
X141203179Y-112897401D01*
X141161928Y-112656072D01*
X141159246Y-112645742D01*
X141078024Y-112415098D01*
X141073640Y-112405367D01*
X140954718Y-112191706D01*
X140948758Y-112182854D01*
X140795537Y-111992284D01*
X140788171Y-111984562D01*
X140605031Y-111822534D01*
X140596468Y-111816163D01*
X140506440Y-111760344D01*
X140597532Y-111706258D01*
X140612881Y-111583900D01*
X140608912Y-111579931D01*
X147681088Y-111579931D01*
X147688882Y-111694244D01*
X147778051Y-111761926D01*
X147787067Y-111767637D01*
X148003965Y-111880546D01*
X148013814Y-111884656D01*
X148246636Y-111959407D01*
X148257037Y-111961798D01*
X148499124Y-111996253D01*
X148509779Y-111996858D01*
X148754211Y-111990030D01*
X148764816Y-111988831D01*
X149004603Y-111940917D01*
X149014854Y-111937948D01*
X149243139Y-111850318D01*
X149252743Y-111845665D01*
X149487532Y-111706258D01*
X149502881Y-111583900D01*
X148642191Y-110723210D01*
X148537809Y-110723210D01*
X147681088Y-111579931D01*
X140608912Y-111579931D01*
X139752191Y-110723210D01*
X139647809Y-110723210D01*
X138791088Y-111579931D01*
X138798882Y-111694244D01*
X138887184Y-111761268D01*
X138715043Y-111886796D01*
X138706982Y-111893791D01*
X138536507Y-112069095D01*
X138530435Y-112076500D01*
X138492489Y-112076500D01*
X138438258Y-112069360D01*
X138421740Y-112069360D01*
X138359321Y-112077578D01*
X138189345Y-112099956D01*
X138173391Y-112104231D01*
X137956832Y-112193933D01*
X137942528Y-112202191D01*
X137756564Y-112344885D01*
X137744885Y-112356564D01*
X137711579Y-112399969D01*
X136529973Y-113581576D01*
X136486564Y-113614885D01*
X136474884Y-113626565D01*
X136350197Y-113789063D01*
X136332191Y-113812528D01*
X136323933Y-113826833D01*
X136234231Y-114043392D01*
X136229956Y-114059346D01*
X136199360Y-114291741D01*
X136199360Y-114308259D01*
X136206500Y-114362492D01*
X136206501Y-117157501D01*
X136199360Y-117211741D01*
X136199360Y-117228259D01*
X136229956Y-117460654D01*
X136234231Y-117476608D01*
X136323933Y-117693168D01*
X136332192Y-117707473D01*
X136344035Y-117722907D01*
X136344036Y-117722906D01*
X136474886Y-117893436D01*
X136486566Y-117905115D01*
X136529962Y-117938414D01*
X136958163Y-118366616D01*
X136958163Y-118718258D01*
X136960319Y-118734634D01*
X137035137Y-119013859D01*
X137047880Y-119038339D01*
X137178990Y-119194590D01*
X137195879Y-119208761D01*
X137370120Y-119309359D01*
X137390837Y-119316900D01*
X137583538Y-119350878D01*
X137594499Y-119351837D01*
X138508258Y-119351837D01*
X138524634Y-119349681D01*
X138803859Y-119274863D01*
X138828339Y-119262120D01*
X138984590Y-119131010D01*
X138998761Y-119114121D01*
X139099359Y-118939880D01*
X139106900Y-118919163D01*
X139140878Y-118726462D01*
X139141837Y-118715501D01*
X139141837Y-117501742D01*
X139139681Y-117485366D01*
X139064863Y-117206142D01*
X139052120Y-117181662D01*
X138921010Y-117025410D01*
X138904121Y-117011239D01*
X138729880Y-116910641D01*
X138709163Y-116903100D01*
X138516462Y-116869122D01*
X138505501Y-116868163D01*
X138156614Y-116868163D01*
X138113500Y-116825049D01*
X138113500Y-114694952D01*
X138673830Y-114134623D01*
X138685353Y-114146937D01*
X138693278Y-114154084D01*
X138887184Y-114301268D01*
X138715043Y-114426796D01*
X138706982Y-114433791D01*
X138536507Y-114609095D01*
X138529740Y-114617347D01*
X138391239Y-114818868D01*
X138385959Y-114828143D01*
X138283392Y-115050120D01*
X138279751Y-115060151D01*
X138216049Y-115296235D01*
X138214150Y-115306737D01*
X138191139Y-115550180D01*
X138191037Y-115560851D01*
X138209371Y-115804689D01*
X138211068Y-115815226D01*
X138270225Y-116052490D01*
X138273673Y-116062589D01*
X138371959Y-116286493D01*
X138377060Y-116295868D01*
X138511668Y-116500011D01*
X138518275Y-116508392D01*
X138685353Y-116686937D01*
X138693278Y-116694084D01*
X138888051Y-116841926D01*
X138897067Y-116847636D01*
X139113965Y-116960546D01*
X139123814Y-116964656D01*
X139356636Y-117039407D01*
X139367037Y-117041798D01*
X139609124Y-117076253D01*
X139619779Y-117076858D01*
X139864211Y-117070030D01*
X139874816Y-117068831D01*
X140114603Y-117020917D01*
X140124854Y-117017948D01*
X140353139Y-116930318D01*
X140362743Y-116925665D01*
X140396501Y-116905621D01*
X140396501Y-117114085D01*
X140300641Y-117280120D01*
X140293100Y-117300837D01*
X140259122Y-117493538D01*
X140258163Y-117504499D01*
X140258163Y-118718258D01*
X140260319Y-118734634D01*
X140335137Y-119013859D01*
X140347880Y-119038339D01*
X140478990Y-119194590D01*
X140495879Y-119208761D01*
X140670120Y-119309359D01*
X140690837Y-119316900D01*
X140883538Y-119350878D01*
X140894499Y-119351837D01*
X141243384Y-119351837D01*
X141286501Y-119394953D01*
X141286501Y-119696500D01*
X135953500Y-119696500D01*
X135953500Y-119105913D01*
X136049359Y-118939880D01*
X136056900Y-118919163D01*
X136090878Y-118726462D01*
X136091837Y-118715501D01*
X136091837Y-117501742D01*
X136089681Y-117485366D01*
X136014863Y-117206142D01*
X136002120Y-117181662D01*
X135871010Y-117025410D01*
X135854121Y-117011239D01*
X135679880Y-116910641D01*
X135659163Y-116903100D01*
X135466462Y-116869122D01*
X135455501Y-116868163D01*
X134541742Y-116868163D01*
X134525366Y-116870319D01*
X134246142Y-116945137D01*
X134221662Y-116957880D01*
X134076106Y-117080015D01*
X134177809Y-116947472D01*
X134186067Y-116933168D01*
X134275769Y-116716609D01*
X134280044Y-116700655D01*
X134302422Y-116530679D01*
X134310640Y-116468260D01*
X134310640Y-116451743D01*
X134303500Y-116397509D01*
X134303500Y-114362489D01*
X134310640Y-114308258D01*
X134310640Y-114291740D01*
X134299285Y-114205492D01*
X134280044Y-114059345D01*
X134275769Y-114043391D01*
X134186067Y-113826832D01*
X134177809Y-113812528D01*
X134035115Y-113626564D01*
X134023435Y-113614885D01*
X133980035Y-113581583D01*
X132798424Y-112399973D01*
X132765115Y-112356564D01*
X132753436Y-112344885D01*
X132567472Y-112202191D01*
X132553168Y-112193933D01*
X132336609Y-112104231D01*
X132320655Y-112099956D01*
X132150679Y-112077578D01*
X132088259Y-112069360D01*
X132071741Y-112069360D01*
X132017508Y-112076500D01*
X131973248Y-112076500D01*
X131905537Y-111992284D01*
X131898171Y-111984562D01*
X131715031Y-111822534D01*
X131706468Y-111816163D01*
X131616440Y-111760344D01*
X131707532Y-111706258D01*
X131722881Y-111583900D01*
X130862191Y-110723210D01*
X130757809Y-110723210D01*
X129901088Y-111579931D01*
X129908882Y-111694244D01*
X129997184Y-111761268D01*
X129825043Y-111886796D01*
X129816982Y-111893791D01*
X129646507Y-112069095D01*
X129639740Y-112077347D01*
X129501239Y-112278868D01*
X129495959Y-112288143D01*
X129393392Y-112510120D01*
X129389751Y-112520151D01*
X129326049Y-112756235D01*
X129324150Y-112766737D01*
X129301139Y-113010180D01*
X129301037Y-113020851D01*
X129319371Y-113264689D01*
X129321068Y-113275226D01*
X129380225Y-113512490D01*
X129383673Y-113522589D01*
X129481959Y-113746493D01*
X129487060Y-113755868D01*
X129621668Y-113960011D01*
X129628275Y-113968392D01*
X129795353Y-114146937D01*
X129803278Y-114154084D01*
X129997184Y-114301268D01*
X129825043Y-114426796D01*
X129816982Y-114433791D01*
X129646507Y-114609095D01*
X129639740Y-114617347D01*
X129501239Y-114818868D01*
X129495959Y-114828143D01*
X129393392Y-115050120D01*
X129389751Y-115060151D01*
X129326049Y-115296235D01*
X129324150Y-115306737D01*
X129301139Y-115550180D01*
X129301037Y-115560851D01*
X129319371Y-115804689D01*
X129321068Y-115815226D01*
X129380225Y-116052490D01*
X129383673Y-116062589D01*
X129481959Y-116286493D01*
X129487060Y-116295868D01*
X129621668Y-116500011D01*
X129628275Y-116508392D01*
X129795353Y-116686937D01*
X129803278Y-116694084D01*
X129998051Y-116841926D01*
X130007067Y-116847636D01*
X130223965Y-116960546D01*
X130233814Y-116964656D01*
X130466636Y-117039407D01*
X130477037Y-117041798D01*
X130719124Y-117076253D01*
X130729779Y-117076858D01*
X130781593Y-117075411D01*
X130765410Y-117088990D01*
X130751239Y-117105879D01*
X130650641Y-117280120D01*
X130643100Y-117300837D01*
X130609122Y-117493538D01*
X130608163Y-117504499D01*
X130608163Y-118718258D01*
X130610319Y-118734634D01*
X130685137Y-119013859D01*
X130697880Y-119038339D01*
X130828990Y-119194590D01*
X130845879Y-119208761D01*
X131020120Y-119309359D01*
X131040837Y-119316900D01*
X131233538Y-119350878D01*
X131244499Y-119351837D01*
X132158258Y-119351837D01*
X132174634Y-119349681D01*
X132453859Y-119274863D01*
X132478339Y-119262120D01*
X132634590Y-119131010D01*
X132648761Y-119114121D01*
X132749359Y-118939880D01*
X132756900Y-118919163D01*
X132790878Y-118726462D01*
X132791837Y-118715501D01*
X132791837Y-118366614D01*
X133980031Y-117178421D01*
X134023436Y-117145115D01*
X134035115Y-117133436D01*
X134035979Y-117132310D01*
X133950641Y-117280120D01*
X133943100Y-117300837D01*
X133909122Y-117493538D01*
X133908163Y-117504499D01*
X133908163Y-118718258D01*
X133910319Y-118734634D01*
X133985137Y-119013859D01*
X133997880Y-119038339D01*
X134046500Y-119096282D01*
X134046501Y-119696500D01*
X128333500Y-119696500D01*
X128333500Y-119105913D01*
X128429359Y-118939880D01*
X128436900Y-118919163D01*
X128470878Y-118726462D01*
X128471837Y-118715501D01*
X128471837Y-117501742D01*
X128469681Y-117485366D01*
X128394863Y-117206142D01*
X128382120Y-117181662D01*
X128251010Y-117025410D01*
X128234121Y-117011239D01*
X128059880Y-116910641D01*
X128039163Y-116903100D01*
X127846462Y-116869122D01*
X127835501Y-116868163D01*
X126921742Y-116868163D01*
X126905366Y-116870319D01*
X126626142Y-116945137D01*
X126601662Y-116957880D01*
X126445410Y-117088990D01*
X126431239Y-117105879D01*
X126330641Y-117280120D01*
X126323100Y-117300837D01*
X126289122Y-117493538D01*
X126288163Y-117504499D01*
X126288163Y-118718258D01*
X126290319Y-118734634D01*
X126365137Y-119013859D01*
X126377880Y-119038339D01*
X126426500Y-119096282D01*
X126426501Y-119696500D01*
X119443500Y-119696500D01*
X119443500Y-119105913D01*
X119539359Y-118939880D01*
X119546900Y-118919163D01*
X119580878Y-118726462D01*
X119581837Y-118715501D01*
X119581837Y-117501742D01*
X119579681Y-117485366D01*
X119504863Y-117206142D01*
X119492120Y-117181662D01*
X119361010Y-117025410D01*
X119344121Y-117011239D01*
X119169880Y-116910641D01*
X119149163Y-116903100D01*
X118956462Y-116869122D01*
X118945501Y-116868163D01*
X118031742Y-116868163D01*
X118015366Y-116870319D01*
X117736142Y-116945137D01*
X117711662Y-116957880D01*
X117555410Y-117088990D01*
X117541239Y-117105879D01*
X117440641Y-117280120D01*
X117433100Y-117300837D01*
X117399122Y-117493538D01*
X117398163Y-117504499D01*
X117398163Y-118718258D01*
X117400319Y-118734634D01*
X117475137Y-119013859D01*
X117487880Y-119038339D01*
X117536500Y-119096282D01*
X117536501Y-119696500D01*
X110553500Y-119696500D01*
X110553500Y-119105913D01*
X110649359Y-118939880D01*
X110656900Y-118919163D01*
X110690878Y-118726462D01*
X110691837Y-118715501D01*
X110691837Y-117501742D01*
X110689681Y-117485366D01*
X110614863Y-117206142D01*
X110602120Y-117181662D01*
X110471010Y-117025410D01*
X110454121Y-117011239D01*
X110279880Y-116910641D01*
X110259163Y-116903100D01*
X110066462Y-116869122D01*
X110055501Y-116868163D01*
X109141742Y-116868163D01*
X109125366Y-116870319D01*
X108846142Y-116945137D01*
X108821662Y-116957880D01*
X108665410Y-117088990D01*
X108651239Y-117105879D01*
X108550641Y-117280120D01*
X108543100Y-117300837D01*
X108509122Y-117493538D01*
X108508163Y-117504499D01*
X108508163Y-118718258D01*
X108510319Y-118734634D01*
X108585137Y-119013859D01*
X108597880Y-119038339D01*
X108646500Y-119096282D01*
X108646501Y-119696500D01*
X101663500Y-119696500D01*
X101663500Y-119105913D01*
X101759359Y-118939880D01*
X101766900Y-118919163D01*
X101800878Y-118726462D01*
X101801837Y-118715501D01*
X101801837Y-117501742D01*
X101799681Y-117485366D01*
X101724863Y-117206142D01*
X101712120Y-117181662D01*
X101581010Y-117025410D01*
X101564121Y-117011239D01*
X101389880Y-116910641D01*
X101369163Y-116903100D01*
X101176462Y-116869122D01*
X101165501Y-116868163D01*
X100251742Y-116868163D01*
X100235366Y-116870319D01*
X99956142Y-116945137D01*
X99931662Y-116957880D01*
X99775410Y-117088990D01*
X99761239Y-117105879D01*
X99660641Y-117280120D01*
X99653100Y-117300837D01*
X99619122Y-117493538D01*
X99618163Y-117504499D01*
X99618163Y-118718258D01*
X99620319Y-118734634D01*
X99695137Y-119013859D01*
X99707880Y-119038339D01*
X99756500Y-119096282D01*
X99756501Y-119696500D01*
X92773500Y-119696500D01*
X92773500Y-119105913D01*
X92869359Y-118939880D01*
X92876900Y-118919163D01*
X92910878Y-118726462D01*
X92911837Y-118715501D01*
X92911837Y-117501742D01*
X92909681Y-117485366D01*
X92834863Y-117206142D01*
X92822120Y-117181662D01*
X92691010Y-117025410D01*
X92674121Y-117011239D01*
X92499880Y-116910641D01*
X92479163Y-116903100D01*
X92286462Y-116869122D01*
X92275501Y-116868163D01*
X91361742Y-116868163D01*
X91345366Y-116870319D01*
X91066142Y-116945137D01*
X91041662Y-116957880D01*
X90885410Y-117088990D01*
X90871239Y-117105879D01*
X90770641Y-117280120D01*
X90763100Y-117300837D01*
X90729122Y-117493538D01*
X90728163Y-117504499D01*
X90728163Y-118718258D01*
X90730319Y-118734634D01*
X90805137Y-119013859D01*
X90817880Y-119038339D01*
X90866500Y-119096282D01*
X90866501Y-119696500D01*
X85484953Y-119696500D01*
X85153500Y-119365048D01*
X85153500Y-119105913D01*
X85249359Y-118939880D01*
X85256900Y-118919163D01*
X85290878Y-118726462D01*
X85291837Y-118715501D01*
X85291837Y-117501742D01*
X85289681Y-117485366D01*
X85214863Y-117206142D01*
X85202120Y-117181662D01*
X85071010Y-117025410D01*
X85054121Y-117011239D01*
X84879880Y-116910641D01*
X84859163Y-116903100D01*
X84666462Y-116869122D01*
X84655501Y-116868163D01*
X83741742Y-116868163D01*
X83725366Y-116870319D01*
X83446142Y-116945137D01*
X83421662Y-116957880D01*
X83265410Y-117088990D01*
X83251239Y-117105879D01*
X83150641Y-117280120D01*
X83143100Y-117300837D01*
X83109122Y-117493538D01*
X83108163Y-117504499D01*
X83108163Y-118718258D01*
X83110319Y-118734634D01*
X83185137Y-119013859D01*
X83197881Y-119038340D01*
X83246501Y-119096283D01*
X83246501Y-119697501D01*
X83239360Y-119751741D01*
X83239360Y-119768259D01*
X83269956Y-120000654D01*
X83274231Y-120016608D01*
X83363933Y-120233167D01*
X83372191Y-120247472D01*
X83400378Y-120284205D01*
X83514886Y-120433436D01*
X83526565Y-120445115D01*
X83569962Y-120478414D01*
X84250547Y-121159000D01*
X65531000Y-121159000D01*
X65531000Y-118234598D01*
X66344541Y-118234598D01*
X66345035Y-118243164D01*
X66382133Y-118536832D01*
X66383785Y-118545252D01*
X66460397Y-118831168D01*
X66463176Y-118839285D01*
X66577881Y-119112159D01*
X66581736Y-119119824D01*
X66732413Y-119374606D01*
X66737273Y-119381677D01*
X66921134Y-119613652D01*
X66926909Y-119619998D01*
X67140551Y-119824873D01*
X67147133Y-119830377D01*
X67386605Y-120004363D01*
X67393873Y-120008922D01*
X67654740Y-120148798D01*
X67662560Y-120152329D01*
X67939998Y-120255507D01*
X67948224Y-120257944D01*
X68237098Y-120322514D01*
X68245579Y-120323812D01*
X68540543Y-120348581D01*
X68549122Y-120348716D01*
X68844718Y-120333225D01*
X68853236Y-120332194D01*
X69143996Y-120276728D01*
X69152295Y-120274551D01*
X69432836Y-120180138D01*
X69440762Y-120176855D01*
X69705895Y-120045242D01*
X69713303Y-120040914D01*
X69958121Y-119874536D01*
X69964873Y-119869242D01*
X70184846Y-119671178D01*
X70190816Y-119665016D01*
X70381873Y-119438930D01*
X70386953Y-119432015D01*
X70545559Y-119182093D01*
X70549653Y-119174553D01*
X70672873Y-118905417D01*
X70675905Y-118897391D01*
X70761459Y-118614022D01*
X70763375Y-118605659D01*
X70809731Y-118312974D01*
X70810505Y-118303766D01*
X70814073Y-117962988D01*
X70813493Y-117953766D01*
X70773276Y-117660176D01*
X70771536Y-117651774D01*
X70691936Y-117366675D01*
X70689072Y-117358588D01*
X70571515Y-117086930D01*
X70567580Y-117079306D01*
X70414243Y-116826116D01*
X70409309Y-116819096D01*
X70223029Y-116589060D01*
X70217188Y-116582775D01*
X70001412Y-116380147D01*
X69994772Y-116374713D01*
X69753493Y-116203244D01*
X69746177Y-116198761D01*
X69483859Y-116061625D01*
X69476003Y-116058176D01*
X69197500Y-115957909D01*
X69189248Y-115955558D01*
X68899715Y-115894016D01*
X68891220Y-115892807D01*
X68596013Y-115871128D01*
X68587433Y-115871083D01*
X68292015Y-115889669D01*
X68283508Y-115890789D01*
X67993346Y-115949297D01*
X67985070Y-115951561D01*
X67705533Y-116048905D01*
X67697641Y-116052272D01*
X67433901Y-116186654D01*
X67426539Y-116191060D01*
X67183476Y-116359992D01*
X67176781Y-116365357D01*
X66958894Y-116565713D01*
X66952988Y-116571937D01*
X66764309Y-116800011D01*
X66759302Y-116806979D01*
X66603323Y-117058549D01*
X66599308Y-117066131D01*
X66478912Y-117336543D01*
X66475964Y-117344601D01*
X66393382Y-117628850D01*
X66391554Y-117637233D01*
X66348313Y-117930059D01*
X66347640Y-117938613D01*
X66344541Y-118234598D01*
X65531000Y-118234598D01*
X65531000Y-113020851D01*
X75961037Y-113020851D01*
X75979371Y-113264689D01*
X75981068Y-113275226D01*
X76040225Y-113512490D01*
X76043673Y-113522589D01*
X76141959Y-113746493D01*
X76147060Y-113755868D01*
X76281668Y-113960011D01*
X76288275Y-113968392D01*
X76455353Y-114146937D01*
X76463278Y-114154084D01*
X76657184Y-114301268D01*
X76485043Y-114426796D01*
X76476982Y-114433791D01*
X76306507Y-114609095D01*
X76299740Y-114617347D01*
X76161239Y-114818868D01*
X76155959Y-114828143D01*
X76053392Y-115050120D01*
X76049751Y-115060151D01*
X75986049Y-115296235D01*
X75984150Y-115306737D01*
X75961139Y-115550180D01*
X75961037Y-115560851D01*
X75979371Y-115804689D01*
X75981068Y-115815226D01*
X76040225Y-116052490D01*
X76043673Y-116062589D01*
X76141959Y-116286493D01*
X76147060Y-116295868D01*
X76281668Y-116500011D01*
X76288275Y-116508392D01*
X76455353Y-116686937D01*
X76463278Y-116694084D01*
X76658051Y-116841926D01*
X76667067Y-116847636D01*
X76883965Y-116960546D01*
X76893814Y-116964656D01*
X77126636Y-117039407D01*
X77137037Y-117041798D01*
X77379124Y-117076253D01*
X77389779Y-117076858D01*
X77634211Y-117070030D01*
X77644816Y-117068831D01*
X77884603Y-117020917D01*
X77894854Y-117017948D01*
X78123139Y-116930318D01*
X78132743Y-116925665D01*
X78343001Y-116800823D01*
X78351683Y-116794618D01*
X78537901Y-116636135D01*
X78545414Y-116628556D01*
X78702266Y-116440963D01*
X78708394Y-116432226D01*
X78831397Y-116220888D01*
X78835966Y-116211243D01*
X78921600Y-115982202D01*
X78924479Y-115971926D01*
X78970357Y-115731432D01*
X78971472Y-115720209D01*
X78974078Y-115448643D01*
X78973179Y-115437401D01*
X78931928Y-115196072D01*
X78929246Y-115185742D01*
X78848024Y-114955098D01*
X78843640Y-114945367D01*
X78724718Y-114731706D01*
X78718758Y-114722854D01*
X78565537Y-114532284D01*
X78558171Y-114524562D01*
X78375031Y-114362534D01*
X78366468Y-114356163D01*
X78276440Y-114300344D01*
X78343001Y-114260823D01*
X78351683Y-114254618D01*
X78494565Y-114133017D01*
X79946500Y-115584952D01*
X79946501Y-117114086D01*
X79850641Y-117280120D01*
X79843100Y-117300837D01*
X79809122Y-117493538D01*
X79808163Y-117504499D01*
X79808163Y-118718258D01*
X79810319Y-118734634D01*
X79885137Y-119013859D01*
X79897880Y-119038339D01*
X80028990Y-119194590D01*
X80045879Y-119208761D01*
X80220120Y-119309359D01*
X80240837Y-119316900D01*
X80433538Y-119350878D01*
X80444499Y-119351837D01*
X81358258Y-119351837D01*
X81374634Y-119349681D01*
X81653859Y-119274863D01*
X81678339Y-119262120D01*
X81834590Y-119131010D01*
X81848761Y-119114121D01*
X81949359Y-118939880D01*
X81956900Y-118919163D01*
X81990878Y-118726462D01*
X81991837Y-118715501D01*
X81991837Y-117501742D01*
X81989681Y-117485366D01*
X81914863Y-117206142D01*
X81902120Y-117181662D01*
X81853500Y-117123719D01*
X81853500Y-115252489D01*
X81860640Y-115198258D01*
X81860640Y-115181740D01*
X81852422Y-115119320D01*
X81830044Y-114949344D01*
X81825769Y-114933391D01*
X81736067Y-114716832D01*
X81727809Y-114702528D01*
X81585115Y-114516564D01*
X81573435Y-114504885D01*
X81530035Y-114471583D01*
X80079303Y-113020851D01*
X84851037Y-113020851D01*
X84869371Y-113264689D01*
X84871068Y-113275226D01*
X84930225Y-113512490D01*
X84933673Y-113522589D01*
X85031959Y-113746493D01*
X85037060Y-113755868D01*
X85171668Y-113960011D01*
X85178275Y-113968392D01*
X85345353Y-114146937D01*
X85353278Y-114154084D01*
X85547184Y-114301268D01*
X85375043Y-114426796D01*
X85366982Y-114433791D01*
X85196507Y-114609095D01*
X85189740Y-114617347D01*
X85051239Y-114818868D01*
X85045959Y-114828143D01*
X84943392Y-115050120D01*
X84939751Y-115060151D01*
X84876049Y-115296235D01*
X84874150Y-115306737D01*
X84851139Y-115550180D01*
X84851037Y-115560851D01*
X84869371Y-115804689D01*
X84871068Y-115815226D01*
X84930225Y-116052490D01*
X84933673Y-116062589D01*
X85031959Y-116286493D01*
X85037060Y-116295868D01*
X85171668Y-116500011D01*
X85178275Y-116508392D01*
X85345353Y-116686937D01*
X85353278Y-116694084D01*
X85548051Y-116841926D01*
X85557067Y-116847636D01*
X85773965Y-116960546D01*
X85783814Y-116964656D01*
X86016636Y-117039407D01*
X86027037Y-117041798D01*
X86269124Y-117076253D01*
X86279779Y-117076858D01*
X86524211Y-117070030D01*
X86534816Y-117068831D01*
X86774603Y-117020917D01*
X86784854Y-117017948D01*
X87013139Y-116930318D01*
X87022743Y-116925665D01*
X87233001Y-116800823D01*
X87241683Y-116794618D01*
X87427901Y-116636135D01*
X87435414Y-116628556D01*
X87566500Y-116471778D01*
X87566501Y-117114086D01*
X87470641Y-117280120D01*
X87463100Y-117300837D01*
X87429122Y-117493538D01*
X87428163Y-117504499D01*
X87428163Y-118718258D01*
X87430319Y-118734634D01*
X87505137Y-119013859D01*
X87517880Y-119038339D01*
X87648990Y-119194590D01*
X87665879Y-119208761D01*
X87840120Y-119309359D01*
X87860837Y-119316900D01*
X88053538Y-119350878D01*
X88064499Y-119351837D01*
X88978258Y-119351837D01*
X88994634Y-119349681D01*
X89273859Y-119274863D01*
X89298339Y-119262120D01*
X89454590Y-119131010D01*
X89468761Y-119114121D01*
X89569359Y-118939880D01*
X89576900Y-118919163D01*
X89610878Y-118726462D01*
X89611837Y-118715501D01*
X89611837Y-117501742D01*
X89609681Y-117485366D01*
X89534863Y-117206142D01*
X89522120Y-117181662D01*
X89473500Y-117123719D01*
X89473500Y-115074951D01*
X89530037Y-115018414D01*
X89573435Y-114985114D01*
X89585113Y-114973436D01*
X89628037Y-114917498D01*
X89628038Y-114917497D01*
X89727809Y-114787471D01*
X89736068Y-114773167D01*
X89825768Y-114556609D01*
X89830043Y-114540656D01*
X89860640Y-114308261D01*
X89860640Y-114291746D01*
X89857302Y-114266387D01*
X89857302Y-114266384D01*
X89830043Y-114059344D01*
X89825768Y-114043391D01*
X89736068Y-113826832D01*
X89727809Y-113812528D01*
X89620931Y-113673241D01*
X89620924Y-113673233D01*
X89585114Y-113626565D01*
X89573435Y-113614886D01*
X89530038Y-113581586D01*
X88969303Y-113020851D01*
X93741037Y-113020851D01*
X93759371Y-113264689D01*
X93761068Y-113275226D01*
X93820225Y-113512490D01*
X93823673Y-113522589D01*
X93921959Y-113746493D01*
X93927060Y-113755868D01*
X94061668Y-113960011D01*
X94068275Y-113968392D01*
X94235353Y-114146937D01*
X94243278Y-114154084D01*
X94437184Y-114301268D01*
X94265043Y-114426796D01*
X94256982Y-114433791D01*
X94086507Y-114609095D01*
X94079740Y-114617347D01*
X93941239Y-114818868D01*
X93935959Y-114828143D01*
X93833392Y-115050120D01*
X93829751Y-115060151D01*
X93766049Y-115296235D01*
X93764150Y-115306737D01*
X93741139Y-115550180D01*
X93741037Y-115560851D01*
X93759371Y-115804689D01*
X93761068Y-115815226D01*
X93820225Y-116052490D01*
X93823673Y-116062589D01*
X93921959Y-116286493D01*
X93927060Y-116295868D01*
X94061668Y-116500011D01*
X94068275Y-116508392D01*
X94235353Y-116686937D01*
X94243278Y-116694084D01*
X94438051Y-116841926D01*
X94447067Y-116847636D01*
X94663965Y-116960546D01*
X94673814Y-116964656D01*
X94906636Y-117039407D01*
X94917037Y-117041798D01*
X95159124Y-117076253D01*
X95169779Y-117076858D01*
X95414211Y-117070030D01*
X95424816Y-117068831D01*
X95664603Y-117020917D01*
X95674854Y-117017948D01*
X95903139Y-116930318D01*
X95912743Y-116925665D01*
X96123001Y-116800823D01*
X96131683Y-116794618D01*
X96317901Y-116636135D01*
X96325414Y-116628556D01*
X96456500Y-116471778D01*
X96456501Y-117114086D01*
X96360641Y-117280120D01*
X96353100Y-117300837D01*
X96319122Y-117493538D01*
X96318163Y-117504499D01*
X96318163Y-118718258D01*
X96320319Y-118734634D01*
X96395137Y-119013859D01*
X96407880Y-119038339D01*
X96538990Y-119194590D01*
X96555879Y-119208761D01*
X96730120Y-119309359D01*
X96750837Y-119316900D01*
X96943538Y-119350878D01*
X96954499Y-119351837D01*
X97868258Y-119351837D01*
X97884634Y-119349681D01*
X98163859Y-119274863D01*
X98188339Y-119262120D01*
X98344590Y-119131010D01*
X98358761Y-119114121D01*
X98459359Y-118939880D01*
X98466900Y-118919163D01*
X98500878Y-118726462D01*
X98501837Y-118715501D01*
X98501837Y-117501742D01*
X98499681Y-117485366D01*
X98424863Y-117206142D01*
X98412120Y-117181662D01*
X98363500Y-117123719D01*
X98363500Y-113982489D01*
X98370640Y-113928258D01*
X98370640Y-113911740D01*
X98362422Y-113849320D01*
X98340044Y-113679344D01*
X98335769Y-113663391D01*
X98246067Y-113446832D01*
X98237809Y-113432528D01*
X98095115Y-113246564D01*
X98083435Y-113234885D01*
X98040039Y-113201586D01*
X97859304Y-113020851D01*
X102631037Y-113020851D01*
X102649371Y-113264689D01*
X102651068Y-113275226D01*
X102710225Y-113512490D01*
X102713673Y-113522589D01*
X102811959Y-113746493D01*
X102817060Y-113755868D01*
X102951668Y-113960011D01*
X102958275Y-113968392D01*
X103125353Y-114146937D01*
X103133278Y-114154084D01*
X103327184Y-114301268D01*
X103155043Y-114426796D01*
X103146982Y-114433791D01*
X102976507Y-114609095D01*
X102969740Y-114617347D01*
X102831239Y-114818868D01*
X102825959Y-114828143D01*
X102723392Y-115050120D01*
X102719751Y-115060151D01*
X102656049Y-115296235D01*
X102654150Y-115306737D01*
X102631139Y-115550180D01*
X102631037Y-115560851D01*
X102649371Y-115804689D01*
X102651068Y-115815226D01*
X102710225Y-116052490D01*
X102713673Y-116062589D01*
X102811959Y-116286493D01*
X102817060Y-116295868D01*
X102951668Y-116500011D01*
X102958275Y-116508392D01*
X103125353Y-116686937D01*
X103133278Y-116694084D01*
X103328051Y-116841926D01*
X103337067Y-116847636D01*
X103553965Y-116960546D01*
X103563814Y-116964656D01*
X103796636Y-117039407D01*
X103807037Y-117041798D01*
X104049124Y-117076253D01*
X104059779Y-117076858D01*
X104304211Y-117070030D01*
X104314816Y-117068831D01*
X104554603Y-117020917D01*
X104564854Y-117017948D01*
X104793139Y-116930318D01*
X104802743Y-116925665D01*
X105013001Y-116800823D01*
X105021683Y-116794618D01*
X105207901Y-116636135D01*
X105215414Y-116628556D01*
X105346500Y-116471778D01*
X105346501Y-117114086D01*
X105250641Y-117280120D01*
X105243100Y-117300837D01*
X105209122Y-117493538D01*
X105208163Y-117504499D01*
X105208163Y-118718258D01*
X105210319Y-118734634D01*
X105285137Y-119013859D01*
X105297880Y-119038339D01*
X105428990Y-119194590D01*
X105445879Y-119208761D01*
X105620120Y-119309359D01*
X105640837Y-119316900D01*
X105833538Y-119350878D01*
X105844499Y-119351837D01*
X106758258Y-119351837D01*
X106774634Y-119349681D01*
X107053859Y-119274863D01*
X107078339Y-119262120D01*
X107234590Y-119131010D01*
X107248761Y-119114121D01*
X107349359Y-118939880D01*
X107356900Y-118919163D01*
X107390878Y-118726462D01*
X107391837Y-118715501D01*
X107391837Y-117501742D01*
X107389681Y-117485366D01*
X107314863Y-117206142D01*
X107302120Y-117181662D01*
X107253500Y-117123719D01*
X107253500Y-113982489D01*
X107260640Y-113928258D01*
X107260640Y-113911740D01*
X107252422Y-113849320D01*
X107230044Y-113679344D01*
X107225769Y-113663391D01*
X107136067Y-113446832D01*
X107127809Y-113432528D01*
X106985115Y-113246564D01*
X106973435Y-113234885D01*
X106930039Y-113201586D01*
X106749304Y-113020851D01*
X111521037Y-113020851D01*
X111539371Y-113264689D01*
X111541068Y-113275226D01*
X111600225Y-113512490D01*
X111603673Y-113522589D01*
X111701959Y-113746493D01*
X111707060Y-113755868D01*
X111841668Y-113960011D01*
X111848275Y-113968392D01*
X112015353Y-114146937D01*
X112023278Y-114154084D01*
X112217184Y-114301268D01*
X112045043Y-114426796D01*
X112036982Y-114433791D01*
X111866507Y-114609095D01*
X111859740Y-114617347D01*
X111721239Y-114818868D01*
X111715959Y-114828143D01*
X111613392Y-115050120D01*
X111609751Y-115060151D01*
X111546049Y-115296235D01*
X111544150Y-115306737D01*
X111521139Y-115550180D01*
X111521037Y-115560851D01*
X111539371Y-115804689D01*
X111541068Y-115815226D01*
X111600225Y-116052490D01*
X111603673Y-116062589D01*
X111701959Y-116286493D01*
X111707060Y-116295868D01*
X111841668Y-116500011D01*
X111848275Y-116508392D01*
X112015353Y-116686937D01*
X112023278Y-116694084D01*
X112218051Y-116841926D01*
X112227067Y-116847636D01*
X112443965Y-116960546D01*
X112453814Y-116964656D01*
X112686636Y-117039407D01*
X112697037Y-117041798D01*
X112939124Y-117076253D01*
X112949779Y-117076858D01*
X113194211Y-117070030D01*
X113204816Y-117068831D01*
X113444603Y-117020917D01*
X113454854Y-117017948D01*
X113683139Y-116930318D01*
X113692743Y-116925665D01*
X113903001Y-116800823D01*
X113911683Y-116794618D01*
X114097901Y-116636135D01*
X114105414Y-116628556D01*
X114236500Y-116471778D01*
X114236501Y-117114086D01*
X114140641Y-117280120D01*
X114133100Y-117300837D01*
X114099122Y-117493538D01*
X114098163Y-117504499D01*
X114098163Y-118718258D01*
X114100319Y-118734634D01*
X114175137Y-119013859D01*
X114187880Y-119038339D01*
X114318990Y-119194590D01*
X114335879Y-119208761D01*
X114510120Y-119309359D01*
X114530837Y-119316900D01*
X114723538Y-119350878D01*
X114734499Y-119351837D01*
X115648258Y-119351837D01*
X115664634Y-119349681D01*
X115943859Y-119274863D01*
X115968339Y-119262120D01*
X116124590Y-119131010D01*
X116138761Y-119114121D01*
X116239359Y-118939880D01*
X116246900Y-118919163D01*
X116280878Y-118726462D01*
X116281837Y-118715501D01*
X116281837Y-117501742D01*
X116279681Y-117485366D01*
X116204863Y-117206142D01*
X116192120Y-117181662D01*
X116143500Y-117123719D01*
X116143500Y-113982489D01*
X116150640Y-113928258D01*
X116150640Y-113911740D01*
X116142422Y-113849320D01*
X116120044Y-113679344D01*
X116115769Y-113663391D01*
X116026067Y-113446832D01*
X116017809Y-113432528D01*
X115875115Y-113246564D01*
X115863435Y-113234885D01*
X115820039Y-113201586D01*
X115639304Y-113020851D01*
X120411037Y-113020851D01*
X120429371Y-113264689D01*
X120431068Y-113275226D01*
X120490225Y-113512490D01*
X120493673Y-113522589D01*
X120591959Y-113746493D01*
X120597060Y-113755868D01*
X120731668Y-113960011D01*
X120738275Y-113968392D01*
X120905353Y-114146937D01*
X120913278Y-114154084D01*
X121107184Y-114301268D01*
X120935043Y-114426796D01*
X120926982Y-114433791D01*
X120756507Y-114609095D01*
X120749740Y-114617347D01*
X120611239Y-114818868D01*
X120605959Y-114828143D01*
X120503392Y-115050120D01*
X120499751Y-115060151D01*
X120436049Y-115296235D01*
X120434150Y-115306737D01*
X120411139Y-115550180D01*
X120411037Y-115560851D01*
X120429371Y-115804689D01*
X120431068Y-115815226D01*
X120490225Y-116052490D01*
X120493673Y-116062589D01*
X120591959Y-116286493D01*
X120597060Y-116295868D01*
X120731668Y-116500011D01*
X120738275Y-116508392D01*
X120905353Y-116686937D01*
X120913278Y-116694084D01*
X121108051Y-116841926D01*
X121117067Y-116847636D01*
X121333965Y-116960546D01*
X121343814Y-116964656D01*
X121576636Y-117039407D01*
X121587037Y-117041798D01*
X121829124Y-117076253D01*
X121839779Y-117076858D01*
X122084211Y-117070030D01*
X122094816Y-117068831D01*
X122334603Y-117020917D01*
X122344854Y-117017948D01*
X122573139Y-116930318D01*
X122582743Y-116925665D01*
X122793001Y-116800823D01*
X122801683Y-116794618D01*
X122987901Y-116636135D01*
X122995414Y-116628556D01*
X123126500Y-116471778D01*
X123126501Y-117114086D01*
X123030641Y-117280120D01*
X123023100Y-117300837D01*
X122989122Y-117493538D01*
X122988163Y-117504499D01*
X122988163Y-118718258D01*
X122990319Y-118734634D01*
X123065137Y-119013859D01*
X123077880Y-119038339D01*
X123208990Y-119194590D01*
X123225879Y-119208761D01*
X123400120Y-119309359D01*
X123420837Y-119316900D01*
X123613538Y-119350878D01*
X123624499Y-119351837D01*
X124538258Y-119351837D01*
X124554634Y-119349681D01*
X124833859Y-119274863D01*
X124858339Y-119262120D01*
X125014590Y-119131010D01*
X125028761Y-119114121D01*
X125129359Y-118939880D01*
X125136900Y-118919163D01*
X125170878Y-118726462D01*
X125171837Y-118715501D01*
X125171837Y-117501742D01*
X125169681Y-117485366D01*
X125094863Y-117206142D01*
X125082120Y-117181662D01*
X125033500Y-117123719D01*
X125033500Y-113982489D01*
X125040640Y-113928258D01*
X125040640Y-113911740D01*
X125032422Y-113849320D01*
X125010044Y-113679344D01*
X125005769Y-113663391D01*
X124916067Y-113446832D01*
X124907809Y-113432528D01*
X124765115Y-113246564D01*
X124753435Y-113234885D01*
X124710039Y-113201586D01*
X123908421Y-112399969D01*
X123875115Y-112356564D01*
X123863436Y-112344885D01*
X123677472Y-112202191D01*
X123663168Y-112193933D01*
X123446609Y-112104231D01*
X123430655Y-112099956D01*
X123260679Y-112077578D01*
X123198259Y-112069360D01*
X123181741Y-112069360D01*
X123127508Y-112076500D01*
X123083248Y-112076500D01*
X123015537Y-111992284D01*
X123008171Y-111984562D01*
X122825031Y-111822534D01*
X122816468Y-111816163D01*
X122726440Y-111760344D01*
X122817532Y-111706258D01*
X122832881Y-111583900D01*
X121972191Y-110723210D01*
X121867809Y-110723210D01*
X121011088Y-111579931D01*
X121018882Y-111694244D01*
X121107184Y-111761268D01*
X120935043Y-111886796D01*
X120926982Y-111893791D01*
X120756507Y-112069095D01*
X120749740Y-112077347D01*
X120611239Y-112278868D01*
X120605959Y-112288143D01*
X120503392Y-112510120D01*
X120499751Y-112520151D01*
X120436049Y-112756235D01*
X120434150Y-112766737D01*
X120411139Y-113010180D01*
X120411037Y-113020851D01*
X115639304Y-113020851D01*
X115018421Y-112399969D01*
X114985115Y-112356564D01*
X114973436Y-112344885D01*
X114787472Y-112202191D01*
X114773168Y-112193933D01*
X114556609Y-112104231D01*
X114540655Y-112099956D01*
X114370679Y-112077578D01*
X114308259Y-112069360D01*
X114291741Y-112069360D01*
X114237508Y-112076500D01*
X114193248Y-112076500D01*
X114125537Y-111992284D01*
X114118171Y-111984562D01*
X113935031Y-111822534D01*
X113926468Y-111816163D01*
X113836440Y-111760344D01*
X113927532Y-111706258D01*
X113942881Y-111583900D01*
X113082191Y-110723210D01*
X112977809Y-110723210D01*
X112121088Y-111579931D01*
X112128882Y-111694244D01*
X112217184Y-111761268D01*
X112045043Y-111886796D01*
X112036982Y-111893791D01*
X111866507Y-112069095D01*
X111859740Y-112077347D01*
X111721239Y-112278868D01*
X111715959Y-112288143D01*
X111613392Y-112510120D01*
X111609751Y-112520151D01*
X111546049Y-112756235D01*
X111544150Y-112766737D01*
X111521139Y-113010180D01*
X111521037Y-113020851D01*
X106749304Y-113020851D01*
X106128421Y-112399969D01*
X106095115Y-112356564D01*
X106083436Y-112344885D01*
X105897472Y-112202191D01*
X105883168Y-112193933D01*
X105666609Y-112104231D01*
X105650655Y-112099956D01*
X105480679Y-112077578D01*
X105418259Y-112069360D01*
X105401741Y-112069360D01*
X105347508Y-112076500D01*
X105303248Y-112076500D01*
X105235537Y-111992284D01*
X105228171Y-111984562D01*
X105045031Y-111822534D01*
X105036468Y-111816163D01*
X104946440Y-111760344D01*
X105037532Y-111706258D01*
X105052881Y-111583900D01*
X104192191Y-110723210D01*
X104087809Y-110723210D01*
X103231088Y-111579931D01*
X103238882Y-111694244D01*
X103327184Y-111761268D01*
X103155043Y-111886796D01*
X103146982Y-111893791D01*
X102976507Y-112069095D01*
X102969740Y-112077347D01*
X102831239Y-112278868D01*
X102825959Y-112288143D01*
X102723392Y-112510120D01*
X102719751Y-112520151D01*
X102656049Y-112756235D01*
X102654150Y-112766737D01*
X102631139Y-113010180D01*
X102631037Y-113020851D01*
X97859304Y-113020851D01*
X97238421Y-112399969D01*
X97205115Y-112356564D01*
X97193436Y-112344885D01*
X97007472Y-112202191D01*
X96993168Y-112193933D01*
X96776609Y-112104231D01*
X96760655Y-112099956D01*
X96590679Y-112077578D01*
X96528259Y-112069360D01*
X96511741Y-112069360D01*
X96457508Y-112076500D01*
X96413248Y-112076500D01*
X96345537Y-111992284D01*
X96338171Y-111984562D01*
X96155031Y-111822534D01*
X96146468Y-111816163D01*
X96056440Y-111760344D01*
X96147532Y-111706258D01*
X96162881Y-111583900D01*
X95302191Y-110723210D01*
X95197809Y-110723210D01*
X94341088Y-111579931D01*
X94348882Y-111694244D01*
X94437184Y-111761268D01*
X94265043Y-111886796D01*
X94256982Y-111893791D01*
X94086507Y-112069095D01*
X94079740Y-112077347D01*
X93941239Y-112278868D01*
X93935959Y-112288143D01*
X93833392Y-112510120D01*
X93829751Y-112520151D01*
X93766049Y-112756235D01*
X93764150Y-112766737D01*
X93741139Y-113010180D01*
X93741037Y-113020851D01*
X88969303Y-113020851D01*
X88348424Y-112399973D01*
X88315115Y-112356564D01*
X88303436Y-112344885D01*
X88117472Y-112202191D01*
X88103168Y-112193933D01*
X87886609Y-112104231D01*
X87870655Y-112099956D01*
X87700679Y-112077578D01*
X87638259Y-112069360D01*
X87621741Y-112069360D01*
X87567508Y-112076500D01*
X87523248Y-112076500D01*
X87455537Y-111992284D01*
X87448171Y-111984562D01*
X87265031Y-111822534D01*
X87256468Y-111816163D01*
X87166440Y-111760344D01*
X87257532Y-111706258D01*
X87272881Y-111583900D01*
X86412191Y-110723210D01*
X86307809Y-110723210D01*
X85451088Y-111579931D01*
X85458882Y-111694244D01*
X85547184Y-111761268D01*
X85375043Y-111886796D01*
X85366982Y-111893791D01*
X85196507Y-112069095D01*
X85189740Y-112077347D01*
X85051239Y-112278868D01*
X85045959Y-112288143D01*
X84943392Y-112510120D01*
X84939751Y-112520151D01*
X84876049Y-112756235D01*
X84874150Y-112766737D01*
X84851139Y-113010180D01*
X84851037Y-113020851D01*
X80079303Y-113020851D01*
X79458424Y-112399973D01*
X79425115Y-112356564D01*
X79413436Y-112344885D01*
X79227472Y-112202191D01*
X79213168Y-112193933D01*
X78996609Y-112104231D01*
X78980655Y-112099956D01*
X78810679Y-112077578D01*
X78748259Y-112069360D01*
X78731741Y-112069360D01*
X78677508Y-112076500D01*
X78633248Y-112076500D01*
X78565537Y-111992284D01*
X78558171Y-111984562D01*
X78375031Y-111822534D01*
X78366468Y-111816163D01*
X78276440Y-111760344D01*
X78367532Y-111706258D01*
X78382881Y-111583900D01*
X77522191Y-110723210D01*
X77417809Y-110723210D01*
X76561088Y-111579931D01*
X76568882Y-111694244D01*
X76657184Y-111761268D01*
X76485043Y-111886796D01*
X76476982Y-111893791D01*
X76306507Y-112069095D01*
X76299740Y-112077347D01*
X76161239Y-112278868D01*
X76155959Y-112288143D01*
X76053392Y-112510120D01*
X76049751Y-112520151D01*
X75986049Y-112756235D01*
X75984150Y-112766737D01*
X75961139Y-113010180D01*
X75961037Y-113020851D01*
X65531000Y-113020851D01*
X65531000Y-110480851D01*
X75961037Y-110480851D01*
X75979371Y-110724689D01*
X75981068Y-110735226D01*
X76040225Y-110972490D01*
X76043673Y-110982589D01*
X76141959Y-111206493D01*
X76147060Y-111215868D01*
X76260275Y-111387568D01*
X76379321Y-111399660D01*
X77236790Y-110542191D01*
X77236790Y-110437809D01*
X76379987Y-109581006D01*
X76262303Y-109591819D01*
X76161239Y-109738868D01*
X76155959Y-109748143D01*
X76053392Y-109970120D01*
X76049751Y-109980151D01*
X75986049Y-110216235D01*
X75984150Y-110226737D01*
X75961139Y-110470180D01*
X75961037Y-110480851D01*
X65531000Y-110480851D01*
X65531000Y-107944578D01*
X75810614Y-107944578D01*
X75838854Y-108254884D01*
X75841164Y-108266990D01*
X75929138Y-108565902D01*
X75933755Y-108577329D01*
X75978673Y-108663248D01*
X76035255Y-108923353D01*
X76043885Y-108944187D01*
X76172696Y-109144620D01*
X76184499Y-109158241D01*
X76362849Y-109312783D01*
X76378011Y-109322527D01*
X76572253Y-109411234D01*
X78564748Y-111403729D01*
X78687715Y-111387758D01*
X78831397Y-111140888D01*
X78835966Y-111131243D01*
X78921600Y-110902202D01*
X78924479Y-110891926D01*
X78970357Y-110651432D01*
X78971472Y-110640209D01*
X78974078Y-110368643D01*
X78973179Y-110357401D01*
X78931928Y-110116072D01*
X78929246Y-110105742D01*
X78848024Y-109875098D01*
X78843640Y-109865367D01*
X78724718Y-109651706D01*
X78718758Y-109642854D01*
X78685911Y-109602000D01*
X85145305Y-109602000D01*
X85051239Y-109738868D01*
X85045959Y-109748143D01*
X84943392Y-109970120D01*
X84939751Y-109980151D01*
X84876049Y-110216235D01*
X84874150Y-110226737D01*
X84851139Y-110470180D01*
X84851037Y-110480851D01*
X84869371Y-110724689D01*
X84871068Y-110735226D01*
X84930225Y-110972490D01*
X84933673Y-110982589D01*
X85031959Y-111206493D01*
X85037060Y-111215868D01*
X85150275Y-111387568D01*
X85269321Y-111399660D01*
X86360000Y-110308980D01*
X87454748Y-111403729D01*
X87577715Y-111387758D01*
X87721397Y-111140888D01*
X87725966Y-111131243D01*
X87811600Y-110902202D01*
X87814479Y-110891926D01*
X87860357Y-110651432D01*
X87861472Y-110640209D01*
X87864078Y-110368643D01*
X87863179Y-110357401D01*
X87821928Y-110116072D01*
X87819246Y-110105742D01*
X87738024Y-109875098D01*
X87733640Y-109865367D01*
X87614718Y-109651706D01*
X87608758Y-109642854D01*
X87575911Y-109602000D01*
X94035305Y-109602000D01*
X93941239Y-109738868D01*
X93935959Y-109748143D01*
X93833392Y-109970120D01*
X93829751Y-109980151D01*
X93766049Y-110216235D01*
X93764150Y-110226737D01*
X93741139Y-110470180D01*
X93741037Y-110480851D01*
X93759371Y-110724689D01*
X93761068Y-110735226D01*
X93820225Y-110972490D01*
X93823673Y-110982589D01*
X93921959Y-111206493D01*
X93927060Y-111215868D01*
X94040275Y-111387568D01*
X94159321Y-111399660D01*
X95250000Y-110308980D01*
X96344748Y-111403729D01*
X96467715Y-111387758D01*
X96611397Y-111140888D01*
X96615966Y-111131243D01*
X96701600Y-110902202D01*
X96704479Y-110891926D01*
X96750357Y-110651432D01*
X96751472Y-110640209D01*
X96754078Y-110368643D01*
X96753179Y-110357401D01*
X96711928Y-110116072D01*
X96709246Y-110105742D01*
X96628024Y-109875098D01*
X96623640Y-109865367D01*
X96504718Y-109651706D01*
X96498758Y-109642854D01*
X96465911Y-109602000D01*
X102925305Y-109602000D01*
X102831239Y-109738868D01*
X102825959Y-109748143D01*
X102723392Y-109970120D01*
X102719751Y-109980151D01*
X102656049Y-110216235D01*
X102654150Y-110226737D01*
X102631139Y-110470180D01*
X102631037Y-110480851D01*
X102649371Y-110724689D01*
X102651068Y-110735226D01*
X102710225Y-110972490D01*
X102713673Y-110982589D01*
X102811959Y-111206493D01*
X102817060Y-111215868D01*
X102930275Y-111387568D01*
X103049321Y-111399660D01*
X104140000Y-110308980D01*
X105234748Y-111403729D01*
X105357715Y-111387758D01*
X105501397Y-111140888D01*
X105505966Y-111131243D01*
X105591600Y-110902202D01*
X105594479Y-110891926D01*
X105640357Y-110651432D01*
X105641472Y-110640209D01*
X105644078Y-110368643D01*
X105643179Y-110357401D01*
X105601928Y-110116072D01*
X105599246Y-110105742D01*
X105518024Y-109875098D01*
X105513640Y-109865367D01*
X105394718Y-109651706D01*
X105388758Y-109642854D01*
X105355911Y-109602000D01*
X111815305Y-109602000D01*
X111721239Y-109738868D01*
X111715959Y-109748143D01*
X111613392Y-109970120D01*
X111609751Y-109980151D01*
X111546049Y-110216235D01*
X111544150Y-110226737D01*
X111521139Y-110470180D01*
X111521037Y-110480851D01*
X111539371Y-110724689D01*
X111541068Y-110735226D01*
X111600225Y-110972490D01*
X111603673Y-110982589D01*
X111701959Y-111206493D01*
X111707060Y-111215868D01*
X111820275Y-111387568D01*
X111939321Y-111399660D01*
X113030000Y-110308980D01*
X114124748Y-111403729D01*
X114247715Y-111387758D01*
X114391397Y-111140888D01*
X114395966Y-111131243D01*
X114481600Y-110902202D01*
X114484479Y-110891926D01*
X114530357Y-110651432D01*
X114531472Y-110640209D01*
X114534078Y-110368643D01*
X114533179Y-110357401D01*
X114491928Y-110116072D01*
X114489246Y-110105742D01*
X114408024Y-109875098D01*
X114403640Y-109865367D01*
X114284718Y-109651706D01*
X114278758Y-109642854D01*
X114245911Y-109602000D01*
X120705305Y-109602000D01*
X120611239Y-109738868D01*
X120605959Y-109748143D01*
X120503392Y-109970120D01*
X120499751Y-109980151D01*
X120436049Y-110216235D01*
X120434150Y-110226737D01*
X120411139Y-110470180D01*
X120411037Y-110480851D01*
X120429371Y-110724689D01*
X120431068Y-110735226D01*
X120490225Y-110972490D01*
X120493673Y-110982589D01*
X120591959Y-111206493D01*
X120597060Y-111215868D01*
X120710275Y-111387568D01*
X120829321Y-111399660D01*
X121920000Y-110308980D01*
X123014748Y-111403729D01*
X123137715Y-111387758D01*
X123281397Y-111140888D01*
X123285966Y-111131243D01*
X123371600Y-110902202D01*
X123374479Y-110891926D01*
X123420357Y-110651432D01*
X123421472Y-110640209D01*
X123424078Y-110368643D01*
X123423179Y-110357401D01*
X123381928Y-110116072D01*
X123379246Y-110105742D01*
X123298024Y-109875098D01*
X123293640Y-109865367D01*
X123174718Y-109651706D01*
X123168758Y-109642854D01*
X123135911Y-109602000D01*
X129595305Y-109602000D01*
X129501239Y-109738868D01*
X129495959Y-109748143D01*
X129393392Y-109970120D01*
X129389751Y-109980151D01*
X129326049Y-110216235D01*
X129324150Y-110226737D01*
X129301139Y-110470180D01*
X129301037Y-110480851D01*
X129319371Y-110724689D01*
X129321068Y-110735226D01*
X129380225Y-110972490D01*
X129383673Y-110982589D01*
X129481959Y-111206493D01*
X129487060Y-111215868D01*
X129600275Y-111387568D01*
X129719321Y-111399660D01*
X130810000Y-110308980D01*
X131904748Y-111403729D01*
X132027715Y-111387758D01*
X132171397Y-111140888D01*
X132175966Y-111131243D01*
X132261600Y-110902202D01*
X132264479Y-110891926D01*
X132310357Y-110651432D01*
X132311472Y-110640209D01*
X132314078Y-110368643D01*
X132313179Y-110357401D01*
X132271928Y-110116072D01*
X132269246Y-110105742D01*
X132188024Y-109875098D01*
X132183640Y-109865367D01*
X132064718Y-109651706D01*
X132058758Y-109642854D01*
X132025911Y-109602000D01*
X138485305Y-109602000D01*
X138391239Y-109738868D01*
X138385959Y-109748143D01*
X138283392Y-109970120D01*
X138279751Y-109980151D01*
X138216049Y-110216235D01*
X138214150Y-110226737D01*
X138191139Y-110470180D01*
X138191037Y-110480851D01*
X138209371Y-110724689D01*
X138211068Y-110735226D01*
X138270225Y-110972490D01*
X138273673Y-110982589D01*
X138371959Y-111206493D01*
X138377060Y-111215868D01*
X138490275Y-111387568D01*
X138609321Y-111399660D01*
X139700000Y-110308980D01*
X140794748Y-111403729D01*
X140917715Y-111387758D01*
X141061397Y-111140888D01*
X141065966Y-111131243D01*
X141151600Y-110902202D01*
X141154479Y-110891926D01*
X141200357Y-110651432D01*
X141201472Y-110640209D01*
X141204078Y-110368643D01*
X141203179Y-110357401D01*
X141161928Y-110116072D01*
X141159246Y-110105742D01*
X141078024Y-109875098D01*
X141073640Y-109865367D01*
X140954718Y-109651706D01*
X140948758Y-109642854D01*
X140915911Y-109602000D01*
X147375305Y-109602000D01*
X147281239Y-109738868D01*
X147275959Y-109748143D01*
X147173392Y-109970120D01*
X147169751Y-109980151D01*
X147106049Y-110216235D01*
X147104150Y-110226737D01*
X147081139Y-110470180D01*
X147081037Y-110480851D01*
X147099371Y-110724689D01*
X147101068Y-110735226D01*
X147160225Y-110972490D01*
X147163673Y-110982589D01*
X147261959Y-111206493D01*
X147267060Y-111215868D01*
X147380275Y-111387568D01*
X147499321Y-111399660D01*
X148461172Y-110437809D01*
X148823210Y-110437809D01*
X148823210Y-110542191D01*
X149684748Y-111403729D01*
X149807715Y-111387758D01*
X149951397Y-111140888D01*
X149955966Y-111131243D01*
X150041600Y-110902202D01*
X150044479Y-110891926D01*
X150090357Y-110651432D01*
X150091472Y-110640209D01*
X150094078Y-110368643D01*
X150093179Y-110357401D01*
X150051928Y-110116072D01*
X150049246Y-110105742D01*
X149968024Y-109875098D01*
X149963640Y-109865367D01*
X149844718Y-109651707D01*
X149838759Y-109642855D01*
X149793205Y-109586195D01*
X149680907Y-109580112D01*
X148823210Y-110437809D01*
X148461172Y-110437809D01*
X149500581Y-109398400D01*
X149563353Y-109384745D01*
X149584188Y-109376115D01*
X149784620Y-109247304D01*
X149798241Y-109235501D01*
X149952783Y-109057151D01*
X149962527Y-109041989D01*
X150060561Y-108827324D01*
X150065639Y-108810031D01*
X150088300Y-108652420D01*
X150117336Y-108598718D01*
X150122112Y-108587356D01*
X150214251Y-108289701D01*
X150216730Y-108277628D01*
X150249300Y-107967747D01*
X150249386Y-107955422D01*
X150221146Y-107645116D01*
X150218836Y-107633010D01*
X150130862Y-107334098D01*
X150126245Y-107322671D01*
X150081327Y-107236752D01*
X150024745Y-106976647D01*
X150016115Y-106955813D01*
X149887304Y-106755380D01*
X149875501Y-106741759D01*
X149697151Y-106587217D01*
X149681989Y-106577473D01*
X149467324Y-106479439D01*
X149450031Y-106474361D01*
X149294393Y-106451984D01*
X149249364Y-106427229D01*
X149238036Y-106422374D01*
X148940822Y-106328093D01*
X148928326Y-106325482D01*
X148670134Y-106298345D01*
X148663544Y-106298000D01*
X77391623Y-106298000D01*
X77385471Y-106298301D01*
X77153736Y-106321023D01*
X77141645Y-106323417D01*
X76843356Y-106413476D01*
X76831961Y-106418172D01*
X76755125Y-106459027D01*
X76496647Y-106515255D01*
X76475812Y-106523885D01*
X76275380Y-106652696D01*
X76261759Y-106664499D01*
X76107217Y-106842849D01*
X76097473Y-106858011D01*
X75999439Y-107072676D01*
X75994361Y-107089969D01*
X75971700Y-107247580D01*
X75942664Y-107301282D01*
X75937888Y-107312644D01*
X75845749Y-107610299D01*
X75843270Y-107622372D01*
X75810700Y-107932253D01*
X75810614Y-107944578D01*
X65531000Y-107944578D01*
X65531000Y-106014247D01*
X157561245Y-106014247D01*
X157576050Y-106249567D01*
X157577748Y-106260661D01*
X157633991Y-106489640D01*
X157637626Y-106500257D01*
X157733528Y-106715657D01*
X157738986Y-106725463D01*
X157871517Y-106920477D01*
X157878625Y-106929161D01*
X158043595Y-107097624D01*
X158052129Y-107104912D01*
X158161600Y-107182710D01*
X158161601Y-107841520D01*
X157968380Y-107965696D01*
X157954759Y-107977499D01*
X157800217Y-108155849D01*
X157790473Y-108171011D01*
X157692439Y-108385676D01*
X157687361Y-108402969D01*
X157654418Y-108632093D01*
X157653776Y-108641070D01*
X157653776Y-109547184D01*
X157655220Y-109560614D01*
X157728255Y-109896353D01*
X157736885Y-109917188D01*
X157865696Y-110117620D01*
X157877499Y-110131241D01*
X158055849Y-110285783D01*
X158071011Y-110295527D01*
X158285676Y-110393561D01*
X158302969Y-110398639D01*
X158532093Y-110431582D01*
X158541070Y-110432224D01*
X159197184Y-110432224D01*
X159210614Y-110430780D01*
X159546353Y-110357745D01*
X159567188Y-110349115D01*
X159767620Y-110220304D01*
X159781241Y-110208501D01*
X159891974Y-110080709D01*
X159915696Y-110117620D01*
X159927499Y-110131241D01*
X160105849Y-110285783D01*
X160121011Y-110295527D01*
X160335676Y-110393561D01*
X160352969Y-110398639D01*
X160582093Y-110431582D01*
X160591070Y-110432224D01*
X160716191Y-110432224D01*
X160790000Y-110358415D01*
X160790000Y-107827585D01*
X161046000Y-107827585D01*
X161046000Y-110358415D01*
X161119809Y-110432224D01*
X161247184Y-110432224D01*
X161260614Y-110430780D01*
X161596353Y-110357745D01*
X161617188Y-110349115D01*
X161817620Y-110220304D01*
X161831241Y-110208501D01*
X161862298Y-110172659D01*
X161992849Y-110285783D01*
X162008011Y-110295527D01*
X162222676Y-110393561D01*
X162239969Y-110398639D01*
X162469093Y-110431582D01*
X162478070Y-110432224D01*
X162603191Y-110432224D01*
X162677000Y-110358415D01*
X162677001Y-109294808D01*
X162677000Y-109294807D01*
X162677001Y-107827585D01*
X162603192Y-107753776D01*
X162475816Y-107753776D01*
X162462386Y-107755220D01*
X162126647Y-107828255D01*
X162105812Y-107836885D01*
X161905380Y-107965696D01*
X161891759Y-107977499D01*
X161860702Y-108013341D01*
X161730151Y-107900217D01*
X161714989Y-107890473D01*
X161500324Y-107792439D01*
X161483031Y-107787361D01*
X161253907Y-107754418D01*
X161244930Y-107753776D01*
X161119809Y-107753776D01*
X161046000Y-107827585D01*
X160790000Y-107827585D01*
X160716191Y-107753776D01*
X160588816Y-107753776D01*
X160575386Y-107755220D01*
X160239647Y-107828255D01*
X160218812Y-107836885D01*
X160018380Y-107965696D01*
X160004759Y-107977499D01*
X159894026Y-108105291D01*
X159870304Y-108068380D01*
X159858501Y-108054759D01*
X159738400Y-107950691D01*
X159738400Y-107183015D01*
X159858921Y-107095452D01*
X159867378Y-107088074D01*
X160030575Y-106917894D01*
X160037592Y-106909135D01*
X160168073Y-106712746D01*
X160173429Y-106702882D01*
X160267070Y-106486490D01*
X160270594Y-106475834D01*
X160324624Y-106245474D01*
X160326271Y-106232704D01*
X160334209Y-105929582D01*
X160333233Y-105916742D01*
X160291332Y-105683870D01*
X160288371Y-105673045D01*
X160206183Y-105452048D01*
X160201351Y-105441919D01*
X160081327Y-105238969D01*
X160074778Y-105229855D01*
X159920711Y-105051367D01*
X159912651Y-105043557D01*
X159729412Y-104895173D01*
X159720097Y-104888914D01*
X159513478Y-104775323D01*
X159503201Y-104770812D01*
X159279731Y-104695606D01*
X159268819Y-104692986D01*
X159035563Y-104658542D01*
X159024359Y-104657896D01*
X158788690Y-104665302D01*
X158777549Y-104666651D01*
X158546916Y-104715673D01*
X158536189Y-104718973D01*
X158317883Y-104808063D01*
X158307911Y-104813210D01*
X158108831Y-104939549D01*
X158099927Y-104946382D01*
X157926367Y-105105979D01*
X157918814Y-105114280D01*
X157776259Y-105302089D01*
X157770295Y-105311596D01*
X157663251Y-105521682D01*
X157659065Y-105532095D01*
X157590915Y-105757817D01*
X157588639Y-105768807D01*
X157561539Y-106003028D01*
X157561245Y-106014247D01*
X65531000Y-106014247D01*
X65531000Y-103631000D01*
X180085731Y-103631000D01*
X179859473Y-103770196D01*
G36*
X153408000Y-115442001D02*
G01*
X153407999Y-116835415D01*
X153481808Y-116909224D01*
X153609184Y-116909224D01*
X153622614Y-116907780D01*
X153958353Y-116834745D01*
X153979188Y-116826115D01*
X154179620Y-116697304D01*
X154193241Y-116685501D01*
X154303974Y-116557709D01*
X154327696Y-116594620D01*
X154339499Y-116608241D01*
X154517849Y-116762783D01*
X154533011Y-116772527D01*
X154747676Y-116870561D01*
X154764969Y-116875639D01*
X154994093Y-116908582D01*
X155003070Y-116909224D01*
X155659184Y-116909224D01*
X155672614Y-116907780D01*
X156008353Y-116834745D01*
X156029188Y-116826115D01*
X156210937Y-116709311D01*
X156249696Y-116769620D01*
X156261499Y-116783241D01*
X156439849Y-116937783D01*
X156455011Y-116947527D01*
X156669677Y-117045561D01*
X156686970Y-117050639D01*
X156916094Y-117083582D01*
X156925071Y-117084224D01*
X157742894Y-117084224D01*
X157782446Y-117231835D01*
X157788767Y-117247095D01*
X157796500Y-117260489D01*
X157796501Y-118129869D01*
X157605380Y-118252696D01*
X157591759Y-118264499D01*
X157481026Y-118392291D01*
X157457304Y-118355380D01*
X157445502Y-118341760D01*
X157412090Y-118312808D01*
X157406704Y-118271896D01*
X157385044Y-118107373D01*
X157380769Y-118091419D01*
X157291067Y-117874861D01*
X157282809Y-117860557D01*
X157177805Y-117723713D01*
X157173315Y-117706954D01*
X157166994Y-117691695D01*
X157038932Y-117469885D01*
X157028877Y-117456781D01*
X156847770Y-117275674D01*
X156834666Y-117265619D01*
X156612856Y-117137557D01*
X156597596Y-117131236D01*
X156350199Y-117064946D01*
X156333823Y-117062790D01*
X156077699Y-117062790D01*
X156061323Y-117064946D01*
X155813926Y-117131236D01*
X155798666Y-117137557D01*
X155576856Y-117265619D01*
X155563752Y-117275674D01*
X155382645Y-117456781D01*
X155372590Y-117469885D01*
X155244528Y-117691695D01*
X155238207Y-117706955D01*
X155171917Y-117954352D01*
X155169761Y-117970728D01*
X155169761Y-118226852D01*
X155171917Y-118243228D01*
X155221025Y-118426500D01*
X154064952Y-118426500D01*
X152083500Y-116445049D01*
X152083500Y-116112453D01*
X152140255Y-116373353D01*
X152148885Y-116394188D01*
X152277696Y-116594620D01*
X152289499Y-116608241D01*
X152467849Y-116762783D01*
X152483011Y-116772527D01*
X152697676Y-116870561D01*
X152714969Y-116875639D01*
X152944093Y-116908582D01*
X152953070Y-116909224D01*
X153078191Y-116909224D01*
X153152000Y-116835415D01*
X153152001Y-115442000D01*
X153408000Y-115442001D01*
G37*
X153408000Y-115442001D02*
X153407999Y-116835415D01*
X153481808Y-116909224D01*
X153609184Y-116909224D01*
X153622614Y-116907780D01*
X153958353Y-116834745D01*
X153979188Y-116826115D01*
X154179620Y-116697304D01*
X154193241Y-116685501D01*
X154303974Y-116557709D01*
X154327696Y-116594620D01*
X154339499Y-116608241D01*
X154517849Y-116762783D01*
X154533011Y-116772527D01*
X154747676Y-116870561D01*
X154764969Y-116875639D01*
X154994093Y-116908582D01*
X155003070Y-116909224D01*
X155659184Y-116909224D01*
X155672614Y-116907780D01*
X156008353Y-116834745D01*
X156029188Y-116826115D01*
X156210937Y-116709311D01*
X156249696Y-116769620D01*
X156261499Y-116783241D01*
X156439849Y-116937783D01*
X156455011Y-116947527D01*
X156669677Y-117045561D01*
X156686970Y-117050639D01*
X156916094Y-117083582D01*
X156925071Y-117084224D01*
X157742894Y-117084224D01*
X157782446Y-117231835D01*
X157788767Y-117247095D01*
X157796500Y-117260489D01*
X157796501Y-118129869D01*
X157605380Y-118252696D01*
X157591759Y-118264499D01*
X157481026Y-118392291D01*
X157457304Y-118355380D01*
X157445502Y-118341760D01*
X157412090Y-118312808D01*
X157406704Y-118271896D01*
X157385044Y-118107373D01*
X157380769Y-118091419D01*
X157291067Y-117874861D01*
X157282809Y-117860557D01*
X157177805Y-117723713D01*
X157173315Y-117706954D01*
X157166994Y-117691695D01*
X157038932Y-117469885D01*
X157028877Y-117456781D01*
X156847770Y-117275674D01*
X156834666Y-117265619D01*
X156612856Y-117137557D01*
X156597596Y-117131236D01*
X156350199Y-117064946D01*
X156333823Y-117062790D01*
X156077699Y-117062790D01*
X156061323Y-117064946D01*
X155813926Y-117131236D01*
X155798666Y-117137557D01*
X155576856Y-117265619D01*
X155563752Y-117275674D01*
X155382645Y-117456781D01*
X155372590Y-117469885D01*
X155244528Y-117691695D01*
X155238207Y-117706955D01*
X155171917Y-117954352D01*
X155169761Y-117970728D01*
X155169761Y-118226852D01*
X155171917Y-118243228D01*
X155221025Y-118426500D01*
X154064952Y-118426500D01*
X152083500Y-116445049D01*
X152083500Y-116112453D01*
X152140255Y-116373353D01*
X152148885Y-116394188D01*
X152277696Y-116594620D01*
X152289499Y-116608241D01*
X152467849Y-116762783D01*
X152483011Y-116772527D01*
X152697676Y-116870561D01*
X152714969Y-116875639D01*
X152944093Y-116908582D01*
X152953070Y-116909224D01*
X153078191Y-116909224D01*
X153152000Y-116835415D01*
X153152001Y-115442000D01*
X153408000Y-115442001D01*
G36*
X170957696Y-109484620D02*
G01*
X170969499Y-109498241D01*
X171097291Y-109608974D01*
X171060380Y-109632696D01*
X171046759Y-109644499D01*
X170892217Y-109822849D01*
X170882473Y-109838011D01*
X170784439Y-110052676D01*
X170779361Y-110069969D01*
X170746418Y-110299093D01*
X170745776Y-110308070D01*
X170745776Y-110964184D01*
X170747220Y-110977614D01*
X170817028Y-111298520D01*
X169625224Y-112490324D01*
X169625224Y-112194816D01*
X169623780Y-112181386D01*
X169550745Y-111845647D01*
X169542115Y-111824812D01*
X169413304Y-111624380D01*
X169401501Y-111610759D01*
X169339318Y-111556877D01*
X169597353Y-111500745D01*
X169618188Y-111492115D01*
X169818620Y-111363304D01*
X169832241Y-111351501D01*
X169986783Y-111173151D01*
X169996527Y-111157989D01*
X170094561Y-110943324D01*
X170099639Y-110926031D01*
X170132582Y-110696907D01*
X170133224Y-110687930D01*
X170133224Y-110437809D01*
X170059415Y-110364000D01*
X168791000Y-110364000D01*
X168791000Y-110108000D01*
X170059415Y-110108000D01*
X170133224Y-110034191D01*
X170133224Y-109781816D01*
X170131780Y-109768386D01*
X170058745Y-109432647D01*
X170050115Y-109411812D01*
X169993360Y-109323501D01*
X170854151Y-109323501D01*
X170957696Y-109484620D01*
G37*
X170957696Y-109484620D02*
X170969499Y-109498241D01*
X171097291Y-109608974D01*
X171060380Y-109632696D01*
X171046759Y-109644499D01*
X170892217Y-109822849D01*
X170882473Y-109838011D01*
X170784439Y-110052676D01*
X170779361Y-110069969D01*
X170746418Y-110299093D01*
X170745776Y-110308070D01*
X170745776Y-110964184D01*
X170747220Y-110977614D01*
X170817028Y-111298520D01*
X169625224Y-112490324D01*
X169625224Y-112194816D01*
X169623780Y-112181386D01*
X169550745Y-111845647D01*
X169542115Y-111824812D01*
X169413304Y-111624380D01*
X169401501Y-111610759D01*
X169339318Y-111556877D01*
X169597353Y-111500745D01*
X169618188Y-111492115D01*
X169818620Y-111363304D01*
X169832241Y-111351501D01*
X169986783Y-111173151D01*
X169996527Y-111157989D01*
X170094561Y-110943324D01*
X170099639Y-110926031D01*
X170132582Y-110696907D01*
X170133224Y-110687930D01*
X170133224Y-110437809D01*
X170059415Y-110364000D01*
X168791000Y-110364000D01*
X168791000Y-110108000D01*
X170059415Y-110108000D01*
X170133224Y-110034191D01*
X170133224Y-109781816D01*
X170131780Y-109768386D01*
X170058745Y-109432647D01*
X170050115Y-109411812D01*
X169993360Y-109323501D01*
X170854151Y-109323501D01*
X170957696Y-109484620D01*
M02*
