G04 #@! TF.GenerationSoftware,KiCad,Pcbnew,(5.99.0-823-ga085f82be)*
G04 #@! TF.CreationDate,2020-04-11T14:47:27-07:00*
G04 #@! TF.ProjectId,USBtoTTL_Serial,55534274-6f54-4544-9c5f-53657269616c,n/c*
G04 #@! TF.SameCoordinates,Original*
G04 #@! TF.FileFunction,Soldermask,Top*
G04 #@! TF.FilePolarity,Negative*
%FSLAX46Y46*%
G04 Gerber Fmt 4.6, Leading zero omitted, Abs format (unit mm)*
G04 Created by KiCad (PCBNEW (5.99.0-823-ga085f82be)) date 2020-04-11 14:47:27*
%MOMM*%
%LPD*%
G04 APERTURE LIST*
G04 APERTURE END LIST*
G36*
X165907999Y-118659999D02*
G01*
X165908001Y-118660001D01*
X165910449Y-118672309D01*
X165910449Y-120597691D01*
X165908001Y-120609999D01*
X165907999Y-120610001D01*
X165895691Y-120612449D01*
X165320309Y-120612449D01*
X165308001Y-120610001D01*
X165307999Y-120609999D01*
X165305551Y-120597691D01*
X165305551Y-118672309D01*
X165307999Y-118660001D01*
X165308001Y-118659999D01*
X165320309Y-118657551D01*
X165895691Y-118657551D01*
X165907999Y-118659999D01*
G37*
G36*
X164637999Y-118659999D02*
G01*
X164638001Y-118660001D01*
X164640449Y-118672309D01*
X164640449Y-120597691D01*
X164638001Y-120609999D01*
X164637999Y-120610001D01*
X164625691Y-120612449D01*
X164050309Y-120612449D01*
X164038001Y-120610001D01*
X164037999Y-120609999D01*
X164035551Y-120597691D01*
X164035551Y-118672309D01*
X164037999Y-118660001D01*
X164038001Y-118659999D01*
X164050309Y-118657551D01*
X164625691Y-118657551D01*
X164637999Y-118659999D01*
G37*
G36*
X163367999Y-118659999D02*
G01*
X163368001Y-118660001D01*
X163370449Y-118672309D01*
X163370449Y-120597691D01*
X163368001Y-120609999D01*
X163367999Y-120610001D01*
X163355691Y-120612449D01*
X162780309Y-120612449D01*
X162768001Y-120610001D01*
X162767999Y-120609999D01*
X162765551Y-120597691D01*
X162765551Y-118672309D01*
X162767999Y-118660001D01*
X162768001Y-118659999D01*
X162780309Y-118657551D01*
X163355691Y-118657551D01*
X163367999Y-118659999D01*
G37*
G36*
X162097999Y-118659999D02*
G01*
X162098001Y-118660001D01*
X162100449Y-118672309D01*
X162100449Y-120597691D01*
X162098001Y-120609999D01*
X162097999Y-120610001D01*
X162085691Y-120612449D01*
X161510309Y-120612449D01*
X161498001Y-120610001D01*
X161497999Y-120609999D01*
X161495551Y-120597691D01*
X161495551Y-118672309D01*
X161497999Y-118660001D01*
X161498001Y-118659999D01*
X161510309Y-118657551D01*
X162085691Y-118657551D01*
X162097999Y-118659999D01*
G37*
G36*
X160827999Y-118659999D02*
G01*
X160828001Y-118660001D01*
X160830449Y-118672309D01*
X160830449Y-120597691D01*
X160828001Y-120609999D01*
X160827999Y-120610001D01*
X160815691Y-120612449D01*
X160240309Y-120612449D01*
X160228001Y-120610001D01*
X160227999Y-120609999D01*
X160225551Y-120597691D01*
X160225551Y-118672309D01*
X160227999Y-118660001D01*
X160228001Y-118659999D01*
X160240309Y-118657551D01*
X160815691Y-118657551D01*
X160827999Y-118659999D01*
G37*
G36*
X159557999Y-118659999D02*
G01*
X159558001Y-118660001D01*
X159560449Y-118672309D01*
X159560449Y-120597691D01*
X159558001Y-120609999D01*
X159557999Y-120610001D01*
X159545691Y-120612449D01*
X158970309Y-120612449D01*
X158958001Y-120610001D01*
X158957999Y-120609999D01*
X158955551Y-120597691D01*
X158955551Y-118672309D01*
X158957999Y-118660001D01*
X158958001Y-118659999D01*
X158970309Y-118657551D01*
X159545691Y-118657551D01*
X159557999Y-118659999D01*
G37*
G36*
X158287999Y-118659999D02*
G01*
X158288001Y-118660001D01*
X158290449Y-118672309D01*
X158290449Y-120597691D01*
X158288001Y-120609999D01*
X158287999Y-120610001D01*
X158275691Y-120612449D01*
X157700309Y-120612449D01*
X157688001Y-120610001D01*
X157687999Y-120609999D01*
X157685551Y-120597691D01*
X157685551Y-118672309D01*
X157687999Y-118660001D01*
X157688001Y-118659999D01*
X157700309Y-118657551D01*
X158275691Y-118657551D01*
X158287999Y-118659999D01*
G37*
G36*
X157017999Y-118659999D02*
G01*
X157018001Y-118660001D01*
X157020449Y-118672309D01*
X157020449Y-120597691D01*
X157018001Y-120609999D01*
X157017999Y-120610001D01*
X157005691Y-120612449D01*
X156430309Y-120612449D01*
X156418001Y-120610001D01*
X156417999Y-120609999D01*
X156415551Y-120597691D01*
X156415551Y-118672309D01*
X156417999Y-118660001D01*
X156418001Y-118659999D01*
X156430309Y-118657551D01*
X157005691Y-118657551D01*
X157017999Y-118659999D01*
G37*
G36*
X155747999Y-118659999D02*
G01*
X155748001Y-118660001D01*
X155750449Y-118672309D01*
X155750449Y-120597691D01*
X155748001Y-120609999D01*
X155747999Y-120610001D01*
X155735691Y-120612449D01*
X155160309Y-120612449D01*
X155148001Y-120610001D01*
X155147999Y-120609999D01*
X155145551Y-120597691D01*
X155145551Y-118672309D01*
X155147999Y-118660001D01*
X155148001Y-118659999D01*
X155160309Y-118657551D01*
X155735691Y-118657551D01*
X155747999Y-118659999D01*
G37*
G36*
X154477999Y-118659999D02*
G01*
X154478001Y-118660001D01*
X154480449Y-118672309D01*
X154480449Y-120597691D01*
X154478001Y-120609999D01*
X154477999Y-120610001D01*
X154465691Y-120612449D01*
X153890309Y-120612449D01*
X153878001Y-120610001D01*
X153877999Y-120609999D01*
X153875551Y-120597691D01*
X153875551Y-118672309D01*
X153877999Y-118660001D01*
X153878001Y-118659999D01*
X153890309Y-118657551D01*
X154465691Y-118657551D01*
X154477999Y-118659999D01*
G37*
G36*
X68623671Y-116510001D02*
G01*
X68705923Y-116510001D01*
X68746597Y-116516443D01*
X68785293Y-116518471D01*
X68869490Y-116535907D01*
X68954667Y-116549398D01*
X68989876Y-116560838D01*
X69023668Y-116567836D01*
X69108414Y-116599353D01*
X69194187Y-116627222D01*
X69223467Y-116642141D01*
X69251827Y-116652688D01*
X69334761Y-116698848D01*
X69418583Y-116741558D01*
X69441795Y-116758423D01*
X69464536Y-116771080D01*
X69543194Y-116832093D01*
X69622330Y-116889589D01*
X69639664Y-116906923D01*
X69656880Y-116920277D01*
X69728690Y-116995949D01*
X69800411Y-117067670D01*
X69812368Y-117084127D01*
X69824449Y-117096858D01*
X69886878Y-117186681D01*
X69948442Y-117271417D01*
X69955780Y-117285818D01*
X69963379Y-117296752D01*
X70013975Y-117400032D01*
X70062778Y-117495813D01*
X70066482Y-117507214D01*
X70070475Y-117515364D01*
X70107007Y-117631938D01*
X70140602Y-117735333D01*
X70141821Y-117743027D01*
X70143270Y-117747652D01*
X70163725Y-117881329D01*
X70179999Y-117984077D01*
X70179999Y-118235923D01*
X70170996Y-118292767D01*
X70170056Y-118325396D01*
X70153467Y-118403443D01*
X70140602Y-118484667D01*
X70127878Y-118523828D01*
X70119822Y-118561728D01*
X70089434Y-118642149D01*
X70062778Y-118724187D01*
X70045966Y-118757182D01*
X70033772Y-118789453D01*
X69989391Y-118868217D01*
X69948442Y-118948583D01*
X69929127Y-118975168D01*
X69914272Y-119001531D01*
X69855702Y-119076229D01*
X69800411Y-119152330D01*
X69780125Y-119172616D01*
X69764066Y-119193097D01*
X69691496Y-119261245D01*
X69622330Y-119330411D01*
X69602499Y-119344819D01*
X69586612Y-119359738D01*
X69500631Y-119418830D01*
X69418583Y-119478442D01*
X69400457Y-119487678D01*
X69385995Y-119497617D01*
X69287540Y-119545212D01*
X69194187Y-119592778D01*
X69178810Y-119597774D01*
X69166823Y-119603569D01*
X69056841Y-119637404D01*
X68954667Y-119670602D01*
X68942841Y-119672475D01*
X68934159Y-119675146D01*
X68813234Y-119693003D01*
X68705923Y-119709999D01*
X68698135Y-119709999D01*
X68693334Y-119710708D01*
X68557971Y-119709999D01*
X68454077Y-119709999D01*
X68450524Y-119709436D01*
X68449909Y-119709433D01*
X68209476Y-119671352D01*
X68208892Y-119671166D01*
X68205333Y-119670602D01*
X68106255Y-119638410D01*
X67977563Y-119597339D01*
X67973229Y-119595188D01*
X67965813Y-119592778D01*
X67868944Y-119543421D01*
X67759521Y-119489103D01*
X67752089Y-119483880D01*
X67741417Y-119478442D01*
X67654496Y-119415290D01*
X67560354Y-119349126D01*
X67550742Y-119339908D01*
X67537670Y-119330411D01*
X67463636Y-119256377D01*
X67384658Y-119180640D01*
X67373970Y-119166711D01*
X67359589Y-119152330D01*
X67299973Y-119070276D01*
X67236465Y-118987510D01*
X67225969Y-118968418D01*
X67211558Y-118948583D01*
X67167144Y-118861416D01*
X67119192Y-118774192D01*
X67110249Y-118749754D01*
X67097222Y-118724187D01*
X67068151Y-118634715D01*
X67035534Y-118545584D01*
X67029553Y-118515920D01*
X67019398Y-118484667D01*
X67005290Y-118395595D01*
X66987417Y-118306954D01*
X66985791Y-118272482D01*
X66980001Y-118235923D01*
X66980001Y-118149696D01*
X66975950Y-118063794D01*
X66980001Y-118025253D01*
X66980001Y-117984077D01*
X66992867Y-117902843D01*
X67001396Y-117821699D01*
X67012305Y-117780114D01*
X67019398Y-117735333D01*
X67043571Y-117660937D01*
X67063170Y-117586227D01*
X67081933Y-117542870D01*
X67097222Y-117495813D01*
X67130890Y-117429735D01*
X67159847Y-117362821D01*
X67187215Y-117319192D01*
X67211558Y-117271417D01*
X67252746Y-117214726D01*
X67289203Y-117156609D01*
X67325642Y-117114394D01*
X67359589Y-117067670D01*
X67406249Y-117021010D01*
X67448272Y-116972326D01*
X67493919Y-116933340D01*
X67537670Y-116889589D01*
X67587730Y-116853218D01*
X67633375Y-116814234D01*
X67688025Y-116780350D01*
X67741417Y-116741558D01*
X67792886Y-116715333D01*
X67840268Y-116685955D01*
X67903355Y-116659046D01*
X67965813Y-116627222D01*
X68016821Y-116610649D01*
X68064183Y-116590447D01*
X68134793Y-116572318D01*
X68205333Y-116549398D01*
X68254211Y-116541657D01*
X68299965Y-116529909D01*
X68376813Y-116522238D01*
X68454077Y-116510001D01*
X68499413Y-116510001D01*
X68542192Y-116505731D01*
X68623671Y-116510001D01*
G37*
G36*
X147363671Y-116510001D02*
G01*
X147445923Y-116510001D01*
X147486597Y-116516443D01*
X147525293Y-116518471D01*
X147609490Y-116535907D01*
X147694667Y-116549398D01*
X147729876Y-116560838D01*
X147763668Y-116567836D01*
X147848414Y-116599353D01*
X147934187Y-116627222D01*
X147963467Y-116642141D01*
X147991827Y-116652688D01*
X148074761Y-116698848D01*
X148158583Y-116741558D01*
X148181795Y-116758423D01*
X148204536Y-116771080D01*
X148283194Y-116832093D01*
X148362330Y-116889589D01*
X148379664Y-116906923D01*
X148396880Y-116920277D01*
X148468690Y-116995949D01*
X148540411Y-117067670D01*
X148552368Y-117084127D01*
X148564449Y-117096858D01*
X148626878Y-117186681D01*
X148688442Y-117271417D01*
X148695780Y-117285818D01*
X148703379Y-117296752D01*
X148753975Y-117400032D01*
X148802778Y-117495813D01*
X148806482Y-117507214D01*
X148810475Y-117515364D01*
X148847007Y-117631938D01*
X148880602Y-117735333D01*
X148881821Y-117743027D01*
X148883270Y-117747652D01*
X148903725Y-117881329D01*
X148919999Y-117984077D01*
X148919999Y-118235923D01*
X148910996Y-118292767D01*
X148910056Y-118325396D01*
X148893467Y-118403443D01*
X148880602Y-118484667D01*
X148867878Y-118523828D01*
X148859822Y-118561728D01*
X148829434Y-118642149D01*
X148802778Y-118724187D01*
X148785966Y-118757182D01*
X148773772Y-118789453D01*
X148729391Y-118868217D01*
X148688442Y-118948583D01*
X148669127Y-118975168D01*
X148654272Y-119001531D01*
X148595702Y-119076229D01*
X148540411Y-119152330D01*
X148520125Y-119172616D01*
X148504066Y-119193097D01*
X148431496Y-119261245D01*
X148362330Y-119330411D01*
X148342499Y-119344819D01*
X148326612Y-119359738D01*
X148240631Y-119418830D01*
X148158583Y-119478442D01*
X148140457Y-119487678D01*
X148125995Y-119497617D01*
X148027540Y-119545212D01*
X147934187Y-119592778D01*
X147918810Y-119597774D01*
X147906823Y-119603569D01*
X147796841Y-119637404D01*
X147694667Y-119670602D01*
X147682841Y-119672475D01*
X147674159Y-119675146D01*
X147553234Y-119693003D01*
X147445923Y-119709999D01*
X147438135Y-119709999D01*
X147433334Y-119710708D01*
X147297971Y-119709999D01*
X147194077Y-119709999D01*
X147190524Y-119709436D01*
X147189909Y-119709433D01*
X146949476Y-119671352D01*
X146948892Y-119671166D01*
X146945333Y-119670602D01*
X146846255Y-119638410D01*
X146717563Y-119597339D01*
X146713229Y-119595188D01*
X146705813Y-119592778D01*
X146608944Y-119543421D01*
X146499521Y-119489103D01*
X146492089Y-119483880D01*
X146481417Y-119478442D01*
X146394496Y-119415290D01*
X146300354Y-119349126D01*
X146290742Y-119339908D01*
X146277670Y-119330411D01*
X146203636Y-119256377D01*
X146124658Y-119180640D01*
X146113970Y-119166711D01*
X146099589Y-119152330D01*
X146039973Y-119070276D01*
X145976465Y-118987510D01*
X145965969Y-118968418D01*
X145951558Y-118948583D01*
X145907144Y-118861416D01*
X145859192Y-118774192D01*
X145850249Y-118749754D01*
X145837222Y-118724187D01*
X145808151Y-118634715D01*
X145775534Y-118545584D01*
X145769553Y-118515920D01*
X145759398Y-118484667D01*
X145745290Y-118395595D01*
X145727417Y-118306954D01*
X145725791Y-118272482D01*
X145720001Y-118235923D01*
X145720001Y-118149696D01*
X145715950Y-118063794D01*
X145720001Y-118025253D01*
X145720001Y-117984077D01*
X145732867Y-117902843D01*
X145741396Y-117821699D01*
X145752305Y-117780114D01*
X145759398Y-117735333D01*
X145783571Y-117660937D01*
X145803170Y-117586227D01*
X145821933Y-117542870D01*
X145837222Y-117495813D01*
X145870890Y-117429735D01*
X145899847Y-117362821D01*
X145927215Y-117319192D01*
X145951558Y-117271417D01*
X145992746Y-117214726D01*
X146029203Y-117156609D01*
X146065642Y-117114394D01*
X146099589Y-117067670D01*
X146146249Y-117021010D01*
X146188272Y-116972326D01*
X146233919Y-116933340D01*
X146277670Y-116889589D01*
X146327730Y-116853218D01*
X146373375Y-116814234D01*
X146428025Y-116780350D01*
X146481417Y-116741558D01*
X146532886Y-116715333D01*
X146580268Y-116685955D01*
X146643355Y-116659046D01*
X146705813Y-116627222D01*
X146756821Y-116610649D01*
X146804183Y-116590447D01*
X146874793Y-116572318D01*
X146945333Y-116549398D01*
X146994211Y-116541657D01*
X147039965Y-116529909D01*
X147116813Y-116522238D01*
X147194077Y-116510001D01*
X147239413Y-116510001D01*
X147282192Y-116505731D01*
X147363671Y-116510001D01*
G37*
G36*
X181296549Y-116008181D02*
G01*
X181327248Y-116007484D01*
X181423084Y-116019251D01*
X181522088Y-116027913D01*
X181551879Y-116035065D01*
X181579315Y-116038434D01*
X181675408Y-116064722D01*
X181775008Y-116088634D01*
X181800576Y-116098964D01*
X181824288Y-116105451D01*
X181918419Y-116146576D01*
X182016176Y-116186072D01*
X182037289Y-116198509D01*
X182057009Y-116207124D01*
X182146837Y-116263038D01*
X182240291Y-116318086D01*
X182256954Y-116331579D01*
X182272614Y-116341327D01*
X182355783Y-116411610D01*
X182442432Y-116481777D01*
X182454844Y-116495323D01*
X182466593Y-116505251D01*
X182540793Y-116589119D01*
X182618158Y-116673548D01*
X182626721Y-116686243D01*
X182634878Y-116695463D01*
X182697877Y-116791736D01*
X182763608Y-116889186D01*
X182768883Y-116900244D01*
X182773940Y-116907973D01*
X182823689Y-117015148D01*
X182875587Y-117123955D01*
X182878273Y-117132740D01*
X182880870Y-117138335D01*
X182915593Y-117254810D01*
X182951635Y-117372697D01*
X182952537Y-117378733D01*
X182953424Y-117381708D01*
X182971521Y-117505760D01*
X182990081Y-117629946D01*
X182980876Y-117981467D01*
X182955783Y-118104803D01*
X182930460Y-118230394D01*
X182929930Y-118231873D01*
X182929019Y-118236353D01*
X182886383Y-118353496D01*
X182844848Y-118469497D01*
X182842674Y-118473586D01*
X182840058Y-118480773D01*
X182781877Y-118587928D01*
X182725618Y-118693737D01*
X182721055Y-118699949D01*
X182715945Y-118709360D01*
X182644325Y-118804403D01*
X182575269Y-118898411D01*
X182567706Y-118906080D01*
X182559409Y-118917091D01*
X182476631Y-118998436D01*
X182396946Y-119079242D01*
X182385904Y-119087593D01*
X182373887Y-119099402D01*
X182282454Y-119165832D01*
X182194384Y-119232439D01*
X182179561Y-119240588D01*
X182163456Y-119252289D01*
X182065888Y-119303080D01*
X181971836Y-119354785D01*
X181953125Y-119361781D01*
X181932739Y-119372393D01*
X181831561Y-119407232D01*
X181733952Y-119443726D01*
X181711435Y-119448594D01*
X181686803Y-119457076D01*
X181584597Y-119476018D01*
X181485724Y-119497396D01*
X181459668Y-119499172D01*
X181431051Y-119504476D01*
X181330205Y-119507998D01*
X181232344Y-119514669D01*
X181203259Y-119512431D01*
X181171103Y-119513554D01*
X181073858Y-119502474D01*
X180979124Y-119495185D01*
X180947674Y-119488097D01*
X180912668Y-119484109D01*
X180821090Y-119459571D01*
X180731377Y-119439353D01*
X180698413Y-119426699D01*
X180661424Y-119416788D01*
X180577259Y-119380192D01*
X180494274Y-119348337D01*
X180460818Y-119329563D01*
X180422890Y-119313071D01*
X180347651Y-119266056D01*
X180272800Y-119224052D01*
X180239971Y-119198770D01*
X180202307Y-119175235D01*
X180137166Y-119119599D01*
X180071585Y-119069095D01*
X180040618Y-119037140D01*
X180004520Y-119006309D01*
X179950322Y-118943961D01*
X179894849Y-118886718D01*
X179867027Y-118848142D01*
X179833874Y-118810004D01*
X179791127Y-118742905D01*
X179746288Y-118680734D01*
X179722910Y-118635824D01*
X179694119Y-118590632D01*
X179663003Y-118520745D01*
X179629022Y-118455467D01*
X179611364Y-118404761D01*
X179588324Y-118353012D01*
X179568696Y-118282236D01*
X179545500Y-118215627D01*
X179534768Y-118159896D01*
X179518813Y-118102365D01*
X179510234Y-118032494D01*
X179497475Y-117966238D01*
X179494762Y-117906484D01*
X179487114Y-117844197D01*
X179488877Y-117776873D01*
X179485956Y-117712540D01*
X179492200Y-117649982D01*
X179493923Y-117584179D01*
X179505087Y-117520867D01*
X179511179Y-117459826D01*
X179527131Y-117395850D01*
X179539090Y-117328024D01*
X179558523Y-117269945D01*
X179572621Y-117213402D01*
X179598798Y-117149574D01*
X179621623Y-117081358D01*
X179648033Y-117029526D01*
X179668985Y-116978438D01*
X179705665Y-116916415D01*
X179739709Y-116849601D01*
X179771723Y-116804719D01*
X179798267Y-116759836D01*
X179845430Y-116701386D01*
X179890754Y-116637844D01*
X179926921Y-116600392D01*
X179957750Y-116562185D01*
X180015118Y-116509062D01*
X180071440Y-116450739D01*
X180110313Y-116420910D01*
X180144091Y-116389632D01*
X180211045Y-116343616D01*
X180277796Y-116292396D01*
X180317982Y-116270120D01*
X180353392Y-116245784D01*
X180429028Y-116208567D01*
X180505291Y-116166293D01*
X180545462Y-116151274D01*
X180581262Y-116133658D01*
X180664399Y-116106805D01*
X180748926Y-116075202D01*
X180787875Y-116066923D01*
X180822932Y-116055600D01*
X180912098Y-116040519D01*
X181003349Y-116021123D01*
X181040046Y-116018878D01*
X181073347Y-116013246D01*
X181166805Y-116011125D01*
X181262971Y-116005243D01*
X181296549Y-116008181D01*
G37*
G36*
X130813049Y-114698800D02*
G01*
X130855766Y-114696711D01*
X130901040Y-114703720D01*
X130952931Y-114706621D01*
X130994185Y-114718139D01*
X131030435Y-114723751D01*
X131079084Y-114741843D01*
X131134995Y-114757454D01*
X131167424Y-114774697D01*
X131196091Y-114785358D01*
X131245270Y-114816088D01*
X131301896Y-114846197D01*
X131325217Y-114866045D01*
X131345977Y-114879017D01*
X131392370Y-114923196D01*
X131445847Y-114968709D01*
X131460670Y-114988238D01*
X131473973Y-115000906D01*
X131513998Y-115058494D01*
X131560133Y-115119275D01*
X131567852Y-115135980D01*
X131574845Y-115146042D01*
X131604863Y-115216080D01*
X131639421Y-115290869D01*
X131642057Y-115302859D01*
X131644471Y-115308491D01*
X131661013Y-115389076D01*
X131680011Y-115475487D01*
X131679330Y-115670585D01*
X131659737Y-115756825D01*
X131642626Y-115837327D01*
X131640171Y-115842946D01*
X131637452Y-115854914D01*
X131602385Y-115929436D01*
X131571867Y-115999288D01*
X131564802Y-116009304D01*
X131556968Y-116025951D01*
X131510418Y-116086397D01*
X131469984Y-116143716D01*
X131456591Y-116156293D01*
X131441634Y-116175715D01*
X131387850Y-116220845D01*
X131341144Y-116264705D01*
X131320291Y-116277534D01*
X131296831Y-116297219D01*
X131239992Y-116326934D01*
X131190605Y-116357317D01*
X131161869Y-116367776D01*
X131129315Y-116384795D01*
X131073281Y-116400019D01*
X131024516Y-116417768D01*
X130988236Y-116423125D01*
X130946900Y-116434356D01*
X130894988Y-116436895D01*
X130849669Y-116443587D01*
X130806968Y-116441200D01*
X130758099Y-116443590D01*
X130712866Y-116435939D01*
X130673201Y-116433722D01*
X130625961Y-116421240D01*
X130571719Y-116412066D01*
X130534833Y-116397163D01*
X130502318Y-116388572D01*
X130453106Y-116364143D01*
X130396457Y-116341255D01*
X130368667Y-116322227D01*
X130344004Y-116309984D01*
X130295915Y-116272412D01*
X130240488Y-116234461D01*
X130221613Y-116214362D01*
X130204729Y-116201170D01*
X130161235Y-116150065D01*
X130111090Y-116096666D01*
X130100104Y-116078237D01*
X130090178Y-116066574D01*
X130054921Y-116002442D01*
X130014300Y-115934300D01*
X130009459Y-115919747D01*
X130005030Y-115911691D01*
X129981595Y-115835986D01*
X129954634Y-115754937D01*
X129953671Y-115745778D01*
X129952764Y-115742847D01*
X129944435Y-115657903D01*
X129934875Y-115566945D01*
X129945074Y-115476024D01*
X129953992Y-115391172D01*
X129954919Y-115388249D01*
X129955946Y-115379096D01*
X129983467Y-115298255D01*
X130007435Y-115222696D01*
X130011922Y-115214667D01*
X130016863Y-115200154D01*
X130057944Y-115132320D01*
X130093659Y-115068417D01*
X130103668Y-115056821D01*
X130114784Y-115038467D01*
X130165304Y-114985415D01*
X130209151Y-114934619D01*
X130226126Y-114921546D01*
X130245141Y-114901579D01*
X130300836Y-114864012D01*
X130349186Y-114826778D01*
X130373932Y-114814708D01*
X130401851Y-114795877D01*
X130458652Y-114773388D01*
X130508039Y-114749300D01*
X130540616Y-114740936D01*
X130577604Y-114726291D01*
X130631910Y-114717495D01*
X130679232Y-114705345D01*
X130718909Y-114703404D01*
X130764199Y-114696069D01*
X130813049Y-114698800D01*
G37*
G36*
X121923049Y-114698800D02*
G01*
X121965766Y-114696711D01*
X122011040Y-114703720D01*
X122062931Y-114706621D01*
X122104185Y-114718139D01*
X122140435Y-114723751D01*
X122189084Y-114741843D01*
X122244995Y-114757454D01*
X122277424Y-114774697D01*
X122306091Y-114785358D01*
X122355270Y-114816088D01*
X122411896Y-114846197D01*
X122435217Y-114866045D01*
X122455977Y-114879017D01*
X122502370Y-114923196D01*
X122555847Y-114968709D01*
X122570670Y-114988238D01*
X122583973Y-115000906D01*
X122623998Y-115058494D01*
X122670133Y-115119275D01*
X122677852Y-115135980D01*
X122684845Y-115146042D01*
X122714863Y-115216080D01*
X122749421Y-115290869D01*
X122752057Y-115302859D01*
X122754471Y-115308491D01*
X122771013Y-115389076D01*
X122790011Y-115475487D01*
X122789330Y-115670585D01*
X122769737Y-115756825D01*
X122752626Y-115837327D01*
X122750171Y-115842946D01*
X122747452Y-115854914D01*
X122712385Y-115929436D01*
X122681867Y-115999288D01*
X122674802Y-116009304D01*
X122666968Y-116025951D01*
X122620418Y-116086397D01*
X122579984Y-116143716D01*
X122566591Y-116156293D01*
X122551634Y-116175715D01*
X122497850Y-116220845D01*
X122451144Y-116264705D01*
X122430291Y-116277534D01*
X122406831Y-116297219D01*
X122349992Y-116326934D01*
X122300605Y-116357317D01*
X122271869Y-116367776D01*
X122239315Y-116384795D01*
X122183281Y-116400019D01*
X122134516Y-116417768D01*
X122098236Y-116423125D01*
X122056900Y-116434356D01*
X122004988Y-116436895D01*
X121959669Y-116443587D01*
X121916968Y-116441200D01*
X121868099Y-116443590D01*
X121822866Y-116435939D01*
X121783201Y-116433722D01*
X121735961Y-116421240D01*
X121681719Y-116412066D01*
X121644833Y-116397163D01*
X121612318Y-116388572D01*
X121563106Y-116364143D01*
X121506457Y-116341255D01*
X121478667Y-116322227D01*
X121454004Y-116309984D01*
X121405915Y-116272412D01*
X121350488Y-116234461D01*
X121331613Y-116214362D01*
X121314729Y-116201170D01*
X121271235Y-116150065D01*
X121221090Y-116096666D01*
X121210104Y-116078237D01*
X121200178Y-116066574D01*
X121164921Y-116002442D01*
X121124300Y-115934300D01*
X121119459Y-115919747D01*
X121115030Y-115911691D01*
X121091595Y-115835986D01*
X121064634Y-115754937D01*
X121063671Y-115745778D01*
X121062764Y-115742847D01*
X121054435Y-115657903D01*
X121044875Y-115566945D01*
X121055074Y-115476024D01*
X121063992Y-115391172D01*
X121064919Y-115388249D01*
X121065946Y-115379096D01*
X121093467Y-115298255D01*
X121117435Y-115222696D01*
X121121922Y-115214667D01*
X121126863Y-115200154D01*
X121167944Y-115132320D01*
X121203659Y-115068417D01*
X121213668Y-115056821D01*
X121224784Y-115038467D01*
X121275304Y-114985415D01*
X121319151Y-114934619D01*
X121336126Y-114921546D01*
X121355141Y-114901579D01*
X121410836Y-114864012D01*
X121459186Y-114826778D01*
X121483932Y-114814708D01*
X121511851Y-114795877D01*
X121568652Y-114773388D01*
X121618039Y-114749300D01*
X121650616Y-114740936D01*
X121687604Y-114726291D01*
X121741910Y-114717495D01*
X121789232Y-114705345D01*
X121828909Y-114703404D01*
X121874199Y-114696069D01*
X121923049Y-114698800D01*
G37*
G36*
X113033049Y-114698800D02*
G01*
X113075766Y-114696711D01*
X113121040Y-114703720D01*
X113172931Y-114706621D01*
X113214185Y-114718139D01*
X113250435Y-114723751D01*
X113299084Y-114741843D01*
X113354995Y-114757454D01*
X113387424Y-114774697D01*
X113416091Y-114785358D01*
X113465270Y-114816088D01*
X113521896Y-114846197D01*
X113545217Y-114866045D01*
X113565977Y-114879017D01*
X113612370Y-114923196D01*
X113665847Y-114968709D01*
X113680670Y-114988238D01*
X113693973Y-115000906D01*
X113733998Y-115058494D01*
X113780133Y-115119275D01*
X113787852Y-115135980D01*
X113794845Y-115146042D01*
X113824863Y-115216080D01*
X113859421Y-115290869D01*
X113862057Y-115302859D01*
X113864471Y-115308491D01*
X113881013Y-115389076D01*
X113900011Y-115475487D01*
X113899330Y-115670585D01*
X113879737Y-115756825D01*
X113862626Y-115837327D01*
X113860171Y-115842946D01*
X113857452Y-115854914D01*
X113822385Y-115929436D01*
X113791867Y-115999288D01*
X113784802Y-116009304D01*
X113776968Y-116025951D01*
X113730418Y-116086397D01*
X113689984Y-116143716D01*
X113676591Y-116156293D01*
X113661634Y-116175715D01*
X113607850Y-116220845D01*
X113561144Y-116264705D01*
X113540291Y-116277534D01*
X113516831Y-116297219D01*
X113459992Y-116326934D01*
X113410605Y-116357317D01*
X113381869Y-116367776D01*
X113349315Y-116384795D01*
X113293281Y-116400019D01*
X113244516Y-116417768D01*
X113208236Y-116423125D01*
X113166900Y-116434356D01*
X113114988Y-116436895D01*
X113069669Y-116443587D01*
X113026968Y-116441200D01*
X112978099Y-116443590D01*
X112932866Y-116435939D01*
X112893201Y-116433722D01*
X112845961Y-116421240D01*
X112791719Y-116412066D01*
X112754833Y-116397163D01*
X112722318Y-116388572D01*
X112673106Y-116364143D01*
X112616457Y-116341255D01*
X112588667Y-116322227D01*
X112564004Y-116309984D01*
X112515915Y-116272412D01*
X112460488Y-116234461D01*
X112441613Y-116214362D01*
X112424729Y-116201170D01*
X112381235Y-116150065D01*
X112331090Y-116096666D01*
X112320104Y-116078237D01*
X112310178Y-116066574D01*
X112274921Y-116002442D01*
X112234300Y-115934300D01*
X112229459Y-115919747D01*
X112225030Y-115911691D01*
X112201595Y-115835986D01*
X112174634Y-115754937D01*
X112173671Y-115745778D01*
X112172764Y-115742847D01*
X112164435Y-115657903D01*
X112154875Y-115566945D01*
X112165074Y-115476024D01*
X112173992Y-115391172D01*
X112174919Y-115388249D01*
X112175946Y-115379096D01*
X112203467Y-115298255D01*
X112227435Y-115222696D01*
X112231922Y-115214667D01*
X112236863Y-115200154D01*
X112277944Y-115132320D01*
X112313659Y-115068417D01*
X112323668Y-115056821D01*
X112334784Y-115038467D01*
X112385304Y-114985415D01*
X112429151Y-114934619D01*
X112446126Y-114921546D01*
X112465141Y-114901579D01*
X112520836Y-114864012D01*
X112569186Y-114826778D01*
X112593932Y-114814708D01*
X112621851Y-114795877D01*
X112678652Y-114773388D01*
X112728039Y-114749300D01*
X112760616Y-114740936D01*
X112797604Y-114726291D01*
X112851910Y-114717495D01*
X112899232Y-114705345D01*
X112938909Y-114703404D01*
X112984199Y-114696069D01*
X113033049Y-114698800D01*
G37*
G36*
X139703049Y-114698800D02*
G01*
X139745766Y-114696711D01*
X139791040Y-114703720D01*
X139842931Y-114706621D01*
X139884185Y-114718139D01*
X139920435Y-114723751D01*
X139969084Y-114741843D01*
X140024995Y-114757454D01*
X140057424Y-114774697D01*
X140086091Y-114785358D01*
X140135270Y-114816088D01*
X140191896Y-114846197D01*
X140215217Y-114866045D01*
X140235977Y-114879017D01*
X140282370Y-114923196D01*
X140335847Y-114968709D01*
X140350670Y-114988238D01*
X140363973Y-115000906D01*
X140403998Y-115058494D01*
X140450133Y-115119275D01*
X140457852Y-115135980D01*
X140464845Y-115146042D01*
X140494863Y-115216080D01*
X140529421Y-115290869D01*
X140532057Y-115302859D01*
X140534471Y-115308491D01*
X140551013Y-115389076D01*
X140570011Y-115475487D01*
X140569330Y-115670585D01*
X140549737Y-115756825D01*
X140532626Y-115837327D01*
X140530171Y-115842946D01*
X140527452Y-115854914D01*
X140492385Y-115929436D01*
X140461867Y-115999288D01*
X140454802Y-116009304D01*
X140446968Y-116025951D01*
X140400418Y-116086397D01*
X140359984Y-116143716D01*
X140346591Y-116156293D01*
X140331634Y-116175715D01*
X140277850Y-116220845D01*
X140231144Y-116264705D01*
X140210291Y-116277534D01*
X140186831Y-116297219D01*
X140129992Y-116326934D01*
X140080605Y-116357317D01*
X140051869Y-116367776D01*
X140019315Y-116384795D01*
X139963281Y-116400019D01*
X139914516Y-116417768D01*
X139878236Y-116423125D01*
X139836900Y-116434356D01*
X139784988Y-116436895D01*
X139739669Y-116443587D01*
X139696968Y-116441200D01*
X139648099Y-116443590D01*
X139602866Y-116435939D01*
X139563201Y-116433722D01*
X139515961Y-116421240D01*
X139461719Y-116412066D01*
X139424833Y-116397163D01*
X139392318Y-116388572D01*
X139343106Y-116364143D01*
X139286457Y-116341255D01*
X139258667Y-116322227D01*
X139234004Y-116309984D01*
X139185915Y-116272412D01*
X139130488Y-116234461D01*
X139111613Y-116214362D01*
X139094729Y-116201170D01*
X139051235Y-116150065D01*
X139001090Y-116096666D01*
X138990104Y-116078237D01*
X138980178Y-116066574D01*
X138944921Y-116002442D01*
X138904300Y-115934300D01*
X138899459Y-115919747D01*
X138895030Y-115911691D01*
X138871595Y-115835986D01*
X138844634Y-115754937D01*
X138843671Y-115745778D01*
X138842764Y-115742847D01*
X138834435Y-115657903D01*
X138824875Y-115566945D01*
X138835074Y-115476024D01*
X138843992Y-115391172D01*
X138844919Y-115388249D01*
X138845946Y-115379096D01*
X138873467Y-115298255D01*
X138897435Y-115222696D01*
X138901922Y-115214667D01*
X138906863Y-115200154D01*
X138947944Y-115132320D01*
X138983659Y-115068417D01*
X138993668Y-115056821D01*
X139004784Y-115038467D01*
X139055304Y-114985415D01*
X139099151Y-114934619D01*
X139116126Y-114921546D01*
X139135141Y-114901579D01*
X139190836Y-114864012D01*
X139239186Y-114826778D01*
X139263932Y-114814708D01*
X139291851Y-114795877D01*
X139348652Y-114773388D01*
X139398039Y-114749300D01*
X139430616Y-114740936D01*
X139467604Y-114726291D01*
X139521910Y-114717495D01*
X139569232Y-114705345D01*
X139608909Y-114703404D01*
X139654199Y-114696069D01*
X139703049Y-114698800D01*
G37*
G36*
X104143049Y-114698800D02*
G01*
X104185766Y-114696711D01*
X104231040Y-114703720D01*
X104282931Y-114706621D01*
X104324185Y-114718139D01*
X104360435Y-114723751D01*
X104409084Y-114741843D01*
X104464995Y-114757454D01*
X104497424Y-114774697D01*
X104526091Y-114785358D01*
X104575270Y-114816088D01*
X104631896Y-114846197D01*
X104655217Y-114866045D01*
X104675977Y-114879017D01*
X104722370Y-114923196D01*
X104775847Y-114968709D01*
X104790670Y-114988238D01*
X104803973Y-115000906D01*
X104843998Y-115058494D01*
X104890133Y-115119275D01*
X104897852Y-115135980D01*
X104904845Y-115146042D01*
X104934863Y-115216080D01*
X104969421Y-115290869D01*
X104972057Y-115302859D01*
X104974471Y-115308491D01*
X104991013Y-115389076D01*
X105010011Y-115475487D01*
X105009330Y-115670585D01*
X104989737Y-115756825D01*
X104972626Y-115837327D01*
X104970171Y-115842946D01*
X104967452Y-115854914D01*
X104932385Y-115929436D01*
X104901867Y-115999288D01*
X104894802Y-116009304D01*
X104886968Y-116025951D01*
X104840418Y-116086397D01*
X104799984Y-116143716D01*
X104786591Y-116156293D01*
X104771634Y-116175715D01*
X104717850Y-116220845D01*
X104671144Y-116264705D01*
X104650291Y-116277534D01*
X104626831Y-116297219D01*
X104569992Y-116326934D01*
X104520605Y-116357317D01*
X104491869Y-116367776D01*
X104459315Y-116384795D01*
X104403281Y-116400019D01*
X104354516Y-116417768D01*
X104318236Y-116423125D01*
X104276900Y-116434356D01*
X104224988Y-116436895D01*
X104179669Y-116443587D01*
X104136968Y-116441200D01*
X104088099Y-116443590D01*
X104042866Y-116435939D01*
X104003201Y-116433722D01*
X103955961Y-116421240D01*
X103901719Y-116412066D01*
X103864833Y-116397163D01*
X103832318Y-116388572D01*
X103783106Y-116364143D01*
X103726457Y-116341255D01*
X103698667Y-116322227D01*
X103674004Y-116309984D01*
X103625915Y-116272412D01*
X103570488Y-116234461D01*
X103551613Y-116214362D01*
X103534729Y-116201170D01*
X103491235Y-116150065D01*
X103441090Y-116096666D01*
X103430104Y-116078237D01*
X103420178Y-116066574D01*
X103384921Y-116002442D01*
X103344300Y-115934300D01*
X103339459Y-115919747D01*
X103335030Y-115911691D01*
X103311595Y-115835986D01*
X103284634Y-115754937D01*
X103283671Y-115745778D01*
X103282764Y-115742847D01*
X103274435Y-115657903D01*
X103264875Y-115566945D01*
X103275074Y-115476024D01*
X103283992Y-115391172D01*
X103284919Y-115388249D01*
X103285946Y-115379096D01*
X103313467Y-115298255D01*
X103337435Y-115222696D01*
X103341922Y-115214667D01*
X103346863Y-115200154D01*
X103387944Y-115132320D01*
X103423659Y-115068417D01*
X103433668Y-115056821D01*
X103444784Y-115038467D01*
X103495304Y-114985415D01*
X103539151Y-114934619D01*
X103556126Y-114921546D01*
X103575141Y-114901579D01*
X103630836Y-114864012D01*
X103679186Y-114826778D01*
X103703932Y-114814708D01*
X103731851Y-114795877D01*
X103788652Y-114773388D01*
X103838039Y-114749300D01*
X103870616Y-114740936D01*
X103907604Y-114726291D01*
X103961910Y-114717495D01*
X104009232Y-114705345D01*
X104048909Y-114703404D01*
X104094199Y-114696069D01*
X104143049Y-114698800D01*
G37*
G36*
X95253049Y-114698800D02*
G01*
X95295766Y-114696711D01*
X95341040Y-114703720D01*
X95392931Y-114706621D01*
X95434185Y-114718139D01*
X95470435Y-114723751D01*
X95519084Y-114741843D01*
X95574995Y-114757454D01*
X95607424Y-114774697D01*
X95636091Y-114785358D01*
X95685270Y-114816088D01*
X95741896Y-114846197D01*
X95765217Y-114866045D01*
X95785977Y-114879017D01*
X95832370Y-114923196D01*
X95885847Y-114968709D01*
X95900670Y-114988238D01*
X95913973Y-115000906D01*
X95953998Y-115058494D01*
X96000133Y-115119275D01*
X96007852Y-115135980D01*
X96014845Y-115146042D01*
X96044863Y-115216080D01*
X96079421Y-115290869D01*
X96082057Y-115302859D01*
X96084471Y-115308491D01*
X96101013Y-115389076D01*
X96120011Y-115475487D01*
X96119330Y-115670585D01*
X96099737Y-115756825D01*
X96082626Y-115837327D01*
X96080171Y-115842946D01*
X96077452Y-115854914D01*
X96042385Y-115929436D01*
X96011867Y-115999288D01*
X96004802Y-116009304D01*
X95996968Y-116025951D01*
X95950418Y-116086397D01*
X95909984Y-116143716D01*
X95896591Y-116156293D01*
X95881634Y-116175715D01*
X95827850Y-116220845D01*
X95781144Y-116264705D01*
X95760291Y-116277534D01*
X95736831Y-116297219D01*
X95679992Y-116326934D01*
X95630605Y-116357317D01*
X95601869Y-116367776D01*
X95569315Y-116384795D01*
X95513281Y-116400019D01*
X95464516Y-116417768D01*
X95428236Y-116423125D01*
X95386900Y-116434356D01*
X95334988Y-116436895D01*
X95289669Y-116443587D01*
X95246968Y-116441200D01*
X95198099Y-116443590D01*
X95152866Y-116435939D01*
X95113201Y-116433722D01*
X95065961Y-116421240D01*
X95011719Y-116412066D01*
X94974833Y-116397163D01*
X94942318Y-116388572D01*
X94893106Y-116364143D01*
X94836457Y-116341255D01*
X94808667Y-116322227D01*
X94784004Y-116309984D01*
X94735915Y-116272412D01*
X94680488Y-116234461D01*
X94661613Y-116214362D01*
X94644729Y-116201170D01*
X94601235Y-116150065D01*
X94551090Y-116096666D01*
X94540104Y-116078237D01*
X94530178Y-116066574D01*
X94494921Y-116002442D01*
X94454300Y-115934300D01*
X94449459Y-115919747D01*
X94445030Y-115911691D01*
X94421595Y-115835986D01*
X94394634Y-115754937D01*
X94393671Y-115745778D01*
X94392764Y-115742847D01*
X94384435Y-115657903D01*
X94374875Y-115566945D01*
X94385074Y-115476024D01*
X94393992Y-115391172D01*
X94394919Y-115388249D01*
X94395946Y-115379096D01*
X94423467Y-115298255D01*
X94447435Y-115222696D01*
X94451922Y-115214667D01*
X94456863Y-115200154D01*
X94497944Y-115132320D01*
X94533659Y-115068417D01*
X94543668Y-115056821D01*
X94554784Y-115038467D01*
X94605304Y-114985415D01*
X94649151Y-114934619D01*
X94666126Y-114921546D01*
X94685141Y-114901579D01*
X94740836Y-114864012D01*
X94789186Y-114826778D01*
X94813932Y-114814708D01*
X94841851Y-114795877D01*
X94898652Y-114773388D01*
X94948039Y-114749300D01*
X94980616Y-114740936D01*
X95017604Y-114726291D01*
X95071910Y-114717495D01*
X95119232Y-114705345D01*
X95158909Y-114703404D01*
X95204199Y-114696069D01*
X95253049Y-114698800D01*
G37*
G36*
X77473049Y-114698800D02*
G01*
X77515766Y-114696711D01*
X77561040Y-114703720D01*
X77612931Y-114706621D01*
X77654185Y-114718139D01*
X77690435Y-114723751D01*
X77739084Y-114741843D01*
X77794995Y-114757454D01*
X77827424Y-114774697D01*
X77856091Y-114785358D01*
X77905270Y-114816088D01*
X77961896Y-114846197D01*
X77985217Y-114866045D01*
X78005977Y-114879017D01*
X78052370Y-114923196D01*
X78105847Y-114968709D01*
X78120670Y-114988238D01*
X78133973Y-115000906D01*
X78173998Y-115058494D01*
X78220133Y-115119275D01*
X78227852Y-115135980D01*
X78234845Y-115146042D01*
X78264863Y-115216080D01*
X78299421Y-115290869D01*
X78302057Y-115302859D01*
X78304471Y-115308491D01*
X78321013Y-115389076D01*
X78340011Y-115475487D01*
X78339330Y-115670585D01*
X78319737Y-115756825D01*
X78302626Y-115837327D01*
X78300171Y-115842946D01*
X78297452Y-115854914D01*
X78262385Y-115929436D01*
X78231867Y-115999288D01*
X78224802Y-116009304D01*
X78216968Y-116025951D01*
X78170418Y-116086397D01*
X78129984Y-116143716D01*
X78116591Y-116156293D01*
X78101634Y-116175715D01*
X78047850Y-116220845D01*
X78001144Y-116264705D01*
X77980291Y-116277534D01*
X77956831Y-116297219D01*
X77899992Y-116326934D01*
X77850605Y-116357317D01*
X77821869Y-116367776D01*
X77789315Y-116384795D01*
X77733281Y-116400019D01*
X77684516Y-116417768D01*
X77648236Y-116423125D01*
X77606900Y-116434356D01*
X77554988Y-116436895D01*
X77509669Y-116443587D01*
X77466968Y-116441200D01*
X77418099Y-116443590D01*
X77372866Y-116435939D01*
X77333201Y-116433722D01*
X77285961Y-116421240D01*
X77231719Y-116412066D01*
X77194833Y-116397163D01*
X77162318Y-116388572D01*
X77113106Y-116364143D01*
X77056457Y-116341255D01*
X77028667Y-116322227D01*
X77004004Y-116309984D01*
X76955915Y-116272412D01*
X76900488Y-116234461D01*
X76881613Y-116214362D01*
X76864729Y-116201170D01*
X76821235Y-116150065D01*
X76771090Y-116096666D01*
X76760104Y-116078237D01*
X76750178Y-116066574D01*
X76714921Y-116002442D01*
X76674300Y-115934300D01*
X76669459Y-115919747D01*
X76665030Y-115911691D01*
X76641595Y-115835986D01*
X76614634Y-115754937D01*
X76613671Y-115745778D01*
X76612764Y-115742847D01*
X76604435Y-115657903D01*
X76594875Y-115566945D01*
X76605074Y-115476024D01*
X76613992Y-115391172D01*
X76614919Y-115388249D01*
X76615946Y-115379096D01*
X76643467Y-115298255D01*
X76667435Y-115222696D01*
X76671922Y-115214667D01*
X76676863Y-115200154D01*
X76717944Y-115132320D01*
X76753659Y-115068417D01*
X76763668Y-115056821D01*
X76774784Y-115038467D01*
X76825304Y-114985415D01*
X76869151Y-114934619D01*
X76886126Y-114921546D01*
X76905141Y-114901579D01*
X76960836Y-114864012D01*
X77009186Y-114826778D01*
X77033932Y-114814708D01*
X77061851Y-114795877D01*
X77118652Y-114773388D01*
X77168039Y-114749300D01*
X77200616Y-114740936D01*
X77237604Y-114726291D01*
X77291910Y-114717495D01*
X77339232Y-114705345D01*
X77378909Y-114703404D01*
X77424199Y-114696069D01*
X77473049Y-114698800D01*
G37*
G36*
X86363049Y-114698800D02*
G01*
X86405766Y-114696711D01*
X86451040Y-114703720D01*
X86502931Y-114706621D01*
X86544185Y-114718139D01*
X86580435Y-114723751D01*
X86629084Y-114741843D01*
X86684995Y-114757454D01*
X86717424Y-114774697D01*
X86746091Y-114785358D01*
X86795270Y-114816088D01*
X86851896Y-114846197D01*
X86875217Y-114866045D01*
X86895977Y-114879017D01*
X86942370Y-114923196D01*
X86995847Y-114968709D01*
X87010670Y-114988238D01*
X87023973Y-115000906D01*
X87063998Y-115058494D01*
X87110133Y-115119275D01*
X87117852Y-115135980D01*
X87124845Y-115146042D01*
X87154863Y-115216080D01*
X87189421Y-115290869D01*
X87192057Y-115302859D01*
X87194471Y-115308491D01*
X87211013Y-115389076D01*
X87230011Y-115475487D01*
X87229330Y-115670585D01*
X87209737Y-115756825D01*
X87192626Y-115837327D01*
X87190171Y-115842946D01*
X87187452Y-115854914D01*
X87152385Y-115929436D01*
X87121867Y-115999288D01*
X87114802Y-116009304D01*
X87106968Y-116025951D01*
X87060418Y-116086397D01*
X87019984Y-116143716D01*
X87006591Y-116156293D01*
X86991634Y-116175715D01*
X86937850Y-116220845D01*
X86891144Y-116264705D01*
X86870291Y-116277534D01*
X86846831Y-116297219D01*
X86789992Y-116326934D01*
X86740605Y-116357317D01*
X86711869Y-116367776D01*
X86679315Y-116384795D01*
X86623281Y-116400019D01*
X86574516Y-116417768D01*
X86538236Y-116423125D01*
X86496900Y-116434356D01*
X86444988Y-116436895D01*
X86399669Y-116443587D01*
X86356968Y-116441200D01*
X86308099Y-116443590D01*
X86262866Y-116435939D01*
X86223201Y-116433722D01*
X86175961Y-116421240D01*
X86121719Y-116412066D01*
X86084833Y-116397163D01*
X86052318Y-116388572D01*
X86003106Y-116364143D01*
X85946457Y-116341255D01*
X85918667Y-116322227D01*
X85894004Y-116309984D01*
X85845915Y-116272412D01*
X85790488Y-116234461D01*
X85771613Y-116214362D01*
X85754729Y-116201170D01*
X85711235Y-116150065D01*
X85661090Y-116096666D01*
X85650104Y-116078237D01*
X85640178Y-116066574D01*
X85604921Y-116002442D01*
X85564300Y-115934300D01*
X85559459Y-115919747D01*
X85555030Y-115911691D01*
X85531595Y-115835986D01*
X85504634Y-115754937D01*
X85503671Y-115745778D01*
X85502764Y-115742847D01*
X85494435Y-115657903D01*
X85484875Y-115566945D01*
X85495074Y-115476024D01*
X85503992Y-115391172D01*
X85504919Y-115388249D01*
X85505946Y-115379096D01*
X85533467Y-115298255D01*
X85557435Y-115222696D01*
X85561922Y-115214667D01*
X85566863Y-115200154D01*
X85607944Y-115132320D01*
X85643659Y-115068417D01*
X85653668Y-115056821D01*
X85664784Y-115038467D01*
X85715304Y-114985415D01*
X85759151Y-114934619D01*
X85776126Y-114921546D01*
X85795141Y-114901579D01*
X85850836Y-114864012D01*
X85899186Y-114826778D01*
X85923932Y-114814708D01*
X85951851Y-114795877D01*
X86008652Y-114773388D01*
X86058039Y-114749300D01*
X86090616Y-114740936D01*
X86127604Y-114726291D01*
X86181910Y-114717495D01*
X86229232Y-114705345D01*
X86268909Y-114703404D01*
X86314199Y-114696069D01*
X86363049Y-114698800D01*
G37*
G36*
X121923049Y-112158800D02*
G01*
X121965766Y-112156711D01*
X122011040Y-112163720D01*
X122062931Y-112166621D01*
X122104185Y-112178139D01*
X122140435Y-112183751D01*
X122189084Y-112201843D01*
X122244995Y-112217454D01*
X122277424Y-112234697D01*
X122306091Y-112245358D01*
X122355270Y-112276088D01*
X122411896Y-112306197D01*
X122435217Y-112326045D01*
X122455977Y-112339017D01*
X122502370Y-112383196D01*
X122555847Y-112428709D01*
X122570670Y-112448238D01*
X122583973Y-112460906D01*
X122623998Y-112518494D01*
X122670133Y-112579275D01*
X122677852Y-112595980D01*
X122684845Y-112606042D01*
X122714863Y-112676080D01*
X122749421Y-112750869D01*
X122752057Y-112762859D01*
X122754471Y-112768491D01*
X122771013Y-112849076D01*
X122790011Y-112935487D01*
X122789330Y-113130585D01*
X122769737Y-113216825D01*
X122752626Y-113297327D01*
X122750171Y-113302946D01*
X122747452Y-113314914D01*
X122712385Y-113389436D01*
X122681867Y-113459288D01*
X122674802Y-113469304D01*
X122666968Y-113485951D01*
X122620418Y-113546397D01*
X122579984Y-113603716D01*
X122566591Y-113616293D01*
X122551634Y-113635715D01*
X122497850Y-113680845D01*
X122451144Y-113724705D01*
X122430291Y-113737534D01*
X122406831Y-113757219D01*
X122349992Y-113786934D01*
X122300605Y-113817317D01*
X122271869Y-113827776D01*
X122239315Y-113844795D01*
X122183281Y-113860019D01*
X122134516Y-113877768D01*
X122098236Y-113883125D01*
X122056900Y-113894356D01*
X122004988Y-113896895D01*
X121959669Y-113903587D01*
X121916968Y-113901200D01*
X121868099Y-113903590D01*
X121822866Y-113895939D01*
X121783201Y-113893722D01*
X121735961Y-113881240D01*
X121681719Y-113872066D01*
X121644833Y-113857163D01*
X121612318Y-113848572D01*
X121563106Y-113824143D01*
X121506457Y-113801255D01*
X121478667Y-113782227D01*
X121454004Y-113769984D01*
X121405915Y-113732412D01*
X121350488Y-113694461D01*
X121331613Y-113674362D01*
X121314729Y-113661170D01*
X121271235Y-113610065D01*
X121221090Y-113556666D01*
X121210104Y-113538237D01*
X121200178Y-113526574D01*
X121164921Y-113462442D01*
X121124300Y-113394300D01*
X121119459Y-113379747D01*
X121115030Y-113371691D01*
X121091595Y-113295986D01*
X121064634Y-113214937D01*
X121063671Y-113205778D01*
X121062764Y-113202847D01*
X121054435Y-113117903D01*
X121044875Y-113026945D01*
X121055074Y-112936024D01*
X121063992Y-112851172D01*
X121064919Y-112848249D01*
X121065946Y-112839096D01*
X121093467Y-112758255D01*
X121117435Y-112682696D01*
X121121922Y-112674667D01*
X121126863Y-112660154D01*
X121167944Y-112592320D01*
X121203659Y-112528417D01*
X121213668Y-112516821D01*
X121224784Y-112498467D01*
X121275304Y-112445415D01*
X121319151Y-112394619D01*
X121336126Y-112381546D01*
X121355141Y-112361579D01*
X121410836Y-112324012D01*
X121459186Y-112286778D01*
X121483932Y-112274708D01*
X121511851Y-112255877D01*
X121568652Y-112233388D01*
X121618039Y-112209300D01*
X121650616Y-112200936D01*
X121687604Y-112186291D01*
X121741910Y-112177495D01*
X121789232Y-112165345D01*
X121828909Y-112163404D01*
X121874199Y-112156069D01*
X121923049Y-112158800D01*
G37*
G36*
X77473049Y-112158800D02*
G01*
X77515766Y-112156711D01*
X77561040Y-112163720D01*
X77612931Y-112166621D01*
X77654185Y-112178139D01*
X77690435Y-112183751D01*
X77739084Y-112201843D01*
X77794995Y-112217454D01*
X77827424Y-112234697D01*
X77856091Y-112245358D01*
X77905270Y-112276088D01*
X77961896Y-112306197D01*
X77985217Y-112326045D01*
X78005977Y-112339017D01*
X78052370Y-112383196D01*
X78105847Y-112428709D01*
X78120670Y-112448238D01*
X78133973Y-112460906D01*
X78173998Y-112518494D01*
X78220133Y-112579275D01*
X78227852Y-112595980D01*
X78234845Y-112606042D01*
X78264863Y-112676080D01*
X78299421Y-112750869D01*
X78302057Y-112762859D01*
X78304471Y-112768491D01*
X78321013Y-112849076D01*
X78340011Y-112935487D01*
X78339330Y-113130585D01*
X78319737Y-113216825D01*
X78302626Y-113297327D01*
X78300171Y-113302946D01*
X78297452Y-113314914D01*
X78262385Y-113389436D01*
X78231867Y-113459288D01*
X78224802Y-113469304D01*
X78216968Y-113485951D01*
X78170418Y-113546397D01*
X78129984Y-113603716D01*
X78116591Y-113616293D01*
X78101634Y-113635715D01*
X78047850Y-113680845D01*
X78001144Y-113724705D01*
X77980291Y-113737534D01*
X77956831Y-113757219D01*
X77899992Y-113786934D01*
X77850605Y-113817317D01*
X77821869Y-113827776D01*
X77789315Y-113844795D01*
X77733281Y-113860019D01*
X77684516Y-113877768D01*
X77648236Y-113883125D01*
X77606900Y-113894356D01*
X77554988Y-113896895D01*
X77509669Y-113903587D01*
X77466968Y-113901200D01*
X77418099Y-113903590D01*
X77372866Y-113895939D01*
X77333201Y-113893722D01*
X77285961Y-113881240D01*
X77231719Y-113872066D01*
X77194833Y-113857163D01*
X77162318Y-113848572D01*
X77113106Y-113824143D01*
X77056457Y-113801255D01*
X77028667Y-113782227D01*
X77004004Y-113769984D01*
X76955915Y-113732412D01*
X76900488Y-113694461D01*
X76881613Y-113674362D01*
X76864729Y-113661170D01*
X76821235Y-113610065D01*
X76771090Y-113556666D01*
X76760104Y-113538237D01*
X76750178Y-113526574D01*
X76714921Y-113462442D01*
X76674300Y-113394300D01*
X76669459Y-113379747D01*
X76665030Y-113371691D01*
X76641595Y-113295986D01*
X76614634Y-113214937D01*
X76613671Y-113205778D01*
X76612764Y-113202847D01*
X76604435Y-113117903D01*
X76594875Y-113026945D01*
X76605074Y-112936024D01*
X76613992Y-112851172D01*
X76614919Y-112848249D01*
X76615946Y-112839096D01*
X76643467Y-112758255D01*
X76667435Y-112682696D01*
X76671922Y-112674667D01*
X76676863Y-112660154D01*
X76717944Y-112592320D01*
X76753659Y-112528417D01*
X76763668Y-112516821D01*
X76774784Y-112498467D01*
X76825304Y-112445415D01*
X76869151Y-112394619D01*
X76886126Y-112381546D01*
X76905141Y-112361579D01*
X76960836Y-112324012D01*
X77009186Y-112286778D01*
X77033932Y-112274708D01*
X77061851Y-112255877D01*
X77118652Y-112233388D01*
X77168039Y-112209300D01*
X77200616Y-112200936D01*
X77237604Y-112186291D01*
X77291910Y-112177495D01*
X77339232Y-112165345D01*
X77378909Y-112163404D01*
X77424199Y-112156069D01*
X77473049Y-112158800D01*
G37*
G36*
X86363049Y-112158800D02*
G01*
X86405766Y-112156711D01*
X86451040Y-112163720D01*
X86502931Y-112166621D01*
X86544185Y-112178139D01*
X86580435Y-112183751D01*
X86629084Y-112201843D01*
X86684995Y-112217454D01*
X86717424Y-112234697D01*
X86746091Y-112245358D01*
X86795270Y-112276088D01*
X86851896Y-112306197D01*
X86875217Y-112326045D01*
X86895977Y-112339017D01*
X86942370Y-112383196D01*
X86995847Y-112428709D01*
X87010670Y-112448238D01*
X87023973Y-112460906D01*
X87063998Y-112518494D01*
X87110133Y-112579275D01*
X87117852Y-112595980D01*
X87124845Y-112606042D01*
X87154863Y-112676080D01*
X87189421Y-112750869D01*
X87192057Y-112762859D01*
X87194471Y-112768491D01*
X87211013Y-112849076D01*
X87230011Y-112935487D01*
X87229330Y-113130585D01*
X87209737Y-113216825D01*
X87192626Y-113297327D01*
X87190171Y-113302946D01*
X87187452Y-113314914D01*
X87152385Y-113389436D01*
X87121867Y-113459288D01*
X87114802Y-113469304D01*
X87106968Y-113485951D01*
X87060418Y-113546397D01*
X87019984Y-113603716D01*
X87006591Y-113616293D01*
X86991634Y-113635715D01*
X86937850Y-113680845D01*
X86891144Y-113724705D01*
X86870291Y-113737534D01*
X86846831Y-113757219D01*
X86789992Y-113786934D01*
X86740605Y-113817317D01*
X86711869Y-113827776D01*
X86679315Y-113844795D01*
X86623281Y-113860019D01*
X86574516Y-113877768D01*
X86538236Y-113883125D01*
X86496900Y-113894356D01*
X86444988Y-113896895D01*
X86399669Y-113903587D01*
X86356968Y-113901200D01*
X86308099Y-113903590D01*
X86262866Y-113895939D01*
X86223201Y-113893722D01*
X86175961Y-113881240D01*
X86121719Y-113872066D01*
X86084833Y-113857163D01*
X86052318Y-113848572D01*
X86003106Y-113824143D01*
X85946457Y-113801255D01*
X85918667Y-113782227D01*
X85894004Y-113769984D01*
X85845915Y-113732412D01*
X85790488Y-113694461D01*
X85771613Y-113674362D01*
X85754729Y-113661170D01*
X85711235Y-113610065D01*
X85661090Y-113556666D01*
X85650104Y-113538237D01*
X85640178Y-113526574D01*
X85604921Y-113462442D01*
X85564300Y-113394300D01*
X85559459Y-113379747D01*
X85555030Y-113371691D01*
X85531595Y-113295986D01*
X85504634Y-113214937D01*
X85503671Y-113205778D01*
X85502764Y-113202847D01*
X85494435Y-113117903D01*
X85484875Y-113026945D01*
X85495074Y-112936024D01*
X85503992Y-112851172D01*
X85504919Y-112848249D01*
X85505946Y-112839096D01*
X85533467Y-112758255D01*
X85557435Y-112682696D01*
X85561922Y-112674667D01*
X85566863Y-112660154D01*
X85607944Y-112592320D01*
X85643659Y-112528417D01*
X85653668Y-112516821D01*
X85664784Y-112498467D01*
X85715304Y-112445415D01*
X85759151Y-112394619D01*
X85776126Y-112381546D01*
X85795141Y-112361579D01*
X85850836Y-112324012D01*
X85899186Y-112286778D01*
X85923932Y-112274708D01*
X85951851Y-112255877D01*
X86008652Y-112233388D01*
X86058039Y-112209300D01*
X86090616Y-112200936D01*
X86127604Y-112186291D01*
X86181910Y-112177495D01*
X86229232Y-112165345D01*
X86268909Y-112163404D01*
X86314199Y-112156069D01*
X86363049Y-112158800D01*
G37*
G36*
X139703049Y-112158800D02*
G01*
X139745766Y-112156711D01*
X139791040Y-112163720D01*
X139842931Y-112166621D01*
X139884185Y-112178139D01*
X139920435Y-112183751D01*
X139969084Y-112201843D01*
X140024995Y-112217454D01*
X140057424Y-112234697D01*
X140086091Y-112245358D01*
X140135270Y-112276088D01*
X140191896Y-112306197D01*
X140215217Y-112326045D01*
X140235977Y-112339017D01*
X140282370Y-112383196D01*
X140335847Y-112428709D01*
X140350670Y-112448238D01*
X140363973Y-112460906D01*
X140403998Y-112518494D01*
X140450133Y-112579275D01*
X140457852Y-112595980D01*
X140464845Y-112606042D01*
X140494863Y-112676080D01*
X140529421Y-112750869D01*
X140532057Y-112762859D01*
X140534471Y-112768491D01*
X140551013Y-112849076D01*
X140570011Y-112935487D01*
X140569330Y-113130585D01*
X140549737Y-113216825D01*
X140532626Y-113297327D01*
X140530171Y-113302946D01*
X140527452Y-113314914D01*
X140492385Y-113389436D01*
X140461867Y-113459288D01*
X140454802Y-113469304D01*
X140446968Y-113485951D01*
X140400418Y-113546397D01*
X140359984Y-113603716D01*
X140346591Y-113616293D01*
X140331634Y-113635715D01*
X140277850Y-113680845D01*
X140231144Y-113724705D01*
X140210291Y-113737534D01*
X140186831Y-113757219D01*
X140129992Y-113786934D01*
X140080605Y-113817317D01*
X140051869Y-113827776D01*
X140019315Y-113844795D01*
X139963281Y-113860019D01*
X139914516Y-113877768D01*
X139878236Y-113883125D01*
X139836900Y-113894356D01*
X139784988Y-113896895D01*
X139739669Y-113903587D01*
X139696968Y-113901200D01*
X139648099Y-113903590D01*
X139602866Y-113895939D01*
X139563201Y-113893722D01*
X139515961Y-113881240D01*
X139461719Y-113872066D01*
X139424833Y-113857163D01*
X139392318Y-113848572D01*
X139343106Y-113824143D01*
X139286457Y-113801255D01*
X139258667Y-113782227D01*
X139234004Y-113769984D01*
X139185915Y-113732412D01*
X139130488Y-113694461D01*
X139111613Y-113674362D01*
X139094729Y-113661170D01*
X139051235Y-113610065D01*
X139001090Y-113556666D01*
X138990104Y-113538237D01*
X138980178Y-113526574D01*
X138944921Y-113462442D01*
X138904300Y-113394300D01*
X138899459Y-113379747D01*
X138895030Y-113371691D01*
X138871595Y-113295986D01*
X138844634Y-113214937D01*
X138843671Y-113205778D01*
X138842764Y-113202847D01*
X138834435Y-113117903D01*
X138824875Y-113026945D01*
X138835074Y-112936024D01*
X138843992Y-112851172D01*
X138844919Y-112848249D01*
X138845946Y-112839096D01*
X138873467Y-112758255D01*
X138897435Y-112682696D01*
X138901922Y-112674667D01*
X138906863Y-112660154D01*
X138947944Y-112592320D01*
X138983659Y-112528417D01*
X138993668Y-112516821D01*
X139004784Y-112498467D01*
X139055304Y-112445415D01*
X139099151Y-112394619D01*
X139116126Y-112381546D01*
X139135141Y-112361579D01*
X139190836Y-112324012D01*
X139239186Y-112286778D01*
X139263932Y-112274708D01*
X139291851Y-112255877D01*
X139348652Y-112233388D01*
X139398039Y-112209300D01*
X139430616Y-112200936D01*
X139467604Y-112186291D01*
X139521910Y-112177495D01*
X139569232Y-112165345D01*
X139608909Y-112163404D01*
X139654199Y-112156069D01*
X139703049Y-112158800D01*
G37*
G36*
X95253049Y-112158800D02*
G01*
X95295766Y-112156711D01*
X95341040Y-112163720D01*
X95392931Y-112166621D01*
X95434185Y-112178139D01*
X95470435Y-112183751D01*
X95519084Y-112201843D01*
X95574995Y-112217454D01*
X95607424Y-112234697D01*
X95636091Y-112245358D01*
X95685270Y-112276088D01*
X95741896Y-112306197D01*
X95765217Y-112326045D01*
X95785977Y-112339017D01*
X95832370Y-112383196D01*
X95885847Y-112428709D01*
X95900670Y-112448238D01*
X95913973Y-112460906D01*
X95953998Y-112518494D01*
X96000133Y-112579275D01*
X96007852Y-112595980D01*
X96014845Y-112606042D01*
X96044863Y-112676080D01*
X96079421Y-112750869D01*
X96082057Y-112762859D01*
X96084471Y-112768491D01*
X96101013Y-112849076D01*
X96120011Y-112935487D01*
X96119330Y-113130585D01*
X96099737Y-113216825D01*
X96082626Y-113297327D01*
X96080171Y-113302946D01*
X96077452Y-113314914D01*
X96042385Y-113389436D01*
X96011867Y-113459288D01*
X96004802Y-113469304D01*
X95996968Y-113485951D01*
X95950418Y-113546397D01*
X95909984Y-113603716D01*
X95896591Y-113616293D01*
X95881634Y-113635715D01*
X95827850Y-113680845D01*
X95781144Y-113724705D01*
X95760291Y-113737534D01*
X95736831Y-113757219D01*
X95679992Y-113786934D01*
X95630605Y-113817317D01*
X95601869Y-113827776D01*
X95569315Y-113844795D01*
X95513281Y-113860019D01*
X95464516Y-113877768D01*
X95428236Y-113883125D01*
X95386900Y-113894356D01*
X95334988Y-113896895D01*
X95289669Y-113903587D01*
X95246968Y-113901200D01*
X95198099Y-113903590D01*
X95152866Y-113895939D01*
X95113201Y-113893722D01*
X95065961Y-113881240D01*
X95011719Y-113872066D01*
X94974833Y-113857163D01*
X94942318Y-113848572D01*
X94893106Y-113824143D01*
X94836457Y-113801255D01*
X94808667Y-113782227D01*
X94784004Y-113769984D01*
X94735915Y-113732412D01*
X94680488Y-113694461D01*
X94661613Y-113674362D01*
X94644729Y-113661170D01*
X94601235Y-113610065D01*
X94551090Y-113556666D01*
X94540104Y-113538237D01*
X94530178Y-113526574D01*
X94494921Y-113462442D01*
X94454300Y-113394300D01*
X94449459Y-113379747D01*
X94445030Y-113371691D01*
X94421595Y-113295986D01*
X94394634Y-113214937D01*
X94393671Y-113205778D01*
X94392764Y-113202847D01*
X94384435Y-113117903D01*
X94374875Y-113026945D01*
X94385074Y-112936024D01*
X94393992Y-112851172D01*
X94394919Y-112848249D01*
X94395946Y-112839096D01*
X94423467Y-112758255D01*
X94447435Y-112682696D01*
X94451922Y-112674667D01*
X94456863Y-112660154D01*
X94497944Y-112592320D01*
X94533659Y-112528417D01*
X94543668Y-112516821D01*
X94554784Y-112498467D01*
X94605304Y-112445415D01*
X94649151Y-112394619D01*
X94666126Y-112381546D01*
X94685141Y-112361579D01*
X94740836Y-112324012D01*
X94789186Y-112286778D01*
X94813932Y-112274708D01*
X94841851Y-112255877D01*
X94898652Y-112233388D01*
X94948039Y-112209300D01*
X94980616Y-112200936D01*
X95017604Y-112186291D01*
X95071910Y-112177495D01*
X95119232Y-112165345D01*
X95158909Y-112163404D01*
X95204199Y-112156069D01*
X95253049Y-112158800D01*
G37*
G36*
X104143049Y-112158800D02*
G01*
X104185766Y-112156711D01*
X104231040Y-112163720D01*
X104282931Y-112166621D01*
X104324185Y-112178139D01*
X104360435Y-112183751D01*
X104409084Y-112201843D01*
X104464995Y-112217454D01*
X104497424Y-112234697D01*
X104526091Y-112245358D01*
X104575270Y-112276088D01*
X104631896Y-112306197D01*
X104655217Y-112326045D01*
X104675977Y-112339017D01*
X104722370Y-112383196D01*
X104775847Y-112428709D01*
X104790670Y-112448238D01*
X104803973Y-112460906D01*
X104843998Y-112518494D01*
X104890133Y-112579275D01*
X104897852Y-112595980D01*
X104904845Y-112606042D01*
X104934863Y-112676080D01*
X104969421Y-112750869D01*
X104972057Y-112762859D01*
X104974471Y-112768491D01*
X104991013Y-112849076D01*
X105010011Y-112935487D01*
X105009330Y-113130585D01*
X104989737Y-113216825D01*
X104972626Y-113297327D01*
X104970171Y-113302946D01*
X104967452Y-113314914D01*
X104932385Y-113389436D01*
X104901867Y-113459288D01*
X104894802Y-113469304D01*
X104886968Y-113485951D01*
X104840418Y-113546397D01*
X104799984Y-113603716D01*
X104786591Y-113616293D01*
X104771634Y-113635715D01*
X104717850Y-113680845D01*
X104671144Y-113724705D01*
X104650291Y-113737534D01*
X104626831Y-113757219D01*
X104569992Y-113786934D01*
X104520605Y-113817317D01*
X104491869Y-113827776D01*
X104459315Y-113844795D01*
X104403281Y-113860019D01*
X104354516Y-113877768D01*
X104318236Y-113883125D01*
X104276900Y-113894356D01*
X104224988Y-113896895D01*
X104179669Y-113903587D01*
X104136968Y-113901200D01*
X104088099Y-113903590D01*
X104042866Y-113895939D01*
X104003201Y-113893722D01*
X103955961Y-113881240D01*
X103901719Y-113872066D01*
X103864833Y-113857163D01*
X103832318Y-113848572D01*
X103783106Y-113824143D01*
X103726457Y-113801255D01*
X103698667Y-113782227D01*
X103674004Y-113769984D01*
X103625915Y-113732412D01*
X103570488Y-113694461D01*
X103551613Y-113674362D01*
X103534729Y-113661170D01*
X103491235Y-113610065D01*
X103441090Y-113556666D01*
X103430104Y-113538237D01*
X103420178Y-113526574D01*
X103384921Y-113462442D01*
X103344300Y-113394300D01*
X103339459Y-113379747D01*
X103335030Y-113371691D01*
X103311595Y-113295986D01*
X103284634Y-113214937D01*
X103283671Y-113205778D01*
X103282764Y-113202847D01*
X103274435Y-113117903D01*
X103264875Y-113026945D01*
X103275074Y-112936024D01*
X103283992Y-112851172D01*
X103284919Y-112848249D01*
X103285946Y-112839096D01*
X103313467Y-112758255D01*
X103337435Y-112682696D01*
X103341922Y-112674667D01*
X103346863Y-112660154D01*
X103387944Y-112592320D01*
X103423659Y-112528417D01*
X103433668Y-112516821D01*
X103444784Y-112498467D01*
X103495304Y-112445415D01*
X103539151Y-112394619D01*
X103556126Y-112381546D01*
X103575141Y-112361579D01*
X103630836Y-112324012D01*
X103679186Y-112286778D01*
X103703932Y-112274708D01*
X103731851Y-112255877D01*
X103788652Y-112233388D01*
X103838039Y-112209300D01*
X103870616Y-112200936D01*
X103907604Y-112186291D01*
X103961910Y-112177495D01*
X104009232Y-112165345D01*
X104048909Y-112163404D01*
X104094199Y-112156069D01*
X104143049Y-112158800D01*
G37*
G36*
X130813049Y-112158800D02*
G01*
X130855766Y-112156711D01*
X130901040Y-112163720D01*
X130952931Y-112166621D01*
X130994185Y-112178139D01*
X131030435Y-112183751D01*
X131079084Y-112201843D01*
X131134995Y-112217454D01*
X131167424Y-112234697D01*
X131196091Y-112245358D01*
X131245270Y-112276088D01*
X131301896Y-112306197D01*
X131325217Y-112326045D01*
X131345977Y-112339017D01*
X131392370Y-112383196D01*
X131445847Y-112428709D01*
X131460670Y-112448238D01*
X131473973Y-112460906D01*
X131513998Y-112518494D01*
X131560133Y-112579275D01*
X131567852Y-112595980D01*
X131574845Y-112606042D01*
X131604863Y-112676080D01*
X131639421Y-112750869D01*
X131642057Y-112762859D01*
X131644471Y-112768491D01*
X131661013Y-112849076D01*
X131680011Y-112935487D01*
X131679330Y-113130585D01*
X131659737Y-113216825D01*
X131642626Y-113297327D01*
X131640171Y-113302946D01*
X131637452Y-113314914D01*
X131602385Y-113389436D01*
X131571867Y-113459288D01*
X131564802Y-113469304D01*
X131556968Y-113485951D01*
X131510418Y-113546397D01*
X131469984Y-113603716D01*
X131456591Y-113616293D01*
X131441634Y-113635715D01*
X131387850Y-113680845D01*
X131341144Y-113724705D01*
X131320291Y-113737534D01*
X131296831Y-113757219D01*
X131239992Y-113786934D01*
X131190605Y-113817317D01*
X131161869Y-113827776D01*
X131129315Y-113844795D01*
X131073281Y-113860019D01*
X131024516Y-113877768D01*
X130988236Y-113883125D01*
X130946900Y-113894356D01*
X130894988Y-113896895D01*
X130849669Y-113903587D01*
X130806968Y-113901200D01*
X130758099Y-113903590D01*
X130712866Y-113895939D01*
X130673201Y-113893722D01*
X130625961Y-113881240D01*
X130571719Y-113872066D01*
X130534833Y-113857163D01*
X130502318Y-113848572D01*
X130453106Y-113824143D01*
X130396457Y-113801255D01*
X130368667Y-113782227D01*
X130344004Y-113769984D01*
X130295915Y-113732412D01*
X130240488Y-113694461D01*
X130221613Y-113674362D01*
X130204729Y-113661170D01*
X130161235Y-113610065D01*
X130111090Y-113556666D01*
X130100104Y-113538237D01*
X130090178Y-113526574D01*
X130054921Y-113462442D01*
X130014300Y-113394300D01*
X130009459Y-113379747D01*
X130005030Y-113371691D01*
X129981595Y-113295986D01*
X129954634Y-113214937D01*
X129953671Y-113205778D01*
X129952764Y-113202847D01*
X129944435Y-113117903D01*
X129934875Y-113026945D01*
X129945074Y-112936024D01*
X129953992Y-112851172D01*
X129954919Y-112848249D01*
X129955946Y-112839096D01*
X129983467Y-112758255D01*
X130007435Y-112682696D01*
X130011922Y-112674667D01*
X130016863Y-112660154D01*
X130057944Y-112592320D01*
X130093659Y-112528417D01*
X130103668Y-112516821D01*
X130114784Y-112498467D01*
X130165304Y-112445415D01*
X130209151Y-112394619D01*
X130226126Y-112381546D01*
X130245141Y-112361579D01*
X130300836Y-112324012D01*
X130349186Y-112286778D01*
X130373932Y-112274708D01*
X130401851Y-112255877D01*
X130458652Y-112233388D01*
X130508039Y-112209300D01*
X130540616Y-112200936D01*
X130577604Y-112186291D01*
X130631910Y-112177495D01*
X130679232Y-112165345D01*
X130718909Y-112163404D01*
X130764199Y-112156069D01*
X130813049Y-112158800D01*
G37*
G36*
X113033049Y-112158800D02*
G01*
X113075766Y-112156711D01*
X113121040Y-112163720D01*
X113172931Y-112166621D01*
X113214185Y-112178139D01*
X113250435Y-112183751D01*
X113299084Y-112201843D01*
X113354995Y-112217454D01*
X113387424Y-112234697D01*
X113416091Y-112245358D01*
X113465270Y-112276088D01*
X113521896Y-112306197D01*
X113545217Y-112326045D01*
X113565977Y-112339017D01*
X113612370Y-112383196D01*
X113665847Y-112428709D01*
X113680670Y-112448238D01*
X113693973Y-112460906D01*
X113733998Y-112518494D01*
X113780133Y-112579275D01*
X113787852Y-112595980D01*
X113794845Y-112606042D01*
X113824863Y-112676080D01*
X113859421Y-112750869D01*
X113862057Y-112762859D01*
X113864471Y-112768491D01*
X113881013Y-112849076D01*
X113900011Y-112935487D01*
X113899330Y-113130585D01*
X113879737Y-113216825D01*
X113862626Y-113297327D01*
X113860171Y-113302946D01*
X113857452Y-113314914D01*
X113822385Y-113389436D01*
X113791867Y-113459288D01*
X113784802Y-113469304D01*
X113776968Y-113485951D01*
X113730418Y-113546397D01*
X113689984Y-113603716D01*
X113676591Y-113616293D01*
X113661634Y-113635715D01*
X113607850Y-113680845D01*
X113561144Y-113724705D01*
X113540291Y-113737534D01*
X113516831Y-113757219D01*
X113459992Y-113786934D01*
X113410605Y-113817317D01*
X113381869Y-113827776D01*
X113349315Y-113844795D01*
X113293281Y-113860019D01*
X113244516Y-113877768D01*
X113208236Y-113883125D01*
X113166900Y-113894356D01*
X113114988Y-113896895D01*
X113069669Y-113903587D01*
X113026968Y-113901200D01*
X112978099Y-113903590D01*
X112932866Y-113895939D01*
X112893201Y-113893722D01*
X112845961Y-113881240D01*
X112791719Y-113872066D01*
X112754833Y-113857163D01*
X112722318Y-113848572D01*
X112673106Y-113824143D01*
X112616457Y-113801255D01*
X112588667Y-113782227D01*
X112564004Y-113769984D01*
X112515915Y-113732412D01*
X112460488Y-113694461D01*
X112441613Y-113674362D01*
X112424729Y-113661170D01*
X112381235Y-113610065D01*
X112331090Y-113556666D01*
X112320104Y-113538237D01*
X112310178Y-113526574D01*
X112274921Y-113462442D01*
X112234300Y-113394300D01*
X112229459Y-113379747D01*
X112225030Y-113371691D01*
X112201595Y-113295986D01*
X112174634Y-113214937D01*
X112173671Y-113205778D01*
X112172764Y-113202847D01*
X112164435Y-113117903D01*
X112154875Y-113026945D01*
X112165074Y-112936024D01*
X112173992Y-112851172D01*
X112174919Y-112848249D01*
X112175946Y-112839096D01*
X112203467Y-112758255D01*
X112227435Y-112682696D01*
X112231922Y-112674667D01*
X112236863Y-112660154D01*
X112277944Y-112592320D01*
X112313659Y-112528417D01*
X112323668Y-112516821D01*
X112334784Y-112498467D01*
X112385304Y-112445415D01*
X112429151Y-112394619D01*
X112446126Y-112381546D01*
X112465141Y-112361579D01*
X112520836Y-112324012D01*
X112569186Y-112286778D01*
X112593932Y-112274708D01*
X112621851Y-112255877D01*
X112678652Y-112233388D01*
X112728039Y-112209300D01*
X112760616Y-112200936D01*
X112797604Y-112186291D01*
X112851910Y-112177495D01*
X112899232Y-112165345D01*
X112938909Y-112163404D01*
X112984199Y-112156069D01*
X113033049Y-112158800D01*
G37*
G36*
X176532970Y-112138828D02*
G01*
X176574714Y-112136786D01*
X176618955Y-112143635D01*
X176669646Y-112146469D01*
X176709950Y-112157722D01*
X176745368Y-112163205D01*
X176792898Y-112180881D01*
X176847524Y-112196133D01*
X176879207Y-112212979D01*
X176907214Y-112223395D01*
X176955259Y-112253417D01*
X177010588Y-112282836D01*
X177033375Y-112302230D01*
X177053657Y-112314903D01*
X177098979Y-112358063D01*
X177151230Y-112402532D01*
X177165714Y-112421614D01*
X177178709Y-112433989D01*
X177217815Y-112490254D01*
X177262888Y-112549636D01*
X177270428Y-112565953D01*
X177277263Y-112575788D01*
X177306606Y-112644250D01*
X177340353Y-112717286D01*
X177342928Y-112728996D01*
X177345288Y-112734503D01*
X177361456Y-112813267D01*
X177380011Y-112897659D01*
X177379346Y-113088273D01*
X177360192Y-113172580D01*
X177343484Y-113251185D01*
X177341086Y-113256673D01*
X177338430Y-113268365D01*
X177304170Y-113341169D01*
X177274351Y-113409423D01*
X177267447Y-113419210D01*
X177259796Y-113435469D01*
X177214330Y-113494508D01*
X177174814Y-113550526D01*
X177161727Y-113562816D01*
X177147114Y-113581791D01*
X177094566Y-113625884D01*
X177048934Y-113668735D01*
X177028560Y-113681269D01*
X177005639Y-113700502D01*
X176950106Y-113729534D01*
X176901855Y-113759218D01*
X176873778Y-113769437D01*
X176841974Y-113786064D01*
X176787241Y-113800934D01*
X176739585Y-113818280D01*
X176704126Y-113823516D01*
X176663753Y-113834485D01*
X176613048Y-113836965D01*
X176568758Y-113843505D01*
X176527030Y-113841172D01*
X176479292Y-113843507D01*
X176435101Y-113836033D01*
X176396345Y-113833866D01*
X176350188Y-113821671D01*
X176297197Y-113812708D01*
X176261163Y-113798149D01*
X176229392Y-113789755D01*
X176181308Y-113765886D01*
X176125963Y-113743525D01*
X176098813Y-113724935D01*
X176074720Y-113712975D01*
X176027736Y-113676268D01*
X175973580Y-113639186D01*
X175955141Y-113619551D01*
X175938643Y-113606661D01*
X175896146Y-113556727D01*
X175847157Y-113504559D01*
X175836423Y-113486552D01*
X175826723Y-113475155D01*
X175792273Y-113412490D01*
X175752592Y-113345925D01*
X175747863Y-113331708D01*
X175743535Y-113323836D01*
X175720635Y-113249859D01*
X175694298Y-113170685D01*
X175693358Y-113161738D01*
X175692471Y-113158874D01*
X175684331Y-113075859D01*
X175674993Y-112987015D01*
X175684963Y-112898127D01*
X175693671Y-112815283D01*
X175694575Y-112812432D01*
X175695579Y-112803485D01*
X175722485Y-112724451D01*
X175745886Y-112650680D01*
X175750267Y-112642841D01*
X175755096Y-112628656D01*
X175795246Y-112562361D01*
X175830127Y-112499948D01*
X175839904Y-112488621D01*
X175850766Y-112470686D01*
X175900130Y-112418848D01*
X175942965Y-112369224D01*
X175959550Y-112356452D01*
X175978126Y-112336945D01*
X176032529Y-112300250D01*
X176079778Y-112263863D01*
X176103964Y-112252067D01*
X176131234Y-112233673D01*
X176186715Y-112211706D01*
X176234980Y-112188166D01*
X176266816Y-112179992D01*
X176302946Y-112165687D01*
X176355996Y-112157095D01*
X176402238Y-112145222D01*
X176441010Y-112143326D01*
X176485252Y-112136160D01*
X176532970Y-112138828D01*
G37*
G36*
X178532970Y-112138828D02*
G01*
X178574714Y-112136786D01*
X178618955Y-112143635D01*
X178669646Y-112146469D01*
X178709950Y-112157722D01*
X178745368Y-112163205D01*
X178792898Y-112180881D01*
X178847524Y-112196133D01*
X178879207Y-112212979D01*
X178907214Y-112223395D01*
X178955259Y-112253417D01*
X179010588Y-112282836D01*
X179033375Y-112302230D01*
X179053657Y-112314903D01*
X179098979Y-112358063D01*
X179151230Y-112402532D01*
X179165714Y-112421614D01*
X179178709Y-112433989D01*
X179217815Y-112490254D01*
X179262888Y-112549636D01*
X179270428Y-112565953D01*
X179277263Y-112575788D01*
X179306606Y-112644250D01*
X179340353Y-112717286D01*
X179342928Y-112728996D01*
X179345288Y-112734503D01*
X179361456Y-112813267D01*
X179380011Y-112897659D01*
X179379346Y-113088273D01*
X179360192Y-113172580D01*
X179343484Y-113251185D01*
X179341086Y-113256673D01*
X179338430Y-113268365D01*
X179304170Y-113341169D01*
X179274351Y-113409423D01*
X179267447Y-113419210D01*
X179259796Y-113435469D01*
X179214330Y-113494508D01*
X179174814Y-113550526D01*
X179161727Y-113562816D01*
X179147114Y-113581791D01*
X179094566Y-113625884D01*
X179048934Y-113668735D01*
X179028560Y-113681269D01*
X179005639Y-113700502D01*
X178950106Y-113729534D01*
X178901855Y-113759218D01*
X178873778Y-113769437D01*
X178841974Y-113786064D01*
X178787241Y-113800934D01*
X178739585Y-113818280D01*
X178704126Y-113823516D01*
X178663753Y-113834485D01*
X178613048Y-113836965D01*
X178568758Y-113843505D01*
X178527030Y-113841172D01*
X178479292Y-113843507D01*
X178435101Y-113836033D01*
X178396345Y-113833866D01*
X178350188Y-113821671D01*
X178297197Y-113812708D01*
X178261163Y-113798149D01*
X178229392Y-113789755D01*
X178181308Y-113765886D01*
X178125963Y-113743525D01*
X178098813Y-113724935D01*
X178074720Y-113712975D01*
X178027736Y-113676268D01*
X177973580Y-113639186D01*
X177955141Y-113619551D01*
X177938643Y-113606661D01*
X177896146Y-113556727D01*
X177847157Y-113504559D01*
X177836423Y-113486552D01*
X177826723Y-113475155D01*
X177792273Y-113412490D01*
X177752592Y-113345925D01*
X177747863Y-113331708D01*
X177743535Y-113323836D01*
X177720635Y-113249859D01*
X177694298Y-113170685D01*
X177693358Y-113161738D01*
X177692471Y-113158874D01*
X177684331Y-113075859D01*
X177674993Y-112987015D01*
X177684963Y-112898127D01*
X177693671Y-112815283D01*
X177694575Y-112812432D01*
X177695579Y-112803485D01*
X177722485Y-112724451D01*
X177745886Y-112650680D01*
X177750267Y-112642841D01*
X177755096Y-112628656D01*
X177795246Y-112562361D01*
X177830127Y-112499948D01*
X177839904Y-112488621D01*
X177850766Y-112470686D01*
X177900130Y-112418848D01*
X177942965Y-112369224D01*
X177959550Y-112356452D01*
X177978126Y-112336945D01*
X178032529Y-112300250D01*
X178079778Y-112263863D01*
X178103964Y-112252067D01*
X178131234Y-112233673D01*
X178186715Y-112211706D01*
X178234980Y-112188166D01*
X178266816Y-112179992D01*
X178302946Y-112165687D01*
X178355996Y-112157095D01*
X178402238Y-112145222D01*
X178441010Y-112143326D01*
X178485252Y-112136160D01*
X178532970Y-112138828D01*
G37*
G36*
X130813049Y-109618800D02*
G01*
X130855766Y-109616711D01*
X130901040Y-109623720D01*
X130952931Y-109626621D01*
X130994185Y-109638139D01*
X131030435Y-109643751D01*
X131079084Y-109661843D01*
X131134995Y-109677454D01*
X131167424Y-109694697D01*
X131196091Y-109705358D01*
X131245270Y-109736088D01*
X131301896Y-109766197D01*
X131325217Y-109786045D01*
X131345977Y-109799017D01*
X131392370Y-109843196D01*
X131445847Y-109888709D01*
X131460670Y-109908238D01*
X131473973Y-109920906D01*
X131513998Y-109978494D01*
X131560133Y-110039275D01*
X131567852Y-110055980D01*
X131574845Y-110066042D01*
X131604863Y-110136080D01*
X131639421Y-110210869D01*
X131642057Y-110222859D01*
X131644471Y-110228491D01*
X131661013Y-110309076D01*
X131680011Y-110395487D01*
X131679330Y-110590585D01*
X131659737Y-110676825D01*
X131642626Y-110757327D01*
X131640171Y-110762946D01*
X131637452Y-110774914D01*
X131602385Y-110849436D01*
X131571867Y-110919288D01*
X131564802Y-110929304D01*
X131556968Y-110945951D01*
X131510418Y-111006397D01*
X131469984Y-111063716D01*
X131456591Y-111076293D01*
X131441634Y-111095715D01*
X131387850Y-111140845D01*
X131341144Y-111184705D01*
X131320291Y-111197534D01*
X131296831Y-111217219D01*
X131239992Y-111246934D01*
X131190605Y-111277317D01*
X131161869Y-111287776D01*
X131129315Y-111304795D01*
X131073281Y-111320019D01*
X131024516Y-111337768D01*
X130988236Y-111343125D01*
X130946900Y-111354356D01*
X130894988Y-111356895D01*
X130849669Y-111363587D01*
X130806968Y-111361200D01*
X130758099Y-111363590D01*
X130712866Y-111355939D01*
X130673201Y-111353722D01*
X130625961Y-111341240D01*
X130571719Y-111332066D01*
X130534833Y-111317163D01*
X130502318Y-111308572D01*
X130453106Y-111284143D01*
X130396457Y-111261255D01*
X130368667Y-111242227D01*
X130344004Y-111229984D01*
X130295915Y-111192412D01*
X130240488Y-111154461D01*
X130221613Y-111134362D01*
X130204729Y-111121170D01*
X130161235Y-111070065D01*
X130111090Y-111016666D01*
X130100104Y-110998237D01*
X130090178Y-110986574D01*
X130054921Y-110922442D01*
X130014300Y-110854300D01*
X130009459Y-110839747D01*
X130005030Y-110831691D01*
X129981595Y-110755986D01*
X129954634Y-110674937D01*
X129953671Y-110665778D01*
X129952764Y-110662847D01*
X129944435Y-110577903D01*
X129934875Y-110486945D01*
X129945074Y-110396024D01*
X129953992Y-110311172D01*
X129954919Y-110308249D01*
X129955946Y-110299096D01*
X129983467Y-110218255D01*
X130007435Y-110142696D01*
X130011922Y-110134667D01*
X130016863Y-110120154D01*
X130057944Y-110052320D01*
X130093659Y-109988417D01*
X130103668Y-109976821D01*
X130114784Y-109958467D01*
X130165304Y-109905415D01*
X130209151Y-109854619D01*
X130226126Y-109841546D01*
X130245141Y-109821579D01*
X130300836Y-109784012D01*
X130349186Y-109746778D01*
X130373932Y-109734708D01*
X130401851Y-109715877D01*
X130458652Y-109693388D01*
X130508039Y-109669300D01*
X130540616Y-109660936D01*
X130577604Y-109646291D01*
X130631910Y-109637495D01*
X130679232Y-109625345D01*
X130718909Y-109623404D01*
X130764199Y-109616069D01*
X130813049Y-109618800D01*
G37*
G36*
X148593049Y-109618800D02*
G01*
X148635766Y-109616711D01*
X148681040Y-109623720D01*
X148732931Y-109626621D01*
X148774185Y-109638139D01*
X148810435Y-109643751D01*
X148859084Y-109661843D01*
X148914995Y-109677454D01*
X148947424Y-109694697D01*
X148976091Y-109705358D01*
X149025270Y-109736088D01*
X149081896Y-109766197D01*
X149105217Y-109786045D01*
X149125977Y-109799017D01*
X149172370Y-109843196D01*
X149225847Y-109888709D01*
X149240670Y-109908238D01*
X149253973Y-109920906D01*
X149293998Y-109978494D01*
X149340133Y-110039275D01*
X149347852Y-110055980D01*
X149354845Y-110066042D01*
X149384863Y-110136080D01*
X149419421Y-110210869D01*
X149422057Y-110222859D01*
X149424471Y-110228491D01*
X149441013Y-110309076D01*
X149460011Y-110395487D01*
X149459330Y-110590585D01*
X149439737Y-110676825D01*
X149422626Y-110757327D01*
X149420171Y-110762946D01*
X149417452Y-110774914D01*
X149382385Y-110849436D01*
X149351867Y-110919288D01*
X149344802Y-110929304D01*
X149336968Y-110945951D01*
X149290418Y-111006397D01*
X149249984Y-111063716D01*
X149236591Y-111076293D01*
X149221634Y-111095715D01*
X149167850Y-111140845D01*
X149121144Y-111184705D01*
X149100291Y-111197534D01*
X149076831Y-111217219D01*
X149019992Y-111246934D01*
X148970605Y-111277317D01*
X148941869Y-111287776D01*
X148909315Y-111304795D01*
X148853281Y-111320019D01*
X148804516Y-111337768D01*
X148768236Y-111343125D01*
X148726900Y-111354356D01*
X148674988Y-111356895D01*
X148629669Y-111363587D01*
X148586968Y-111361200D01*
X148538099Y-111363590D01*
X148492866Y-111355939D01*
X148453201Y-111353722D01*
X148405961Y-111341240D01*
X148351719Y-111332066D01*
X148314833Y-111317163D01*
X148282318Y-111308572D01*
X148233106Y-111284143D01*
X148176457Y-111261255D01*
X148148667Y-111242227D01*
X148124004Y-111229984D01*
X148075915Y-111192412D01*
X148020488Y-111154461D01*
X148001613Y-111134362D01*
X147984729Y-111121170D01*
X147941235Y-111070065D01*
X147891090Y-111016666D01*
X147880104Y-110998237D01*
X147870178Y-110986574D01*
X147834921Y-110922442D01*
X147794300Y-110854300D01*
X147789459Y-110839747D01*
X147785030Y-110831691D01*
X147761595Y-110755986D01*
X147734634Y-110674937D01*
X147733671Y-110665778D01*
X147732764Y-110662847D01*
X147724435Y-110577903D01*
X147714875Y-110486945D01*
X147725074Y-110396024D01*
X147733992Y-110311172D01*
X147734919Y-110308249D01*
X147735946Y-110299096D01*
X147763467Y-110218255D01*
X147787435Y-110142696D01*
X147791922Y-110134667D01*
X147796863Y-110120154D01*
X147837944Y-110052320D01*
X147873659Y-109988417D01*
X147883668Y-109976821D01*
X147894784Y-109958467D01*
X147945304Y-109905415D01*
X147989151Y-109854619D01*
X148006126Y-109841546D01*
X148025141Y-109821579D01*
X148080836Y-109784012D01*
X148129186Y-109746778D01*
X148153932Y-109734708D01*
X148181851Y-109715877D01*
X148238652Y-109693388D01*
X148288039Y-109669300D01*
X148320616Y-109660936D01*
X148357604Y-109646291D01*
X148411910Y-109637495D01*
X148459232Y-109625345D01*
X148498909Y-109623404D01*
X148544199Y-109616069D01*
X148593049Y-109618800D01*
G37*
G36*
X104143049Y-109618800D02*
G01*
X104185766Y-109616711D01*
X104231040Y-109623720D01*
X104282931Y-109626621D01*
X104324185Y-109638139D01*
X104360435Y-109643751D01*
X104409084Y-109661843D01*
X104464995Y-109677454D01*
X104497424Y-109694697D01*
X104526091Y-109705358D01*
X104575270Y-109736088D01*
X104631896Y-109766197D01*
X104655217Y-109786045D01*
X104675977Y-109799017D01*
X104722370Y-109843196D01*
X104775847Y-109888709D01*
X104790670Y-109908238D01*
X104803973Y-109920906D01*
X104843998Y-109978494D01*
X104890133Y-110039275D01*
X104897852Y-110055980D01*
X104904845Y-110066042D01*
X104934863Y-110136080D01*
X104969421Y-110210869D01*
X104972057Y-110222859D01*
X104974471Y-110228491D01*
X104991013Y-110309076D01*
X105010011Y-110395487D01*
X105009330Y-110590585D01*
X104989737Y-110676825D01*
X104972626Y-110757327D01*
X104970171Y-110762946D01*
X104967452Y-110774914D01*
X104932385Y-110849436D01*
X104901867Y-110919288D01*
X104894802Y-110929304D01*
X104886968Y-110945951D01*
X104840418Y-111006397D01*
X104799984Y-111063716D01*
X104786591Y-111076293D01*
X104771634Y-111095715D01*
X104717850Y-111140845D01*
X104671144Y-111184705D01*
X104650291Y-111197534D01*
X104626831Y-111217219D01*
X104569992Y-111246934D01*
X104520605Y-111277317D01*
X104491869Y-111287776D01*
X104459315Y-111304795D01*
X104403281Y-111320019D01*
X104354516Y-111337768D01*
X104318236Y-111343125D01*
X104276900Y-111354356D01*
X104224988Y-111356895D01*
X104179669Y-111363587D01*
X104136968Y-111361200D01*
X104088099Y-111363590D01*
X104042866Y-111355939D01*
X104003201Y-111353722D01*
X103955961Y-111341240D01*
X103901719Y-111332066D01*
X103864833Y-111317163D01*
X103832318Y-111308572D01*
X103783106Y-111284143D01*
X103726457Y-111261255D01*
X103698667Y-111242227D01*
X103674004Y-111229984D01*
X103625915Y-111192412D01*
X103570488Y-111154461D01*
X103551613Y-111134362D01*
X103534729Y-111121170D01*
X103491235Y-111070065D01*
X103441090Y-111016666D01*
X103430104Y-110998237D01*
X103420178Y-110986574D01*
X103384921Y-110922442D01*
X103344300Y-110854300D01*
X103339459Y-110839747D01*
X103335030Y-110831691D01*
X103311595Y-110755986D01*
X103284634Y-110674937D01*
X103283671Y-110665778D01*
X103282764Y-110662847D01*
X103274435Y-110577903D01*
X103264875Y-110486945D01*
X103275074Y-110396024D01*
X103283992Y-110311172D01*
X103284919Y-110308249D01*
X103285946Y-110299096D01*
X103313467Y-110218255D01*
X103337435Y-110142696D01*
X103341922Y-110134667D01*
X103346863Y-110120154D01*
X103387944Y-110052320D01*
X103423659Y-109988417D01*
X103433668Y-109976821D01*
X103444784Y-109958467D01*
X103495304Y-109905415D01*
X103539151Y-109854619D01*
X103556126Y-109841546D01*
X103575141Y-109821579D01*
X103630836Y-109784012D01*
X103679186Y-109746778D01*
X103703932Y-109734708D01*
X103731851Y-109715877D01*
X103788652Y-109693388D01*
X103838039Y-109669300D01*
X103870616Y-109660936D01*
X103907604Y-109646291D01*
X103961910Y-109637495D01*
X104009232Y-109625345D01*
X104048909Y-109623404D01*
X104094199Y-109616069D01*
X104143049Y-109618800D01*
G37*
G36*
X77473049Y-109618800D02*
G01*
X77515766Y-109616711D01*
X77561040Y-109623720D01*
X77612931Y-109626621D01*
X77654185Y-109638139D01*
X77690435Y-109643751D01*
X77739084Y-109661843D01*
X77794995Y-109677454D01*
X77827424Y-109694697D01*
X77856091Y-109705358D01*
X77905270Y-109736088D01*
X77961896Y-109766197D01*
X77985217Y-109786045D01*
X78005977Y-109799017D01*
X78052370Y-109843196D01*
X78105847Y-109888709D01*
X78120670Y-109908238D01*
X78133973Y-109920906D01*
X78173998Y-109978494D01*
X78220133Y-110039275D01*
X78227852Y-110055980D01*
X78234845Y-110066042D01*
X78264863Y-110136080D01*
X78299421Y-110210869D01*
X78302057Y-110222859D01*
X78304471Y-110228491D01*
X78321013Y-110309076D01*
X78340011Y-110395487D01*
X78339330Y-110590585D01*
X78319737Y-110676825D01*
X78302626Y-110757327D01*
X78300171Y-110762946D01*
X78297452Y-110774914D01*
X78262385Y-110849436D01*
X78231867Y-110919288D01*
X78224802Y-110929304D01*
X78216968Y-110945951D01*
X78170418Y-111006397D01*
X78129984Y-111063716D01*
X78116591Y-111076293D01*
X78101634Y-111095715D01*
X78047850Y-111140845D01*
X78001144Y-111184705D01*
X77980291Y-111197534D01*
X77956831Y-111217219D01*
X77899992Y-111246934D01*
X77850605Y-111277317D01*
X77821869Y-111287776D01*
X77789315Y-111304795D01*
X77733281Y-111320019D01*
X77684516Y-111337768D01*
X77648236Y-111343125D01*
X77606900Y-111354356D01*
X77554988Y-111356895D01*
X77509669Y-111363587D01*
X77466968Y-111361200D01*
X77418099Y-111363590D01*
X77372866Y-111355939D01*
X77333201Y-111353722D01*
X77285961Y-111341240D01*
X77231719Y-111332066D01*
X77194833Y-111317163D01*
X77162318Y-111308572D01*
X77113106Y-111284143D01*
X77056457Y-111261255D01*
X77028667Y-111242227D01*
X77004004Y-111229984D01*
X76955915Y-111192412D01*
X76900488Y-111154461D01*
X76881613Y-111134362D01*
X76864729Y-111121170D01*
X76821235Y-111070065D01*
X76771090Y-111016666D01*
X76760104Y-110998237D01*
X76750178Y-110986574D01*
X76714921Y-110922442D01*
X76674300Y-110854300D01*
X76669459Y-110839747D01*
X76665030Y-110831691D01*
X76641595Y-110755986D01*
X76614634Y-110674937D01*
X76613671Y-110665778D01*
X76612764Y-110662847D01*
X76604435Y-110577903D01*
X76594875Y-110486945D01*
X76605074Y-110396024D01*
X76613992Y-110311172D01*
X76614919Y-110308249D01*
X76615946Y-110299096D01*
X76643467Y-110218255D01*
X76667435Y-110142696D01*
X76671922Y-110134667D01*
X76676863Y-110120154D01*
X76717944Y-110052320D01*
X76753659Y-109988417D01*
X76763668Y-109976821D01*
X76774784Y-109958467D01*
X76825304Y-109905415D01*
X76869151Y-109854619D01*
X76886126Y-109841546D01*
X76905141Y-109821579D01*
X76960836Y-109784012D01*
X77009186Y-109746778D01*
X77033932Y-109734708D01*
X77061851Y-109715877D01*
X77118652Y-109693388D01*
X77168039Y-109669300D01*
X77200616Y-109660936D01*
X77237604Y-109646291D01*
X77291910Y-109637495D01*
X77339232Y-109625345D01*
X77378909Y-109623404D01*
X77424199Y-109616069D01*
X77473049Y-109618800D01*
G37*
G36*
X139703049Y-109618800D02*
G01*
X139745766Y-109616711D01*
X139791040Y-109623720D01*
X139842931Y-109626621D01*
X139884185Y-109638139D01*
X139920435Y-109643751D01*
X139969084Y-109661843D01*
X140024995Y-109677454D01*
X140057424Y-109694697D01*
X140086091Y-109705358D01*
X140135270Y-109736088D01*
X140191896Y-109766197D01*
X140215217Y-109786045D01*
X140235977Y-109799017D01*
X140282370Y-109843196D01*
X140335847Y-109888709D01*
X140350670Y-109908238D01*
X140363973Y-109920906D01*
X140403998Y-109978494D01*
X140450133Y-110039275D01*
X140457852Y-110055980D01*
X140464845Y-110066042D01*
X140494863Y-110136080D01*
X140529421Y-110210869D01*
X140532057Y-110222859D01*
X140534471Y-110228491D01*
X140551013Y-110309076D01*
X140570011Y-110395487D01*
X140569330Y-110590585D01*
X140549737Y-110676825D01*
X140532626Y-110757327D01*
X140530171Y-110762946D01*
X140527452Y-110774914D01*
X140492385Y-110849436D01*
X140461867Y-110919288D01*
X140454802Y-110929304D01*
X140446968Y-110945951D01*
X140400418Y-111006397D01*
X140359984Y-111063716D01*
X140346591Y-111076293D01*
X140331634Y-111095715D01*
X140277850Y-111140845D01*
X140231144Y-111184705D01*
X140210291Y-111197534D01*
X140186831Y-111217219D01*
X140129992Y-111246934D01*
X140080605Y-111277317D01*
X140051869Y-111287776D01*
X140019315Y-111304795D01*
X139963281Y-111320019D01*
X139914516Y-111337768D01*
X139878236Y-111343125D01*
X139836900Y-111354356D01*
X139784988Y-111356895D01*
X139739669Y-111363587D01*
X139696968Y-111361200D01*
X139648099Y-111363590D01*
X139602866Y-111355939D01*
X139563201Y-111353722D01*
X139515961Y-111341240D01*
X139461719Y-111332066D01*
X139424833Y-111317163D01*
X139392318Y-111308572D01*
X139343106Y-111284143D01*
X139286457Y-111261255D01*
X139258667Y-111242227D01*
X139234004Y-111229984D01*
X139185915Y-111192412D01*
X139130488Y-111154461D01*
X139111613Y-111134362D01*
X139094729Y-111121170D01*
X139051235Y-111070065D01*
X139001090Y-111016666D01*
X138990104Y-110998237D01*
X138980178Y-110986574D01*
X138944921Y-110922442D01*
X138904300Y-110854300D01*
X138899459Y-110839747D01*
X138895030Y-110831691D01*
X138871595Y-110755986D01*
X138844634Y-110674937D01*
X138843671Y-110665778D01*
X138842764Y-110662847D01*
X138834435Y-110577903D01*
X138824875Y-110486945D01*
X138835074Y-110396024D01*
X138843992Y-110311172D01*
X138844919Y-110308249D01*
X138845946Y-110299096D01*
X138873467Y-110218255D01*
X138897435Y-110142696D01*
X138901922Y-110134667D01*
X138906863Y-110120154D01*
X138947944Y-110052320D01*
X138983659Y-109988417D01*
X138993668Y-109976821D01*
X139004784Y-109958467D01*
X139055304Y-109905415D01*
X139099151Y-109854619D01*
X139116126Y-109841546D01*
X139135141Y-109821579D01*
X139190836Y-109784012D01*
X139239186Y-109746778D01*
X139263932Y-109734708D01*
X139291851Y-109715877D01*
X139348652Y-109693388D01*
X139398039Y-109669300D01*
X139430616Y-109660936D01*
X139467604Y-109646291D01*
X139521910Y-109637495D01*
X139569232Y-109625345D01*
X139608909Y-109623404D01*
X139654199Y-109616069D01*
X139703049Y-109618800D01*
G37*
G36*
X95253049Y-109618800D02*
G01*
X95295766Y-109616711D01*
X95341040Y-109623720D01*
X95392931Y-109626621D01*
X95434185Y-109638139D01*
X95470435Y-109643751D01*
X95519084Y-109661843D01*
X95574995Y-109677454D01*
X95607424Y-109694697D01*
X95636091Y-109705358D01*
X95685270Y-109736088D01*
X95741896Y-109766197D01*
X95765217Y-109786045D01*
X95785977Y-109799017D01*
X95832370Y-109843196D01*
X95885847Y-109888709D01*
X95900670Y-109908238D01*
X95913973Y-109920906D01*
X95953998Y-109978494D01*
X96000133Y-110039275D01*
X96007852Y-110055980D01*
X96014845Y-110066042D01*
X96044863Y-110136080D01*
X96079421Y-110210869D01*
X96082057Y-110222859D01*
X96084471Y-110228491D01*
X96101013Y-110309076D01*
X96120011Y-110395487D01*
X96119330Y-110590585D01*
X96099737Y-110676825D01*
X96082626Y-110757327D01*
X96080171Y-110762946D01*
X96077452Y-110774914D01*
X96042385Y-110849436D01*
X96011867Y-110919288D01*
X96004802Y-110929304D01*
X95996968Y-110945951D01*
X95950418Y-111006397D01*
X95909984Y-111063716D01*
X95896591Y-111076293D01*
X95881634Y-111095715D01*
X95827850Y-111140845D01*
X95781144Y-111184705D01*
X95760291Y-111197534D01*
X95736831Y-111217219D01*
X95679992Y-111246934D01*
X95630605Y-111277317D01*
X95601869Y-111287776D01*
X95569315Y-111304795D01*
X95513281Y-111320019D01*
X95464516Y-111337768D01*
X95428236Y-111343125D01*
X95386900Y-111354356D01*
X95334988Y-111356895D01*
X95289669Y-111363587D01*
X95246968Y-111361200D01*
X95198099Y-111363590D01*
X95152866Y-111355939D01*
X95113201Y-111353722D01*
X95065961Y-111341240D01*
X95011719Y-111332066D01*
X94974833Y-111317163D01*
X94942318Y-111308572D01*
X94893106Y-111284143D01*
X94836457Y-111261255D01*
X94808667Y-111242227D01*
X94784004Y-111229984D01*
X94735915Y-111192412D01*
X94680488Y-111154461D01*
X94661613Y-111134362D01*
X94644729Y-111121170D01*
X94601235Y-111070065D01*
X94551090Y-111016666D01*
X94540104Y-110998237D01*
X94530178Y-110986574D01*
X94494921Y-110922442D01*
X94454300Y-110854300D01*
X94449459Y-110839747D01*
X94445030Y-110831691D01*
X94421595Y-110755986D01*
X94394634Y-110674937D01*
X94393671Y-110665778D01*
X94392764Y-110662847D01*
X94384435Y-110577903D01*
X94374875Y-110486945D01*
X94385074Y-110396024D01*
X94393992Y-110311172D01*
X94394919Y-110308249D01*
X94395946Y-110299096D01*
X94423467Y-110218255D01*
X94447435Y-110142696D01*
X94451922Y-110134667D01*
X94456863Y-110120154D01*
X94497944Y-110052320D01*
X94533659Y-109988417D01*
X94543668Y-109976821D01*
X94554784Y-109958467D01*
X94605304Y-109905415D01*
X94649151Y-109854619D01*
X94666126Y-109841546D01*
X94685141Y-109821579D01*
X94740836Y-109784012D01*
X94789186Y-109746778D01*
X94813932Y-109734708D01*
X94841851Y-109715877D01*
X94898652Y-109693388D01*
X94948039Y-109669300D01*
X94980616Y-109660936D01*
X95017604Y-109646291D01*
X95071910Y-109637495D01*
X95119232Y-109625345D01*
X95158909Y-109623404D01*
X95204199Y-109616069D01*
X95253049Y-109618800D01*
G37*
G36*
X121923049Y-109618800D02*
G01*
X121965766Y-109616711D01*
X122011040Y-109623720D01*
X122062931Y-109626621D01*
X122104185Y-109638139D01*
X122140435Y-109643751D01*
X122189084Y-109661843D01*
X122244995Y-109677454D01*
X122277424Y-109694697D01*
X122306091Y-109705358D01*
X122355270Y-109736088D01*
X122411896Y-109766197D01*
X122435217Y-109786045D01*
X122455977Y-109799017D01*
X122502370Y-109843196D01*
X122555847Y-109888709D01*
X122570670Y-109908238D01*
X122583973Y-109920906D01*
X122623998Y-109978494D01*
X122670133Y-110039275D01*
X122677852Y-110055980D01*
X122684845Y-110066042D01*
X122714863Y-110136080D01*
X122749421Y-110210869D01*
X122752057Y-110222859D01*
X122754471Y-110228491D01*
X122771013Y-110309076D01*
X122790011Y-110395487D01*
X122789330Y-110590585D01*
X122769737Y-110676825D01*
X122752626Y-110757327D01*
X122750171Y-110762946D01*
X122747452Y-110774914D01*
X122712385Y-110849436D01*
X122681867Y-110919288D01*
X122674802Y-110929304D01*
X122666968Y-110945951D01*
X122620418Y-111006397D01*
X122579984Y-111063716D01*
X122566591Y-111076293D01*
X122551634Y-111095715D01*
X122497850Y-111140845D01*
X122451144Y-111184705D01*
X122430291Y-111197534D01*
X122406831Y-111217219D01*
X122349992Y-111246934D01*
X122300605Y-111277317D01*
X122271869Y-111287776D01*
X122239315Y-111304795D01*
X122183281Y-111320019D01*
X122134516Y-111337768D01*
X122098236Y-111343125D01*
X122056900Y-111354356D01*
X122004988Y-111356895D01*
X121959669Y-111363587D01*
X121916968Y-111361200D01*
X121868099Y-111363590D01*
X121822866Y-111355939D01*
X121783201Y-111353722D01*
X121735961Y-111341240D01*
X121681719Y-111332066D01*
X121644833Y-111317163D01*
X121612318Y-111308572D01*
X121563106Y-111284143D01*
X121506457Y-111261255D01*
X121478667Y-111242227D01*
X121454004Y-111229984D01*
X121405915Y-111192412D01*
X121350488Y-111154461D01*
X121331613Y-111134362D01*
X121314729Y-111121170D01*
X121271235Y-111070065D01*
X121221090Y-111016666D01*
X121210104Y-110998237D01*
X121200178Y-110986574D01*
X121164921Y-110922442D01*
X121124300Y-110854300D01*
X121119459Y-110839747D01*
X121115030Y-110831691D01*
X121091595Y-110755986D01*
X121064634Y-110674937D01*
X121063671Y-110665778D01*
X121062764Y-110662847D01*
X121054435Y-110577903D01*
X121044875Y-110486945D01*
X121055074Y-110396024D01*
X121063992Y-110311172D01*
X121064919Y-110308249D01*
X121065946Y-110299096D01*
X121093467Y-110218255D01*
X121117435Y-110142696D01*
X121121922Y-110134667D01*
X121126863Y-110120154D01*
X121167944Y-110052320D01*
X121203659Y-109988417D01*
X121213668Y-109976821D01*
X121224784Y-109958467D01*
X121275304Y-109905415D01*
X121319151Y-109854619D01*
X121336126Y-109841546D01*
X121355141Y-109821579D01*
X121410836Y-109784012D01*
X121459186Y-109746778D01*
X121483932Y-109734708D01*
X121511851Y-109715877D01*
X121568652Y-109693388D01*
X121618039Y-109669300D01*
X121650616Y-109660936D01*
X121687604Y-109646291D01*
X121741910Y-109637495D01*
X121789232Y-109625345D01*
X121828909Y-109623404D01*
X121874199Y-109616069D01*
X121923049Y-109618800D01*
G37*
G36*
X86363049Y-109618800D02*
G01*
X86405766Y-109616711D01*
X86451040Y-109623720D01*
X86502931Y-109626621D01*
X86544185Y-109638139D01*
X86580435Y-109643751D01*
X86629084Y-109661843D01*
X86684995Y-109677454D01*
X86717424Y-109694697D01*
X86746091Y-109705358D01*
X86795270Y-109736088D01*
X86851896Y-109766197D01*
X86875217Y-109786045D01*
X86895977Y-109799017D01*
X86942370Y-109843196D01*
X86995847Y-109888709D01*
X87010670Y-109908238D01*
X87023973Y-109920906D01*
X87063998Y-109978494D01*
X87110133Y-110039275D01*
X87117852Y-110055980D01*
X87124845Y-110066042D01*
X87154863Y-110136080D01*
X87189421Y-110210869D01*
X87192057Y-110222859D01*
X87194471Y-110228491D01*
X87211013Y-110309076D01*
X87230011Y-110395487D01*
X87229330Y-110590585D01*
X87209737Y-110676825D01*
X87192626Y-110757327D01*
X87190171Y-110762946D01*
X87187452Y-110774914D01*
X87152385Y-110849436D01*
X87121867Y-110919288D01*
X87114802Y-110929304D01*
X87106968Y-110945951D01*
X87060418Y-111006397D01*
X87019984Y-111063716D01*
X87006591Y-111076293D01*
X86991634Y-111095715D01*
X86937850Y-111140845D01*
X86891144Y-111184705D01*
X86870291Y-111197534D01*
X86846831Y-111217219D01*
X86789992Y-111246934D01*
X86740605Y-111277317D01*
X86711869Y-111287776D01*
X86679315Y-111304795D01*
X86623281Y-111320019D01*
X86574516Y-111337768D01*
X86538236Y-111343125D01*
X86496900Y-111354356D01*
X86444988Y-111356895D01*
X86399669Y-111363587D01*
X86356968Y-111361200D01*
X86308099Y-111363590D01*
X86262866Y-111355939D01*
X86223201Y-111353722D01*
X86175961Y-111341240D01*
X86121719Y-111332066D01*
X86084833Y-111317163D01*
X86052318Y-111308572D01*
X86003106Y-111284143D01*
X85946457Y-111261255D01*
X85918667Y-111242227D01*
X85894004Y-111229984D01*
X85845915Y-111192412D01*
X85790488Y-111154461D01*
X85771613Y-111134362D01*
X85754729Y-111121170D01*
X85711235Y-111070065D01*
X85661090Y-111016666D01*
X85650104Y-110998237D01*
X85640178Y-110986574D01*
X85604921Y-110922442D01*
X85564300Y-110854300D01*
X85559459Y-110839747D01*
X85555030Y-110831691D01*
X85531595Y-110755986D01*
X85504634Y-110674937D01*
X85503671Y-110665778D01*
X85502764Y-110662847D01*
X85494435Y-110577903D01*
X85484875Y-110486945D01*
X85495074Y-110396024D01*
X85503992Y-110311172D01*
X85504919Y-110308249D01*
X85505946Y-110299096D01*
X85533467Y-110218255D01*
X85557435Y-110142696D01*
X85561922Y-110134667D01*
X85566863Y-110120154D01*
X85607944Y-110052320D01*
X85643659Y-109988417D01*
X85653668Y-109976821D01*
X85664784Y-109958467D01*
X85715304Y-109905415D01*
X85759151Y-109854619D01*
X85776126Y-109841546D01*
X85795141Y-109821579D01*
X85850836Y-109784012D01*
X85899186Y-109746778D01*
X85923932Y-109734708D01*
X85951851Y-109715877D01*
X86008652Y-109693388D01*
X86058039Y-109669300D01*
X86090616Y-109660936D01*
X86127604Y-109646291D01*
X86181910Y-109637495D01*
X86229232Y-109625345D01*
X86268909Y-109623404D01*
X86314199Y-109616069D01*
X86363049Y-109618800D01*
G37*
G36*
X113033049Y-109618800D02*
G01*
X113075766Y-109616711D01*
X113121040Y-109623720D01*
X113172931Y-109626621D01*
X113214185Y-109638139D01*
X113250435Y-109643751D01*
X113299084Y-109661843D01*
X113354995Y-109677454D01*
X113387424Y-109694697D01*
X113416091Y-109705358D01*
X113465270Y-109736088D01*
X113521896Y-109766197D01*
X113545217Y-109786045D01*
X113565977Y-109799017D01*
X113612370Y-109843196D01*
X113665847Y-109888709D01*
X113680670Y-109908238D01*
X113693973Y-109920906D01*
X113733998Y-109978494D01*
X113780133Y-110039275D01*
X113787852Y-110055980D01*
X113794845Y-110066042D01*
X113824863Y-110136080D01*
X113859421Y-110210869D01*
X113862057Y-110222859D01*
X113864471Y-110228491D01*
X113881013Y-110309076D01*
X113900011Y-110395487D01*
X113899330Y-110590585D01*
X113879737Y-110676825D01*
X113862626Y-110757327D01*
X113860171Y-110762946D01*
X113857452Y-110774914D01*
X113822385Y-110849436D01*
X113791867Y-110919288D01*
X113784802Y-110929304D01*
X113776968Y-110945951D01*
X113730418Y-111006397D01*
X113689984Y-111063716D01*
X113676591Y-111076293D01*
X113661634Y-111095715D01*
X113607850Y-111140845D01*
X113561144Y-111184705D01*
X113540291Y-111197534D01*
X113516831Y-111217219D01*
X113459992Y-111246934D01*
X113410605Y-111277317D01*
X113381869Y-111287776D01*
X113349315Y-111304795D01*
X113293281Y-111320019D01*
X113244516Y-111337768D01*
X113208236Y-111343125D01*
X113166900Y-111354356D01*
X113114988Y-111356895D01*
X113069669Y-111363587D01*
X113026968Y-111361200D01*
X112978099Y-111363590D01*
X112932866Y-111355939D01*
X112893201Y-111353722D01*
X112845961Y-111341240D01*
X112791719Y-111332066D01*
X112754833Y-111317163D01*
X112722318Y-111308572D01*
X112673106Y-111284143D01*
X112616457Y-111261255D01*
X112588667Y-111242227D01*
X112564004Y-111229984D01*
X112515915Y-111192412D01*
X112460488Y-111154461D01*
X112441613Y-111134362D01*
X112424729Y-111121170D01*
X112381235Y-111070065D01*
X112331090Y-111016666D01*
X112320104Y-110998237D01*
X112310178Y-110986574D01*
X112274921Y-110922442D01*
X112234300Y-110854300D01*
X112229459Y-110839747D01*
X112225030Y-110831691D01*
X112201595Y-110755986D01*
X112174634Y-110674937D01*
X112173671Y-110665778D01*
X112172764Y-110662847D01*
X112164435Y-110577903D01*
X112154875Y-110486945D01*
X112165074Y-110396024D01*
X112173992Y-110311172D01*
X112174919Y-110308249D01*
X112175946Y-110299096D01*
X112203467Y-110218255D01*
X112227435Y-110142696D01*
X112231922Y-110134667D01*
X112236863Y-110120154D01*
X112277944Y-110052320D01*
X112313659Y-109988417D01*
X112323668Y-109976821D01*
X112334784Y-109958467D01*
X112385304Y-109905415D01*
X112429151Y-109854619D01*
X112446126Y-109841546D01*
X112465141Y-109821579D01*
X112520836Y-109784012D01*
X112569186Y-109746778D01*
X112593932Y-109734708D01*
X112621851Y-109715877D01*
X112678652Y-109693388D01*
X112728039Y-109669300D01*
X112760616Y-109660936D01*
X112797604Y-109646291D01*
X112851910Y-109637495D01*
X112899232Y-109625345D01*
X112938909Y-109623404D01*
X112984199Y-109616069D01*
X113033049Y-109618800D01*
G37*
G36*
X178532970Y-109638828D02*
G01*
X178574714Y-109636786D01*
X178618955Y-109643635D01*
X178669646Y-109646469D01*
X178709950Y-109657722D01*
X178745368Y-109663205D01*
X178792898Y-109680881D01*
X178847524Y-109696133D01*
X178879207Y-109712979D01*
X178907214Y-109723395D01*
X178955259Y-109753417D01*
X179010588Y-109782836D01*
X179033375Y-109802230D01*
X179053657Y-109814903D01*
X179098979Y-109858063D01*
X179151230Y-109902532D01*
X179165714Y-109921614D01*
X179178709Y-109933989D01*
X179217815Y-109990254D01*
X179262888Y-110049636D01*
X179270428Y-110065953D01*
X179277263Y-110075788D01*
X179306606Y-110144250D01*
X179340353Y-110217286D01*
X179342928Y-110228996D01*
X179345288Y-110234503D01*
X179361456Y-110313267D01*
X179380011Y-110397659D01*
X179379346Y-110588273D01*
X179360192Y-110672580D01*
X179343484Y-110751185D01*
X179341086Y-110756673D01*
X179338430Y-110768365D01*
X179304170Y-110841169D01*
X179274351Y-110909423D01*
X179267447Y-110919210D01*
X179259796Y-110935469D01*
X179214330Y-110994508D01*
X179174814Y-111050526D01*
X179161727Y-111062816D01*
X179147114Y-111081791D01*
X179094566Y-111125884D01*
X179048934Y-111168735D01*
X179028560Y-111181269D01*
X179005639Y-111200502D01*
X178950106Y-111229534D01*
X178901855Y-111259218D01*
X178873778Y-111269437D01*
X178841974Y-111286064D01*
X178787241Y-111300934D01*
X178739585Y-111318280D01*
X178704126Y-111323516D01*
X178663753Y-111334485D01*
X178613048Y-111336965D01*
X178568758Y-111343505D01*
X178527030Y-111341172D01*
X178479292Y-111343507D01*
X178435101Y-111336033D01*
X178396345Y-111333866D01*
X178350188Y-111321671D01*
X178297197Y-111312708D01*
X178261163Y-111298149D01*
X178229392Y-111289755D01*
X178181308Y-111265886D01*
X178125963Y-111243525D01*
X178098813Y-111224935D01*
X178074720Y-111212975D01*
X178027736Y-111176268D01*
X177973580Y-111139186D01*
X177955141Y-111119551D01*
X177938643Y-111106661D01*
X177896146Y-111056727D01*
X177847157Y-111004559D01*
X177836423Y-110986552D01*
X177826723Y-110975155D01*
X177792273Y-110912490D01*
X177752592Y-110845925D01*
X177747863Y-110831708D01*
X177743535Y-110823836D01*
X177720635Y-110749859D01*
X177694298Y-110670685D01*
X177693358Y-110661738D01*
X177692471Y-110658874D01*
X177684331Y-110575859D01*
X177674993Y-110487015D01*
X177684963Y-110398127D01*
X177693671Y-110315283D01*
X177694575Y-110312432D01*
X177695579Y-110303485D01*
X177722485Y-110224451D01*
X177745886Y-110150680D01*
X177750267Y-110142841D01*
X177755096Y-110128656D01*
X177795246Y-110062361D01*
X177830127Y-109999948D01*
X177839904Y-109988621D01*
X177850766Y-109970686D01*
X177900130Y-109918848D01*
X177942965Y-109869224D01*
X177959550Y-109856452D01*
X177978126Y-109836945D01*
X178032529Y-109800250D01*
X178079778Y-109763863D01*
X178103964Y-109752067D01*
X178131234Y-109733673D01*
X178186715Y-109711706D01*
X178234980Y-109688166D01*
X178266816Y-109679992D01*
X178302946Y-109665687D01*
X178355996Y-109657095D01*
X178402238Y-109645222D01*
X178441010Y-109643326D01*
X178485252Y-109636160D01*
X178532970Y-109638828D01*
G37*
G36*
X177379999Y-109639999D02*
G01*
X177380001Y-109640001D01*
X177382449Y-109652309D01*
X177382449Y-111327691D01*
X177380001Y-111339999D01*
X177379999Y-111340001D01*
X177367691Y-111342449D01*
X175692309Y-111342449D01*
X175680001Y-111340001D01*
X175679999Y-111339999D01*
X175677551Y-111327691D01*
X175677551Y-109652309D01*
X175679999Y-109640001D01*
X175680001Y-109639999D01*
X175692309Y-109637551D01*
X177367691Y-109637551D01*
X177379999Y-109639999D01*
G37*
G36*
X163367999Y-109259999D02*
G01*
X163368001Y-109260001D01*
X163370449Y-109272309D01*
X163370449Y-111197691D01*
X163368001Y-111209999D01*
X163367999Y-111210001D01*
X163355691Y-111212449D01*
X162780309Y-111212449D01*
X162768001Y-111210001D01*
X162767999Y-111209999D01*
X162765551Y-111197691D01*
X162765551Y-109272309D01*
X162767999Y-109260001D01*
X162768001Y-109259999D01*
X162780309Y-109257551D01*
X163355691Y-109257551D01*
X163367999Y-109259999D01*
G37*
G36*
X159557999Y-109259999D02*
G01*
X159558001Y-109260001D01*
X159560449Y-109272309D01*
X159560449Y-111197691D01*
X159558001Y-111209999D01*
X159557999Y-111210001D01*
X159545691Y-111212449D01*
X158970309Y-111212449D01*
X158958001Y-111210001D01*
X158957999Y-111209999D01*
X158955551Y-111197691D01*
X158955551Y-109272309D01*
X158957999Y-109260001D01*
X158958001Y-109259999D01*
X158970309Y-109257551D01*
X159545691Y-109257551D01*
X159557999Y-109259999D01*
G37*
G36*
X160827999Y-109259999D02*
G01*
X160828001Y-109260001D01*
X160830449Y-109272309D01*
X160830449Y-111197691D01*
X160828001Y-111209999D01*
X160827999Y-111210001D01*
X160815691Y-111212449D01*
X160240309Y-111212449D01*
X160228001Y-111210001D01*
X160227999Y-111209999D01*
X160225551Y-111197691D01*
X160225551Y-109272309D01*
X160227999Y-109260001D01*
X160228001Y-109259999D01*
X160240309Y-109257551D01*
X160815691Y-109257551D01*
X160827999Y-109259999D01*
G37*
G36*
X164637999Y-109259999D02*
G01*
X164638001Y-109260001D01*
X164640449Y-109272309D01*
X164640449Y-111197691D01*
X164638001Y-111209999D01*
X164637999Y-111210001D01*
X164625691Y-111212449D01*
X164050309Y-111212449D01*
X164038001Y-111210001D01*
X164037999Y-111209999D01*
X164035551Y-111197691D01*
X164035551Y-109272309D01*
X164037999Y-109260001D01*
X164038001Y-109259999D01*
X164050309Y-109257551D01*
X164625691Y-109257551D01*
X164637999Y-109259999D01*
G37*
G36*
X158287999Y-109259999D02*
G01*
X158288001Y-109260001D01*
X158290449Y-109272309D01*
X158290449Y-111197691D01*
X158288001Y-111209999D01*
X158287999Y-111210001D01*
X158275691Y-111212449D01*
X157700309Y-111212449D01*
X157688001Y-111210001D01*
X157687999Y-111209999D01*
X157685551Y-111197691D01*
X157685551Y-109272309D01*
X157687999Y-109260001D01*
X157688001Y-109259999D01*
X157700309Y-109257551D01*
X158275691Y-109257551D01*
X158287999Y-109259999D01*
G37*
G36*
X155747999Y-109259999D02*
G01*
X155748001Y-109260001D01*
X155750449Y-109272309D01*
X155750449Y-111197691D01*
X155748001Y-111209999D01*
X155747999Y-111210001D01*
X155735691Y-111212449D01*
X155160309Y-111212449D01*
X155148001Y-111210001D01*
X155147999Y-111209999D01*
X155145551Y-111197691D01*
X155145551Y-109272309D01*
X155147999Y-109260001D01*
X155148001Y-109259999D01*
X155160309Y-109257551D01*
X155735691Y-109257551D01*
X155747999Y-109259999D01*
G37*
G36*
X157017999Y-109259999D02*
G01*
X157018001Y-109260001D01*
X157020449Y-109272309D01*
X157020449Y-111197691D01*
X157018001Y-111209999D01*
X157017999Y-111210001D01*
X157005691Y-111212449D01*
X156430309Y-111212449D01*
X156418001Y-111210001D01*
X156417999Y-111209999D01*
X156415551Y-111197691D01*
X156415551Y-109272309D01*
X156417999Y-109260001D01*
X156418001Y-109259999D01*
X156430309Y-109257551D01*
X157005691Y-109257551D01*
X157017999Y-109259999D01*
G37*
G36*
X165907999Y-109259999D02*
G01*
X165908001Y-109260001D01*
X165910449Y-109272309D01*
X165910449Y-111197691D01*
X165908001Y-111209999D01*
X165907999Y-111210001D01*
X165895691Y-111212449D01*
X165320309Y-111212449D01*
X165308001Y-111210001D01*
X165307999Y-111209999D01*
X165305551Y-111197691D01*
X165305551Y-109272309D01*
X165307999Y-109260001D01*
X165308001Y-109259999D01*
X165320309Y-109257551D01*
X165895691Y-109257551D01*
X165907999Y-109259999D01*
G37*
G36*
X162097999Y-109259999D02*
G01*
X162098001Y-109260001D01*
X162100449Y-109272309D01*
X162100449Y-111197691D01*
X162098001Y-111209999D01*
X162097999Y-111210001D01*
X162085691Y-111212449D01*
X161510309Y-111212449D01*
X161498001Y-111210001D01*
X161497999Y-111209999D01*
X161495551Y-111197691D01*
X161495551Y-109272309D01*
X161497999Y-109260001D01*
X161498001Y-109259999D01*
X161510309Y-109257551D01*
X162085691Y-109257551D01*
X162097999Y-109259999D01*
G37*
G36*
X154477999Y-109259999D02*
G01*
X154478001Y-109260001D01*
X154480449Y-109272309D01*
X154480449Y-111197691D01*
X154478001Y-111209999D01*
X154477999Y-111210001D01*
X154465691Y-111212449D01*
X153890309Y-111212449D01*
X153878001Y-111210001D01*
X153877999Y-111209999D01*
X153875551Y-111197691D01*
X153875551Y-109272309D01*
X153877999Y-109260001D01*
X153878001Y-109259999D01*
X153890309Y-109257551D01*
X154465691Y-109257551D01*
X154477999Y-109259999D01*
G37*
G36*
X149288841Y-107093733D02*
G01*
X149297383Y-107098356D01*
X149302648Y-107099403D01*
X149316835Y-107108882D01*
X149362219Y-107133443D01*
X149376006Y-107148420D01*
X149385342Y-107154658D01*
X149394856Y-107168897D01*
X149418729Y-107194830D01*
X149431237Y-107223343D01*
X149440597Y-107237352D01*
X149443265Y-107250764D01*
X149453308Y-107273659D01*
X149461728Y-107341215D01*
X149461728Y-108556188D01*
X149446267Y-108648841D01*
X149441644Y-108657383D01*
X149440597Y-108662648D01*
X149431118Y-108676835D01*
X149406557Y-108722219D01*
X149391580Y-108736006D01*
X149385342Y-108745342D01*
X149371103Y-108754856D01*
X149345170Y-108778729D01*
X149316657Y-108791237D01*
X149302648Y-108800597D01*
X149289236Y-108803265D01*
X149266341Y-108813308D01*
X149198785Y-108821728D01*
X147983812Y-108821728D01*
X147891159Y-108806267D01*
X147882617Y-108801644D01*
X147877352Y-108800597D01*
X147863165Y-108791118D01*
X147817781Y-108766557D01*
X147803994Y-108751580D01*
X147794658Y-108745342D01*
X147785144Y-108731103D01*
X147761271Y-108705170D01*
X147748763Y-108676657D01*
X147739403Y-108662648D01*
X147736735Y-108649236D01*
X147726692Y-108626341D01*
X147718272Y-108558785D01*
X147718272Y-107343812D01*
X147733733Y-107251159D01*
X147738356Y-107242617D01*
X147739403Y-107237352D01*
X147748882Y-107223165D01*
X147773443Y-107177781D01*
X147788420Y-107163994D01*
X147794658Y-107154658D01*
X147808897Y-107145144D01*
X147834830Y-107121271D01*
X147863343Y-107108763D01*
X147877352Y-107099403D01*
X147890764Y-107096735D01*
X147913659Y-107086692D01*
X147981215Y-107078272D01*
X149196188Y-107078272D01*
X149288841Y-107093733D01*
G37*
G36*
X140398841Y-107093733D02*
G01*
X140407383Y-107098356D01*
X140412648Y-107099403D01*
X140426835Y-107108882D01*
X140472219Y-107133443D01*
X140486006Y-107148420D01*
X140495342Y-107154658D01*
X140504856Y-107168897D01*
X140528729Y-107194830D01*
X140541237Y-107223343D01*
X140550597Y-107237352D01*
X140553265Y-107250764D01*
X140563308Y-107273659D01*
X140571728Y-107341215D01*
X140571728Y-108556188D01*
X140556267Y-108648841D01*
X140551644Y-108657383D01*
X140550597Y-108662648D01*
X140541118Y-108676835D01*
X140516557Y-108722219D01*
X140501580Y-108736006D01*
X140495342Y-108745342D01*
X140481103Y-108754856D01*
X140455170Y-108778729D01*
X140426657Y-108791237D01*
X140412648Y-108800597D01*
X140399236Y-108803265D01*
X140376341Y-108813308D01*
X140308785Y-108821728D01*
X139093812Y-108821728D01*
X139001159Y-108806267D01*
X138992617Y-108801644D01*
X138987352Y-108800597D01*
X138973165Y-108791118D01*
X138927781Y-108766557D01*
X138913994Y-108751580D01*
X138904658Y-108745342D01*
X138895144Y-108731103D01*
X138871271Y-108705170D01*
X138858763Y-108676657D01*
X138849403Y-108662648D01*
X138846735Y-108649236D01*
X138836692Y-108626341D01*
X138828272Y-108558785D01*
X138828272Y-107343812D01*
X138843733Y-107251159D01*
X138848356Y-107242617D01*
X138849403Y-107237352D01*
X138858882Y-107223165D01*
X138883443Y-107177781D01*
X138898420Y-107163994D01*
X138904658Y-107154658D01*
X138918897Y-107145144D01*
X138944830Y-107121271D01*
X138973343Y-107108763D01*
X138987352Y-107099403D01*
X139000764Y-107096735D01*
X139023659Y-107086692D01*
X139091215Y-107078272D01*
X140306188Y-107078272D01*
X140398841Y-107093733D01*
G37*
G36*
X131508841Y-107093733D02*
G01*
X131517383Y-107098356D01*
X131522648Y-107099403D01*
X131536835Y-107108882D01*
X131582219Y-107133443D01*
X131596006Y-107148420D01*
X131605342Y-107154658D01*
X131614856Y-107168897D01*
X131638729Y-107194830D01*
X131651237Y-107223343D01*
X131660597Y-107237352D01*
X131663265Y-107250764D01*
X131673308Y-107273659D01*
X131681728Y-107341215D01*
X131681728Y-108556188D01*
X131666267Y-108648841D01*
X131661644Y-108657383D01*
X131660597Y-108662648D01*
X131651118Y-108676835D01*
X131626557Y-108722219D01*
X131611580Y-108736006D01*
X131605342Y-108745342D01*
X131591103Y-108754856D01*
X131565170Y-108778729D01*
X131536657Y-108791237D01*
X131522648Y-108800597D01*
X131509236Y-108803265D01*
X131486341Y-108813308D01*
X131418785Y-108821728D01*
X130203812Y-108821728D01*
X130111159Y-108806267D01*
X130102617Y-108801644D01*
X130097352Y-108800597D01*
X130083165Y-108791118D01*
X130037781Y-108766557D01*
X130023994Y-108751580D01*
X130014658Y-108745342D01*
X130005144Y-108731103D01*
X129981271Y-108705170D01*
X129968763Y-108676657D01*
X129959403Y-108662648D01*
X129956735Y-108649236D01*
X129946692Y-108626341D01*
X129938272Y-108558785D01*
X129938272Y-107343812D01*
X129953733Y-107251159D01*
X129958356Y-107242617D01*
X129959403Y-107237352D01*
X129968882Y-107223165D01*
X129993443Y-107177781D01*
X130008420Y-107163994D01*
X130014658Y-107154658D01*
X130028897Y-107145144D01*
X130054830Y-107121271D01*
X130083343Y-107108763D01*
X130097352Y-107099403D01*
X130110764Y-107096735D01*
X130133659Y-107086692D01*
X130201215Y-107078272D01*
X131416188Y-107078272D01*
X131508841Y-107093733D01*
G37*
G36*
X122618841Y-107093733D02*
G01*
X122627383Y-107098356D01*
X122632648Y-107099403D01*
X122646835Y-107108882D01*
X122692219Y-107133443D01*
X122706006Y-107148420D01*
X122715342Y-107154658D01*
X122724856Y-107168897D01*
X122748729Y-107194830D01*
X122761237Y-107223343D01*
X122770597Y-107237352D01*
X122773265Y-107250764D01*
X122783308Y-107273659D01*
X122791728Y-107341215D01*
X122791728Y-108556188D01*
X122776267Y-108648841D01*
X122771644Y-108657383D01*
X122770597Y-108662648D01*
X122761118Y-108676835D01*
X122736557Y-108722219D01*
X122721580Y-108736006D01*
X122715342Y-108745342D01*
X122701103Y-108754856D01*
X122675170Y-108778729D01*
X122646657Y-108791237D01*
X122632648Y-108800597D01*
X122619236Y-108803265D01*
X122596341Y-108813308D01*
X122528785Y-108821728D01*
X121313812Y-108821728D01*
X121221159Y-108806267D01*
X121212617Y-108801644D01*
X121207352Y-108800597D01*
X121193165Y-108791118D01*
X121147781Y-108766557D01*
X121133994Y-108751580D01*
X121124658Y-108745342D01*
X121115144Y-108731103D01*
X121091271Y-108705170D01*
X121078763Y-108676657D01*
X121069403Y-108662648D01*
X121066735Y-108649236D01*
X121056692Y-108626341D01*
X121048272Y-108558785D01*
X121048272Y-107343812D01*
X121063733Y-107251159D01*
X121068356Y-107242617D01*
X121069403Y-107237352D01*
X121078882Y-107223165D01*
X121103443Y-107177781D01*
X121118420Y-107163994D01*
X121124658Y-107154658D01*
X121138897Y-107145144D01*
X121164830Y-107121271D01*
X121193343Y-107108763D01*
X121207352Y-107099403D01*
X121220764Y-107096735D01*
X121243659Y-107086692D01*
X121311215Y-107078272D01*
X122526188Y-107078272D01*
X122618841Y-107093733D01*
G37*
G36*
X113728841Y-107093733D02*
G01*
X113737383Y-107098356D01*
X113742648Y-107099403D01*
X113756835Y-107108882D01*
X113802219Y-107133443D01*
X113816006Y-107148420D01*
X113825342Y-107154658D01*
X113834856Y-107168897D01*
X113858729Y-107194830D01*
X113871237Y-107223343D01*
X113880597Y-107237352D01*
X113883265Y-107250764D01*
X113893308Y-107273659D01*
X113901728Y-107341215D01*
X113901728Y-108556188D01*
X113886267Y-108648841D01*
X113881644Y-108657383D01*
X113880597Y-108662648D01*
X113871118Y-108676835D01*
X113846557Y-108722219D01*
X113831580Y-108736006D01*
X113825342Y-108745342D01*
X113811103Y-108754856D01*
X113785170Y-108778729D01*
X113756657Y-108791237D01*
X113742648Y-108800597D01*
X113729236Y-108803265D01*
X113706341Y-108813308D01*
X113638785Y-108821728D01*
X112423812Y-108821728D01*
X112331159Y-108806267D01*
X112322617Y-108801644D01*
X112317352Y-108800597D01*
X112303165Y-108791118D01*
X112257781Y-108766557D01*
X112243994Y-108751580D01*
X112234658Y-108745342D01*
X112225144Y-108731103D01*
X112201271Y-108705170D01*
X112188763Y-108676657D01*
X112179403Y-108662648D01*
X112176735Y-108649236D01*
X112166692Y-108626341D01*
X112158272Y-108558785D01*
X112158272Y-107343812D01*
X112173733Y-107251159D01*
X112178356Y-107242617D01*
X112179403Y-107237352D01*
X112188882Y-107223165D01*
X112213443Y-107177781D01*
X112228420Y-107163994D01*
X112234658Y-107154658D01*
X112248897Y-107145144D01*
X112274830Y-107121271D01*
X112303343Y-107108763D01*
X112317352Y-107099403D01*
X112330764Y-107096735D01*
X112353659Y-107086692D01*
X112421215Y-107078272D01*
X113636188Y-107078272D01*
X113728841Y-107093733D01*
G37*
G36*
X104838841Y-107093733D02*
G01*
X104847383Y-107098356D01*
X104852648Y-107099403D01*
X104866835Y-107108882D01*
X104912219Y-107133443D01*
X104926006Y-107148420D01*
X104935342Y-107154658D01*
X104944856Y-107168897D01*
X104968729Y-107194830D01*
X104981237Y-107223343D01*
X104990597Y-107237352D01*
X104993265Y-107250764D01*
X105003308Y-107273659D01*
X105011728Y-107341215D01*
X105011728Y-108556188D01*
X104996267Y-108648841D01*
X104991644Y-108657383D01*
X104990597Y-108662648D01*
X104981118Y-108676835D01*
X104956557Y-108722219D01*
X104941580Y-108736006D01*
X104935342Y-108745342D01*
X104921103Y-108754856D01*
X104895170Y-108778729D01*
X104866657Y-108791237D01*
X104852648Y-108800597D01*
X104839236Y-108803265D01*
X104816341Y-108813308D01*
X104748785Y-108821728D01*
X103533812Y-108821728D01*
X103441159Y-108806267D01*
X103432617Y-108801644D01*
X103427352Y-108800597D01*
X103413165Y-108791118D01*
X103367781Y-108766557D01*
X103353994Y-108751580D01*
X103344658Y-108745342D01*
X103335144Y-108731103D01*
X103311271Y-108705170D01*
X103298763Y-108676657D01*
X103289403Y-108662648D01*
X103286735Y-108649236D01*
X103276692Y-108626341D01*
X103268272Y-108558785D01*
X103268272Y-107343812D01*
X103283733Y-107251159D01*
X103288356Y-107242617D01*
X103289403Y-107237352D01*
X103298882Y-107223165D01*
X103323443Y-107177781D01*
X103338420Y-107163994D01*
X103344658Y-107154658D01*
X103358897Y-107145144D01*
X103384830Y-107121271D01*
X103413343Y-107108763D01*
X103427352Y-107099403D01*
X103440764Y-107096735D01*
X103463659Y-107086692D01*
X103531215Y-107078272D01*
X104746188Y-107078272D01*
X104838841Y-107093733D01*
G37*
G36*
X95948841Y-107093733D02*
G01*
X95957383Y-107098356D01*
X95962648Y-107099403D01*
X95976835Y-107108882D01*
X96022219Y-107133443D01*
X96036006Y-107148420D01*
X96045342Y-107154658D01*
X96054856Y-107168897D01*
X96078729Y-107194830D01*
X96091237Y-107223343D01*
X96100597Y-107237352D01*
X96103265Y-107250764D01*
X96113308Y-107273659D01*
X96121728Y-107341215D01*
X96121728Y-108556188D01*
X96106267Y-108648841D01*
X96101644Y-108657383D01*
X96100597Y-108662648D01*
X96091118Y-108676835D01*
X96066557Y-108722219D01*
X96051580Y-108736006D01*
X96045342Y-108745342D01*
X96031103Y-108754856D01*
X96005170Y-108778729D01*
X95976657Y-108791237D01*
X95962648Y-108800597D01*
X95949236Y-108803265D01*
X95926341Y-108813308D01*
X95858785Y-108821728D01*
X94643812Y-108821728D01*
X94551159Y-108806267D01*
X94542617Y-108801644D01*
X94537352Y-108800597D01*
X94523165Y-108791118D01*
X94477781Y-108766557D01*
X94463994Y-108751580D01*
X94454658Y-108745342D01*
X94445144Y-108731103D01*
X94421271Y-108705170D01*
X94408763Y-108676657D01*
X94399403Y-108662648D01*
X94396735Y-108649236D01*
X94386692Y-108626341D01*
X94378272Y-108558785D01*
X94378272Y-107343812D01*
X94393733Y-107251159D01*
X94398356Y-107242617D01*
X94399403Y-107237352D01*
X94408882Y-107223165D01*
X94433443Y-107177781D01*
X94448420Y-107163994D01*
X94454658Y-107154658D01*
X94468897Y-107145144D01*
X94494830Y-107121271D01*
X94523343Y-107108763D01*
X94537352Y-107099403D01*
X94550764Y-107096735D01*
X94573659Y-107086692D01*
X94641215Y-107078272D01*
X95856188Y-107078272D01*
X95948841Y-107093733D01*
G37*
G36*
X87058841Y-107093733D02*
G01*
X87067383Y-107098356D01*
X87072648Y-107099403D01*
X87086835Y-107108882D01*
X87132219Y-107133443D01*
X87146006Y-107148420D01*
X87155342Y-107154658D01*
X87164856Y-107168897D01*
X87188729Y-107194830D01*
X87201237Y-107223343D01*
X87210597Y-107237352D01*
X87213265Y-107250764D01*
X87223308Y-107273659D01*
X87231728Y-107341215D01*
X87231728Y-108556188D01*
X87216267Y-108648841D01*
X87211644Y-108657383D01*
X87210597Y-108662648D01*
X87201118Y-108676835D01*
X87176557Y-108722219D01*
X87161580Y-108736006D01*
X87155342Y-108745342D01*
X87141103Y-108754856D01*
X87115170Y-108778729D01*
X87086657Y-108791237D01*
X87072648Y-108800597D01*
X87059236Y-108803265D01*
X87036341Y-108813308D01*
X86968785Y-108821728D01*
X85753812Y-108821728D01*
X85661159Y-108806267D01*
X85652617Y-108801644D01*
X85647352Y-108800597D01*
X85633165Y-108791118D01*
X85587781Y-108766557D01*
X85573994Y-108751580D01*
X85564658Y-108745342D01*
X85555144Y-108731103D01*
X85531271Y-108705170D01*
X85518763Y-108676657D01*
X85509403Y-108662648D01*
X85506735Y-108649236D01*
X85496692Y-108626341D01*
X85488272Y-108558785D01*
X85488272Y-107343812D01*
X85503733Y-107251159D01*
X85508356Y-107242617D01*
X85509403Y-107237352D01*
X85518882Y-107223165D01*
X85543443Y-107177781D01*
X85558420Y-107163994D01*
X85564658Y-107154658D01*
X85578897Y-107145144D01*
X85604830Y-107121271D01*
X85633343Y-107108763D01*
X85647352Y-107099403D01*
X85660764Y-107096735D01*
X85683659Y-107086692D01*
X85751215Y-107078272D01*
X86966188Y-107078272D01*
X87058841Y-107093733D01*
G37*
G36*
X78168841Y-107093733D02*
G01*
X78177383Y-107098356D01*
X78182648Y-107099403D01*
X78196835Y-107108882D01*
X78242219Y-107133443D01*
X78256006Y-107148420D01*
X78265342Y-107154658D01*
X78274856Y-107168897D01*
X78298729Y-107194830D01*
X78311237Y-107223343D01*
X78320597Y-107237352D01*
X78323265Y-107250764D01*
X78333308Y-107273659D01*
X78341728Y-107341215D01*
X78341728Y-108556188D01*
X78326267Y-108648841D01*
X78321644Y-108657383D01*
X78320597Y-108662648D01*
X78311118Y-108676835D01*
X78286557Y-108722219D01*
X78271580Y-108736006D01*
X78265342Y-108745342D01*
X78251103Y-108754856D01*
X78225170Y-108778729D01*
X78196657Y-108791237D01*
X78182648Y-108800597D01*
X78169236Y-108803265D01*
X78146341Y-108813308D01*
X78078785Y-108821728D01*
X76863812Y-108821728D01*
X76771159Y-108806267D01*
X76762617Y-108801644D01*
X76757352Y-108800597D01*
X76743165Y-108791118D01*
X76697781Y-108766557D01*
X76683994Y-108751580D01*
X76674658Y-108745342D01*
X76665144Y-108731103D01*
X76641271Y-108705170D01*
X76628763Y-108676657D01*
X76619403Y-108662648D01*
X76616735Y-108649236D01*
X76606692Y-108626341D01*
X76598272Y-108558785D01*
X76598272Y-107343812D01*
X76613733Y-107251159D01*
X76618356Y-107242617D01*
X76619403Y-107237352D01*
X76628882Y-107223165D01*
X76653443Y-107177781D01*
X76668420Y-107163994D01*
X76674658Y-107154658D01*
X76688897Y-107145144D01*
X76714830Y-107121271D01*
X76743343Y-107108763D01*
X76757352Y-107099403D01*
X76770764Y-107096735D01*
X76793659Y-107086692D01*
X76861215Y-107078272D01*
X78076188Y-107078272D01*
X78168841Y-107093733D01*
G37*
G36*
X181296549Y-103968181D02*
G01*
X181327248Y-103967484D01*
X181423084Y-103979251D01*
X181522088Y-103987913D01*
X181551879Y-103995065D01*
X181579315Y-103998434D01*
X181675408Y-104024722D01*
X181775008Y-104048634D01*
X181800576Y-104058964D01*
X181824288Y-104065451D01*
X181918419Y-104106576D01*
X182016176Y-104146072D01*
X182037289Y-104158509D01*
X182057009Y-104167124D01*
X182146837Y-104223038D01*
X182240291Y-104278086D01*
X182256954Y-104291579D01*
X182272614Y-104301327D01*
X182355783Y-104371610D01*
X182442432Y-104441777D01*
X182454844Y-104455323D01*
X182466593Y-104465251D01*
X182540793Y-104549119D01*
X182618158Y-104633548D01*
X182626721Y-104646243D01*
X182634878Y-104655463D01*
X182697877Y-104751736D01*
X182763608Y-104849186D01*
X182768883Y-104860244D01*
X182773940Y-104867973D01*
X182823689Y-104975148D01*
X182875587Y-105083955D01*
X182878273Y-105092740D01*
X182880870Y-105098335D01*
X182915593Y-105214810D01*
X182951635Y-105332697D01*
X182952537Y-105338733D01*
X182953424Y-105341708D01*
X182971521Y-105465760D01*
X182990081Y-105589946D01*
X182980876Y-105941467D01*
X182955783Y-106064803D01*
X182930460Y-106190394D01*
X182929930Y-106191873D01*
X182929019Y-106196353D01*
X182886383Y-106313496D01*
X182844848Y-106429497D01*
X182842674Y-106433586D01*
X182840058Y-106440773D01*
X182781877Y-106547928D01*
X182725618Y-106653737D01*
X182721055Y-106659949D01*
X182715945Y-106669360D01*
X182644325Y-106764403D01*
X182575269Y-106858411D01*
X182567706Y-106866080D01*
X182559409Y-106877091D01*
X182476631Y-106958436D01*
X182396946Y-107039242D01*
X182385904Y-107047593D01*
X182373887Y-107059402D01*
X182282454Y-107125832D01*
X182194384Y-107192439D01*
X182179561Y-107200588D01*
X182163456Y-107212289D01*
X182065888Y-107263080D01*
X181971836Y-107314785D01*
X181953125Y-107321781D01*
X181932739Y-107332393D01*
X181831561Y-107367232D01*
X181733952Y-107403726D01*
X181711435Y-107408594D01*
X181686803Y-107417076D01*
X181584597Y-107436018D01*
X181485724Y-107457396D01*
X181459668Y-107459172D01*
X181431051Y-107464476D01*
X181330205Y-107467998D01*
X181232344Y-107474669D01*
X181203259Y-107472431D01*
X181171103Y-107473554D01*
X181073858Y-107462474D01*
X180979124Y-107455185D01*
X180947674Y-107448097D01*
X180912668Y-107444109D01*
X180821090Y-107419571D01*
X180731377Y-107399353D01*
X180698413Y-107386699D01*
X180661424Y-107376788D01*
X180577259Y-107340192D01*
X180494274Y-107308337D01*
X180460818Y-107289563D01*
X180422890Y-107273071D01*
X180347651Y-107226056D01*
X180272800Y-107184052D01*
X180239971Y-107158770D01*
X180202307Y-107135235D01*
X180137166Y-107079599D01*
X180071585Y-107029095D01*
X180040618Y-106997140D01*
X180004520Y-106966309D01*
X179950322Y-106903961D01*
X179894849Y-106846718D01*
X179867027Y-106808142D01*
X179833874Y-106770004D01*
X179791127Y-106702905D01*
X179746288Y-106640734D01*
X179722910Y-106595824D01*
X179694119Y-106550632D01*
X179663003Y-106480745D01*
X179629022Y-106415467D01*
X179611364Y-106364761D01*
X179588324Y-106313012D01*
X179568696Y-106242236D01*
X179545500Y-106175627D01*
X179534768Y-106119896D01*
X179518813Y-106062365D01*
X179510234Y-105992494D01*
X179497475Y-105926238D01*
X179494762Y-105866484D01*
X179487114Y-105804197D01*
X179488877Y-105736873D01*
X179485956Y-105672540D01*
X179492200Y-105609982D01*
X179493923Y-105544179D01*
X179505087Y-105480867D01*
X179511179Y-105419826D01*
X179527131Y-105355850D01*
X179539090Y-105288024D01*
X179558523Y-105229945D01*
X179572621Y-105173402D01*
X179598798Y-105109574D01*
X179621623Y-105041358D01*
X179648033Y-104989526D01*
X179668985Y-104938438D01*
X179705665Y-104876415D01*
X179739709Y-104809601D01*
X179771723Y-104764719D01*
X179798267Y-104719836D01*
X179845430Y-104661386D01*
X179890754Y-104597844D01*
X179926921Y-104560392D01*
X179957750Y-104522185D01*
X180015118Y-104469062D01*
X180071440Y-104410739D01*
X180110313Y-104380910D01*
X180144091Y-104349632D01*
X180211045Y-104303616D01*
X180277796Y-104252396D01*
X180317982Y-104230120D01*
X180353392Y-104205784D01*
X180429028Y-104168567D01*
X180505291Y-104126293D01*
X180545462Y-104111274D01*
X180581262Y-104093658D01*
X180664399Y-104066805D01*
X180748926Y-104035202D01*
X180787875Y-104026923D01*
X180822932Y-104015600D01*
X180912098Y-104000519D01*
X181003349Y-103981123D01*
X181040046Y-103978878D01*
X181073347Y-103973246D01*
X181166805Y-103971125D01*
X181262971Y-103965243D01*
X181296549Y-103968181D01*
G37*
G36*
X163917782Y-105298726D02*
G01*
X163953218Y-105300707D01*
X163997485Y-105313067D01*
X164048880Y-105322314D01*
X164081669Y-105336571D01*
X164110167Y-105344528D01*
X164155935Y-105368863D01*
X164209263Y-105392051D01*
X164233142Y-105409914D01*
X164254049Y-105421031D01*
X164297986Y-105458424D01*
X164349302Y-105496813D01*
X164364621Y-105515134D01*
X164378145Y-105526644D01*
X164416548Y-105577238D01*
X164461484Y-105630981D01*
X164469517Y-105647023D01*
X164476669Y-105656445D01*
X164505725Y-105719328D01*
X164539792Y-105787358D01*
X164542550Y-105799024D01*
X164545019Y-105804368D01*
X164561062Y-105877336D01*
X164580025Y-105957556D01*
X164579951Y-105966936D01*
X164579375Y-106131925D01*
X164578630Y-106135205D01*
X164578559Y-106144214D01*
X164559217Y-106220652D01*
X164543322Y-106290615D01*
X164539409Y-106298930D01*
X164535657Y-106313759D01*
X164502074Y-106378272D01*
X164473938Y-106438064D01*
X164464712Y-106450045D01*
X164454903Y-106468887D01*
X164411296Y-106519405D01*
X164374514Y-106567168D01*
X164358389Y-106580698D01*
X164340627Y-106601276D01*
X164291390Y-106636918D01*
X164249682Y-106671915D01*
X164225785Y-106684408D01*
X164198960Y-106703826D01*
X164148314Y-106724908D01*
X164105271Y-106747410D01*
X164073557Y-106756026D01*
X164037502Y-106771035D01*
X163989214Y-106778942D01*
X163948018Y-106790135D01*
X163909296Y-106792029D01*
X163864912Y-106799297D01*
X163822021Y-106796298D01*
X163785259Y-106798096D01*
X163741229Y-106790649D01*
X163690450Y-106787098D01*
X163655049Y-106776072D01*
X163624584Y-106770919D01*
X163577744Y-106751994D01*
X163523473Y-106735091D01*
X163496662Y-106719235D01*
X163473498Y-106709876D01*
X163426984Y-106678027D01*
X163372939Y-106646065D01*
X163354773Y-106628584D01*
X163339040Y-106617811D01*
X163296458Y-106572466D01*
X163246923Y-106524797D01*
X163236486Y-106508601D01*
X163227491Y-106499023D01*
X163192685Y-106440635D01*
X163152185Y-106377792D01*
X163147741Y-106365242D01*
X163144052Y-106359054D01*
X163120844Y-106289288D01*
X163093806Y-106212935D01*
X163093011Y-106205619D01*
X163092614Y-106204425D01*
X163084650Y-106128651D01*
X163074918Y-106039069D01*
X163085298Y-105955735D01*
X163093745Y-105880426D01*
X163095217Y-105876101D01*
X163096535Y-105865522D01*
X163123528Y-105792940D01*
X163146259Y-105726169D01*
X163151703Y-105717180D01*
X163157496Y-105701603D01*
X163197114Y-105642198D01*
X163230676Y-105586781D01*
X163242010Y-105574879D01*
X163254532Y-105556103D01*
X163302379Y-105511485D01*
X163343051Y-105468775D01*
X163361589Y-105456271D01*
X163382437Y-105436830D01*
X163434095Y-105407365D01*
X163478149Y-105377650D01*
X163504441Y-105367240D01*
X163534351Y-105350180D01*
X163585708Y-105335065D01*
X163629658Y-105317664D01*
X163663399Y-105312199D01*
X163702123Y-105300802D01*
X163749661Y-105298227D01*
X163790517Y-105291610D01*
X163830533Y-105293847D01*
X163876756Y-105291344D01*
X163917782Y-105298726D01*
G37*
G36*
X159037782Y-105298726D02*
G01*
X159073218Y-105300707D01*
X159117485Y-105313067D01*
X159168880Y-105322314D01*
X159201669Y-105336571D01*
X159230167Y-105344528D01*
X159275935Y-105368863D01*
X159329263Y-105392051D01*
X159353142Y-105409914D01*
X159374049Y-105421031D01*
X159417986Y-105458424D01*
X159469302Y-105496813D01*
X159484621Y-105515134D01*
X159498145Y-105526644D01*
X159536548Y-105577238D01*
X159581484Y-105630981D01*
X159589517Y-105647023D01*
X159596669Y-105656445D01*
X159625725Y-105719328D01*
X159659792Y-105787358D01*
X159662550Y-105799024D01*
X159665019Y-105804368D01*
X159681062Y-105877336D01*
X159700025Y-105957556D01*
X159699951Y-105966936D01*
X159699375Y-106131925D01*
X159698630Y-106135205D01*
X159698559Y-106144214D01*
X159679217Y-106220652D01*
X159663322Y-106290615D01*
X159659409Y-106298930D01*
X159655657Y-106313759D01*
X159622074Y-106378272D01*
X159593938Y-106438064D01*
X159584712Y-106450045D01*
X159574903Y-106468887D01*
X159531296Y-106519405D01*
X159494514Y-106567168D01*
X159478389Y-106580698D01*
X159460627Y-106601276D01*
X159411390Y-106636918D01*
X159369682Y-106671915D01*
X159345785Y-106684408D01*
X159318960Y-106703826D01*
X159268314Y-106724908D01*
X159225271Y-106747410D01*
X159193557Y-106756026D01*
X159157502Y-106771035D01*
X159109214Y-106778942D01*
X159068018Y-106790135D01*
X159029296Y-106792029D01*
X158984912Y-106799297D01*
X158942021Y-106796298D01*
X158905259Y-106798096D01*
X158861229Y-106790649D01*
X158810450Y-106787098D01*
X158775049Y-106776072D01*
X158744584Y-106770919D01*
X158697744Y-106751994D01*
X158643473Y-106735091D01*
X158616662Y-106719235D01*
X158593498Y-106709876D01*
X158546984Y-106678027D01*
X158492939Y-106646065D01*
X158474773Y-106628584D01*
X158459040Y-106617811D01*
X158416458Y-106572466D01*
X158366923Y-106524797D01*
X158356486Y-106508601D01*
X158347491Y-106499023D01*
X158312685Y-106440635D01*
X158272185Y-106377792D01*
X158267741Y-106365242D01*
X158264052Y-106359054D01*
X158240844Y-106289288D01*
X158213806Y-106212935D01*
X158213011Y-106205619D01*
X158212614Y-106204425D01*
X158204650Y-106128651D01*
X158194918Y-106039069D01*
X158205298Y-105955735D01*
X158213745Y-105880426D01*
X158215217Y-105876101D01*
X158216535Y-105865522D01*
X158243528Y-105792940D01*
X158266259Y-105726169D01*
X158271703Y-105717180D01*
X158277496Y-105701603D01*
X158317114Y-105642198D01*
X158350676Y-105586781D01*
X158362010Y-105574879D01*
X158374532Y-105556103D01*
X158422379Y-105511485D01*
X158463051Y-105468775D01*
X158481589Y-105456271D01*
X158502437Y-105436830D01*
X158554095Y-105407365D01*
X158598149Y-105377650D01*
X158624441Y-105367240D01*
X158654351Y-105350180D01*
X158705708Y-105335065D01*
X158749658Y-105317664D01*
X158783399Y-105312199D01*
X158822123Y-105300802D01*
X158869661Y-105298227D01*
X158910517Y-105291610D01*
X158950533Y-105293847D01*
X158996756Y-105291344D01*
X159037782Y-105298726D01*
G37*
M02*
