M48
; DRILL file {KiCad (5.99.0-823-ga085f82be)} date Saturday, April 11, 2020 at 02:48:06 PM
; FORMAT={-:-/ absolute / metric / decimal}
; #@! TF.CreationDate,2020-04-11T14:48:06-07:00
; #@! TF.GenerationSoftware,Kicad,Pcbnew,(5.99.0-823-ga085f82be)
FMAT,2
METRIC
T1C0.400
T2C0.800
T3C0.920
T4C1.090
T5C2.330
T6C3.200
%
G90
G05
T1
X156.206Y-118.099
X158.75Y-116.84
X159.131Y-111.76
X160.401Y-111.506
X160.528Y-117.729
X161.671Y-111.506
X162.56Y-115.57
X165.354Y-113.665
X165.735Y-121.285
X166.37Y-109.22
X168.91Y-106.68
X170.18Y-104.14
X170.18Y-109.855
T2
X158.95Y-106.045
X163.83Y-106.045
T3
X176.53Y-110.49
X176.53Y-112.99
X178.53Y-110.49
X178.53Y-112.99
T4
X148.59Y-107.95
X148.59Y-110.49
X95.25Y-107.95
X95.25Y-110.49
X95.25Y-113.03
X95.25Y-115.57
X130.81Y-107.95
X130.81Y-110.49
X130.81Y-113.03
X130.81Y-115.57
X77.47Y-107.95
X77.47Y-110.49
X77.47Y-113.03
X77.47Y-115.57
X139.7Y-107.95
X139.7Y-110.49
X139.7Y-113.03
X139.7Y-115.57
X86.36Y-107.95
X86.36Y-110.49
X86.36Y-113.03
X86.36Y-115.57
X121.92Y-107.95
X121.92Y-110.49
X121.92Y-113.03
X121.92Y-115.57
X104.14Y-107.95
X104.14Y-110.49
X104.14Y-113.03
X104.14Y-115.57
X113.03Y-107.95
X113.03Y-110.49
X113.03Y-113.03
X113.03Y-115.57
T5
X181.24Y-105.72
X181.24Y-117.76
T6
X68.58Y-118.11
X147.32Y-118.11
T0
M30
