G04 #@! TF.GenerationSoftware,KiCad,Pcbnew,(5.99.0-823-ga085f82be)*
G04 #@! TF.CreationDate,2020-04-11T14:47:26-07:00*
G04 #@! TF.ProjectId,USBtoTTL_Serial,55534274-6f54-4544-9c5f-53657269616c,n/c*
G04 #@! TF.SameCoordinates,Original*
G04 #@! TF.FileFunction,Copper,L1,Top*
G04 #@! TF.FilePolarity,Positive*
%FSLAX46Y46*%
G04 Gerber Fmt 4.6, Leading zero omitted, Abs format (unit mm)*
G04 Created by KiCad (PCBNEW (5.99.0-823-ga085f82be)) date 2020-04-11 14:47:26*
%MOMM*%
%LPD*%
G04 APERTURE LIST*
%ADD10C,1.740000*%
%ADD11R,1.700000X1.700000*%
%ADD12C,1.700000*%
%ADD13C,3.500000*%
%ADD14R,0.600000X1.950000*%
%ADD15C,1.500000*%
%ADD16C,0.800000*%
%ADD17C,0.635000*%
%ADD18C,0.304800*%
%ADD19C,0.254000*%
G04 APERTURE END LIST*
D10*
X139700000Y-115570000D03*
X139700000Y-113030000D03*
X139700000Y-110490000D03*
G04 #@! TA.AperFunction,ComponentPad*
G36*
X140415671Y-107099030D02*
G01*
X140496777Y-107153223D01*
X140550970Y-107234329D01*
X140570000Y-107329999D01*
X140570000Y-108570001D01*
X140550970Y-108665671D01*
X140496777Y-108746777D01*
X140415671Y-108800970D01*
X140320001Y-108820000D01*
X139079999Y-108820000D01*
X138984329Y-108800970D01*
X138903223Y-108746777D01*
X138849030Y-108665671D01*
X138830000Y-108570001D01*
X138830000Y-107329999D01*
X138849030Y-107234329D01*
X138903223Y-107153223D01*
X138984329Y-107099030D01*
X139079999Y-107080000D01*
X140320001Y-107080000D01*
X140415671Y-107099030D01*
G37*
G04 #@! TD.AperFunction*
X130810000Y-115570000D03*
X130810000Y-113030000D03*
X130810000Y-110490000D03*
G04 #@! TA.AperFunction,ComponentPad*
G36*
X131525671Y-107099030D02*
G01*
X131606777Y-107153223D01*
X131660970Y-107234329D01*
X131680000Y-107329999D01*
X131680000Y-108570001D01*
X131660970Y-108665671D01*
X131606777Y-108746777D01*
X131525671Y-108800970D01*
X131430001Y-108820000D01*
X130189999Y-108820000D01*
X130094329Y-108800970D01*
X130013223Y-108746777D01*
X129959030Y-108665671D01*
X129940000Y-108570001D01*
X129940000Y-107329999D01*
X129959030Y-107234329D01*
X130013223Y-107153223D01*
X130094329Y-107099030D01*
X130189999Y-107080000D01*
X131430001Y-107080000D01*
X131525671Y-107099030D01*
G37*
G04 #@! TD.AperFunction*
X121920000Y-115570000D03*
X121920000Y-113030000D03*
X121920000Y-110490000D03*
G04 #@! TA.AperFunction,ComponentPad*
G36*
X122635671Y-107099030D02*
G01*
X122716777Y-107153223D01*
X122770970Y-107234329D01*
X122790000Y-107329999D01*
X122790000Y-108570001D01*
X122770970Y-108665671D01*
X122716777Y-108746777D01*
X122635671Y-108800970D01*
X122540001Y-108820000D01*
X121299999Y-108820000D01*
X121204329Y-108800970D01*
X121123223Y-108746777D01*
X121069030Y-108665671D01*
X121050000Y-108570001D01*
X121050000Y-107329999D01*
X121069030Y-107234329D01*
X121123223Y-107153223D01*
X121204329Y-107099030D01*
X121299999Y-107080000D01*
X122540001Y-107080000D01*
X122635671Y-107099030D01*
G37*
G04 #@! TD.AperFunction*
X113030000Y-115570000D03*
X113030000Y-113030000D03*
X113030000Y-110490000D03*
G04 #@! TA.AperFunction,ComponentPad*
G36*
X113745671Y-107099030D02*
G01*
X113826777Y-107153223D01*
X113880970Y-107234329D01*
X113900000Y-107329999D01*
X113900000Y-108570001D01*
X113880970Y-108665671D01*
X113826777Y-108746777D01*
X113745671Y-108800970D01*
X113650001Y-108820000D01*
X112409999Y-108820000D01*
X112314329Y-108800970D01*
X112233223Y-108746777D01*
X112179030Y-108665671D01*
X112160000Y-108570001D01*
X112160000Y-107329999D01*
X112179030Y-107234329D01*
X112233223Y-107153223D01*
X112314329Y-107099030D01*
X112409999Y-107080000D01*
X113650001Y-107080000D01*
X113745671Y-107099030D01*
G37*
G04 #@! TD.AperFunction*
X104140000Y-115570000D03*
X104140000Y-113030000D03*
X104140000Y-110490000D03*
G04 #@! TA.AperFunction,ComponentPad*
G36*
X104855671Y-107099030D02*
G01*
X104936777Y-107153223D01*
X104990970Y-107234329D01*
X105010000Y-107329999D01*
X105010000Y-108570001D01*
X104990970Y-108665671D01*
X104936777Y-108746777D01*
X104855671Y-108800970D01*
X104760001Y-108820000D01*
X103519999Y-108820000D01*
X103424329Y-108800970D01*
X103343223Y-108746777D01*
X103289030Y-108665671D01*
X103270000Y-108570001D01*
X103270000Y-107329999D01*
X103289030Y-107234329D01*
X103343223Y-107153223D01*
X103424329Y-107099030D01*
X103519999Y-107080000D01*
X104760001Y-107080000D01*
X104855671Y-107099030D01*
G37*
G04 #@! TD.AperFunction*
X95250000Y-115570000D03*
X95250000Y-113030000D03*
X95250000Y-110490000D03*
G04 #@! TA.AperFunction,ComponentPad*
G36*
X95965671Y-107099030D02*
G01*
X96046777Y-107153223D01*
X96100970Y-107234329D01*
X96120000Y-107329999D01*
X96120000Y-108570001D01*
X96100970Y-108665671D01*
X96046777Y-108746777D01*
X95965671Y-108800970D01*
X95870001Y-108820000D01*
X94629999Y-108820000D01*
X94534329Y-108800970D01*
X94453223Y-108746777D01*
X94399030Y-108665671D01*
X94380000Y-108570001D01*
X94380000Y-107329999D01*
X94399030Y-107234329D01*
X94453223Y-107153223D01*
X94534329Y-107099030D01*
X94629999Y-107080000D01*
X95870001Y-107080000D01*
X95965671Y-107099030D01*
G37*
G04 #@! TD.AperFunction*
X86360000Y-115570000D03*
X86360000Y-113030000D03*
X86360000Y-110490000D03*
G04 #@! TA.AperFunction,ComponentPad*
G36*
X87075671Y-107099030D02*
G01*
X87156777Y-107153223D01*
X87210970Y-107234329D01*
X87230000Y-107329999D01*
X87230000Y-108570001D01*
X87210970Y-108665671D01*
X87156777Y-108746777D01*
X87075671Y-108800970D01*
X86980001Y-108820000D01*
X85739999Y-108820000D01*
X85644329Y-108800970D01*
X85563223Y-108746777D01*
X85509030Y-108665671D01*
X85490000Y-108570001D01*
X85490000Y-107329999D01*
X85509030Y-107234329D01*
X85563223Y-107153223D01*
X85644329Y-107099030D01*
X85739999Y-107080000D01*
X86980001Y-107080000D01*
X87075671Y-107099030D01*
G37*
G04 #@! TD.AperFunction*
X77470000Y-115570000D03*
X77470000Y-113030000D03*
X77470000Y-110490000D03*
G04 #@! TA.AperFunction,ComponentPad*
G36*
X78185671Y-107099030D02*
G01*
X78266777Y-107153223D01*
X78320970Y-107234329D01*
X78340000Y-107329999D01*
X78340000Y-108570001D01*
X78320970Y-108665671D01*
X78266777Y-108746777D01*
X78185671Y-108800970D01*
X78090001Y-108820000D01*
X76849999Y-108820000D01*
X76754329Y-108800970D01*
X76673223Y-108746777D01*
X76619030Y-108665671D01*
X76600000Y-108570001D01*
X76600000Y-107329999D01*
X76619030Y-107234329D01*
X76673223Y-107153223D01*
X76754329Y-107099030D01*
X76849999Y-107080000D01*
X78090001Y-107080000D01*
X78185671Y-107099030D01*
G37*
G04 #@! TD.AperFunction*
X148590000Y-110490000D03*
G04 #@! TA.AperFunction,ComponentPad*
G36*
X149305671Y-107099030D02*
G01*
X149386777Y-107153223D01*
X149440970Y-107234329D01*
X149460000Y-107329999D01*
X149460000Y-108570001D01*
X149440970Y-108665671D01*
X149386777Y-108746777D01*
X149305671Y-108800970D01*
X149210001Y-108820000D01*
X147969999Y-108820000D01*
X147874329Y-108800970D01*
X147793223Y-108746777D01*
X147739030Y-108665671D01*
X147720000Y-108570001D01*
X147720000Y-107329999D01*
X147739030Y-107234329D01*
X147793223Y-107153223D01*
X147874329Y-107099030D01*
X147969999Y-107080000D01*
X149210001Y-107080000D01*
X149305671Y-107099030D01*
G37*
G04 #@! TD.AperFunction*
D11*
X176530000Y-110490000D03*
D12*
X176530000Y-112990000D03*
X178530000Y-112990000D03*
X178530000Y-110490000D03*
D13*
X181240000Y-105720000D03*
X181240000Y-117760000D03*
D14*
X165608000Y-110235000D03*
X164338000Y-110235000D03*
X163068000Y-110235000D03*
X161798000Y-110235000D03*
X160528000Y-110235000D03*
X159258000Y-110235000D03*
X157988000Y-110235000D03*
X156718000Y-110235000D03*
X155448000Y-110235000D03*
X154178000Y-110235000D03*
X154178000Y-119635000D03*
X155448000Y-119635000D03*
X156718000Y-119635000D03*
X157988000Y-119635000D03*
X159258000Y-119635000D03*
X160528000Y-119635000D03*
X161798000Y-119635000D03*
X163068000Y-119635000D03*
X164338000Y-119635000D03*
X165608000Y-119635000D03*
D15*
X163830000Y-106045000D03*
X158950000Y-106045000D03*
D16*
X170180000Y-104140000D03*
X170180000Y-109855000D03*
X168910000Y-106680000D03*
X160528000Y-117729000D03*
X165354000Y-113665000D03*
X166370000Y-109220000D03*
X159131000Y-111760000D03*
X160401000Y-111506000D03*
X161671000Y-111506000D03*
X156205761Y-118098790D03*
X162560000Y-115570000D03*
X158750000Y-116840000D03*
X165735000Y-121285000D03*
D17*
X170180000Y-109855000D02*
X170180000Y-104140000D01*
X165354000Y-113665000D02*
X165354000Y-112776000D01*
X168910000Y-109220000D02*
X168910000Y-106680000D01*
X165354000Y-112776000D02*
X168910000Y-109220000D01*
D18*
X164338000Y-106553000D02*
X163830000Y-106045000D01*
X164338000Y-110235000D02*
X164338000Y-106553000D01*
X159699999Y-106794999D02*
X158950000Y-106045000D01*
X163068000Y-109560000D02*
X160302999Y-106794999D01*
X160302999Y-106794999D02*
X159699999Y-106794999D01*
X163068000Y-110235000D02*
X163068000Y-109560000D01*
X161798000Y-118999000D02*
X160528000Y-117729000D01*
X161798000Y-119635000D02*
X161798000Y-118999000D01*
X166370000Y-109473000D02*
X165608000Y-110235000D01*
X166370000Y-109220000D02*
X166370000Y-109473000D01*
X159131000Y-110362000D02*
X159258000Y-110235000D01*
X159131000Y-111760000D02*
X159131000Y-110362000D01*
X160401000Y-110362000D02*
X160528000Y-110235000D01*
X160401000Y-111506000D02*
X160401000Y-110362000D01*
X163068000Y-119635000D02*
X163068000Y-118355200D01*
X161671000Y-110362000D02*
X161798000Y-110235000D01*
X161671000Y-111506000D02*
X161671000Y-110362000D01*
D17*
X77470000Y-115570000D02*
X86360000Y-115570000D01*
X86360000Y-115570000D02*
X95250000Y-115570000D01*
X95250000Y-115570000D02*
X104140000Y-115570000D01*
X104140000Y-115570000D02*
X113030000Y-115570000D01*
X113030000Y-115570000D02*
X121920000Y-115570000D01*
X121920000Y-115570000D02*
X130810000Y-115570000D01*
X130810000Y-115570000D02*
X139700000Y-115570000D01*
X154178000Y-110235000D02*
X154178000Y-108458000D01*
X154178000Y-108458000D02*
X151130000Y-105410000D01*
X151130000Y-105410000D02*
X146050000Y-105410000D01*
X146050000Y-105410000D02*
X144780000Y-106680000D01*
X144780000Y-106680000D02*
X144780000Y-111760000D01*
X140970000Y-115570000D02*
X139700000Y-115570000D01*
X144780000Y-111760000D02*
X140970000Y-115570000D01*
X155448000Y-118856551D02*
X155448000Y-119635000D01*
X156205761Y-118098790D02*
X155448000Y-118856551D01*
X180870000Y-110490000D02*
X181240000Y-110120000D01*
X178530000Y-110490000D02*
X180870000Y-110490000D01*
X181240000Y-110120000D02*
X181240000Y-117760000D01*
X181240000Y-105720000D02*
X181240000Y-110120000D01*
X162560000Y-115570000D02*
X161329098Y-115570000D01*
X160020000Y-115570000D02*
X158750000Y-116840000D01*
X161329098Y-115570000D02*
X160020000Y-115570000D01*
X165735000Y-119762000D02*
X165608000Y-119635000D01*
X165735000Y-121285000D02*
X165735000Y-119762000D01*
D18*
X164338000Y-119635000D02*
X164338000Y-118237000D01*
X164338000Y-118237000D02*
X164465000Y-118110000D01*
X164465000Y-118110000D02*
X175260000Y-118110000D01*
X178530000Y-114840000D02*
X178530000Y-112990000D01*
X175260000Y-118110000D02*
X178530000Y-114840000D01*
X163889100Y-117534100D02*
X173930900Y-117534100D01*
X163068000Y-118355200D02*
X163889100Y-117534100D01*
X176530000Y-114935000D02*
X176530000Y-112990000D01*
X173930900Y-117534100D02*
X176530000Y-114935000D01*
D17*
X165735000Y-121285000D02*
X165735000Y-120650000D01*
X165735000Y-120650000D02*
X166370000Y-120015000D01*
X178985000Y-120015000D02*
X181240000Y-117760000D01*
X166370000Y-120015000D02*
X178985000Y-120015000D01*
G36*
X179859473Y-103770196D02*
G01*
X179852659Y-103775038D01*
X179709924Y-103891451D01*
X179704261Y-104003242D01*
X181187809Y-105486790D01*
X181292191Y-105486790D01*
X182777502Y-104001479D01*
X182769271Y-103886665D01*
X182544677Y-103718648D01*
X182537666Y-103714095D01*
X182388985Y-103631000D01*
X184659000Y-103631000D01*
X184659000Y-121159000D01*
X166240057Y-121159000D01*
X166392590Y-121031010D01*
X166406761Y-121014121D01*
X166507359Y-120839880D01*
X166514900Y-120819163D01*
X166548878Y-120626462D01*
X166549837Y-120615501D01*
X166549837Y-119836809D01*
X166476028Y-119763000D01*
X165480000Y-119762999D01*
X165480001Y-119507000D01*
X166476028Y-119507001D01*
X166504759Y-119478270D01*
X179702749Y-119478270D01*
X179705585Y-119586503D01*
X179759307Y-119634871D01*
X179765875Y-119640039D01*
X180020275Y-119814231D01*
X180027471Y-119818486D01*
X180302675Y-119957501D01*
X180310370Y-119960768D01*
X180601542Y-120062165D01*
X180609602Y-120064385D01*
X180911627Y-120126382D01*
X180919909Y-120127517D01*
X181227480Y-120149024D01*
X181235840Y-120149053D01*
X181543554Y-120129693D01*
X181551844Y-120128616D01*
X181854295Y-120068730D01*
X181862369Y-120066566D01*
X182154243Y-119967205D01*
X182161961Y-119963992D01*
X182438129Y-119826901D01*
X182445354Y-119822696D01*
X182700965Y-119650284D01*
X182707570Y-119645161D01*
X182773573Y-119586561D01*
X182776800Y-119477819D01*
X181292191Y-117993210D01*
X181187809Y-117993210D01*
X179702749Y-119478270D01*
X166504759Y-119478270D01*
X166549837Y-119433192D01*
X166549837Y-118898400D01*
X175171681Y-118898400D01*
X175187277Y-118901929D01*
X175205173Y-118903369D01*
X175285263Y-118898400D01*
X175312040Y-118898400D01*
X175320981Y-118897763D01*
X175340436Y-118894977D01*
X175412468Y-118890508D01*
X175430047Y-118886868D01*
X175451739Y-118879037D01*
X175474574Y-118875767D01*
X175491805Y-118870728D01*
X175557512Y-118840853D01*
X175625586Y-118816278D01*
X175641753Y-118807618D01*
X175659516Y-118794474D01*
X175680874Y-118784763D01*
X175695999Y-118775091D01*
X175758560Y-118721184D01*
X175774865Y-118709119D01*
X175781950Y-118703015D01*
X175796286Y-118688678D01*
X175853341Y-118639517D01*
X175865143Y-118625988D01*
X175876503Y-118608461D01*
X176779155Y-117705809D01*
X178851558Y-117705809D01*
X178864470Y-118013860D01*
X178865372Y-118022171D01*
X178918912Y-118325810D01*
X178920906Y-118333928D01*
X179014133Y-118627819D01*
X179017183Y-118635602D01*
X179148461Y-118914580D01*
X179152514Y-118921892D01*
X179319535Y-119181057D01*
X179324519Y-119187768D01*
X179412792Y-119291490D01*
X179523062Y-119295919D01*
X181006790Y-117812191D01*
X181006790Y-117707809D01*
X181473210Y-117707809D01*
X181473210Y-117812191D01*
X182957154Y-119296135D01*
X183066915Y-119292110D01*
X183145467Y-119201105D01*
X183150498Y-119194429D01*
X183319324Y-118936437D01*
X183323428Y-118929153D01*
X183456650Y-118651098D01*
X183459755Y-118643336D01*
X183555031Y-118350105D01*
X183557081Y-118342001D01*
X183612879Y-118037985D01*
X183613896Y-118028137D01*
X183624161Y-117608149D01*
X183623626Y-117598262D01*
X183582746Y-117291884D01*
X183581094Y-117283689D01*
X183500255Y-116986152D01*
X183497533Y-116978248D01*
X183378053Y-116694017D01*
X183374310Y-116686542D01*
X183218289Y-116420611D01*
X183213590Y-116413696D01*
X183070590Y-116230665D01*
X182957284Y-116223735D01*
X181473210Y-117707809D01*
X181006790Y-117707809D01*
X179519527Y-116220546D01*
X179403212Y-116230109D01*
X179211764Y-116497522D01*
X179207359Y-116504627D01*
X179062610Y-116776859D01*
X179059183Y-116784484D01*
X178951710Y-117073470D01*
X178949322Y-117081481D01*
X178881014Y-117382142D01*
X178879706Y-117390399D01*
X178851763Y-117697452D01*
X178851558Y-117705809D01*
X176779155Y-117705809D01*
X178441722Y-116043242D01*
X179704261Y-116043242D01*
X181187809Y-117526790D01*
X181292191Y-117526790D01*
X182777502Y-116041479D01*
X182769271Y-115926665D01*
X182544677Y-115758648D01*
X182537666Y-115754095D01*
X182268525Y-115603677D01*
X182260973Y-115600091D01*
X181974302Y-115486590D01*
X181966343Y-115484035D01*
X181667179Y-115409445D01*
X181658951Y-115407964D01*
X181352550Y-115373596D01*
X181344199Y-115373217D01*
X181035944Y-115379674D01*
X181027616Y-115380403D01*
X180722923Y-115427572D01*
X180714765Y-115429395D01*
X180418987Y-115516448D01*
X180411142Y-115519334D01*
X180129475Y-115644739D01*
X180122080Y-115648638D01*
X179859473Y-115810196D01*
X179852659Y-115815038D01*
X179709924Y-115931451D01*
X179704261Y-116043242D01*
X178441722Y-116043242D01*
X179025028Y-115459937D01*
X179038555Y-115451402D01*
X179052227Y-115439766D01*
X179105355Y-115379610D01*
X179124280Y-115360686D01*
X179130152Y-115353914D01*
X179141936Y-115338191D01*
X179189715Y-115284091D01*
X179199571Y-115269086D01*
X179209372Y-115248210D01*
X179223204Y-115229755D01*
X179231826Y-115214007D01*
X179257160Y-115146427D01*
X179287922Y-115080907D01*
X179293230Y-115063353D01*
X179296497Y-115041494D01*
X179304732Y-115019526D01*
X179308587Y-115001994D01*
X179314707Y-114919651D01*
X179317707Y-114899572D01*
X179318400Y-114890249D01*
X179318400Y-114869959D01*
X179323980Y-114794870D01*
X179322759Y-114776958D01*
X179318400Y-114756538D01*
X179318400Y-114247793D01*
X179391330Y-114204491D01*
X179400012Y-114198286D01*
X179583645Y-114042004D01*
X179591158Y-114034424D01*
X179745833Y-113849435D01*
X179751962Y-113840698D01*
X179873256Y-113632294D01*
X179877825Y-113622650D01*
X179962272Y-113396787D01*
X179965151Y-113386511D01*
X180010392Y-113149351D01*
X180011507Y-113138128D01*
X180014077Y-112870341D01*
X180013178Y-112859099D01*
X179972499Y-112621114D01*
X179969817Y-112610784D01*
X179889723Y-112383343D01*
X179885339Y-112373612D01*
X179768067Y-112162916D01*
X179762107Y-112154064D01*
X179611013Y-111966140D01*
X179603647Y-111958417D01*
X179423049Y-111798638D01*
X179414486Y-111792267D01*
X179330842Y-111740406D01*
X179412936Y-111691662D01*
X179428285Y-111569304D01*
X178348980Y-110490000D01*
X178401171Y-110437809D01*
X178763210Y-110437809D01*
X178763210Y-110542191D01*
X179610119Y-111389100D01*
X179733085Y-111373129D01*
X179873256Y-111132294D01*
X179877825Y-111122650D01*
X179962272Y-110896787D01*
X179965151Y-110886511D01*
X180010392Y-110649351D01*
X180011507Y-110638128D01*
X180014077Y-110370341D01*
X180013178Y-110359099D01*
X179972499Y-110121114D01*
X179969817Y-110110784D01*
X179889723Y-109883343D01*
X179885339Y-109873612D01*
X179768068Y-109662917D01*
X179762109Y-109654066D01*
X179718981Y-109600422D01*
X179606682Y-109594337D01*
X178763210Y-110437809D01*
X178401171Y-110437809D01*
X179426767Y-109412214D01*
X179412765Y-109291199D01*
X179209549Y-109165201D01*
X179200036Y-109160365D01*
X178976619Y-109069645D01*
X178966427Y-109066480D01*
X178730919Y-109014700D01*
X178720340Y-109013298D01*
X178479475Y-109001939D01*
X178468809Y-109002339D01*
X178229474Y-109031727D01*
X178219030Y-109033918D01*
X177988068Y-109103210D01*
X177978142Y-109107130D01*
X177824496Y-109183400D01*
X177801010Y-109155410D01*
X177784121Y-109141239D01*
X177609880Y-109040641D01*
X177589163Y-109033100D01*
X177396462Y-108999122D01*
X177385501Y-108998163D01*
X175671742Y-108998163D01*
X175655366Y-109000319D01*
X175376142Y-109075137D01*
X175351662Y-109087880D01*
X175195410Y-109218990D01*
X175181239Y-109235879D01*
X175080641Y-109410120D01*
X175073100Y-109430837D01*
X175039122Y-109623538D01*
X175038163Y-109634499D01*
X175038163Y-111348258D01*
X175040319Y-111364634D01*
X175115137Y-111643859D01*
X175127880Y-111668339D01*
X175258990Y-111824590D01*
X175275879Y-111838761D01*
X175450120Y-111939359D01*
X175470837Y-111946900D01*
X175473824Y-111947427D01*
X175382029Y-112041822D01*
X175375263Y-112050074D01*
X175238683Y-112248798D01*
X175233403Y-112258073D01*
X175132260Y-112476968D01*
X175128618Y-112487000D01*
X175065802Y-112719807D01*
X175063903Y-112730309D01*
X175041211Y-112970372D01*
X175041109Y-112981043D01*
X175059188Y-113221497D01*
X175060885Y-113232034D01*
X175119221Y-113466005D01*
X175122669Y-113476104D01*
X175219591Y-113696900D01*
X175224692Y-113706275D01*
X175357430Y-113907584D01*
X175364038Y-113915965D01*
X175528798Y-114092032D01*
X175536722Y-114099180D01*
X175728792Y-114244968D01*
X175737808Y-114250678D01*
X175741600Y-114252652D01*
X175741600Y-114608435D01*
X173604336Y-116745700D01*
X163977419Y-116745700D01*
X163961823Y-116742171D01*
X163943927Y-116740731D01*
X163863837Y-116745700D01*
X163837060Y-116745700D01*
X163828118Y-116746337D01*
X163808663Y-116749123D01*
X163736630Y-116753592D01*
X163719050Y-116757233D01*
X163697360Y-116765063D01*
X163674528Y-116768333D01*
X163657295Y-116773372D01*
X163591592Y-116803246D01*
X163523515Y-116827822D01*
X163507348Y-116836482D01*
X163489585Y-116849625D01*
X163468226Y-116859337D01*
X163453102Y-116869009D01*
X163390546Y-116922910D01*
X163374232Y-116934982D01*
X163367148Y-116941086D01*
X163352807Y-116955428D01*
X163295759Y-117004584D01*
X163283956Y-117018114D01*
X163272597Y-117035639D01*
X162572974Y-117735262D01*
X162559445Y-117743798D01*
X162545773Y-117755434D01*
X162492640Y-117815596D01*
X162473719Y-117834516D01*
X162467846Y-117841290D01*
X162456067Y-117857007D01*
X162408287Y-117911109D01*
X162398431Y-117926113D01*
X162388629Y-117946990D01*
X162374795Y-117965449D01*
X162366174Y-117981196D01*
X162340839Y-118048777D01*
X162333693Y-118063997D01*
X162327880Y-118060641D01*
X162307163Y-118053100D01*
X162114462Y-118019122D01*
X162103501Y-118018163D01*
X161932128Y-118018163D01*
X161564000Y-117650035D01*
X161564000Y-117600938D01*
X161561844Y-117584562D01*
X161495554Y-117337165D01*
X161489233Y-117321905D01*
X161361171Y-117100095D01*
X161351116Y-117086991D01*
X161170009Y-116905884D01*
X161156905Y-116895829D01*
X160935095Y-116767767D01*
X160919835Y-116761446D01*
X160672438Y-116695156D01*
X160656062Y-116693000D01*
X160399938Y-116693000D01*
X160383562Y-116695156D01*
X160191956Y-116746497D01*
X160414953Y-116523500D01*
X162139511Y-116523500D01*
X162152905Y-116531233D01*
X162168165Y-116537554D01*
X162415562Y-116603844D01*
X162431938Y-116606000D01*
X162688062Y-116606000D01*
X162704438Y-116603844D01*
X162951835Y-116537554D01*
X162967095Y-116531233D01*
X163188905Y-116403171D01*
X163202009Y-116393116D01*
X163383116Y-116212009D01*
X163393171Y-116198905D01*
X163521233Y-115977095D01*
X163527554Y-115961835D01*
X163593844Y-115714438D01*
X163596000Y-115698062D01*
X163596000Y-115441938D01*
X163593844Y-115425562D01*
X163527554Y-115178165D01*
X163521233Y-115162905D01*
X163393171Y-114941095D01*
X163383116Y-114927991D01*
X163202009Y-114746884D01*
X163188905Y-114736829D01*
X162967095Y-114608767D01*
X162951835Y-114602446D01*
X162704438Y-114536156D01*
X162688062Y-114534000D01*
X162431938Y-114534000D01*
X162415562Y-114536156D01*
X162168165Y-114602446D01*
X162152905Y-114608767D01*
X162139511Y-114616500D01*
X160082489Y-114616500D01*
X160028258Y-114609360D01*
X160011740Y-114609360D01*
X159949321Y-114617578D01*
X159779345Y-114639956D01*
X159763391Y-114644231D01*
X159546832Y-114733933D01*
X159532528Y-114742191D01*
X159346564Y-114884885D01*
X159334885Y-114896565D01*
X159301586Y-114939961D01*
X158373105Y-115868443D01*
X158358165Y-115872446D01*
X158342905Y-115878767D01*
X158121095Y-116006829D01*
X158107991Y-116016884D01*
X157926884Y-116197991D01*
X157916829Y-116211095D01*
X157788767Y-116432905D01*
X157782446Y-116448165D01*
X157716156Y-116695562D01*
X157714000Y-116711938D01*
X157714000Y-116968062D01*
X157716156Y-116984438D01*
X157782446Y-117231835D01*
X157788767Y-117247095D01*
X157916829Y-117468905D01*
X157926884Y-117482009D01*
X158107991Y-117663116D01*
X158121095Y-117673171D01*
X158342905Y-117801233D01*
X158358165Y-117807554D01*
X158605562Y-117873844D01*
X158621938Y-117876000D01*
X158878062Y-117876000D01*
X158894438Y-117873844D01*
X159141835Y-117807554D01*
X159157095Y-117801233D01*
X159378905Y-117673171D01*
X159392009Y-117663116D01*
X159502792Y-117552333D01*
X159494156Y-117584562D01*
X159492000Y-117600938D01*
X159492000Y-117857062D01*
X159494156Y-117873438D01*
X159532935Y-118018163D01*
X158949742Y-118018163D01*
X158933366Y-118020319D01*
X158654142Y-118095137D01*
X158629662Y-118107880D01*
X158617449Y-118118127D01*
X158517880Y-118060641D01*
X158497163Y-118053100D01*
X158304462Y-118019122D01*
X158293501Y-118018163D01*
X157679742Y-118018163D01*
X157663366Y-118020319D01*
X157384142Y-118095137D01*
X157359662Y-118107880D01*
X157347449Y-118118127D01*
X157247880Y-118060641D01*
X157241761Y-118058414D01*
X157241761Y-117970728D01*
X157239605Y-117954352D01*
X157173315Y-117706955D01*
X157166994Y-117691695D01*
X157038932Y-117469885D01*
X157028877Y-117456781D01*
X156847770Y-117275674D01*
X156834666Y-117265619D01*
X156612856Y-117137557D01*
X156597596Y-117131236D01*
X156350199Y-117064946D01*
X156333823Y-117062790D01*
X156077699Y-117062790D01*
X156061323Y-117064946D01*
X155813926Y-117131236D01*
X155798666Y-117137557D01*
X155576856Y-117265619D01*
X155563752Y-117275674D01*
X155382645Y-117456781D01*
X155372590Y-117469885D01*
X155244528Y-117691695D01*
X155238207Y-117706954D01*
X155234203Y-117721895D01*
X154867118Y-118088980D01*
X154844142Y-118095137D01*
X154819662Y-118107880D01*
X154807449Y-118118127D01*
X154707880Y-118060641D01*
X154687163Y-118053100D01*
X154494462Y-118019122D01*
X154483501Y-118018163D01*
X153869742Y-118018163D01*
X153853366Y-118020319D01*
X153574142Y-118095137D01*
X153549662Y-118107880D01*
X153393410Y-118238990D01*
X153379239Y-118255879D01*
X153278641Y-118430120D01*
X153271100Y-118450837D01*
X153237122Y-118643538D01*
X153236163Y-118654499D01*
X153236163Y-120618258D01*
X153238319Y-120634634D01*
X153313137Y-120913859D01*
X153325880Y-120938339D01*
X153456990Y-121094590D01*
X153473879Y-121108761D01*
X153560896Y-121159000D01*
X65531000Y-121159000D01*
X65531000Y-118234598D01*
X66344541Y-118234598D01*
X66345035Y-118243164D01*
X66382133Y-118536832D01*
X66383785Y-118545252D01*
X66460397Y-118831168D01*
X66463176Y-118839285D01*
X66577881Y-119112159D01*
X66581736Y-119119824D01*
X66732413Y-119374606D01*
X66737273Y-119381677D01*
X66921134Y-119613652D01*
X66926909Y-119619998D01*
X67140551Y-119824873D01*
X67147133Y-119830377D01*
X67386605Y-120004363D01*
X67393873Y-120008922D01*
X67654740Y-120148798D01*
X67662560Y-120152329D01*
X67939998Y-120255507D01*
X67948224Y-120257944D01*
X68237098Y-120322514D01*
X68245579Y-120323812D01*
X68540543Y-120348581D01*
X68549122Y-120348716D01*
X68844718Y-120333225D01*
X68853236Y-120332194D01*
X69143996Y-120276728D01*
X69152295Y-120274551D01*
X69432836Y-120180138D01*
X69440762Y-120176855D01*
X69705895Y-120045242D01*
X69713303Y-120040914D01*
X69958121Y-119874536D01*
X69964873Y-119869242D01*
X70184846Y-119671178D01*
X70190816Y-119665016D01*
X70381873Y-119438930D01*
X70386953Y-119432015D01*
X70545559Y-119182093D01*
X70549653Y-119174553D01*
X70672873Y-118905417D01*
X70675905Y-118897391D01*
X70761459Y-118614022D01*
X70763375Y-118605659D01*
X70809731Y-118312974D01*
X70810505Y-118303766D01*
X70811229Y-118234598D01*
X145084541Y-118234598D01*
X145085035Y-118243164D01*
X145122133Y-118536832D01*
X145123785Y-118545252D01*
X145200397Y-118831168D01*
X145203176Y-118839285D01*
X145317881Y-119112159D01*
X145321736Y-119119824D01*
X145472413Y-119374606D01*
X145477273Y-119381677D01*
X145661134Y-119613652D01*
X145666909Y-119619998D01*
X145880551Y-119824873D01*
X145887133Y-119830377D01*
X146126605Y-120004363D01*
X146133873Y-120008922D01*
X146394740Y-120148798D01*
X146402560Y-120152329D01*
X146679998Y-120255507D01*
X146688224Y-120257944D01*
X146977098Y-120322514D01*
X146985579Y-120323812D01*
X147280543Y-120348581D01*
X147289122Y-120348716D01*
X147584718Y-120333225D01*
X147593236Y-120332194D01*
X147883996Y-120276728D01*
X147892295Y-120274551D01*
X148172836Y-120180138D01*
X148180762Y-120176855D01*
X148445895Y-120045242D01*
X148453303Y-120040914D01*
X148698121Y-119874536D01*
X148704873Y-119869242D01*
X148924846Y-119671178D01*
X148930816Y-119665016D01*
X149121873Y-119438930D01*
X149126953Y-119432015D01*
X149285559Y-119182093D01*
X149289653Y-119174553D01*
X149412873Y-118905417D01*
X149415905Y-118897391D01*
X149501459Y-118614022D01*
X149503375Y-118605659D01*
X149549731Y-118312974D01*
X149550505Y-118303766D01*
X149554073Y-117962988D01*
X149553493Y-117953766D01*
X149513276Y-117660176D01*
X149511536Y-117651774D01*
X149431936Y-117366675D01*
X149429072Y-117358588D01*
X149311515Y-117086930D01*
X149307580Y-117079306D01*
X149154243Y-116826116D01*
X149149309Y-116819096D01*
X148963029Y-116589060D01*
X148957188Y-116582775D01*
X148741412Y-116380147D01*
X148734772Y-116374713D01*
X148493493Y-116203244D01*
X148486177Y-116198761D01*
X148223859Y-116061625D01*
X148216003Y-116058176D01*
X147937500Y-115957909D01*
X147929248Y-115955558D01*
X147639715Y-115894016D01*
X147631220Y-115892807D01*
X147336013Y-115871128D01*
X147327433Y-115871083D01*
X147032015Y-115889669D01*
X147023508Y-115890789D01*
X146733346Y-115949297D01*
X146725070Y-115951561D01*
X146445533Y-116048905D01*
X146437641Y-116052272D01*
X146173901Y-116186654D01*
X146166539Y-116191060D01*
X145923476Y-116359992D01*
X145916781Y-116365357D01*
X145698894Y-116565713D01*
X145692988Y-116571937D01*
X145504309Y-116800011D01*
X145499302Y-116806979D01*
X145343323Y-117058549D01*
X145339308Y-117066131D01*
X145218912Y-117336543D01*
X145215964Y-117344601D01*
X145133382Y-117628850D01*
X145131554Y-117637233D01*
X145088313Y-117930059D01*
X145087640Y-117938613D01*
X145084541Y-118234598D01*
X70811229Y-118234598D01*
X70814073Y-117962988D01*
X70813493Y-117953766D01*
X70773276Y-117660176D01*
X70771536Y-117651774D01*
X70691936Y-117366675D01*
X70689072Y-117358588D01*
X70571515Y-117086930D01*
X70567580Y-117079306D01*
X70414243Y-116826116D01*
X70409309Y-116819096D01*
X70223029Y-116589060D01*
X70217188Y-116582775D01*
X70001412Y-116380147D01*
X69994772Y-116374713D01*
X69753493Y-116203244D01*
X69746177Y-116198761D01*
X69483859Y-116061625D01*
X69476003Y-116058176D01*
X69197500Y-115957909D01*
X69189248Y-115955558D01*
X68899715Y-115894016D01*
X68891220Y-115892807D01*
X68596013Y-115871128D01*
X68587433Y-115871083D01*
X68292015Y-115889669D01*
X68283508Y-115890789D01*
X67993346Y-115949297D01*
X67985070Y-115951561D01*
X67705533Y-116048905D01*
X67697641Y-116052272D01*
X67433901Y-116186654D01*
X67426539Y-116191060D01*
X67183476Y-116359992D01*
X67176781Y-116365357D01*
X66958894Y-116565713D01*
X66952988Y-116571937D01*
X66764309Y-116800011D01*
X66759302Y-116806979D01*
X66603323Y-117058549D01*
X66599308Y-117066131D01*
X66478912Y-117336543D01*
X66475964Y-117344601D01*
X66393382Y-117628850D01*
X66391554Y-117637233D01*
X66348313Y-117930059D01*
X66347640Y-117938613D01*
X66344541Y-118234598D01*
X65531000Y-118234598D01*
X65531000Y-113020851D01*
X75961037Y-113020851D01*
X75979371Y-113264689D01*
X75981068Y-113275226D01*
X76040225Y-113512490D01*
X76043673Y-113522589D01*
X76141959Y-113746493D01*
X76147060Y-113755868D01*
X76281668Y-113960011D01*
X76288275Y-113968392D01*
X76455353Y-114146937D01*
X76463278Y-114154084D01*
X76657184Y-114301268D01*
X76485043Y-114426796D01*
X76476982Y-114433791D01*
X76306507Y-114609095D01*
X76299740Y-114617347D01*
X76161239Y-114818868D01*
X76155959Y-114828143D01*
X76053392Y-115050120D01*
X76049751Y-115060151D01*
X75986049Y-115296235D01*
X75984150Y-115306737D01*
X75961139Y-115550180D01*
X75961037Y-115560851D01*
X75979371Y-115804689D01*
X75981068Y-115815226D01*
X76040225Y-116052490D01*
X76043673Y-116062589D01*
X76141959Y-116286493D01*
X76147060Y-116295868D01*
X76281668Y-116500011D01*
X76288275Y-116508392D01*
X76455353Y-116686937D01*
X76463278Y-116694084D01*
X76658051Y-116841926D01*
X76667067Y-116847636D01*
X76883965Y-116960546D01*
X76893814Y-116964656D01*
X77126636Y-117039407D01*
X77137037Y-117041798D01*
X77379124Y-117076253D01*
X77389779Y-117076858D01*
X77634211Y-117070030D01*
X77644816Y-117068831D01*
X77884603Y-117020917D01*
X77894854Y-117017948D01*
X78123139Y-116930318D01*
X78132743Y-116925665D01*
X78343001Y-116800823D01*
X78351683Y-116794618D01*
X78537901Y-116636135D01*
X78545414Y-116628556D01*
X78633254Y-116523500D01*
X85192412Y-116523500D01*
X85345353Y-116686937D01*
X85353278Y-116694084D01*
X85548051Y-116841926D01*
X85557067Y-116847636D01*
X85773965Y-116960546D01*
X85783814Y-116964656D01*
X86016636Y-117039407D01*
X86027037Y-117041798D01*
X86269124Y-117076253D01*
X86279779Y-117076858D01*
X86524211Y-117070030D01*
X86534816Y-117068831D01*
X86774603Y-117020917D01*
X86784854Y-117017948D01*
X87013139Y-116930318D01*
X87022743Y-116925665D01*
X87233001Y-116800823D01*
X87241683Y-116794618D01*
X87427901Y-116636135D01*
X87435414Y-116628556D01*
X87523254Y-116523500D01*
X94082412Y-116523500D01*
X94235353Y-116686937D01*
X94243278Y-116694084D01*
X94438051Y-116841926D01*
X94447067Y-116847636D01*
X94663965Y-116960546D01*
X94673814Y-116964656D01*
X94906636Y-117039407D01*
X94917037Y-117041798D01*
X95159124Y-117076253D01*
X95169779Y-117076858D01*
X95414211Y-117070030D01*
X95424816Y-117068831D01*
X95664603Y-117020917D01*
X95674854Y-117017948D01*
X95903139Y-116930318D01*
X95912743Y-116925665D01*
X96123001Y-116800823D01*
X96131683Y-116794618D01*
X96317901Y-116636135D01*
X96325414Y-116628556D01*
X96413254Y-116523500D01*
X102972412Y-116523500D01*
X103125353Y-116686937D01*
X103133278Y-116694084D01*
X103328051Y-116841926D01*
X103337067Y-116847636D01*
X103553965Y-116960546D01*
X103563814Y-116964656D01*
X103796636Y-117039407D01*
X103807037Y-117041798D01*
X104049124Y-117076253D01*
X104059779Y-117076858D01*
X104304211Y-117070030D01*
X104314816Y-117068831D01*
X104554603Y-117020917D01*
X104564854Y-117017948D01*
X104793139Y-116930318D01*
X104802743Y-116925665D01*
X105013001Y-116800823D01*
X105021683Y-116794618D01*
X105207901Y-116636135D01*
X105215414Y-116628556D01*
X105303254Y-116523500D01*
X111862412Y-116523500D01*
X112015353Y-116686937D01*
X112023278Y-116694084D01*
X112218051Y-116841926D01*
X112227067Y-116847636D01*
X112443965Y-116960546D01*
X112453814Y-116964656D01*
X112686636Y-117039407D01*
X112697037Y-117041798D01*
X112939124Y-117076253D01*
X112949779Y-117076858D01*
X113194211Y-117070030D01*
X113204816Y-117068831D01*
X113444603Y-117020917D01*
X113454854Y-117017948D01*
X113683139Y-116930318D01*
X113692743Y-116925665D01*
X113903001Y-116800823D01*
X113911683Y-116794618D01*
X114097901Y-116636135D01*
X114105414Y-116628556D01*
X114193254Y-116523500D01*
X120752412Y-116523500D01*
X120905353Y-116686937D01*
X120913278Y-116694084D01*
X121108051Y-116841926D01*
X121117067Y-116847636D01*
X121333965Y-116960546D01*
X121343814Y-116964656D01*
X121576636Y-117039407D01*
X121587037Y-117041798D01*
X121829124Y-117076253D01*
X121839779Y-117076858D01*
X122084211Y-117070030D01*
X122094816Y-117068831D01*
X122334603Y-117020917D01*
X122344854Y-117017948D01*
X122573139Y-116930318D01*
X122582743Y-116925665D01*
X122793001Y-116800823D01*
X122801683Y-116794618D01*
X122987901Y-116636135D01*
X122995414Y-116628556D01*
X123083254Y-116523500D01*
X129642412Y-116523500D01*
X129795353Y-116686937D01*
X129803278Y-116694084D01*
X129998051Y-116841926D01*
X130007067Y-116847636D01*
X130223965Y-116960546D01*
X130233814Y-116964656D01*
X130466636Y-117039407D01*
X130477037Y-117041798D01*
X130719124Y-117076253D01*
X130729779Y-117076858D01*
X130974211Y-117070030D01*
X130984816Y-117068831D01*
X131224603Y-117020917D01*
X131234854Y-117017948D01*
X131463139Y-116930318D01*
X131472743Y-116925665D01*
X131683001Y-116800823D01*
X131691683Y-116794618D01*
X131877901Y-116636135D01*
X131885414Y-116628556D01*
X131973254Y-116523500D01*
X138532412Y-116523500D01*
X138685353Y-116686937D01*
X138693278Y-116694084D01*
X138888051Y-116841926D01*
X138897067Y-116847636D01*
X139113965Y-116960546D01*
X139123814Y-116964656D01*
X139356636Y-117039407D01*
X139367037Y-117041798D01*
X139609124Y-117076253D01*
X139619779Y-117076858D01*
X139864211Y-117070030D01*
X139874816Y-117068831D01*
X140114603Y-117020917D01*
X140124854Y-117017948D01*
X140353139Y-116930318D01*
X140362743Y-116925665D01*
X140573001Y-116800823D01*
X140581683Y-116794618D01*
X140767901Y-116636135D01*
X140775414Y-116628556D01*
X140863254Y-116523500D01*
X140907508Y-116523500D01*
X140961741Y-116530640D01*
X140978259Y-116530640D01*
X141040680Y-116522422D01*
X141210655Y-116500044D01*
X141226609Y-116495769D01*
X141443168Y-116406067D01*
X141457472Y-116397809D01*
X141643436Y-116255115D01*
X141655115Y-116243436D01*
X141688424Y-116200027D01*
X145410031Y-112478421D01*
X145453436Y-112445115D01*
X145465115Y-112433436D01*
X145607809Y-112247472D01*
X145616067Y-112233168D01*
X145705769Y-112016609D01*
X145710044Y-112000655D01*
X145732422Y-111830679D01*
X145740640Y-111768259D01*
X145740640Y-111751741D01*
X145733500Y-111697508D01*
X145733500Y-111579931D01*
X147681088Y-111579931D01*
X147688882Y-111694244D01*
X147778051Y-111761926D01*
X147787067Y-111767637D01*
X148003965Y-111880546D01*
X148013814Y-111884656D01*
X148246636Y-111959407D01*
X148257037Y-111961798D01*
X148499124Y-111996253D01*
X148509779Y-111996858D01*
X148754211Y-111990030D01*
X148764816Y-111988831D01*
X149004603Y-111940917D01*
X149014854Y-111937948D01*
X149243139Y-111850318D01*
X149252743Y-111845665D01*
X149487532Y-111706258D01*
X149502881Y-111583900D01*
X148642191Y-110723210D01*
X148537809Y-110723210D01*
X147681088Y-111579931D01*
X145733500Y-111579931D01*
X145733500Y-110480851D01*
X147081037Y-110480851D01*
X147099371Y-110724689D01*
X147101068Y-110735226D01*
X147160225Y-110972490D01*
X147163673Y-110982589D01*
X147261959Y-111206493D01*
X147267060Y-111215868D01*
X147380275Y-111387568D01*
X147499321Y-111399660D01*
X148356790Y-110542191D01*
X148356790Y-110437809D01*
X148823210Y-110437809D01*
X148823210Y-110542191D01*
X149684748Y-111403729D01*
X149807715Y-111387758D01*
X149951397Y-111140888D01*
X149955966Y-111131243D01*
X150041600Y-110902202D01*
X150044479Y-110891926D01*
X150090357Y-110651432D01*
X150091472Y-110640209D01*
X150094078Y-110368643D01*
X150093179Y-110357401D01*
X150051928Y-110116072D01*
X150049246Y-110105742D01*
X149968024Y-109875098D01*
X149963640Y-109865367D01*
X149844718Y-109651707D01*
X149838759Y-109642855D01*
X149793205Y-109586195D01*
X149680907Y-109580112D01*
X148823210Y-110437809D01*
X148356790Y-110437809D01*
X147499987Y-109581006D01*
X147382303Y-109591819D01*
X147281239Y-109738868D01*
X147275959Y-109748143D01*
X147173392Y-109970120D01*
X147169751Y-109980151D01*
X147106049Y-110216235D01*
X147104150Y-110226737D01*
X147081139Y-110470180D01*
X147081037Y-110480851D01*
X145733500Y-110480851D01*
X145733500Y-107328070D01*
X147080776Y-107328070D01*
X147080776Y-108574184D01*
X147082220Y-108587614D01*
X147155255Y-108923353D01*
X147163885Y-108944188D01*
X147292696Y-109144620D01*
X147304499Y-109158241D01*
X147482849Y-109312783D01*
X147498011Y-109322527D01*
X147692253Y-109411234D01*
X148537809Y-110256790D01*
X148642191Y-110256790D01*
X149500581Y-109398400D01*
X149563353Y-109384745D01*
X149584188Y-109376115D01*
X149784620Y-109247304D01*
X149798241Y-109235501D01*
X149952783Y-109057151D01*
X149962527Y-109041989D01*
X150060561Y-108827324D01*
X150065639Y-108810031D01*
X150098582Y-108580907D01*
X150099224Y-108571930D01*
X150099224Y-107325816D01*
X150097780Y-107312386D01*
X150024745Y-106976647D01*
X150016115Y-106955812D01*
X149887304Y-106755380D01*
X149875501Y-106741759D01*
X149697151Y-106587217D01*
X149681989Y-106577473D01*
X149467324Y-106479439D01*
X149450031Y-106474361D01*
X149220907Y-106441418D01*
X149211930Y-106440776D01*
X147965816Y-106440776D01*
X147952386Y-106442220D01*
X147616647Y-106515255D01*
X147595812Y-106523885D01*
X147395380Y-106652696D01*
X147381759Y-106664499D01*
X147227217Y-106842849D01*
X147217473Y-106858011D01*
X147119439Y-107072676D01*
X147114361Y-107089969D01*
X147081418Y-107319093D01*
X147080776Y-107328070D01*
X145733500Y-107328070D01*
X145733500Y-107074952D01*
X146444953Y-106363500D01*
X150735049Y-106363500D01*
X153224501Y-108852953D01*
X153224500Y-110293357D01*
X153225040Y-110301589D01*
X153236163Y-110386079D01*
X153236163Y-111218258D01*
X153238319Y-111234634D01*
X153313137Y-111513859D01*
X153325880Y-111538339D01*
X153456990Y-111694590D01*
X153473879Y-111708761D01*
X153648120Y-111809359D01*
X153668837Y-111816900D01*
X153861538Y-111850878D01*
X153872499Y-111851837D01*
X154486258Y-111851837D01*
X154502634Y-111849681D01*
X154781859Y-111774863D01*
X154806339Y-111762120D01*
X154818551Y-111751873D01*
X154918120Y-111809359D01*
X154938837Y-111816900D01*
X155131538Y-111850878D01*
X155142499Y-111851837D01*
X155756258Y-111851837D01*
X155772634Y-111849681D01*
X156051859Y-111774863D01*
X156076339Y-111762120D01*
X156088551Y-111751873D01*
X156188120Y-111809359D01*
X156208837Y-111816900D01*
X156401538Y-111850878D01*
X156412499Y-111851837D01*
X157026258Y-111851837D01*
X157042634Y-111849681D01*
X157321859Y-111774863D01*
X157346339Y-111762120D01*
X157358551Y-111751873D01*
X157458120Y-111809359D01*
X157478837Y-111816900D01*
X157671538Y-111850878D01*
X157682499Y-111851837D01*
X158095000Y-111851837D01*
X158095000Y-111888062D01*
X158097156Y-111904438D01*
X158163446Y-112151835D01*
X158169767Y-112167095D01*
X158297829Y-112388905D01*
X158307884Y-112402009D01*
X158488991Y-112583116D01*
X158502095Y-112593171D01*
X158723905Y-112721233D01*
X158739165Y-112727554D01*
X158986562Y-112793844D01*
X159002938Y-112796000D01*
X159259062Y-112796000D01*
X159275438Y-112793844D01*
X159522835Y-112727554D01*
X159538095Y-112721233D01*
X159759905Y-112593171D01*
X159773009Y-112583116D01*
X159927329Y-112428796D01*
X159993905Y-112467233D01*
X160009165Y-112473554D01*
X160256562Y-112539844D01*
X160272938Y-112542000D01*
X160529062Y-112542000D01*
X160545438Y-112539844D01*
X160792835Y-112473554D01*
X160808095Y-112467233D01*
X161029905Y-112339171D01*
X161036000Y-112334494D01*
X161042095Y-112339171D01*
X161263905Y-112467233D01*
X161279165Y-112473554D01*
X161526562Y-112539844D01*
X161542938Y-112542000D01*
X161799062Y-112542000D01*
X161815438Y-112539844D01*
X162062835Y-112473554D01*
X162078095Y-112467233D01*
X162299905Y-112339171D01*
X162313009Y-112329116D01*
X162494116Y-112148009D01*
X162504171Y-112134905D01*
X162632233Y-111913095D01*
X162638554Y-111897835D01*
X162655666Y-111833973D01*
X162751538Y-111850878D01*
X162762499Y-111851837D01*
X163376258Y-111851837D01*
X163392634Y-111849681D01*
X163671859Y-111774863D01*
X163696339Y-111762120D01*
X163708551Y-111751873D01*
X163808120Y-111809359D01*
X163828837Y-111816900D01*
X164021538Y-111850878D01*
X164032499Y-111851837D01*
X164646258Y-111851837D01*
X164662634Y-111849681D01*
X164941859Y-111774863D01*
X164966339Y-111762120D01*
X164978551Y-111751873D01*
X165010963Y-111770586D01*
X164723970Y-112057579D01*
X164680565Y-112090885D01*
X164668886Y-112102565D01*
X164630558Y-112152515D01*
X164526191Y-112288529D01*
X164517933Y-112302833D01*
X164428231Y-112519392D01*
X164423956Y-112535346D01*
X164393360Y-112767741D01*
X164393360Y-112784259D01*
X164400500Y-112838492D01*
X164400500Y-113244511D01*
X164392767Y-113257905D01*
X164386446Y-113273165D01*
X164320156Y-113520562D01*
X164318000Y-113536938D01*
X164318000Y-113793062D01*
X164320156Y-113809438D01*
X164386446Y-114056835D01*
X164392767Y-114072095D01*
X164520829Y-114293905D01*
X164530884Y-114307009D01*
X164711991Y-114488116D01*
X164725095Y-114498171D01*
X164946905Y-114626233D01*
X164962165Y-114632554D01*
X165209562Y-114698844D01*
X165225938Y-114701000D01*
X165482062Y-114701000D01*
X165498438Y-114698844D01*
X165745835Y-114632554D01*
X165761095Y-114626233D01*
X165982905Y-114498171D01*
X165996009Y-114488116D01*
X166177116Y-114307009D01*
X166187171Y-114293905D01*
X166315233Y-114072095D01*
X166321554Y-114056835D01*
X166387844Y-113809438D01*
X166390000Y-113793062D01*
X166390000Y-113536938D01*
X166387844Y-113520562D01*
X166321554Y-113273165D01*
X166315233Y-113257905D01*
X166307500Y-113244511D01*
X166307500Y-113170951D01*
X169540035Y-109938417D01*
X169583435Y-109905115D01*
X169595115Y-109893436D01*
X169737809Y-109707472D01*
X169746067Y-109693168D01*
X169835769Y-109476609D01*
X169840044Y-109460655D01*
X169862422Y-109290679D01*
X169870640Y-109228260D01*
X169870640Y-109211742D01*
X169863500Y-109157511D01*
X169863500Y-107438270D01*
X179702749Y-107438270D01*
X179705585Y-107546503D01*
X179759307Y-107594871D01*
X179765875Y-107600039D01*
X180020275Y-107774231D01*
X180027471Y-107778486D01*
X180302675Y-107917501D01*
X180310370Y-107920768D01*
X180601542Y-108022165D01*
X180609602Y-108024385D01*
X180911627Y-108086382D01*
X180919909Y-108087517D01*
X181227480Y-108109024D01*
X181235840Y-108109053D01*
X181543554Y-108089693D01*
X181551844Y-108088616D01*
X181854295Y-108028730D01*
X181862369Y-108026566D01*
X182154243Y-107927205D01*
X182161961Y-107923992D01*
X182438129Y-107786901D01*
X182445354Y-107782696D01*
X182700965Y-107610284D01*
X182707570Y-107605161D01*
X182773573Y-107546561D01*
X182776800Y-107437819D01*
X181292191Y-105953210D01*
X181187809Y-105953210D01*
X179702749Y-107438270D01*
X169863500Y-107438270D01*
X169863500Y-107100489D01*
X169871233Y-107087095D01*
X169877554Y-107071835D01*
X169943844Y-106824438D01*
X169946000Y-106808062D01*
X169946000Y-106551938D01*
X169943844Y-106535562D01*
X169877554Y-106288165D01*
X169871233Y-106272905D01*
X169743171Y-106051095D01*
X169733116Y-106037991D01*
X169552009Y-105856884D01*
X169538905Y-105846829D01*
X169317095Y-105718767D01*
X169301835Y-105712446D01*
X169127784Y-105665809D01*
X178851558Y-105665809D01*
X178864470Y-105973860D01*
X178865372Y-105982171D01*
X178918912Y-106285810D01*
X178920906Y-106293928D01*
X179014133Y-106587819D01*
X179017183Y-106595602D01*
X179148461Y-106874580D01*
X179152514Y-106881892D01*
X179319535Y-107141057D01*
X179324519Y-107147768D01*
X179412792Y-107251490D01*
X179523062Y-107255919D01*
X181006790Y-105772191D01*
X181006790Y-105667809D01*
X181473210Y-105667809D01*
X181473210Y-105772191D01*
X182957154Y-107256135D01*
X183066915Y-107252110D01*
X183145467Y-107161105D01*
X183150498Y-107154429D01*
X183319324Y-106896437D01*
X183323428Y-106889153D01*
X183456650Y-106611098D01*
X183459755Y-106603336D01*
X183555031Y-106310105D01*
X183557081Y-106302001D01*
X183612879Y-105997985D01*
X183613896Y-105988137D01*
X183624161Y-105568149D01*
X183623626Y-105558262D01*
X183582746Y-105251884D01*
X183581094Y-105243689D01*
X183500255Y-104946152D01*
X183497533Y-104938248D01*
X183378053Y-104654017D01*
X183374310Y-104646542D01*
X183218289Y-104380611D01*
X183213590Y-104373696D01*
X183070590Y-104190665D01*
X182957284Y-104183735D01*
X181473210Y-105667809D01*
X181006790Y-105667809D01*
X179519527Y-104180546D01*
X179403212Y-104190109D01*
X179211764Y-104457522D01*
X179207359Y-104464627D01*
X179062610Y-104736859D01*
X179059183Y-104744484D01*
X178951710Y-105033470D01*
X178949322Y-105041481D01*
X178881014Y-105342142D01*
X178879706Y-105350399D01*
X178851763Y-105657452D01*
X178851558Y-105665809D01*
X169127784Y-105665809D01*
X169054438Y-105646156D01*
X169038062Y-105644000D01*
X168781938Y-105644000D01*
X168765562Y-105646156D01*
X168518165Y-105712446D01*
X168502905Y-105718767D01*
X168281095Y-105846829D01*
X168267991Y-105856884D01*
X168086884Y-106037991D01*
X168076829Y-106051095D01*
X167948767Y-106272905D01*
X167942446Y-106288165D01*
X167876156Y-106535562D01*
X167874000Y-106551938D01*
X167874000Y-106808062D01*
X167876156Y-106824438D01*
X167942446Y-107071836D01*
X167948767Y-107087096D01*
X167956501Y-107100492D01*
X167956500Y-108825048D01*
X167398988Y-109382560D01*
X167403844Y-109364438D01*
X167406000Y-109348062D01*
X167406000Y-109091938D01*
X167403844Y-109075562D01*
X167337554Y-108828165D01*
X167331233Y-108812905D01*
X167203171Y-108591095D01*
X167193116Y-108577991D01*
X167012009Y-108396884D01*
X166998905Y-108386829D01*
X166777095Y-108258767D01*
X166761835Y-108252446D01*
X166514438Y-108186156D01*
X166498062Y-108184000D01*
X166241938Y-108184000D01*
X166225562Y-108186156D01*
X165978165Y-108252446D01*
X165962905Y-108258767D01*
X165741095Y-108386829D01*
X165727991Y-108396884D01*
X165546884Y-108577991D01*
X165536829Y-108591095D01*
X165521201Y-108618163D01*
X165299742Y-108618163D01*
X165283366Y-108620319D01*
X165126400Y-108662378D01*
X165126400Y-106641318D01*
X165129929Y-106625722D01*
X165131369Y-106607826D01*
X165126754Y-106533438D01*
X165147070Y-106486490D01*
X165150594Y-106475834D01*
X165204624Y-106245474D01*
X165206271Y-106232704D01*
X165214209Y-105929582D01*
X165213233Y-105916742D01*
X165171332Y-105683870D01*
X165168371Y-105673045D01*
X165086183Y-105452048D01*
X165081351Y-105441919D01*
X164961327Y-105238969D01*
X164954778Y-105229855D01*
X164800711Y-105051367D01*
X164792651Y-105043557D01*
X164609412Y-104895173D01*
X164600097Y-104888914D01*
X164393478Y-104775323D01*
X164383201Y-104770812D01*
X164159731Y-104695606D01*
X164148819Y-104692986D01*
X163915563Y-104658542D01*
X163904359Y-104657896D01*
X163668690Y-104665302D01*
X163657549Y-104666651D01*
X163426916Y-104715673D01*
X163416189Y-104718973D01*
X163197883Y-104808063D01*
X163187911Y-104813210D01*
X162988831Y-104939549D01*
X162979927Y-104946382D01*
X162806367Y-105105979D01*
X162798814Y-105114280D01*
X162656259Y-105302089D01*
X162650295Y-105311596D01*
X162543251Y-105521682D01*
X162539065Y-105532095D01*
X162470915Y-105757817D01*
X162468639Y-105768807D01*
X162441539Y-106003028D01*
X162441245Y-106014247D01*
X162456050Y-106249567D01*
X162457748Y-106260661D01*
X162513991Y-106489640D01*
X162517626Y-106500257D01*
X162613528Y-106715657D01*
X162618986Y-106725463D01*
X162751517Y-106920477D01*
X162758625Y-106929161D01*
X162923595Y-107097624D01*
X162932129Y-107104912D01*
X163124324Y-107241498D01*
X163134013Y-107247160D01*
X163347358Y-107347552D01*
X163357897Y-107351409D01*
X163549601Y-107402776D01*
X163549600Y-108648240D01*
X163384462Y-108619122D01*
X163373501Y-108618163D01*
X163241128Y-108618163D01*
X160922939Y-106299975D01*
X160914401Y-106286443D01*
X160902765Y-106272771D01*
X160842602Y-106219638D01*
X160823683Y-106200718D01*
X160816910Y-106194846D01*
X160801202Y-106183073D01*
X160747090Y-106135284D01*
X160732085Y-106125428D01*
X160711204Y-106115624D01*
X160692751Y-106101794D01*
X160677003Y-106093173D01*
X160609437Y-106067844D01*
X160543906Y-106037077D01*
X160526351Y-106031769D01*
X160504493Y-106028502D01*
X160482526Y-106020267D01*
X160464992Y-106016412D01*
X160382649Y-106010292D01*
X160362571Y-106007292D01*
X160353247Y-106006599D01*
X160332944Y-106006599D01*
X160332194Y-106006543D01*
X160334209Y-105929581D01*
X160333233Y-105916742D01*
X160291332Y-105683870D01*
X160288371Y-105673045D01*
X160206183Y-105452048D01*
X160201351Y-105441919D01*
X160081327Y-105238969D01*
X160074778Y-105229855D01*
X159920711Y-105051367D01*
X159912651Y-105043557D01*
X159729412Y-104895173D01*
X159720097Y-104888914D01*
X159513478Y-104775323D01*
X159503201Y-104770812D01*
X159279731Y-104695606D01*
X159268819Y-104692986D01*
X159035563Y-104658542D01*
X159024359Y-104657896D01*
X158788690Y-104665302D01*
X158777549Y-104666651D01*
X158546916Y-104715673D01*
X158536189Y-104718973D01*
X158317883Y-104808063D01*
X158307911Y-104813210D01*
X158108831Y-104939549D01*
X158099927Y-104946382D01*
X157926367Y-105105979D01*
X157918814Y-105114280D01*
X157776259Y-105302089D01*
X157770295Y-105311596D01*
X157663251Y-105521682D01*
X157659065Y-105532095D01*
X157590915Y-105757817D01*
X157588639Y-105768807D01*
X157561539Y-106003028D01*
X157561245Y-106014247D01*
X157576050Y-106249567D01*
X157577748Y-106260661D01*
X157633991Y-106489640D01*
X157637626Y-106500257D01*
X157733528Y-106715657D01*
X157738986Y-106725463D01*
X157871517Y-106920477D01*
X157878625Y-106929161D01*
X158043595Y-107097624D01*
X158052129Y-107104912D01*
X158244324Y-107241498D01*
X158254013Y-107247160D01*
X158467358Y-107347552D01*
X158477897Y-107351409D01*
X158705648Y-107412435D01*
X158716704Y-107414365D01*
X158951661Y-107434095D01*
X158962884Y-107434036D01*
X159197623Y-107411847D01*
X159205679Y-107410353D01*
X159255908Y-107454714D01*
X159270913Y-107464570D01*
X159291790Y-107474372D01*
X159310246Y-107488203D01*
X159325993Y-107496825D01*
X159393570Y-107522158D01*
X159459092Y-107552921D01*
X159476646Y-107558229D01*
X159498505Y-107561496D01*
X159520473Y-107569731D01*
X159538005Y-107573586D01*
X159620348Y-107579706D01*
X159640427Y-107582706D01*
X159649750Y-107583399D01*
X159670040Y-107583399D01*
X159745129Y-107588979D01*
X159763040Y-107587758D01*
X159783460Y-107583399D01*
X159976435Y-107583399D01*
X161051272Y-108658236D01*
X161037163Y-108653100D01*
X160844462Y-108619122D01*
X160833501Y-108618163D01*
X160219742Y-108618163D01*
X160203366Y-108620319D01*
X159924142Y-108695137D01*
X159899662Y-108707880D01*
X159887449Y-108718127D01*
X159787880Y-108660641D01*
X159767163Y-108653100D01*
X159574462Y-108619122D01*
X159563501Y-108618163D01*
X158949742Y-108618163D01*
X158933366Y-108620319D01*
X158654142Y-108695137D01*
X158629662Y-108707880D01*
X158617449Y-108718127D01*
X158517880Y-108660641D01*
X158497163Y-108653100D01*
X158304462Y-108619122D01*
X158293501Y-108618163D01*
X157679742Y-108618163D01*
X157663366Y-108620319D01*
X157384142Y-108695137D01*
X157359662Y-108707880D01*
X157347449Y-108718127D01*
X157247880Y-108660641D01*
X157227163Y-108653100D01*
X157034462Y-108619122D01*
X157023501Y-108618163D01*
X156409742Y-108618163D01*
X156393366Y-108620319D01*
X156114142Y-108695137D01*
X156089662Y-108707880D01*
X156077449Y-108718127D01*
X155977880Y-108660641D01*
X155957163Y-108653100D01*
X155764462Y-108619122D01*
X155753501Y-108618163D01*
X155139741Y-108618163D01*
X155131500Y-108619248D01*
X155131500Y-108520492D01*
X155138640Y-108466259D01*
X155138640Y-108449741D01*
X155108044Y-108217345D01*
X155103769Y-108201391D01*
X155014067Y-107984832D01*
X155005809Y-107970528D01*
X154901442Y-107834513D01*
X154863115Y-107784564D01*
X154851436Y-107772885D01*
X154808031Y-107739579D01*
X151848424Y-104779973D01*
X151815115Y-104736564D01*
X151803436Y-104724885D01*
X151617472Y-104582191D01*
X151603168Y-104573933D01*
X151386609Y-104484231D01*
X151370655Y-104479956D01*
X151200679Y-104457578D01*
X151138259Y-104449360D01*
X151121741Y-104449360D01*
X151067508Y-104456500D01*
X146112489Y-104456500D01*
X146058258Y-104449360D01*
X146041740Y-104449360D01*
X145979321Y-104457578D01*
X145809345Y-104479956D01*
X145793391Y-104484231D01*
X145576832Y-104573933D01*
X145562528Y-104582191D01*
X145376564Y-104724885D01*
X145364885Y-104736564D01*
X145331579Y-104779969D01*
X144149973Y-105961576D01*
X144106564Y-105994885D01*
X144094884Y-106006565D01*
X143999173Y-106131301D01*
X143952191Y-106192530D01*
X143943932Y-106206833D01*
X143854231Y-106423392D01*
X143849956Y-106439346D01*
X143819360Y-106671741D01*
X143819360Y-106688259D01*
X143826500Y-106742492D01*
X143826501Y-111365047D01*
X140723873Y-114467676D01*
X140605031Y-114362534D01*
X140596468Y-114356163D01*
X140506440Y-114300344D01*
X140573001Y-114260823D01*
X140581683Y-114254618D01*
X140767901Y-114096135D01*
X140775414Y-114088556D01*
X140932266Y-113900963D01*
X140938394Y-113892226D01*
X141061397Y-113680888D01*
X141065966Y-113671243D01*
X141151600Y-113442202D01*
X141154479Y-113431926D01*
X141200357Y-113191432D01*
X141201472Y-113180209D01*
X141204078Y-112908643D01*
X141203179Y-112897401D01*
X141161928Y-112656072D01*
X141159246Y-112645742D01*
X141078024Y-112415098D01*
X141073640Y-112405367D01*
X140954718Y-112191706D01*
X140948758Y-112182854D01*
X140795537Y-111992284D01*
X140788171Y-111984562D01*
X140605031Y-111822534D01*
X140596468Y-111816163D01*
X140506440Y-111760344D01*
X140597532Y-111706258D01*
X140612881Y-111583900D01*
X139752191Y-110723210D01*
X139647809Y-110723210D01*
X138791088Y-111579931D01*
X138798882Y-111694244D01*
X138887184Y-111761268D01*
X138715043Y-111886796D01*
X138706982Y-111893791D01*
X138536507Y-112069095D01*
X138529740Y-112077347D01*
X138391239Y-112278868D01*
X138385959Y-112288143D01*
X138283392Y-112510120D01*
X138279751Y-112520151D01*
X138216049Y-112756235D01*
X138214150Y-112766737D01*
X138191139Y-113010180D01*
X138191037Y-113020851D01*
X138209371Y-113264689D01*
X138211068Y-113275226D01*
X138270225Y-113512490D01*
X138273673Y-113522589D01*
X138371959Y-113746493D01*
X138377060Y-113755868D01*
X138511668Y-113960011D01*
X138518275Y-113968392D01*
X138685353Y-114146937D01*
X138693278Y-114154084D01*
X138887184Y-114301268D01*
X138715043Y-114426796D01*
X138706982Y-114433791D01*
X138536507Y-114609095D01*
X138530435Y-114616500D01*
X131973248Y-114616500D01*
X131905537Y-114532284D01*
X131898171Y-114524562D01*
X131715031Y-114362534D01*
X131706468Y-114356163D01*
X131616440Y-114300344D01*
X131683001Y-114260823D01*
X131691683Y-114254618D01*
X131877901Y-114096135D01*
X131885414Y-114088556D01*
X132042266Y-113900963D01*
X132048394Y-113892226D01*
X132171397Y-113680888D01*
X132175966Y-113671243D01*
X132261600Y-113442202D01*
X132264479Y-113431926D01*
X132310357Y-113191432D01*
X132311472Y-113180209D01*
X132314078Y-112908643D01*
X132313179Y-112897401D01*
X132271928Y-112656072D01*
X132269246Y-112645742D01*
X132188024Y-112415098D01*
X132183640Y-112405367D01*
X132064718Y-112191706D01*
X132058758Y-112182854D01*
X131905537Y-111992284D01*
X131898171Y-111984562D01*
X131715031Y-111822534D01*
X131706468Y-111816163D01*
X131616440Y-111760344D01*
X131707532Y-111706258D01*
X131722881Y-111583900D01*
X130862191Y-110723210D01*
X130757809Y-110723210D01*
X129901088Y-111579931D01*
X129908882Y-111694244D01*
X129997184Y-111761268D01*
X129825043Y-111886796D01*
X129816982Y-111893791D01*
X129646507Y-112069095D01*
X129639740Y-112077347D01*
X129501239Y-112278868D01*
X129495959Y-112288143D01*
X129393392Y-112510120D01*
X129389751Y-112520151D01*
X129326049Y-112756235D01*
X129324150Y-112766737D01*
X129301139Y-113010180D01*
X129301037Y-113020851D01*
X129319371Y-113264689D01*
X129321068Y-113275226D01*
X129380225Y-113512490D01*
X129383673Y-113522589D01*
X129481959Y-113746493D01*
X129487060Y-113755868D01*
X129621668Y-113960011D01*
X129628275Y-113968392D01*
X129795353Y-114146937D01*
X129803278Y-114154084D01*
X129997184Y-114301268D01*
X129825043Y-114426796D01*
X129816982Y-114433791D01*
X129646507Y-114609095D01*
X129640435Y-114616500D01*
X123083248Y-114616500D01*
X123015537Y-114532284D01*
X123008171Y-114524562D01*
X122825031Y-114362534D01*
X122816468Y-114356163D01*
X122726440Y-114300344D01*
X122793001Y-114260823D01*
X122801683Y-114254618D01*
X122987901Y-114096135D01*
X122995414Y-114088556D01*
X123152266Y-113900963D01*
X123158394Y-113892226D01*
X123281397Y-113680888D01*
X123285966Y-113671243D01*
X123371600Y-113442202D01*
X123374479Y-113431926D01*
X123420357Y-113191432D01*
X123421472Y-113180209D01*
X123424078Y-112908643D01*
X123423179Y-112897401D01*
X123381928Y-112656072D01*
X123379246Y-112645742D01*
X123298024Y-112415098D01*
X123293640Y-112405367D01*
X123174718Y-112191706D01*
X123168758Y-112182854D01*
X123015537Y-111992284D01*
X123008171Y-111984562D01*
X122825031Y-111822534D01*
X122816468Y-111816163D01*
X122726440Y-111760344D01*
X122817532Y-111706258D01*
X122832881Y-111583900D01*
X121972191Y-110723210D01*
X121867809Y-110723210D01*
X121011088Y-111579931D01*
X121018882Y-111694244D01*
X121107184Y-111761268D01*
X120935043Y-111886796D01*
X120926982Y-111893791D01*
X120756507Y-112069095D01*
X120749740Y-112077347D01*
X120611239Y-112278868D01*
X120605959Y-112288143D01*
X120503392Y-112510120D01*
X120499751Y-112520151D01*
X120436049Y-112756235D01*
X120434150Y-112766737D01*
X120411139Y-113010180D01*
X120411037Y-113020851D01*
X120429371Y-113264689D01*
X120431068Y-113275226D01*
X120490225Y-113512490D01*
X120493673Y-113522589D01*
X120591959Y-113746493D01*
X120597060Y-113755868D01*
X120731668Y-113960011D01*
X120738275Y-113968392D01*
X120905353Y-114146937D01*
X120913278Y-114154084D01*
X121107184Y-114301268D01*
X120935043Y-114426796D01*
X120926982Y-114433791D01*
X120756507Y-114609095D01*
X120750435Y-114616500D01*
X114193248Y-114616500D01*
X114125537Y-114532284D01*
X114118171Y-114524562D01*
X113935031Y-114362534D01*
X113926468Y-114356163D01*
X113836440Y-114300344D01*
X113903001Y-114260823D01*
X113911683Y-114254618D01*
X114097901Y-114096135D01*
X114105414Y-114088556D01*
X114262266Y-113900963D01*
X114268394Y-113892226D01*
X114391397Y-113680888D01*
X114395966Y-113671243D01*
X114481600Y-113442202D01*
X114484479Y-113431926D01*
X114530357Y-113191432D01*
X114531472Y-113180209D01*
X114534078Y-112908643D01*
X114533179Y-112897401D01*
X114491928Y-112656072D01*
X114489246Y-112645742D01*
X114408024Y-112415098D01*
X114403640Y-112405367D01*
X114284718Y-112191706D01*
X114278758Y-112182854D01*
X114125537Y-111992284D01*
X114118171Y-111984562D01*
X113935031Y-111822534D01*
X113926468Y-111816163D01*
X113836440Y-111760344D01*
X113927532Y-111706258D01*
X113942881Y-111583900D01*
X113082191Y-110723210D01*
X112977809Y-110723210D01*
X112121088Y-111579931D01*
X112128882Y-111694244D01*
X112217184Y-111761268D01*
X112045043Y-111886796D01*
X112036982Y-111893791D01*
X111866507Y-112069095D01*
X111859740Y-112077347D01*
X111721239Y-112278868D01*
X111715959Y-112288143D01*
X111613392Y-112510120D01*
X111609751Y-112520151D01*
X111546049Y-112756235D01*
X111544150Y-112766737D01*
X111521139Y-113010180D01*
X111521037Y-113020851D01*
X111539371Y-113264689D01*
X111541068Y-113275226D01*
X111600225Y-113512490D01*
X111603673Y-113522589D01*
X111701959Y-113746493D01*
X111707060Y-113755868D01*
X111841668Y-113960011D01*
X111848275Y-113968392D01*
X112015353Y-114146937D01*
X112023278Y-114154084D01*
X112217184Y-114301268D01*
X112045043Y-114426796D01*
X112036982Y-114433791D01*
X111866507Y-114609095D01*
X111860435Y-114616500D01*
X105303248Y-114616500D01*
X105235537Y-114532284D01*
X105228171Y-114524562D01*
X105045031Y-114362534D01*
X105036468Y-114356163D01*
X104946440Y-114300344D01*
X105013001Y-114260823D01*
X105021683Y-114254618D01*
X105207901Y-114096135D01*
X105215414Y-114088556D01*
X105372266Y-113900963D01*
X105378394Y-113892226D01*
X105501397Y-113680888D01*
X105505966Y-113671243D01*
X105591600Y-113442202D01*
X105594479Y-113431926D01*
X105640357Y-113191432D01*
X105641472Y-113180209D01*
X105644078Y-112908643D01*
X105643179Y-112897401D01*
X105601928Y-112656072D01*
X105599246Y-112645742D01*
X105518024Y-112415098D01*
X105513640Y-112405367D01*
X105394718Y-112191706D01*
X105388758Y-112182854D01*
X105235537Y-111992284D01*
X105228171Y-111984562D01*
X105045031Y-111822534D01*
X105036468Y-111816163D01*
X104946440Y-111760344D01*
X105037532Y-111706258D01*
X105052881Y-111583900D01*
X104192191Y-110723210D01*
X104087809Y-110723210D01*
X103231088Y-111579931D01*
X103238882Y-111694244D01*
X103327184Y-111761268D01*
X103155043Y-111886796D01*
X103146982Y-111893791D01*
X102976507Y-112069095D01*
X102969740Y-112077347D01*
X102831239Y-112278868D01*
X102825959Y-112288143D01*
X102723392Y-112510120D01*
X102719751Y-112520151D01*
X102656049Y-112756235D01*
X102654150Y-112766737D01*
X102631139Y-113010180D01*
X102631037Y-113020851D01*
X102649371Y-113264689D01*
X102651068Y-113275226D01*
X102710225Y-113512490D01*
X102713673Y-113522589D01*
X102811959Y-113746493D01*
X102817060Y-113755868D01*
X102951668Y-113960011D01*
X102958275Y-113968392D01*
X103125353Y-114146937D01*
X103133278Y-114154084D01*
X103327184Y-114301268D01*
X103155043Y-114426796D01*
X103146982Y-114433791D01*
X102976507Y-114609095D01*
X102970435Y-114616500D01*
X96413248Y-114616500D01*
X96345537Y-114532284D01*
X96338171Y-114524562D01*
X96155031Y-114362534D01*
X96146468Y-114356163D01*
X96056440Y-114300344D01*
X96123001Y-114260823D01*
X96131683Y-114254618D01*
X96317901Y-114096135D01*
X96325414Y-114088556D01*
X96482266Y-113900963D01*
X96488394Y-113892226D01*
X96611397Y-113680888D01*
X96615966Y-113671243D01*
X96701600Y-113442202D01*
X96704479Y-113431926D01*
X96750357Y-113191432D01*
X96751472Y-113180209D01*
X96754078Y-112908643D01*
X96753179Y-112897401D01*
X96711928Y-112656072D01*
X96709246Y-112645742D01*
X96628024Y-112415098D01*
X96623640Y-112405367D01*
X96504718Y-112191706D01*
X96498758Y-112182854D01*
X96345537Y-111992284D01*
X96338171Y-111984562D01*
X96155031Y-111822534D01*
X96146468Y-111816163D01*
X96056440Y-111760344D01*
X96147532Y-111706258D01*
X96162881Y-111583900D01*
X95302191Y-110723210D01*
X95197809Y-110723210D01*
X94341088Y-111579931D01*
X94348882Y-111694244D01*
X94437184Y-111761268D01*
X94265043Y-111886796D01*
X94256982Y-111893791D01*
X94086507Y-112069095D01*
X94079740Y-112077347D01*
X93941239Y-112278868D01*
X93935959Y-112288143D01*
X93833392Y-112510120D01*
X93829751Y-112520151D01*
X93766049Y-112756235D01*
X93764150Y-112766737D01*
X93741139Y-113010180D01*
X93741037Y-113020851D01*
X93759371Y-113264689D01*
X93761068Y-113275226D01*
X93820225Y-113512490D01*
X93823673Y-113522589D01*
X93921959Y-113746493D01*
X93927060Y-113755868D01*
X94061668Y-113960011D01*
X94068275Y-113968392D01*
X94235353Y-114146937D01*
X94243278Y-114154084D01*
X94437184Y-114301268D01*
X94265043Y-114426796D01*
X94256982Y-114433791D01*
X94086507Y-114609095D01*
X94080435Y-114616500D01*
X87523248Y-114616500D01*
X87455537Y-114532284D01*
X87448171Y-114524562D01*
X87265031Y-114362534D01*
X87256468Y-114356163D01*
X87166440Y-114300344D01*
X87233001Y-114260823D01*
X87241683Y-114254618D01*
X87427901Y-114096135D01*
X87435414Y-114088556D01*
X87592266Y-113900963D01*
X87598394Y-113892226D01*
X87721397Y-113680888D01*
X87725966Y-113671243D01*
X87811600Y-113442202D01*
X87814479Y-113431926D01*
X87860357Y-113191432D01*
X87861472Y-113180209D01*
X87864078Y-112908643D01*
X87863179Y-112897401D01*
X87821928Y-112656072D01*
X87819246Y-112645742D01*
X87738024Y-112415098D01*
X87733640Y-112405367D01*
X87614718Y-112191706D01*
X87608758Y-112182854D01*
X87455537Y-111992284D01*
X87448171Y-111984562D01*
X87265031Y-111822534D01*
X87256468Y-111816163D01*
X87166440Y-111760344D01*
X87257532Y-111706258D01*
X87272881Y-111583900D01*
X86412191Y-110723210D01*
X86307809Y-110723210D01*
X85451088Y-111579931D01*
X85458882Y-111694244D01*
X85547184Y-111761268D01*
X85375043Y-111886796D01*
X85366982Y-111893791D01*
X85196507Y-112069095D01*
X85189740Y-112077347D01*
X85051239Y-112278868D01*
X85045959Y-112288143D01*
X84943392Y-112510120D01*
X84939751Y-112520151D01*
X84876049Y-112756235D01*
X84874150Y-112766737D01*
X84851139Y-113010180D01*
X84851037Y-113020851D01*
X84869371Y-113264689D01*
X84871068Y-113275226D01*
X84930225Y-113512490D01*
X84933673Y-113522589D01*
X85031959Y-113746493D01*
X85037060Y-113755868D01*
X85171668Y-113960011D01*
X85178275Y-113968392D01*
X85345353Y-114146937D01*
X85353278Y-114154084D01*
X85547184Y-114301268D01*
X85375043Y-114426796D01*
X85366982Y-114433791D01*
X85196507Y-114609095D01*
X85190435Y-114616500D01*
X78633248Y-114616500D01*
X78565537Y-114532284D01*
X78558171Y-114524562D01*
X78375031Y-114362534D01*
X78366468Y-114356163D01*
X78276440Y-114300344D01*
X78343001Y-114260823D01*
X78351683Y-114254618D01*
X78537901Y-114096135D01*
X78545414Y-114088556D01*
X78702266Y-113900963D01*
X78708394Y-113892226D01*
X78831397Y-113680888D01*
X78835966Y-113671243D01*
X78921600Y-113442202D01*
X78924479Y-113431926D01*
X78970357Y-113191432D01*
X78971472Y-113180209D01*
X78974078Y-112908643D01*
X78973179Y-112897401D01*
X78931928Y-112656072D01*
X78929246Y-112645742D01*
X78848024Y-112415098D01*
X78843640Y-112405367D01*
X78724718Y-112191706D01*
X78718758Y-112182854D01*
X78565537Y-111992284D01*
X78558171Y-111984562D01*
X78375031Y-111822534D01*
X78366468Y-111816163D01*
X78276440Y-111760344D01*
X78367532Y-111706258D01*
X78382881Y-111583900D01*
X77522191Y-110723210D01*
X77417809Y-110723210D01*
X76561088Y-111579931D01*
X76568882Y-111694244D01*
X76657184Y-111761268D01*
X76485043Y-111886796D01*
X76476982Y-111893791D01*
X76306507Y-112069095D01*
X76299740Y-112077347D01*
X76161239Y-112278868D01*
X76155959Y-112288143D01*
X76053392Y-112510120D01*
X76049751Y-112520151D01*
X75986049Y-112756235D01*
X75984150Y-112766737D01*
X75961139Y-113010180D01*
X75961037Y-113020851D01*
X65531000Y-113020851D01*
X65531000Y-110480851D01*
X75961037Y-110480851D01*
X75979371Y-110724689D01*
X75981068Y-110735226D01*
X76040225Y-110972490D01*
X76043673Y-110982589D01*
X76141959Y-111206493D01*
X76147060Y-111215868D01*
X76260275Y-111387568D01*
X76379321Y-111399660D01*
X77236790Y-110542191D01*
X77236790Y-110437809D01*
X77703210Y-110437809D01*
X77703210Y-110542191D01*
X78564748Y-111403729D01*
X78687715Y-111387758D01*
X78831397Y-111140888D01*
X78835966Y-111131243D01*
X78921600Y-110902202D01*
X78924479Y-110891926D01*
X78970357Y-110651432D01*
X78971472Y-110640209D01*
X78973001Y-110480851D01*
X84851037Y-110480851D01*
X84869371Y-110724689D01*
X84871068Y-110735226D01*
X84930225Y-110972490D01*
X84933673Y-110982589D01*
X85031959Y-111206493D01*
X85037060Y-111215868D01*
X85150275Y-111387568D01*
X85269321Y-111399660D01*
X86126790Y-110542191D01*
X86126790Y-110437809D01*
X86593210Y-110437809D01*
X86593210Y-110542191D01*
X87454748Y-111403729D01*
X87577715Y-111387758D01*
X87721397Y-111140888D01*
X87725966Y-111131243D01*
X87811600Y-110902202D01*
X87814479Y-110891926D01*
X87860357Y-110651432D01*
X87861472Y-110640209D01*
X87863001Y-110480851D01*
X93741037Y-110480851D01*
X93759371Y-110724689D01*
X93761068Y-110735226D01*
X93820225Y-110972490D01*
X93823673Y-110982589D01*
X93921959Y-111206493D01*
X93927060Y-111215868D01*
X94040275Y-111387568D01*
X94159321Y-111399660D01*
X95016790Y-110542191D01*
X95016790Y-110437809D01*
X95483210Y-110437809D01*
X95483210Y-110542191D01*
X96344748Y-111403729D01*
X96467715Y-111387758D01*
X96611397Y-111140888D01*
X96615966Y-111131243D01*
X96701600Y-110902202D01*
X96704479Y-110891926D01*
X96750357Y-110651432D01*
X96751472Y-110640209D01*
X96753001Y-110480851D01*
X102631037Y-110480851D01*
X102649371Y-110724689D01*
X102651068Y-110735226D01*
X102710225Y-110972490D01*
X102713673Y-110982589D01*
X102811959Y-111206493D01*
X102817060Y-111215868D01*
X102930275Y-111387568D01*
X103049321Y-111399660D01*
X103906790Y-110542191D01*
X103906790Y-110437809D01*
X104373210Y-110437809D01*
X104373210Y-110542191D01*
X105234748Y-111403729D01*
X105357715Y-111387758D01*
X105501397Y-111140888D01*
X105505966Y-111131243D01*
X105591600Y-110902202D01*
X105594479Y-110891926D01*
X105640357Y-110651432D01*
X105641472Y-110640209D01*
X105643001Y-110480851D01*
X111521037Y-110480851D01*
X111539371Y-110724689D01*
X111541068Y-110735226D01*
X111600225Y-110972490D01*
X111603673Y-110982589D01*
X111701959Y-111206493D01*
X111707060Y-111215868D01*
X111820275Y-111387568D01*
X111939321Y-111399660D01*
X112796790Y-110542191D01*
X112796790Y-110437809D01*
X113263210Y-110437809D01*
X113263210Y-110542191D01*
X114124748Y-111403729D01*
X114247715Y-111387758D01*
X114391397Y-111140888D01*
X114395966Y-111131243D01*
X114481600Y-110902202D01*
X114484479Y-110891926D01*
X114530357Y-110651432D01*
X114531472Y-110640209D01*
X114533001Y-110480851D01*
X120411037Y-110480851D01*
X120429371Y-110724689D01*
X120431068Y-110735226D01*
X120490225Y-110972490D01*
X120493673Y-110982589D01*
X120591959Y-111206493D01*
X120597060Y-111215868D01*
X120710275Y-111387568D01*
X120829321Y-111399660D01*
X121686790Y-110542191D01*
X121686790Y-110437809D01*
X122153210Y-110437809D01*
X122153210Y-110542191D01*
X123014748Y-111403729D01*
X123137715Y-111387758D01*
X123281397Y-111140888D01*
X123285966Y-111131243D01*
X123371600Y-110902202D01*
X123374479Y-110891926D01*
X123420357Y-110651432D01*
X123421472Y-110640209D01*
X123423001Y-110480851D01*
X129301037Y-110480851D01*
X129319371Y-110724689D01*
X129321068Y-110735226D01*
X129380225Y-110972490D01*
X129383673Y-110982589D01*
X129481959Y-111206493D01*
X129487060Y-111215868D01*
X129600275Y-111387568D01*
X129719321Y-111399660D01*
X130576790Y-110542191D01*
X130576790Y-110437809D01*
X131043210Y-110437809D01*
X131043210Y-110542191D01*
X131904748Y-111403729D01*
X132027715Y-111387758D01*
X132171397Y-111140888D01*
X132175966Y-111131243D01*
X132261600Y-110902202D01*
X132264479Y-110891926D01*
X132310357Y-110651432D01*
X132311472Y-110640209D01*
X132313001Y-110480851D01*
X138191037Y-110480851D01*
X138209371Y-110724689D01*
X138211068Y-110735226D01*
X138270225Y-110972490D01*
X138273673Y-110982589D01*
X138371959Y-111206493D01*
X138377060Y-111215868D01*
X138490275Y-111387568D01*
X138609321Y-111399660D01*
X139466790Y-110542191D01*
X139466790Y-110437809D01*
X139933210Y-110437809D01*
X139933210Y-110542191D01*
X140794748Y-111403729D01*
X140917715Y-111387758D01*
X141061397Y-111140888D01*
X141065966Y-111131243D01*
X141151600Y-110902202D01*
X141154479Y-110891926D01*
X141200357Y-110651432D01*
X141201472Y-110640209D01*
X141204078Y-110368643D01*
X141203179Y-110357401D01*
X141161928Y-110116072D01*
X141159246Y-110105742D01*
X141078024Y-109875098D01*
X141073640Y-109865367D01*
X140954718Y-109651707D01*
X140948759Y-109642855D01*
X140903205Y-109586195D01*
X140790907Y-109580112D01*
X139933210Y-110437809D01*
X139466790Y-110437809D01*
X138609987Y-109581006D01*
X138492303Y-109591819D01*
X138391239Y-109738868D01*
X138385959Y-109748143D01*
X138283392Y-109970120D01*
X138279751Y-109980151D01*
X138216049Y-110216235D01*
X138214150Y-110226737D01*
X138191139Y-110470180D01*
X138191037Y-110480851D01*
X132313001Y-110480851D01*
X132314078Y-110368643D01*
X132313179Y-110357401D01*
X132271928Y-110116072D01*
X132269246Y-110105742D01*
X132188024Y-109875098D01*
X132183640Y-109865367D01*
X132064718Y-109651707D01*
X132058759Y-109642855D01*
X132013205Y-109586195D01*
X131900907Y-109580112D01*
X131043210Y-110437809D01*
X130576790Y-110437809D01*
X129719987Y-109581006D01*
X129602303Y-109591819D01*
X129501239Y-109738868D01*
X129495959Y-109748143D01*
X129393392Y-109970120D01*
X129389751Y-109980151D01*
X129326049Y-110216235D01*
X129324150Y-110226737D01*
X129301139Y-110470180D01*
X129301037Y-110480851D01*
X123423001Y-110480851D01*
X123424078Y-110368643D01*
X123423179Y-110357401D01*
X123381928Y-110116072D01*
X123379246Y-110105742D01*
X123298024Y-109875098D01*
X123293640Y-109865367D01*
X123174718Y-109651707D01*
X123168759Y-109642855D01*
X123123205Y-109586195D01*
X123010907Y-109580112D01*
X122153210Y-110437809D01*
X121686790Y-110437809D01*
X120829987Y-109581006D01*
X120712303Y-109591819D01*
X120611239Y-109738868D01*
X120605959Y-109748143D01*
X120503392Y-109970120D01*
X120499751Y-109980151D01*
X120436049Y-110216235D01*
X120434150Y-110226737D01*
X120411139Y-110470180D01*
X120411037Y-110480851D01*
X114533001Y-110480851D01*
X114534078Y-110368643D01*
X114533179Y-110357401D01*
X114491928Y-110116072D01*
X114489246Y-110105742D01*
X114408024Y-109875098D01*
X114403640Y-109865367D01*
X114284718Y-109651707D01*
X114278759Y-109642855D01*
X114233205Y-109586195D01*
X114120907Y-109580112D01*
X113263210Y-110437809D01*
X112796790Y-110437809D01*
X111939987Y-109581006D01*
X111822303Y-109591819D01*
X111721239Y-109738868D01*
X111715959Y-109748143D01*
X111613392Y-109970120D01*
X111609751Y-109980151D01*
X111546049Y-110216235D01*
X111544150Y-110226737D01*
X111521139Y-110470180D01*
X111521037Y-110480851D01*
X105643001Y-110480851D01*
X105644078Y-110368643D01*
X105643179Y-110357401D01*
X105601928Y-110116072D01*
X105599246Y-110105742D01*
X105518024Y-109875098D01*
X105513640Y-109865367D01*
X105394718Y-109651707D01*
X105388759Y-109642855D01*
X105343205Y-109586195D01*
X105230907Y-109580112D01*
X104373210Y-110437809D01*
X103906790Y-110437809D01*
X103049987Y-109581006D01*
X102932303Y-109591819D01*
X102831239Y-109738868D01*
X102825959Y-109748143D01*
X102723392Y-109970120D01*
X102719751Y-109980151D01*
X102656049Y-110216235D01*
X102654150Y-110226737D01*
X102631139Y-110470180D01*
X102631037Y-110480851D01*
X96753001Y-110480851D01*
X96754078Y-110368643D01*
X96753179Y-110357401D01*
X96711928Y-110116072D01*
X96709246Y-110105742D01*
X96628024Y-109875098D01*
X96623640Y-109865367D01*
X96504718Y-109651707D01*
X96498759Y-109642855D01*
X96453205Y-109586195D01*
X96340907Y-109580112D01*
X95483210Y-110437809D01*
X95016790Y-110437809D01*
X94159987Y-109581006D01*
X94042303Y-109591819D01*
X93941239Y-109738868D01*
X93935959Y-109748143D01*
X93833392Y-109970120D01*
X93829751Y-109980151D01*
X93766049Y-110216235D01*
X93764150Y-110226737D01*
X93741139Y-110470180D01*
X93741037Y-110480851D01*
X87863001Y-110480851D01*
X87864078Y-110368643D01*
X87863179Y-110357401D01*
X87821928Y-110116072D01*
X87819246Y-110105742D01*
X87738024Y-109875098D01*
X87733640Y-109865367D01*
X87614718Y-109651707D01*
X87608759Y-109642855D01*
X87563205Y-109586195D01*
X87450907Y-109580112D01*
X86593210Y-110437809D01*
X86126790Y-110437809D01*
X85269987Y-109581006D01*
X85152303Y-109591819D01*
X85051239Y-109738868D01*
X85045959Y-109748143D01*
X84943392Y-109970120D01*
X84939751Y-109980151D01*
X84876049Y-110216235D01*
X84874150Y-110226737D01*
X84851139Y-110470180D01*
X84851037Y-110480851D01*
X78973001Y-110480851D01*
X78974078Y-110368643D01*
X78973179Y-110357401D01*
X78931928Y-110116072D01*
X78929246Y-110105742D01*
X78848024Y-109875098D01*
X78843640Y-109865367D01*
X78724718Y-109651707D01*
X78718759Y-109642855D01*
X78673205Y-109586195D01*
X78560907Y-109580112D01*
X77703210Y-110437809D01*
X77236790Y-110437809D01*
X76379987Y-109581006D01*
X76262303Y-109591819D01*
X76161239Y-109738868D01*
X76155959Y-109748143D01*
X76053392Y-109970120D01*
X76049751Y-109980151D01*
X75986049Y-110216235D01*
X75984150Y-110226737D01*
X75961139Y-110470180D01*
X75961037Y-110480851D01*
X65531000Y-110480851D01*
X65531000Y-107328070D01*
X75960776Y-107328070D01*
X75960776Y-108574184D01*
X75962220Y-108587614D01*
X76035255Y-108923353D01*
X76043885Y-108944188D01*
X76172696Y-109144620D01*
X76184499Y-109158241D01*
X76362849Y-109312783D01*
X76378011Y-109322527D01*
X76572253Y-109411234D01*
X77417809Y-110256790D01*
X77522191Y-110256790D01*
X78380581Y-109398400D01*
X78443353Y-109384745D01*
X78464188Y-109376115D01*
X78664620Y-109247304D01*
X78678241Y-109235501D01*
X78832783Y-109057151D01*
X78842527Y-109041989D01*
X78940561Y-108827324D01*
X78945639Y-108810031D01*
X78978582Y-108580907D01*
X78979224Y-108571930D01*
X78979224Y-107328070D01*
X84850776Y-107328070D01*
X84850776Y-108574184D01*
X84852220Y-108587614D01*
X84925255Y-108923353D01*
X84933885Y-108944188D01*
X85062696Y-109144620D01*
X85074499Y-109158241D01*
X85252849Y-109312783D01*
X85268011Y-109322527D01*
X85462253Y-109411234D01*
X86307809Y-110256790D01*
X86412191Y-110256790D01*
X87270581Y-109398400D01*
X87333353Y-109384745D01*
X87354188Y-109376115D01*
X87554620Y-109247304D01*
X87568241Y-109235501D01*
X87722783Y-109057151D01*
X87732527Y-109041989D01*
X87830561Y-108827324D01*
X87835639Y-108810031D01*
X87868582Y-108580907D01*
X87869224Y-108571930D01*
X87869224Y-107328070D01*
X93740776Y-107328070D01*
X93740776Y-108574184D01*
X93742220Y-108587614D01*
X93815255Y-108923353D01*
X93823885Y-108944188D01*
X93952696Y-109144620D01*
X93964499Y-109158241D01*
X94142849Y-109312783D01*
X94158011Y-109322527D01*
X94352253Y-109411234D01*
X95197809Y-110256790D01*
X95302191Y-110256790D01*
X96160581Y-109398400D01*
X96223353Y-109384745D01*
X96244188Y-109376115D01*
X96444620Y-109247304D01*
X96458241Y-109235501D01*
X96612783Y-109057151D01*
X96622527Y-109041989D01*
X96720561Y-108827324D01*
X96725639Y-108810031D01*
X96758582Y-108580907D01*
X96759224Y-108571930D01*
X96759224Y-107328070D01*
X102630776Y-107328070D01*
X102630776Y-108574184D01*
X102632220Y-108587614D01*
X102705255Y-108923353D01*
X102713885Y-108944188D01*
X102842696Y-109144620D01*
X102854499Y-109158241D01*
X103032849Y-109312783D01*
X103048011Y-109322527D01*
X103242253Y-109411234D01*
X104087809Y-110256790D01*
X104192191Y-110256790D01*
X105050581Y-109398400D01*
X105113353Y-109384745D01*
X105134188Y-109376115D01*
X105334620Y-109247304D01*
X105348241Y-109235501D01*
X105502783Y-109057151D01*
X105512527Y-109041989D01*
X105610561Y-108827324D01*
X105615639Y-108810031D01*
X105648582Y-108580907D01*
X105649224Y-108571930D01*
X105649224Y-107328070D01*
X111520776Y-107328070D01*
X111520776Y-108574184D01*
X111522220Y-108587614D01*
X111595255Y-108923353D01*
X111603885Y-108944188D01*
X111732696Y-109144620D01*
X111744499Y-109158241D01*
X111922849Y-109312783D01*
X111938011Y-109322527D01*
X112132253Y-109411234D01*
X112977809Y-110256790D01*
X113082191Y-110256790D01*
X113940581Y-109398400D01*
X114003353Y-109384745D01*
X114024188Y-109376115D01*
X114224620Y-109247304D01*
X114238241Y-109235501D01*
X114392783Y-109057151D01*
X114402527Y-109041989D01*
X114500561Y-108827324D01*
X114505639Y-108810031D01*
X114538582Y-108580907D01*
X114539224Y-108571930D01*
X114539224Y-107328070D01*
X120410776Y-107328070D01*
X120410776Y-108574184D01*
X120412220Y-108587614D01*
X120485255Y-108923353D01*
X120493885Y-108944188D01*
X120622696Y-109144620D01*
X120634499Y-109158241D01*
X120812849Y-109312783D01*
X120828011Y-109322527D01*
X121022253Y-109411234D01*
X121867809Y-110256790D01*
X121972191Y-110256790D01*
X122830581Y-109398400D01*
X122893353Y-109384745D01*
X122914188Y-109376115D01*
X123114620Y-109247304D01*
X123128241Y-109235501D01*
X123282783Y-109057151D01*
X123292527Y-109041989D01*
X123390561Y-108827324D01*
X123395639Y-108810031D01*
X123428582Y-108580907D01*
X123429224Y-108571930D01*
X123429224Y-107328070D01*
X129300776Y-107328070D01*
X129300776Y-108574184D01*
X129302220Y-108587614D01*
X129375255Y-108923353D01*
X129383885Y-108944188D01*
X129512696Y-109144620D01*
X129524499Y-109158241D01*
X129702849Y-109312783D01*
X129718011Y-109322527D01*
X129912253Y-109411234D01*
X130757809Y-110256790D01*
X130862191Y-110256790D01*
X131720581Y-109398400D01*
X131783353Y-109384745D01*
X131804188Y-109376115D01*
X132004620Y-109247304D01*
X132018241Y-109235501D01*
X132172783Y-109057151D01*
X132182527Y-109041989D01*
X132280561Y-108827324D01*
X132285639Y-108810031D01*
X132318582Y-108580907D01*
X132319224Y-108571930D01*
X132319224Y-107328070D01*
X138190776Y-107328070D01*
X138190776Y-108574184D01*
X138192220Y-108587614D01*
X138265255Y-108923353D01*
X138273885Y-108944188D01*
X138402696Y-109144620D01*
X138414499Y-109158241D01*
X138592849Y-109312783D01*
X138608011Y-109322527D01*
X138802253Y-109411234D01*
X139647809Y-110256790D01*
X139752191Y-110256790D01*
X140610581Y-109398400D01*
X140673353Y-109384745D01*
X140694188Y-109376115D01*
X140894620Y-109247304D01*
X140908241Y-109235501D01*
X141062783Y-109057151D01*
X141072527Y-109041989D01*
X141170561Y-108827324D01*
X141175639Y-108810031D01*
X141208582Y-108580907D01*
X141209224Y-108571930D01*
X141209224Y-107325816D01*
X141207780Y-107312386D01*
X141134745Y-106976647D01*
X141126115Y-106955812D01*
X140997304Y-106755380D01*
X140985501Y-106741759D01*
X140807151Y-106587217D01*
X140791989Y-106577473D01*
X140577324Y-106479439D01*
X140560031Y-106474361D01*
X140330907Y-106441418D01*
X140321930Y-106440776D01*
X139075816Y-106440776D01*
X139062386Y-106442220D01*
X138726647Y-106515255D01*
X138705812Y-106523885D01*
X138505380Y-106652696D01*
X138491759Y-106664499D01*
X138337217Y-106842849D01*
X138327473Y-106858011D01*
X138229439Y-107072676D01*
X138224361Y-107089969D01*
X138191418Y-107319093D01*
X138190776Y-107328070D01*
X132319224Y-107328070D01*
X132319224Y-107325816D01*
X132317780Y-107312386D01*
X132244745Y-106976647D01*
X132236115Y-106955812D01*
X132107304Y-106755380D01*
X132095501Y-106741759D01*
X131917151Y-106587217D01*
X131901989Y-106577473D01*
X131687324Y-106479439D01*
X131670031Y-106474361D01*
X131440907Y-106441418D01*
X131431930Y-106440776D01*
X130185816Y-106440776D01*
X130172386Y-106442220D01*
X129836647Y-106515255D01*
X129815812Y-106523885D01*
X129615380Y-106652696D01*
X129601759Y-106664499D01*
X129447217Y-106842849D01*
X129437473Y-106858011D01*
X129339439Y-107072676D01*
X129334361Y-107089969D01*
X129301418Y-107319093D01*
X129300776Y-107328070D01*
X123429224Y-107328070D01*
X123429224Y-107325816D01*
X123427780Y-107312386D01*
X123354745Y-106976647D01*
X123346115Y-106955812D01*
X123217304Y-106755380D01*
X123205501Y-106741759D01*
X123027151Y-106587217D01*
X123011989Y-106577473D01*
X122797324Y-106479439D01*
X122780031Y-106474361D01*
X122550907Y-106441418D01*
X122541930Y-106440776D01*
X121295816Y-106440776D01*
X121282386Y-106442220D01*
X120946647Y-106515255D01*
X120925812Y-106523885D01*
X120725380Y-106652696D01*
X120711759Y-106664499D01*
X120557217Y-106842849D01*
X120547473Y-106858011D01*
X120449439Y-107072676D01*
X120444361Y-107089969D01*
X120411418Y-107319093D01*
X120410776Y-107328070D01*
X114539224Y-107328070D01*
X114539224Y-107325816D01*
X114537780Y-107312386D01*
X114464745Y-106976647D01*
X114456115Y-106955812D01*
X114327304Y-106755380D01*
X114315501Y-106741759D01*
X114137151Y-106587217D01*
X114121989Y-106577473D01*
X113907324Y-106479439D01*
X113890031Y-106474361D01*
X113660907Y-106441418D01*
X113651930Y-106440776D01*
X112405816Y-106440776D01*
X112392386Y-106442220D01*
X112056647Y-106515255D01*
X112035812Y-106523885D01*
X111835380Y-106652696D01*
X111821759Y-106664499D01*
X111667217Y-106842849D01*
X111657473Y-106858011D01*
X111559439Y-107072676D01*
X111554361Y-107089969D01*
X111521418Y-107319093D01*
X111520776Y-107328070D01*
X105649224Y-107328070D01*
X105649224Y-107325816D01*
X105647780Y-107312386D01*
X105574745Y-106976647D01*
X105566115Y-106955812D01*
X105437304Y-106755380D01*
X105425501Y-106741759D01*
X105247151Y-106587217D01*
X105231989Y-106577473D01*
X105017324Y-106479439D01*
X105000031Y-106474361D01*
X104770907Y-106441418D01*
X104761930Y-106440776D01*
X103515816Y-106440776D01*
X103502386Y-106442220D01*
X103166647Y-106515255D01*
X103145812Y-106523885D01*
X102945380Y-106652696D01*
X102931759Y-106664499D01*
X102777217Y-106842849D01*
X102767473Y-106858011D01*
X102669439Y-107072676D01*
X102664361Y-107089969D01*
X102631418Y-107319093D01*
X102630776Y-107328070D01*
X96759224Y-107328070D01*
X96759224Y-107325816D01*
X96757780Y-107312386D01*
X96684745Y-106976647D01*
X96676115Y-106955812D01*
X96547304Y-106755380D01*
X96535501Y-106741759D01*
X96357151Y-106587217D01*
X96341989Y-106577473D01*
X96127324Y-106479439D01*
X96110031Y-106474361D01*
X95880907Y-106441418D01*
X95871930Y-106440776D01*
X94625816Y-106440776D01*
X94612386Y-106442220D01*
X94276647Y-106515255D01*
X94255812Y-106523885D01*
X94055380Y-106652696D01*
X94041759Y-106664499D01*
X93887217Y-106842849D01*
X93877473Y-106858011D01*
X93779439Y-107072676D01*
X93774361Y-107089969D01*
X93741418Y-107319093D01*
X93740776Y-107328070D01*
X87869224Y-107328070D01*
X87869224Y-107325816D01*
X87867780Y-107312386D01*
X87794745Y-106976647D01*
X87786115Y-106955812D01*
X87657304Y-106755380D01*
X87645501Y-106741759D01*
X87467151Y-106587217D01*
X87451989Y-106577473D01*
X87237324Y-106479439D01*
X87220031Y-106474361D01*
X86990907Y-106441418D01*
X86981930Y-106440776D01*
X85735816Y-106440776D01*
X85722386Y-106442220D01*
X85386647Y-106515255D01*
X85365812Y-106523885D01*
X85165380Y-106652696D01*
X85151759Y-106664499D01*
X84997217Y-106842849D01*
X84987473Y-106858011D01*
X84889439Y-107072676D01*
X84884361Y-107089969D01*
X84851418Y-107319093D01*
X84850776Y-107328070D01*
X78979224Y-107328070D01*
X78979224Y-107325816D01*
X78977780Y-107312386D01*
X78904745Y-106976647D01*
X78896115Y-106955812D01*
X78767304Y-106755380D01*
X78755501Y-106741759D01*
X78577151Y-106587217D01*
X78561989Y-106577473D01*
X78347324Y-106479439D01*
X78330031Y-106474361D01*
X78100907Y-106441418D01*
X78091930Y-106440776D01*
X76845816Y-106440776D01*
X76832386Y-106442220D01*
X76496647Y-106515255D01*
X76475812Y-106523885D01*
X76275380Y-106652696D01*
X76261759Y-106664499D01*
X76107217Y-106842849D01*
X76097473Y-106858011D01*
X75999439Y-107072676D01*
X75994361Y-107089969D01*
X75961418Y-107319093D01*
X75960776Y-107328070D01*
X65531000Y-107328070D01*
X65531000Y-103631000D01*
X180085731Y-103631000D01*
X179859473Y-103770196D01*
G37*
D19*
X179859473Y-103770196D02*
X179852659Y-103775038D01*
X179709924Y-103891451D01*
X179704261Y-104003242D01*
X181187809Y-105486790D01*
X181292191Y-105486790D01*
X182777502Y-104001479D01*
X182769271Y-103886665D01*
X182544677Y-103718648D01*
X182537666Y-103714095D01*
X182388985Y-103631000D01*
X184659000Y-103631000D01*
X184659000Y-121159000D01*
X166240057Y-121159000D01*
X166392590Y-121031010D01*
X166406761Y-121014121D01*
X166507359Y-120839880D01*
X166514900Y-120819163D01*
X166548878Y-120626462D01*
X166549837Y-120615501D01*
X166549837Y-119836809D01*
X166476028Y-119763000D01*
X165480000Y-119762999D01*
X165480001Y-119507000D01*
X166476028Y-119507001D01*
X166504759Y-119478270D01*
X179702749Y-119478270D01*
X179705585Y-119586503D01*
X179759307Y-119634871D01*
X179765875Y-119640039D01*
X180020275Y-119814231D01*
X180027471Y-119818486D01*
X180302675Y-119957501D01*
X180310370Y-119960768D01*
X180601542Y-120062165D01*
X180609602Y-120064385D01*
X180911627Y-120126382D01*
X180919909Y-120127517D01*
X181227480Y-120149024D01*
X181235840Y-120149053D01*
X181543554Y-120129693D01*
X181551844Y-120128616D01*
X181854295Y-120068730D01*
X181862369Y-120066566D01*
X182154243Y-119967205D01*
X182161961Y-119963992D01*
X182438129Y-119826901D01*
X182445354Y-119822696D01*
X182700965Y-119650284D01*
X182707570Y-119645161D01*
X182773573Y-119586561D01*
X182776800Y-119477819D01*
X181292191Y-117993210D01*
X181187809Y-117993210D01*
X179702749Y-119478270D01*
X166504759Y-119478270D01*
X166549837Y-119433192D01*
X166549837Y-118898400D01*
X175171681Y-118898400D01*
X175187277Y-118901929D01*
X175205173Y-118903369D01*
X175285263Y-118898400D01*
X175312040Y-118898400D01*
X175320981Y-118897763D01*
X175340436Y-118894977D01*
X175412468Y-118890508D01*
X175430047Y-118886868D01*
X175451739Y-118879037D01*
X175474574Y-118875767D01*
X175491805Y-118870728D01*
X175557512Y-118840853D01*
X175625586Y-118816278D01*
X175641753Y-118807618D01*
X175659516Y-118794474D01*
X175680874Y-118784763D01*
X175695999Y-118775091D01*
X175758560Y-118721184D01*
X175774865Y-118709119D01*
X175781950Y-118703015D01*
X175796286Y-118688678D01*
X175853341Y-118639517D01*
X175865143Y-118625988D01*
X175876503Y-118608461D01*
X176779155Y-117705809D01*
X178851558Y-117705809D01*
X178864470Y-118013860D01*
X178865372Y-118022171D01*
X178918912Y-118325810D01*
X178920906Y-118333928D01*
X179014133Y-118627819D01*
X179017183Y-118635602D01*
X179148461Y-118914580D01*
X179152514Y-118921892D01*
X179319535Y-119181057D01*
X179324519Y-119187768D01*
X179412792Y-119291490D01*
X179523062Y-119295919D01*
X181006790Y-117812191D01*
X181006790Y-117707809D01*
X181473210Y-117707809D01*
X181473210Y-117812191D01*
X182957154Y-119296135D01*
X183066915Y-119292110D01*
X183145467Y-119201105D01*
X183150498Y-119194429D01*
X183319324Y-118936437D01*
X183323428Y-118929153D01*
X183456650Y-118651098D01*
X183459755Y-118643336D01*
X183555031Y-118350105D01*
X183557081Y-118342001D01*
X183612879Y-118037985D01*
X183613896Y-118028137D01*
X183624161Y-117608149D01*
X183623626Y-117598262D01*
X183582746Y-117291884D01*
X183581094Y-117283689D01*
X183500255Y-116986152D01*
X183497533Y-116978248D01*
X183378053Y-116694017D01*
X183374310Y-116686542D01*
X183218289Y-116420611D01*
X183213590Y-116413696D01*
X183070590Y-116230665D01*
X182957284Y-116223735D01*
X181473210Y-117707809D01*
X181006790Y-117707809D01*
X179519527Y-116220546D01*
X179403212Y-116230109D01*
X179211764Y-116497522D01*
X179207359Y-116504627D01*
X179062610Y-116776859D01*
X179059183Y-116784484D01*
X178951710Y-117073470D01*
X178949322Y-117081481D01*
X178881014Y-117382142D01*
X178879706Y-117390399D01*
X178851763Y-117697452D01*
X178851558Y-117705809D01*
X176779155Y-117705809D01*
X178441722Y-116043242D01*
X179704261Y-116043242D01*
X181187809Y-117526790D01*
X181292191Y-117526790D01*
X182777502Y-116041479D01*
X182769271Y-115926665D01*
X182544677Y-115758648D01*
X182537666Y-115754095D01*
X182268525Y-115603677D01*
X182260973Y-115600091D01*
X181974302Y-115486590D01*
X181966343Y-115484035D01*
X181667179Y-115409445D01*
X181658951Y-115407964D01*
X181352550Y-115373596D01*
X181344199Y-115373217D01*
X181035944Y-115379674D01*
X181027616Y-115380403D01*
X180722923Y-115427572D01*
X180714765Y-115429395D01*
X180418987Y-115516448D01*
X180411142Y-115519334D01*
X180129475Y-115644739D01*
X180122080Y-115648638D01*
X179859473Y-115810196D01*
X179852659Y-115815038D01*
X179709924Y-115931451D01*
X179704261Y-116043242D01*
X178441722Y-116043242D01*
X179025028Y-115459937D01*
X179038555Y-115451402D01*
X179052227Y-115439766D01*
X179105355Y-115379610D01*
X179124280Y-115360686D01*
X179130152Y-115353914D01*
X179141936Y-115338191D01*
X179189715Y-115284091D01*
X179199571Y-115269086D01*
X179209372Y-115248210D01*
X179223204Y-115229755D01*
X179231826Y-115214007D01*
X179257160Y-115146427D01*
X179287922Y-115080907D01*
X179293230Y-115063353D01*
X179296497Y-115041494D01*
X179304732Y-115019526D01*
X179308587Y-115001994D01*
X179314707Y-114919651D01*
X179317707Y-114899572D01*
X179318400Y-114890249D01*
X179318400Y-114869959D01*
X179323980Y-114794870D01*
X179322759Y-114776958D01*
X179318400Y-114756538D01*
X179318400Y-114247793D01*
X179391330Y-114204491D01*
X179400012Y-114198286D01*
X179583645Y-114042004D01*
X179591158Y-114034424D01*
X179745833Y-113849435D01*
X179751962Y-113840698D01*
X179873256Y-113632294D01*
X179877825Y-113622650D01*
X179962272Y-113396787D01*
X179965151Y-113386511D01*
X180010392Y-113149351D01*
X180011507Y-113138128D01*
X180014077Y-112870341D01*
X180013178Y-112859099D01*
X179972499Y-112621114D01*
X179969817Y-112610784D01*
X179889723Y-112383343D01*
X179885339Y-112373612D01*
X179768067Y-112162916D01*
X179762107Y-112154064D01*
X179611013Y-111966140D01*
X179603647Y-111958417D01*
X179423049Y-111798638D01*
X179414486Y-111792267D01*
X179330842Y-111740406D01*
X179412936Y-111691662D01*
X179428285Y-111569304D01*
X178348980Y-110490000D01*
X178401171Y-110437809D01*
X178763210Y-110437809D01*
X178763210Y-110542191D01*
X179610119Y-111389100D01*
X179733085Y-111373129D01*
X179873256Y-111132294D01*
X179877825Y-111122650D01*
X179962272Y-110896787D01*
X179965151Y-110886511D01*
X180010392Y-110649351D01*
X180011507Y-110638128D01*
X180014077Y-110370341D01*
X180013178Y-110359099D01*
X179972499Y-110121114D01*
X179969817Y-110110784D01*
X179889723Y-109883343D01*
X179885339Y-109873612D01*
X179768068Y-109662917D01*
X179762109Y-109654066D01*
X179718981Y-109600422D01*
X179606682Y-109594337D01*
X178763210Y-110437809D01*
X178401171Y-110437809D01*
X179426767Y-109412214D01*
X179412765Y-109291199D01*
X179209549Y-109165201D01*
X179200036Y-109160365D01*
X178976619Y-109069645D01*
X178966427Y-109066480D01*
X178730919Y-109014700D01*
X178720340Y-109013298D01*
X178479475Y-109001939D01*
X178468809Y-109002339D01*
X178229474Y-109031727D01*
X178219030Y-109033918D01*
X177988068Y-109103210D01*
X177978142Y-109107130D01*
X177824496Y-109183400D01*
X177801010Y-109155410D01*
X177784121Y-109141239D01*
X177609880Y-109040641D01*
X177589163Y-109033100D01*
X177396462Y-108999122D01*
X177385501Y-108998163D01*
X175671742Y-108998163D01*
X175655366Y-109000319D01*
X175376142Y-109075137D01*
X175351662Y-109087880D01*
X175195410Y-109218990D01*
X175181239Y-109235879D01*
X175080641Y-109410120D01*
X175073100Y-109430837D01*
X175039122Y-109623538D01*
X175038163Y-109634499D01*
X175038163Y-111348258D01*
X175040319Y-111364634D01*
X175115137Y-111643859D01*
X175127880Y-111668339D01*
X175258990Y-111824590D01*
X175275879Y-111838761D01*
X175450120Y-111939359D01*
X175470837Y-111946900D01*
X175473824Y-111947427D01*
X175382029Y-112041822D01*
X175375263Y-112050074D01*
X175238683Y-112248798D01*
X175233403Y-112258073D01*
X175132260Y-112476968D01*
X175128618Y-112487000D01*
X175065802Y-112719807D01*
X175063903Y-112730309D01*
X175041211Y-112970372D01*
X175041109Y-112981043D01*
X175059188Y-113221497D01*
X175060885Y-113232034D01*
X175119221Y-113466005D01*
X175122669Y-113476104D01*
X175219591Y-113696900D01*
X175224692Y-113706275D01*
X175357430Y-113907584D01*
X175364038Y-113915965D01*
X175528798Y-114092032D01*
X175536722Y-114099180D01*
X175728792Y-114244968D01*
X175737808Y-114250678D01*
X175741600Y-114252652D01*
X175741600Y-114608435D01*
X173604336Y-116745700D01*
X163977419Y-116745700D01*
X163961823Y-116742171D01*
X163943927Y-116740731D01*
X163863837Y-116745700D01*
X163837060Y-116745700D01*
X163828118Y-116746337D01*
X163808663Y-116749123D01*
X163736630Y-116753592D01*
X163719050Y-116757233D01*
X163697360Y-116765063D01*
X163674528Y-116768333D01*
X163657295Y-116773372D01*
X163591592Y-116803246D01*
X163523515Y-116827822D01*
X163507348Y-116836482D01*
X163489585Y-116849625D01*
X163468226Y-116859337D01*
X163453102Y-116869009D01*
X163390546Y-116922910D01*
X163374232Y-116934982D01*
X163367148Y-116941086D01*
X163352807Y-116955428D01*
X163295759Y-117004584D01*
X163283956Y-117018114D01*
X163272597Y-117035639D01*
X162572974Y-117735262D01*
X162559445Y-117743798D01*
X162545773Y-117755434D01*
X162492640Y-117815596D01*
X162473719Y-117834516D01*
X162467846Y-117841290D01*
X162456067Y-117857007D01*
X162408287Y-117911109D01*
X162398431Y-117926113D01*
X162388629Y-117946990D01*
X162374795Y-117965449D01*
X162366174Y-117981196D01*
X162340839Y-118048777D01*
X162333693Y-118063997D01*
X162327880Y-118060641D01*
X162307163Y-118053100D01*
X162114462Y-118019122D01*
X162103501Y-118018163D01*
X161932128Y-118018163D01*
X161564000Y-117650035D01*
X161564000Y-117600938D01*
X161561844Y-117584562D01*
X161495554Y-117337165D01*
X161489233Y-117321905D01*
X161361171Y-117100095D01*
X161351116Y-117086991D01*
X161170009Y-116905884D01*
X161156905Y-116895829D01*
X160935095Y-116767767D01*
X160919835Y-116761446D01*
X160672438Y-116695156D01*
X160656062Y-116693000D01*
X160399938Y-116693000D01*
X160383562Y-116695156D01*
X160191956Y-116746497D01*
X160414953Y-116523500D01*
X162139511Y-116523500D01*
X162152905Y-116531233D01*
X162168165Y-116537554D01*
X162415562Y-116603844D01*
X162431938Y-116606000D01*
X162688062Y-116606000D01*
X162704438Y-116603844D01*
X162951835Y-116537554D01*
X162967095Y-116531233D01*
X163188905Y-116403171D01*
X163202009Y-116393116D01*
X163383116Y-116212009D01*
X163393171Y-116198905D01*
X163521233Y-115977095D01*
X163527554Y-115961835D01*
X163593844Y-115714438D01*
X163596000Y-115698062D01*
X163596000Y-115441938D01*
X163593844Y-115425562D01*
X163527554Y-115178165D01*
X163521233Y-115162905D01*
X163393171Y-114941095D01*
X163383116Y-114927991D01*
X163202009Y-114746884D01*
X163188905Y-114736829D01*
X162967095Y-114608767D01*
X162951835Y-114602446D01*
X162704438Y-114536156D01*
X162688062Y-114534000D01*
X162431938Y-114534000D01*
X162415562Y-114536156D01*
X162168165Y-114602446D01*
X162152905Y-114608767D01*
X162139511Y-114616500D01*
X160082489Y-114616500D01*
X160028258Y-114609360D01*
X160011740Y-114609360D01*
X159949321Y-114617578D01*
X159779345Y-114639956D01*
X159763391Y-114644231D01*
X159546832Y-114733933D01*
X159532528Y-114742191D01*
X159346564Y-114884885D01*
X159334885Y-114896565D01*
X159301586Y-114939961D01*
X158373105Y-115868443D01*
X158358165Y-115872446D01*
X158342905Y-115878767D01*
X158121095Y-116006829D01*
X158107991Y-116016884D01*
X157926884Y-116197991D01*
X157916829Y-116211095D01*
X157788767Y-116432905D01*
X157782446Y-116448165D01*
X157716156Y-116695562D01*
X157714000Y-116711938D01*
X157714000Y-116968062D01*
X157716156Y-116984438D01*
X157782446Y-117231835D01*
X157788767Y-117247095D01*
X157916829Y-117468905D01*
X157926884Y-117482009D01*
X158107991Y-117663116D01*
X158121095Y-117673171D01*
X158342905Y-117801233D01*
X158358165Y-117807554D01*
X158605562Y-117873844D01*
X158621938Y-117876000D01*
X158878062Y-117876000D01*
X158894438Y-117873844D01*
X159141835Y-117807554D01*
X159157095Y-117801233D01*
X159378905Y-117673171D01*
X159392009Y-117663116D01*
X159502792Y-117552333D01*
X159494156Y-117584562D01*
X159492000Y-117600938D01*
X159492000Y-117857062D01*
X159494156Y-117873438D01*
X159532935Y-118018163D01*
X158949742Y-118018163D01*
X158933366Y-118020319D01*
X158654142Y-118095137D01*
X158629662Y-118107880D01*
X158617449Y-118118127D01*
X158517880Y-118060641D01*
X158497163Y-118053100D01*
X158304462Y-118019122D01*
X158293501Y-118018163D01*
X157679742Y-118018163D01*
X157663366Y-118020319D01*
X157384142Y-118095137D01*
X157359662Y-118107880D01*
X157347449Y-118118127D01*
X157247880Y-118060641D01*
X157241761Y-118058414D01*
X157241761Y-117970728D01*
X157239605Y-117954352D01*
X157173315Y-117706955D01*
X157166994Y-117691695D01*
X157038932Y-117469885D01*
X157028877Y-117456781D01*
X156847770Y-117275674D01*
X156834666Y-117265619D01*
X156612856Y-117137557D01*
X156597596Y-117131236D01*
X156350199Y-117064946D01*
X156333823Y-117062790D01*
X156077699Y-117062790D01*
X156061323Y-117064946D01*
X155813926Y-117131236D01*
X155798666Y-117137557D01*
X155576856Y-117265619D01*
X155563752Y-117275674D01*
X155382645Y-117456781D01*
X155372590Y-117469885D01*
X155244528Y-117691695D01*
X155238207Y-117706954D01*
X155234203Y-117721895D01*
X154867118Y-118088980D01*
X154844142Y-118095137D01*
X154819662Y-118107880D01*
X154807449Y-118118127D01*
X154707880Y-118060641D01*
X154687163Y-118053100D01*
X154494462Y-118019122D01*
X154483501Y-118018163D01*
X153869742Y-118018163D01*
X153853366Y-118020319D01*
X153574142Y-118095137D01*
X153549662Y-118107880D01*
X153393410Y-118238990D01*
X153379239Y-118255879D01*
X153278641Y-118430120D01*
X153271100Y-118450837D01*
X153237122Y-118643538D01*
X153236163Y-118654499D01*
X153236163Y-120618258D01*
X153238319Y-120634634D01*
X153313137Y-120913859D01*
X153325880Y-120938339D01*
X153456990Y-121094590D01*
X153473879Y-121108761D01*
X153560896Y-121159000D01*
X65531000Y-121159000D01*
X65531000Y-118234598D01*
X66344541Y-118234598D01*
X66345035Y-118243164D01*
X66382133Y-118536832D01*
X66383785Y-118545252D01*
X66460397Y-118831168D01*
X66463176Y-118839285D01*
X66577881Y-119112159D01*
X66581736Y-119119824D01*
X66732413Y-119374606D01*
X66737273Y-119381677D01*
X66921134Y-119613652D01*
X66926909Y-119619998D01*
X67140551Y-119824873D01*
X67147133Y-119830377D01*
X67386605Y-120004363D01*
X67393873Y-120008922D01*
X67654740Y-120148798D01*
X67662560Y-120152329D01*
X67939998Y-120255507D01*
X67948224Y-120257944D01*
X68237098Y-120322514D01*
X68245579Y-120323812D01*
X68540543Y-120348581D01*
X68549122Y-120348716D01*
X68844718Y-120333225D01*
X68853236Y-120332194D01*
X69143996Y-120276728D01*
X69152295Y-120274551D01*
X69432836Y-120180138D01*
X69440762Y-120176855D01*
X69705895Y-120045242D01*
X69713303Y-120040914D01*
X69958121Y-119874536D01*
X69964873Y-119869242D01*
X70184846Y-119671178D01*
X70190816Y-119665016D01*
X70381873Y-119438930D01*
X70386953Y-119432015D01*
X70545559Y-119182093D01*
X70549653Y-119174553D01*
X70672873Y-118905417D01*
X70675905Y-118897391D01*
X70761459Y-118614022D01*
X70763375Y-118605659D01*
X70809731Y-118312974D01*
X70810505Y-118303766D01*
X70811229Y-118234598D01*
X145084541Y-118234598D01*
X145085035Y-118243164D01*
X145122133Y-118536832D01*
X145123785Y-118545252D01*
X145200397Y-118831168D01*
X145203176Y-118839285D01*
X145317881Y-119112159D01*
X145321736Y-119119824D01*
X145472413Y-119374606D01*
X145477273Y-119381677D01*
X145661134Y-119613652D01*
X145666909Y-119619998D01*
X145880551Y-119824873D01*
X145887133Y-119830377D01*
X146126605Y-120004363D01*
X146133873Y-120008922D01*
X146394740Y-120148798D01*
X146402560Y-120152329D01*
X146679998Y-120255507D01*
X146688224Y-120257944D01*
X146977098Y-120322514D01*
X146985579Y-120323812D01*
X147280543Y-120348581D01*
X147289122Y-120348716D01*
X147584718Y-120333225D01*
X147593236Y-120332194D01*
X147883996Y-120276728D01*
X147892295Y-120274551D01*
X148172836Y-120180138D01*
X148180762Y-120176855D01*
X148445895Y-120045242D01*
X148453303Y-120040914D01*
X148698121Y-119874536D01*
X148704873Y-119869242D01*
X148924846Y-119671178D01*
X148930816Y-119665016D01*
X149121873Y-119438930D01*
X149126953Y-119432015D01*
X149285559Y-119182093D01*
X149289653Y-119174553D01*
X149412873Y-118905417D01*
X149415905Y-118897391D01*
X149501459Y-118614022D01*
X149503375Y-118605659D01*
X149549731Y-118312974D01*
X149550505Y-118303766D01*
X149554073Y-117962988D01*
X149553493Y-117953766D01*
X149513276Y-117660176D01*
X149511536Y-117651774D01*
X149431936Y-117366675D01*
X149429072Y-117358588D01*
X149311515Y-117086930D01*
X149307580Y-117079306D01*
X149154243Y-116826116D01*
X149149309Y-116819096D01*
X148963029Y-116589060D01*
X148957188Y-116582775D01*
X148741412Y-116380147D01*
X148734772Y-116374713D01*
X148493493Y-116203244D01*
X148486177Y-116198761D01*
X148223859Y-116061625D01*
X148216003Y-116058176D01*
X147937500Y-115957909D01*
X147929248Y-115955558D01*
X147639715Y-115894016D01*
X147631220Y-115892807D01*
X147336013Y-115871128D01*
X147327433Y-115871083D01*
X147032015Y-115889669D01*
X147023508Y-115890789D01*
X146733346Y-115949297D01*
X146725070Y-115951561D01*
X146445533Y-116048905D01*
X146437641Y-116052272D01*
X146173901Y-116186654D01*
X146166539Y-116191060D01*
X145923476Y-116359992D01*
X145916781Y-116365357D01*
X145698894Y-116565713D01*
X145692988Y-116571937D01*
X145504309Y-116800011D01*
X145499302Y-116806979D01*
X145343323Y-117058549D01*
X145339308Y-117066131D01*
X145218912Y-117336543D01*
X145215964Y-117344601D01*
X145133382Y-117628850D01*
X145131554Y-117637233D01*
X145088313Y-117930059D01*
X145087640Y-117938613D01*
X145084541Y-118234598D01*
X70811229Y-118234598D01*
X70814073Y-117962988D01*
X70813493Y-117953766D01*
X70773276Y-117660176D01*
X70771536Y-117651774D01*
X70691936Y-117366675D01*
X70689072Y-117358588D01*
X70571515Y-117086930D01*
X70567580Y-117079306D01*
X70414243Y-116826116D01*
X70409309Y-116819096D01*
X70223029Y-116589060D01*
X70217188Y-116582775D01*
X70001412Y-116380147D01*
X69994772Y-116374713D01*
X69753493Y-116203244D01*
X69746177Y-116198761D01*
X69483859Y-116061625D01*
X69476003Y-116058176D01*
X69197500Y-115957909D01*
X69189248Y-115955558D01*
X68899715Y-115894016D01*
X68891220Y-115892807D01*
X68596013Y-115871128D01*
X68587433Y-115871083D01*
X68292015Y-115889669D01*
X68283508Y-115890789D01*
X67993346Y-115949297D01*
X67985070Y-115951561D01*
X67705533Y-116048905D01*
X67697641Y-116052272D01*
X67433901Y-116186654D01*
X67426539Y-116191060D01*
X67183476Y-116359992D01*
X67176781Y-116365357D01*
X66958894Y-116565713D01*
X66952988Y-116571937D01*
X66764309Y-116800011D01*
X66759302Y-116806979D01*
X66603323Y-117058549D01*
X66599308Y-117066131D01*
X66478912Y-117336543D01*
X66475964Y-117344601D01*
X66393382Y-117628850D01*
X66391554Y-117637233D01*
X66348313Y-117930059D01*
X66347640Y-117938613D01*
X66344541Y-118234598D01*
X65531000Y-118234598D01*
X65531000Y-113020851D01*
X75961037Y-113020851D01*
X75979371Y-113264689D01*
X75981068Y-113275226D01*
X76040225Y-113512490D01*
X76043673Y-113522589D01*
X76141959Y-113746493D01*
X76147060Y-113755868D01*
X76281668Y-113960011D01*
X76288275Y-113968392D01*
X76455353Y-114146937D01*
X76463278Y-114154084D01*
X76657184Y-114301268D01*
X76485043Y-114426796D01*
X76476982Y-114433791D01*
X76306507Y-114609095D01*
X76299740Y-114617347D01*
X76161239Y-114818868D01*
X76155959Y-114828143D01*
X76053392Y-115050120D01*
X76049751Y-115060151D01*
X75986049Y-115296235D01*
X75984150Y-115306737D01*
X75961139Y-115550180D01*
X75961037Y-115560851D01*
X75979371Y-115804689D01*
X75981068Y-115815226D01*
X76040225Y-116052490D01*
X76043673Y-116062589D01*
X76141959Y-116286493D01*
X76147060Y-116295868D01*
X76281668Y-116500011D01*
X76288275Y-116508392D01*
X76455353Y-116686937D01*
X76463278Y-116694084D01*
X76658051Y-116841926D01*
X76667067Y-116847636D01*
X76883965Y-116960546D01*
X76893814Y-116964656D01*
X77126636Y-117039407D01*
X77137037Y-117041798D01*
X77379124Y-117076253D01*
X77389779Y-117076858D01*
X77634211Y-117070030D01*
X77644816Y-117068831D01*
X77884603Y-117020917D01*
X77894854Y-117017948D01*
X78123139Y-116930318D01*
X78132743Y-116925665D01*
X78343001Y-116800823D01*
X78351683Y-116794618D01*
X78537901Y-116636135D01*
X78545414Y-116628556D01*
X78633254Y-116523500D01*
X85192412Y-116523500D01*
X85345353Y-116686937D01*
X85353278Y-116694084D01*
X85548051Y-116841926D01*
X85557067Y-116847636D01*
X85773965Y-116960546D01*
X85783814Y-116964656D01*
X86016636Y-117039407D01*
X86027037Y-117041798D01*
X86269124Y-117076253D01*
X86279779Y-117076858D01*
X86524211Y-117070030D01*
X86534816Y-117068831D01*
X86774603Y-117020917D01*
X86784854Y-117017948D01*
X87013139Y-116930318D01*
X87022743Y-116925665D01*
X87233001Y-116800823D01*
X87241683Y-116794618D01*
X87427901Y-116636135D01*
X87435414Y-116628556D01*
X87523254Y-116523500D01*
X94082412Y-116523500D01*
X94235353Y-116686937D01*
X94243278Y-116694084D01*
X94438051Y-116841926D01*
X94447067Y-116847636D01*
X94663965Y-116960546D01*
X94673814Y-116964656D01*
X94906636Y-117039407D01*
X94917037Y-117041798D01*
X95159124Y-117076253D01*
X95169779Y-117076858D01*
X95414211Y-117070030D01*
X95424816Y-117068831D01*
X95664603Y-117020917D01*
X95674854Y-117017948D01*
X95903139Y-116930318D01*
X95912743Y-116925665D01*
X96123001Y-116800823D01*
X96131683Y-116794618D01*
X96317901Y-116636135D01*
X96325414Y-116628556D01*
X96413254Y-116523500D01*
X102972412Y-116523500D01*
X103125353Y-116686937D01*
X103133278Y-116694084D01*
X103328051Y-116841926D01*
X103337067Y-116847636D01*
X103553965Y-116960546D01*
X103563814Y-116964656D01*
X103796636Y-117039407D01*
X103807037Y-117041798D01*
X104049124Y-117076253D01*
X104059779Y-117076858D01*
X104304211Y-117070030D01*
X104314816Y-117068831D01*
X104554603Y-117020917D01*
X104564854Y-117017948D01*
X104793139Y-116930318D01*
X104802743Y-116925665D01*
X105013001Y-116800823D01*
X105021683Y-116794618D01*
X105207901Y-116636135D01*
X105215414Y-116628556D01*
X105303254Y-116523500D01*
X111862412Y-116523500D01*
X112015353Y-116686937D01*
X112023278Y-116694084D01*
X112218051Y-116841926D01*
X112227067Y-116847636D01*
X112443965Y-116960546D01*
X112453814Y-116964656D01*
X112686636Y-117039407D01*
X112697037Y-117041798D01*
X112939124Y-117076253D01*
X112949779Y-117076858D01*
X113194211Y-117070030D01*
X113204816Y-117068831D01*
X113444603Y-117020917D01*
X113454854Y-117017948D01*
X113683139Y-116930318D01*
X113692743Y-116925665D01*
X113903001Y-116800823D01*
X113911683Y-116794618D01*
X114097901Y-116636135D01*
X114105414Y-116628556D01*
X114193254Y-116523500D01*
X120752412Y-116523500D01*
X120905353Y-116686937D01*
X120913278Y-116694084D01*
X121108051Y-116841926D01*
X121117067Y-116847636D01*
X121333965Y-116960546D01*
X121343814Y-116964656D01*
X121576636Y-117039407D01*
X121587037Y-117041798D01*
X121829124Y-117076253D01*
X121839779Y-117076858D01*
X122084211Y-117070030D01*
X122094816Y-117068831D01*
X122334603Y-117020917D01*
X122344854Y-117017948D01*
X122573139Y-116930318D01*
X122582743Y-116925665D01*
X122793001Y-116800823D01*
X122801683Y-116794618D01*
X122987901Y-116636135D01*
X122995414Y-116628556D01*
X123083254Y-116523500D01*
X129642412Y-116523500D01*
X129795353Y-116686937D01*
X129803278Y-116694084D01*
X129998051Y-116841926D01*
X130007067Y-116847636D01*
X130223965Y-116960546D01*
X130233814Y-116964656D01*
X130466636Y-117039407D01*
X130477037Y-117041798D01*
X130719124Y-117076253D01*
X130729779Y-117076858D01*
X130974211Y-117070030D01*
X130984816Y-117068831D01*
X131224603Y-117020917D01*
X131234854Y-117017948D01*
X131463139Y-116930318D01*
X131472743Y-116925665D01*
X131683001Y-116800823D01*
X131691683Y-116794618D01*
X131877901Y-116636135D01*
X131885414Y-116628556D01*
X131973254Y-116523500D01*
X138532412Y-116523500D01*
X138685353Y-116686937D01*
X138693278Y-116694084D01*
X138888051Y-116841926D01*
X138897067Y-116847636D01*
X139113965Y-116960546D01*
X139123814Y-116964656D01*
X139356636Y-117039407D01*
X139367037Y-117041798D01*
X139609124Y-117076253D01*
X139619779Y-117076858D01*
X139864211Y-117070030D01*
X139874816Y-117068831D01*
X140114603Y-117020917D01*
X140124854Y-117017948D01*
X140353139Y-116930318D01*
X140362743Y-116925665D01*
X140573001Y-116800823D01*
X140581683Y-116794618D01*
X140767901Y-116636135D01*
X140775414Y-116628556D01*
X140863254Y-116523500D01*
X140907508Y-116523500D01*
X140961741Y-116530640D01*
X140978259Y-116530640D01*
X141040680Y-116522422D01*
X141210655Y-116500044D01*
X141226609Y-116495769D01*
X141443168Y-116406067D01*
X141457472Y-116397809D01*
X141643436Y-116255115D01*
X141655115Y-116243436D01*
X141688424Y-116200027D01*
X145410031Y-112478421D01*
X145453436Y-112445115D01*
X145465115Y-112433436D01*
X145607809Y-112247472D01*
X145616067Y-112233168D01*
X145705769Y-112016609D01*
X145710044Y-112000655D01*
X145732422Y-111830679D01*
X145740640Y-111768259D01*
X145740640Y-111751741D01*
X145733500Y-111697508D01*
X145733500Y-111579931D01*
X147681088Y-111579931D01*
X147688882Y-111694244D01*
X147778051Y-111761926D01*
X147787067Y-111767637D01*
X148003965Y-111880546D01*
X148013814Y-111884656D01*
X148246636Y-111959407D01*
X148257037Y-111961798D01*
X148499124Y-111996253D01*
X148509779Y-111996858D01*
X148754211Y-111990030D01*
X148764816Y-111988831D01*
X149004603Y-111940917D01*
X149014854Y-111937948D01*
X149243139Y-111850318D01*
X149252743Y-111845665D01*
X149487532Y-111706258D01*
X149502881Y-111583900D01*
X148642191Y-110723210D01*
X148537809Y-110723210D01*
X147681088Y-111579931D01*
X145733500Y-111579931D01*
X145733500Y-110480851D01*
X147081037Y-110480851D01*
X147099371Y-110724689D01*
X147101068Y-110735226D01*
X147160225Y-110972490D01*
X147163673Y-110982589D01*
X147261959Y-111206493D01*
X147267060Y-111215868D01*
X147380275Y-111387568D01*
X147499321Y-111399660D01*
X148356790Y-110542191D01*
X148356790Y-110437809D01*
X148823210Y-110437809D01*
X148823210Y-110542191D01*
X149684748Y-111403729D01*
X149807715Y-111387758D01*
X149951397Y-111140888D01*
X149955966Y-111131243D01*
X150041600Y-110902202D01*
X150044479Y-110891926D01*
X150090357Y-110651432D01*
X150091472Y-110640209D01*
X150094078Y-110368643D01*
X150093179Y-110357401D01*
X150051928Y-110116072D01*
X150049246Y-110105742D01*
X149968024Y-109875098D01*
X149963640Y-109865367D01*
X149844718Y-109651707D01*
X149838759Y-109642855D01*
X149793205Y-109586195D01*
X149680907Y-109580112D01*
X148823210Y-110437809D01*
X148356790Y-110437809D01*
X147499987Y-109581006D01*
X147382303Y-109591819D01*
X147281239Y-109738868D01*
X147275959Y-109748143D01*
X147173392Y-109970120D01*
X147169751Y-109980151D01*
X147106049Y-110216235D01*
X147104150Y-110226737D01*
X147081139Y-110470180D01*
X147081037Y-110480851D01*
X145733500Y-110480851D01*
X145733500Y-107328070D01*
X147080776Y-107328070D01*
X147080776Y-108574184D01*
X147082220Y-108587614D01*
X147155255Y-108923353D01*
X147163885Y-108944188D01*
X147292696Y-109144620D01*
X147304499Y-109158241D01*
X147482849Y-109312783D01*
X147498011Y-109322527D01*
X147692253Y-109411234D01*
X148537809Y-110256790D01*
X148642191Y-110256790D01*
X149500581Y-109398400D01*
X149563353Y-109384745D01*
X149584188Y-109376115D01*
X149784620Y-109247304D01*
X149798241Y-109235501D01*
X149952783Y-109057151D01*
X149962527Y-109041989D01*
X150060561Y-108827324D01*
X150065639Y-108810031D01*
X150098582Y-108580907D01*
X150099224Y-108571930D01*
X150099224Y-107325816D01*
X150097780Y-107312386D01*
X150024745Y-106976647D01*
X150016115Y-106955812D01*
X149887304Y-106755380D01*
X149875501Y-106741759D01*
X149697151Y-106587217D01*
X149681989Y-106577473D01*
X149467324Y-106479439D01*
X149450031Y-106474361D01*
X149220907Y-106441418D01*
X149211930Y-106440776D01*
X147965816Y-106440776D01*
X147952386Y-106442220D01*
X147616647Y-106515255D01*
X147595812Y-106523885D01*
X147395380Y-106652696D01*
X147381759Y-106664499D01*
X147227217Y-106842849D01*
X147217473Y-106858011D01*
X147119439Y-107072676D01*
X147114361Y-107089969D01*
X147081418Y-107319093D01*
X147080776Y-107328070D01*
X145733500Y-107328070D01*
X145733500Y-107074952D01*
X146444953Y-106363500D01*
X150735049Y-106363500D01*
X153224501Y-108852953D01*
X153224500Y-110293357D01*
X153225040Y-110301589D01*
X153236163Y-110386079D01*
X153236163Y-111218258D01*
X153238319Y-111234634D01*
X153313137Y-111513859D01*
X153325880Y-111538339D01*
X153456990Y-111694590D01*
X153473879Y-111708761D01*
X153648120Y-111809359D01*
X153668837Y-111816900D01*
X153861538Y-111850878D01*
X153872499Y-111851837D01*
X154486258Y-111851837D01*
X154502634Y-111849681D01*
X154781859Y-111774863D01*
X154806339Y-111762120D01*
X154818551Y-111751873D01*
X154918120Y-111809359D01*
X154938837Y-111816900D01*
X155131538Y-111850878D01*
X155142499Y-111851837D01*
X155756258Y-111851837D01*
X155772634Y-111849681D01*
X156051859Y-111774863D01*
X156076339Y-111762120D01*
X156088551Y-111751873D01*
X156188120Y-111809359D01*
X156208837Y-111816900D01*
X156401538Y-111850878D01*
X156412499Y-111851837D01*
X157026258Y-111851837D01*
X157042634Y-111849681D01*
X157321859Y-111774863D01*
X157346339Y-111762120D01*
X157358551Y-111751873D01*
X157458120Y-111809359D01*
X157478837Y-111816900D01*
X157671538Y-111850878D01*
X157682499Y-111851837D01*
X158095000Y-111851837D01*
X158095000Y-111888062D01*
X158097156Y-111904438D01*
X158163446Y-112151835D01*
X158169767Y-112167095D01*
X158297829Y-112388905D01*
X158307884Y-112402009D01*
X158488991Y-112583116D01*
X158502095Y-112593171D01*
X158723905Y-112721233D01*
X158739165Y-112727554D01*
X158986562Y-112793844D01*
X159002938Y-112796000D01*
X159259062Y-112796000D01*
X159275438Y-112793844D01*
X159522835Y-112727554D01*
X159538095Y-112721233D01*
X159759905Y-112593171D01*
X159773009Y-112583116D01*
X159927329Y-112428796D01*
X159993905Y-112467233D01*
X160009165Y-112473554D01*
X160256562Y-112539844D01*
X160272938Y-112542000D01*
X160529062Y-112542000D01*
X160545438Y-112539844D01*
X160792835Y-112473554D01*
X160808095Y-112467233D01*
X161029905Y-112339171D01*
X161036000Y-112334494D01*
X161042095Y-112339171D01*
X161263905Y-112467233D01*
X161279165Y-112473554D01*
X161526562Y-112539844D01*
X161542938Y-112542000D01*
X161799062Y-112542000D01*
X161815438Y-112539844D01*
X162062835Y-112473554D01*
X162078095Y-112467233D01*
X162299905Y-112339171D01*
X162313009Y-112329116D01*
X162494116Y-112148009D01*
X162504171Y-112134905D01*
X162632233Y-111913095D01*
X162638554Y-111897835D01*
X162655666Y-111833973D01*
X162751538Y-111850878D01*
X162762499Y-111851837D01*
X163376258Y-111851837D01*
X163392634Y-111849681D01*
X163671859Y-111774863D01*
X163696339Y-111762120D01*
X163708551Y-111751873D01*
X163808120Y-111809359D01*
X163828837Y-111816900D01*
X164021538Y-111850878D01*
X164032499Y-111851837D01*
X164646258Y-111851837D01*
X164662634Y-111849681D01*
X164941859Y-111774863D01*
X164966339Y-111762120D01*
X164978551Y-111751873D01*
X165010963Y-111770586D01*
X164723970Y-112057579D01*
X164680565Y-112090885D01*
X164668886Y-112102565D01*
X164630558Y-112152515D01*
X164526191Y-112288529D01*
X164517933Y-112302833D01*
X164428231Y-112519392D01*
X164423956Y-112535346D01*
X164393360Y-112767741D01*
X164393360Y-112784259D01*
X164400500Y-112838492D01*
X164400500Y-113244511D01*
X164392767Y-113257905D01*
X164386446Y-113273165D01*
X164320156Y-113520562D01*
X164318000Y-113536938D01*
X164318000Y-113793062D01*
X164320156Y-113809438D01*
X164386446Y-114056835D01*
X164392767Y-114072095D01*
X164520829Y-114293905D01*
X164530884Y-114307009D01*
X164711991Y-114488116D01*
X164725095Y-114498171D01*
X164946905Y-114626233D01*
X164962165Y-114632554D01*
X165209562Y-114698844D01*
X165225938Y-114701000D01*
X165482062Y-114701000D01*
X165498438Y-114698844D01*
X165745835Y-114632554D01*
X165761095Y-114626233D01*
X165982905Y-114498171D01*
X165996009Y-114488116D01*
X166177116Y-114307009D01*
X166187171Y-114293905D01*
X166315233Y-114072095D01*
X166321554Y-114056835D01*
X166387844Y-113809438D01*
X166390000Y-113793062D01*
X166390000Y-113536938D01*
X166387844Y-113520562D01*
X166321554Y-113273165D01*
X166315233Y-113257905D01*
X166307500Y-113244511D01*
X166307500Y-113170951D01*
X169540035Y-109938417D01*
X169583435Y-109905115D01*
X169595115Y-109893436D01*
X169737809Y-109707472D01*
X169746067Y-109693168D01*
X169835769Y-109476609D01*
X169840044Y-109460655D01*
X169862422Y-109290679D01*
X169870640Y-109228260D01*
X169870640Y-109211742D01*
X169863500Y-109157511D01*
X169863500Y-107438270D01*
X179702749Y-107438270D01*
X179705585Y-107546503D01*
X179759307Y-107594871D01*
X179765875Y-107600039D01*
X180020275Y-107774231D01*
X180027471Y-107778486D01*
X180302675Y-107917501D01*
X180310370Y-107920768D01*
X180601542Y-108022165D01*
X180609602Y-108024385D01*
X180911627Y-108086382D01*
X180919909Y-108087517D01*
X181227480Y-108109024D01*
X181235840Y-108109053D01*
X181543554Y-108089693D01*
X181551844Y-108088616D01*
X181854295Y-108028730D01*
X181862369Y-108026566D01*
X182154243Y-107927205D01*
X182161961Y-107923992D01*
X182438129Y-107786901D01*
X182445354Y-107782696D01*
X182700965Y-107610284D01*
X182707570Y-107605161D01*
X182773573Y-107546561D01*
X182776800Y-107437819D01*
X181292191Y-105953210D01*
X181187809Y-105953210D01*
X179702749Y-107438270D01*
X169863500Y-107438270D01*
X169863500Y-107100489D01*
X169871233Y-107087095D01*
X169877554Y-107071835D01*
X169943844Y-106824438D01*
X169946000Y-106808062D01*
X169946000Y-106551938D01*
X169943844Y-106535562D01*
X169877554Y-106288165D01*
X169871233Y-106272905D01*
X169743171Y-106051095D01*
X169733116Y-106037991D01*
X169552009Y-105856884D01*
X169538905Y-105846829D01*
X169317095Y-105718767D01*
X169301835Y-105712446D01*
X169127784Y-105665809D01*
X178851558Y-105665809D01*
X178864470Y-105973860D01*
X178865372Y-105982171D01*
X178918912Y-106285810D01*
X178920906Y-106293928D01*
X179014133Y-106587819D01*
X179017183Y-106595602D01*
X179148461Y-106874580D01*
X179152514Y-106881892D01*
X179319535Y-107141057D01*
X179324519Y-107147768D01*
X179412792Y-107251490D01*
X179523062Y-107255919D01*
X181006790Y-105772191D01*
X181006790Y-105667809D01*
X181473210Y-105667809D01*
X181473210Y-105772191D01*
X182957154Y-107256135D01*
X183066915Y-107252110D01*
X183145467Y-107161105D01*
X183150498Y-107154429D01*
X183319324Y-106896437D01*
X183323428Y-106889153D01*
X183456650Y-106611098D01*
X183459755Y-106603336D01*
X183555031Y-106310105D01*
X183557081Y-106302001D01*
X183612879Y-105997985D01*
X183613896Y-105988137D01*
X183624161Y-105568149D01*
X183623626Y-105558262D01*
X183582746Y-105251884D01*
X183581094Y-105243689D01*
X183500255Y-104946152D01*
X183497533Y-104938248D01*
X183378053Y-104654017D01*
X183374310Y-104646542D01*
X183218289Y-104380611D01*
X183213590Y-104373696D01*
X183070590Y-104190665D01*
X182957284Y-104183735D01*
X181473210Y-105667809D01*
X181006790Y-105667809D01*
X179519527Y-104180546D01*
X179403212Y-104190109D01*
X179211764Y-104457522D01*
X179207359Y-104464627D01*
X179062610Y-104736859D01*
X179059183Y-104744484D01*
X178951710Y-105033470D01*
X178949322Y-105041481D01*
X178881014Y-105342142D01*
X178879706Y-105350399D01*
X178851763Y-105657452D01*
X178851558Y-105665809D01*
X169127784Y-105665809D01*
X169054438Y-105646156D01*
X169038062Y-105644000D01*
X168781938Y-105644000D01*
X168765562Y-105646156D01*
X168518165Y-105712446D01*
X168502905Y-105718767D01*
X168281095Y-105846829D01*
X168267991Y-105856884D01*
X168086884Y-106037991D01*
X168076829Y-106051095D01*
X167948767Y-106272905D01*
X167942446Y-106288165D01*
X167876156Y-106535562D01*
X167874000Y-106551938D01*
X167874000Y-106808062D01*
X167876156Y-106824438D01*
X167942446Y-107071836D01*
X167948767Y-107087096D01*
X167956501Y-107100492D01*
X167956500Y-108825048D01*
X167398988Y-109382560D01*
X167403844Y-109364438D01*
X167406000Y-109348062D01*
X167406000Y-109091938D01*
X167403844Y-109075562D01*
X167337554Y-108828165D01*
X167331233Y-108812905D01*
X167203171Y-108591095D01*
X167193116Y-108577991D01*
X167012009Y-108396884D01*
X166998905Y-108386829D01*
X166777095Y-108258767D01*
X166761835Y-108252446D01*
X166514438Y-108186156D01*
X166498062Y-108184000D01*
X166241938Y-108184000D01*
X166225562Y-108186156D01*
X165978165Y-108252446D01*
X165962905Y-108258767D01*
X165741095Y-108386829D01*
X165727991Y-108396884D01*
X165546884Y-108577991D01*
X165536829Y-108591095D01*
X165521201Y-108618163D01*
X165299742Y-108618163D01*
X165283366Y-108620319D01*
X165126400Y-108662378D01*
X165126400Y-106641318D01*
X165129929Y-106625722D01*
X165131369Y-106607826D01*
X165126754Y-106533438D01*
X165147070Y-106486490D01*
X165150594Y-106475834D01*
X165204624Y-106245474D01*
X165206271Y-106232704D01*
X165214209Y-105929582D01*
X165213233Y-105916742D01*
X165171332Y-105683870D01*
X165168371Y-105673045D01*
X165086183Y-105452048D01*
X165081351Y-105441919D01*
X164961327Y-105238969D01*
X164954778Y-105229855D01*
X164800711Y-105051367D01*
X164792651Y-105043557D01*
X164609412Y-104895173D01*
X164600097Y-104888914D01*
X164393478Y-104775323D01*
X164383201Y-104770812D01*
X164159731Y-104695606D01*
X164148819Y-104692986D01*
X163915563Y-104658542D01*
X163904359Y-104657896D01*
X163668690Y-104665302D01*
X163657549Y-104666651D01*
X163426916Y-104715673D01*
X163416189Y-104718973D01*
X163197883Y-104808063D01*
X163187911Y-104813210D01*
X162988831Y-104939549D01*
X162979927Y-104946382D01*
X162806367Y-105105979D01*
X162798814Y-105114280D01*
X162656259Y-105302089D01*
X162650295Y-105311596D01*
X162543251Y-105521682D01*
X162539065Y-105532095D01*
X162470915Y-105757817D01*
X162468639Y-105768807D01*
X162441539Y-106003028D01*
X162441245Y-106014247D01*
X162456050Y-106249567D01*
X162457748Y-106260661D01*
X162513991Y-106489640D01*
X162517626Y-106500257D01*
X162613528Y-106715657D01*
X162618986Y-106725463D01*
X162751517Y-106920477D01*
X162758625Y-106929161D01*
X162923595Y-107097624D01*
X162932129Y-107104912D01*
X163124324Y-107241498D01*
X163134013Y-107247160D01*
X163347358Y-107347552D01*
X163357897Y-107351409D01*
X163549601Y-107402776D01*
X163549600Y-108648240D01*
X163384462Y-108619122D01*
X163373501Y-108618163D01*
X163241128Y-108618163D01*
X160922939Y-106299975D01*
X160914401Y-106286443D01*
X160902765Y-106272771D01*
X160842602Y-106219638D01*
X160823683Y-106200718D01*
X160816910Y-106194846D01*
X160801202Y-106183073D01*
X160747090Y-106135284D01*
X160732085Y-106125428D01*
X160711204Y-106115624D01*
X160692751Y-106101794D01*
X160677003Y-106093173D01*
X160609437Y-106067844D01*
X160543906Y-106037077D01*
X160526351Y-106031769D01*
X160504493Y-106028502D01*
X160482526Y-106020267D01*
X160464992Y-106016412D01*
X160382649Y-106010292D01*
X160362571Y-106007292D01*
X160353247Y-106006599D01*
X160332944Y-106006599D01*
X160332194Y-106006543D01*
X160334209Y-105929581D01*
X160333233Y-105916742D01*
X160291332Y-105683870D01*
X160288371Y-105673045D01*
X160206183Y-105452048D01*
X160201351Y-105441919D01*
X160081327Y-105238969D01*
X160074778Y-105229855D01*
X159920711Y-105051367D01*
X159912651Y-105043557D01*
X159729412Y-104895173D01*
X159720097Y-104888914D01*
X159513478Y-104775323D01*
X159503201Y-104770812D01*
X159279731Y-104695606D01*
X159268819Y-104692986D01*
X159035563Y-104658542D01*
X159024359Y-104657896D01*
X158788690Y-104665302D01*
X158777549Y-104666651D01*
X158546916Y-104715673D01*
X158536189Y-104718973D01*
X158317883Y-104808063D01*
X158307911Y-104813210D01*
X158108831Y-104939549D01*
X158099927Y-104946382D01*
X157926367Y-105105979D01*
X157918814Y-105114280D01*
X157776259Y-105302089D01*
X157770295Y-105311596D01*
X157663251Y-105521682D01*
X157659065Y-105532095D01*
X157590915Y-105757817D01*
X157588639Y-105768807D01*
X157561539Y-106003028D01*
X157561245Y-106014247D01*
X157576050Y-106249567D01*
X157577748Y-106260661D01*
X157633991Y-106489640D01*
X157637626Y-106500257D01*
X157733528Y-106715657D01*
X157738986Y-106725463D01*
X157871517Y-106920477D01*
X157878625Y-106929161D01*
X158043595Y-107097624D01*
X158052129Y-107104912D01*
X158244324Y-107241498D01*
X158254013Y-107247160D01*
X158467358Y-107347552D01*
X158477897Y-107351409D01*
X158705648Y-107412435D01*
X158716704Y-107414365D01*
X158951661Y-107434095D01*
X158962884Y-107434036D01*
X159197623Y-107411847D01*
X159205679Y-107410353D01*
X159255908Y-107454714D01*
X159270913Y-107464570D01*
X159291790Y-107474372D01*
X159310246Y-107488203D01*
X159325993Y-107496825D01*
X159393570Y-107522158D01*
X159459092Y-107552921D01*
X159476646Y-107558229D01*
X159498505Y-107561496D01*
X159520473Y-107569731D01*
X159538005Y-107573586D01*
X159620348Y-107579706D01*
X159640427Y-107582706D01*
X159649750Y-107583399D01*
X159670040Y-107583399D01*
X159745129Y-107588979D01*
X159763040Y-107587758D01*
X159783460Y-107583399D01*
X159976435Y-107583399D01*
X161051272Y-108658236D01*
X161037163Y-108653100D01*
X160844462Y-108619122D01*
X160833501Y-108618163D01*
X160219742Y-108618163D01*
X160203366Y-108620319D01*
X159924142Y-108695137D01*
X159899662Y-108707880D01*
X159887449Y-108718127D01*
X159787880Y-108660641D01*
X159767163Y-108653100D01*
X159574462Y-108619122D01*
X159563501Y-108618163D01*
X158949742Y-108618163D01*
X158933366Y-108620319D01*
X158654142Y-108695137D01*
X158629662Y-108707880D01*
X158617449Y-108718127D01*
X158517880Y-108660641D01*
X158497163Y-108653100D01*
X158304462Y-108619122D01*
X158293501Y-108618163D01*
X157679742Y-108618163D01*
X157663366Y-108620319D01*
X157384142Y-108695137D01*
X157359662Y-108707880D01*
X157347449Y-108718127D01*
X157247880Y-108660641D01*
X157227163Y-108653100D01*
X157034462Y-108619122D01*
X157023501Y-108618163D01*
X156409742Y-108618163D01*
X156393366Y-108620319D01*
X156114142Y-108695137D01*
X156089662Y-108707880D01*
X156077449Y-108718127D01*
X155977880Y-108660641D01*
X155957163Y-108653100D01*
X155764462Y-108619122D01*
X155753501Y-108618163D01*
X155139741Y-108618163D01*
X155131500Y-108619248D01*
X155131500Y-108520492D01*
X155138640Y-108466259D01*
X155138640Y-108449741D01*
X155108044Y-108217345D01*
X155103769Y-108201391D01*
X155014067Y-107984832D01*
X155005809Y-107970528D01*
X154901442Y-107834513D01*
X154863115Y-107784564D01*
X154851436Y-107772885D01*
X154808031Y-107739579D01*
X151848424Y-104779973D01*
X151815115Y-104736564D01*
X151803436Y-104724885D01*
X151617472Y-104582191D01*
X151603168Y-104573933D01*
X151386609Y-104484231D01*
X151370655Y-104479956D01*
X151200679Y-104457578D01*
X151138259Y-104449360D01*
X151121741Y-104449360D01*
X151067508Y-104456500D01*
X146112489Y-104456500D01*
X146058258Y-104449360D01*
X146041740Y-104449360D01*
X145979321Y-104457578D01*
X145809345Y-104479956D01*
X145793391Y-104484231D01*
X145576832Y-104573933D01*
X145562528Y-104582191D01*
X145376564Y-104724885D01*
X145364885Y-104736564D01*
X145331579Y-104779969D01*
X144149973Y-105961576D01*
X144106564Y-105994885D01*
X144094884Y-106006565D01*
X143999173Y-106131301D01*
X143952191Y-106192530D01*
X143943932Y-106206833D01*
X143854231Y-106423392D01*
X143849956Y-106439346D01*
X143819360Y-106671741D01*
X143819360Y-106688259D01*
X143826500Y-106742492D01*
X143826501Y-111365047D01*
X140723873Y-114467676D01*
X140605031Y-114362534D01*
X140596468Y-114356163D01*
X140506440Y-114300344D01*
X140573001Y-114260823D01*
X140581683Y-114254618D01*
X140767901Y-114096135D01*
X140775414Y-114088556D01*
X140932266Y-113900963D01*
X140938394Y-113892226D01*
X141061397Y-113680888D01*
X141065966Y-113671243D01*
X141151600Y-113442202D01*
X141154479Y-113431926D01*
X141200357Y-113191432D01*
X141201472Y-113180209D01*
X141204078Y-112908643D01*
X141203179Y-112897401D01*
X141161928Y-112656072D01*
X141159246Y-112645742D01*
X141078024Y-112415098D01*
X141073640Y-112405367D01*
X140954718Y-112191706D01*
X140948758Y-112182854D01*
X140795537Y-111992284D01*
X140788171Y-111984562D01*
X140605031Y-111822534D01*
X140596468Y-111816163D01*
X140506440Y-111760344D01*
X140597532Y-111706258D01*
X140612881Y-111583900D01*
X139752191Y-110723210D01*
X139647809Y-110723210D01*
X138791088Y-111579931D01*
X138798882Y-111694244D01*
X138887184Y-111761268D01*
X138715043Y-111886796D01*
X138706982Y-111893791D01*
X138536507Y-112069095D01*
X138529740Y-112077347D01*
X138391239Y-112278868D01*
X138385959Y-112288143D01*
X138283392Y-112510120D01*
X138279751Y-112520151D01*
X138216049Y-112756235D01*
X138214150Y-112766737D01*
X138191139Y-113010180D01*
X138191037Y-113020851D01*
X138209371Y-113264689D01*
X138211068Y-113275226D01*
X138270225Y-113512490D01*
X138273673Y-113522589D01*
X138371959Y-113746493D01*
X138377060Y-113755868D01*
X138511668Y-113960011D01*
X138518275Y-113968392D01*
X138685353Y-114146937D01*
X138693278Y-114154084D01*
X138887184Y-114301268D01*
X138715043Y-114426796D01*
X138706982Y-114433791D01*
X138536507Y-114609095D01*
X138530435Y-114616500D01*
X131973248Y-114616500D01*
X131905537Y-114532284D01*
X131898171Y-114524562D01*
X131715031Y-114362534D01*
X131706468Y-114356163D01*
X131616440Y-114300344D01*
X131683001Y-114260823D01*
X131691683Y-114254618D01*
X131877901Y-114096135D01*
X131885414Y-114088556D01*
X132042266Y-113900963D01*
X132048394Y-113892226D01*
X132171397Y-113680888D01*
X132175966Y-113671243D01*
X132261600Y-113442202D01*
X132264479Y-113431926D01*
X132310357Y-113191432D01*
X132311472Y-113180209D01*
X132314078Y-112908643D01*
X132313179Y-112897401D01*
X132271928Y-112656072D01*
X132269246Y-112645742D01*
X132188024Y-112415098D01*
X132183640Y-112405367D01*
X132064718Y-112191706D01*
X132058758Y-112182854D01*
X131905537Y-111992284D01*
X131898171Y-111984562D01*
X131715031Y-111822534D01*
X131706468Y-111816163D01*
X131616440Y-111760344D01*
X131707532Y-111706258D01*
X131722881Y-111583900D01*
X130862191Y-110723210D01*
X130757809Y-110723210D01*
X129901088Y-111579931D01*
X129908882Y-111694244D01*
X129997184Y-111761268D01*
X129825043Y-111886796D01*
X129816982Y-111893791D01*
X129646507Y-112069095D01*
X129639740Y-112077347D01*
X129501239Y-112278868D01*
X129495959Y-112288143D01*
X129393392Y-112510120D01*
X129389751Y-112520151D01*
X129326049Y-112756235D01*
X129324150Y-112766737D01*
X129301139Y-113010180D01*
X129301037Y-113020851D01*
X129319371Y-113264689D01*
X129321068Y-113275226D01*
X129380225Y-113512490D01*
X129383673Y-113522589D01*
X129481959Y-113746493D01*
X129487060Y-113755868D01*
X129621668Y-113960011D01*
X129628275Y-113968392D01*
X129795353Y-114146937D01*
X129803278Y-114154084D01*
X129997184Y-114301268D01*
X129825043Y-114426796D01*
X129816982Y-114433791D01*
X129646507Y-114609095D01*
X129640435Y-114616500D01*
X123083248Y-114616500D01*
X123015537Y-114532284D01*
X123008171Y-114524562D01*
X122825031Y-114362534D01*
X122816468Y-114356163D01*
X122726440Y-114300344D01*
X122793001Y-114260823D01*
X122801683Y-114254618D01*
X122987901Y-114096135D01*
X122995414Y-114088556D01*
X123152266Y-113900963D01*
X123158394Y-113892226D01*
X123281397Y-113680888D01*
X123285966Y-113671243D01*
X123371600Y-113442202D01*
X123374479Y-113431926D01*
X123420357Y-113191432D01*
X123421472Y-113180209D01*
X123424078Y-112908643D01*
X123423179Y-112897401D01*
X123381928Y-112656072D01*
X123379246Y-112645742D01*
X123298024Y-112415098D01*
X123293640Y-112405367D01*
X123174718Y-112191706D01*
X123168758Y-112182854D01*
X123015537Y-111992284D01*
X123008171Y-111984562D01*
X122825031Y-111822534D01*
X122816468Y-111816163D01*
X122726440Y-111760344D01*
X122817532Y-111706258D01*
X122832881Y-111583900D01*
X121972191Y-110723210D01*
X121867809Y-110723210D01*
X121011088Y-111579931D01*
X121018882Y-111694244D01*
X121107184Y-111761268D01*
X120935043Y-111886796D01*
X120926982Y-111893791D01*
X120756507Y-112069095D01*
X120749740Y-112077347D01*
X120611239Y-112278868D01*
X120605959Y-112288143D01*
X120503392Y-112510120D01*
X120499751Y-112520151D01*
X120436049Y-112756235D01*
X120434150Y-112766737D01*
X120411139Y-113010180D01*
X120411037Y-113020851D01*
X120429371Y-113264689D01*
X120431068Y-113275226D01*
X120490225Y-113512490D01*
X120493673Y-113522589D01*
X120591959Y-113746493D01*
X120597060Y-113755868D01*
X120731668Y-113960011D01*
X120738275Y-113968392D01*
X120905353Y-114146937D01*
X120913278Y-114154084D01*
X121107184Y-114301268D01*
X120935043Y-114426796D01*
X120926982Y-114433791D01*
X120756507Y-114609095D01*
X120750435Y-114616500D01*
X114193248Y-114616500D01*
X114125537Y-114532284D01*
X114118171Y-114524562D01*
X113935031Y-114362534D01*
X113926468Y-114356163D01*
X113836440Y-114300344D01*
X113903001Y-114260823D01*
X113911683Y-114254618D01*
X114097901Y-114096135D01*
X114105414Y-114088556D01*
X114262266Y-113900963D01*
X114268394Y-113892226D01*
X114391397Y-113680888D01*
X114395966Y-113671243D01*
X114481600Y-113442202D01*
X114484479Y-113431926D01*
X114530357Y-113191432D01*
X114531472Y-113180209D01*
X114534078Y-112908643D01*
X114533179Y-112897401D01*
X114491928Y-112656072D01*
X114489246Y-112645742D01*
X114408024Y-112415098D01*
X114403640Y-112405367D01*
X114284718Y-112191706D01*
X114278758Y-112182854D01*
X114125537Y-111992284D01*
X114118171Y-111984562D01*
X113935031Y-111822534D01*
X113926468Y-111816163D01*
X113836440Y-111760344D01*
X113927532Y-111706258D01*
X113942881Y-111583900D01*
X113082191Y-110723210D01*
X112977809Y-110723210D01*
X112121088Y-111579931D01*
X112128882Y-111694244D01*
X112217184Y-111761268D01*
X112045043Y-111886796D01*
X112036982Y-111893791D01*
X111866507Y-112069095D01*
X111859740Y-112077347D01*
X111721239Y-112278868D01*
X111715959Y-112288143D01*
X111613392Y-112510120D01*
X111609751Y-112520151D01*
X111546049Y-112756235D01*
X111544150Y-112766737D01*
X111521139Y-113010180D01*
X111521037Y-113020851D01*
X111539371Y-113264689D01*
X111541068Y-113275226D01*
X111600225Y-113512490D01*
X111603673Y-113522589D01*
X111701959Y-113746493D01*
X111707060Y-113755868D01*
X111841668Y-113960011D01*
X111848275Y-113968392D01*
X112015353Y-114146937D01*
X112023278Y-114154084D01*
X112217184Y-114301268D01*
X112045043Y-114426796D01*
X112036982Y-114433791D01*
X111866507Y-114609095D01*
X111860435Y-114616500D01*
X105303248Y-114616500D01*
X105235537Y-114532284D01*
X105228171Y-114524562D01*
X105045031Y-114362534D01*
X105036468Y-114356163D01*
X104946440Y-114300344D01*
X105013001Y-114260823D01*
X105021683Y-114254618D01*
X105207901Y-114096135D01*
X105215414Y-114088556D01*
X105372266Y-113900963D01*
X105378394Y-113892226D01*
X105501397Y-113680888D01*
X105505966Y-113671243D01*
X105591600Y-113442202D01*
X105594479Y-113431926D01*
X105640357Y-113191432D01*
X105641472Y-113180209D01*
X105644078Y-112908643D01*
X105643179Y-112897401D01*
X105601928Y-112656072D01*
X105599246Y-112645742D01*
X105518024Y-112415098D01*
X105513640Y-112405367D01*
X105394718Y-112191706D01*
X105388758Y-112182854D01*
X105235537Y-111992284D01*
X105228171Y-111984562D01*
X105045031Y-111822534D01*
X105036468Y-111816163D01*
X104946440Y-111760344D01*
X105037532Y-111706258D01*
X105052881Y-111583900D01*
X104192191Y-110723210D01*
X104087809Y-110723210D01*
X103231088Y-111579931D01*
X103238882Y-111694244D01*
X103327184Y-111761268D01*
X103155043Y-111886796D01*
X103146982Y-111893791D01*
X102976507Y-112069095D01*
X102969740Y-112077347D01*
X102831239Y-112278868D01*
X102825959Y-112288143D01*
X102723392Y-112510120D01*
X102719751Y-112520151D01*
X102656049Y-112756235D01*
X102654150Y-112766737D01*
X102631139Y-113010180D01*
X102631037Y-113020851D01*
X102649371Y-113264689D01*
X102651068Y-113275226D01*
X102710225Y-113512490D01*
X102713673Y-113522589D01*
X102811959Y-113746493D01*
X102817060Y-113755868D01*
X102951668Y-113960011D01*
X102958275Y-113968392D01*
X103125353Y-114146937D01*
X103133278Y-114154084D01*
X103327184Y-114301268D01*
X103155043Y-114426796D01*
X103146982Y-114433791D01*
X102976507Y-114609095D01*
X102970435Y-114616500D01*
X96413248Y-114616500D01*
X96345537Y-114532284D01*
X96338171Y-114524562D01*
X96155031Y-114362534D01*
X96146468Y-114356163D01*
X96056440Y-114300344D01*
X96123001Y-114260823D01*
X96131683Y-114254618D01*
X96317901Y-114096135D01*
X96325414Y-114088556D01*
X96482266Y-113900963D01*
X96488394Y-113892226D01*
X96611397Y-113680888D01*
X96615966Y-113671243D01*
X96701600Y-113442202D01*
X96704479Y-113431926D01*
X96750357Y-113191432D01*
X96751472Y-113180209D01*
X96754078Y-112908643D01*
X96753179Y-112897401D01*
X96711928Y-112656072D01*
X96709246Y-112645742D01*
X96628024Y-112415098D01*
X96623640Y-112405367D01*
X96504718Y-112191706D01*
X96498758Y-112182854D01*
X96345537Y-111992284D01*
X96338171Y-111984562D01*
X96155031Y-111822534D01*
X96146468Y-111816163D01*
X96056440Y-111760344D01*
X96147532Y-111706258D01*
X96162881Y-111583900D01*
X95302191Y-110723210D01*
X95197809Y-110723210D01*
X94341088Y-111579931D01*
X94348882Y-111694244D01*
X94437184Y-111761268D01*
X94265043Y-111886796D01*
X94256982Y-111893791D01*
X94086507Y-112069095D01*
X94079740Y-112077347D01*
X93941239Y-112278868D01*
X93935959Y-112288143D01*
X93833392Y-112510120D01*
X93829751Y-112520151D01*
X93766049Y-112756235D01*
X93764150Y-112766737D01*
X93741139Y-113010180D01*
X93741037Y-113020851D01*
X93759371Y-113264689D01*
X93761068Y-113275226D01*
X93820225Y-113512490D01*
X93823673Y-113522589D01*
X93921959Y-113746493D01*
X93927060Y-113755868D01*
X94061668Y-113960011D01*
X94068275Y-113968392D01*
X94235353Y-114146937D01*
X94243278Y-114154084D01*
X94437184Y-114301268D01*
X94265043Y-114426796D01*
X94256982Y-114433791D01*
X94086507Y-114609095D01*
X94080435Y-114616500D01*
X87523248Y-114616500D01*
X87455537Y-114532284D01*
X87448171Y-114524562D01*
X87265031Y-114362534D01*
X87256468Y-114356163D01*
X87166440Y-114300344D01*
X87233001Y-114260823D01*
X87241683Y-114254618D01*
X87427901Y-114096135D01*
X87435414Y-114088556D01*
X87592266Y-113900963D01*
X87598394Y-113892226D01*
X87721397Y-113680888D01*
X87725966Y-113671243D01*
X87811600Y-113442202D01*
X87814479Y-113431926D01*
X87860357Y-113191432D01*
X87861472Y-113180209D01*
X87864078Y-112908643D01*
X87863179Y-112897401D01*
X87821928Y-112656072D01*
X87819246Y-112645742D01*
X87738024Y-112415098D01*
X87733640Y-112405367D01*
X87614718Y-112191706D01*
X87608758Y-112182854D01*
X87455537Y-111992284D01*
X87448171Y-111984562D01*
X87265031Y-111822534D01*
X87256468Y-111816163D01*
X87166440Y-111760344D01*
X87257532Y-111706258D01*
X87272881Y-111583900D01*
X86412191Y-110723210D01*
X86307809Y-110723210D01*
X85451088Y-111579931D01*
X85458882Y-111694244D01*
X85547184Y-111761268D01*
X85375043Y-111886796D01*
X85366982Y-111893791D01*
X85196507Y-112069095D01*
X85189740Y-112077347D01*
X85051239Y-112278868D01*
X85045959Y-112288143D01*
X84943392Y-112510120D01*
X84939751Y-112520151D01*
X84876049Y-112756235D01*
X84874150Y-112766737D01*
X84851139Y-113010180D01*
X84851037Y-113020851D01*
X84869371Y-113264689D01*
X84871068Y-113275226D01*
X84930225Y-113512490D01*
X84933673Y-113522589D01*
X85031959Y-113746493D01*
X85037060Y-113755868D01*
X85171668Y-113960011D01*
X85178275Y-113968392D01*
X85345353Y-114146937D01*
X85353278Y-114154084D01*
X85547184Y-114301268D01*
X85375043Y-114426796D01*
X85366982Y-114433791D01*
X85196507Y-114609095D01*
X85190435Y-114616500D01*
X78633248Y-114616500D01*
X78565537Y-114532284D01*
X78558171Y-114524562D01*
X78375031Y-114362534D01*
X78366468Y-114356163D01*
X78276440Y-114300344D01*
X78343001Y-114260823D01*
X78351683Y-114254618D01*
X78537901Y-114096135D01*
X78545414Y-114088556D01*
X78702266Y-113900963D01*
X78708394Y-113892226D01*
X78831397Y-113680888D01*
X78835966Y-113671243D01*
X78921600Y-113442202D01*
X78924479Y-113431926D01*
X78970357Y-113191432D01*
X78971472Y-113180209D01*
X78974078Y-112908643D01*
X78973179Y-112897401D01*
X78931928Y-112656072D01*
X78929246Y-112645742D01*
X78848024Y-112415098D01*
X78843640Y-112405367D01*
X78724718Y-112191706D01*
X78718758Y-112182854D01*
X78565537Y-111992284D01*
X78558171Y-111984562D01*
X78375031Y-111822534D01*
X78366468Y-111816163D01*
X78276440Y-111760344D01*
X78367532Y-111706258D01*
X78382881Y-111583900D01*
X77522191Y-110723210D01*
X77417809Y-110723210D01*
X76561088Y-111579931D01*
X76568882Y-111694244D01*
X76657184Y-111761268D01*
X76485043Y-111886796D01*
X76476982Y-111893791D01*
X76306507Y-112069095D01*
X76299740Y-112077347D01*
X76161239Y-112278868D01*
X76155959Y-112288143D01*
X76053392Y-112510120D01*
X76049751Y-112520151D01*
X75986049Y-112756235D01*
X75984150Y-112766737D01*
X75961139Y-113010180D01*
X75961037Y-113020851D01*
X65531000Y-113020851D01*
X65531000Y-110480851D01*
X75961037Y-110480851D01*
X75979371Y-110724689D01*
X75981068Y-110735226D01*
X76040225Y-110972490D01*
X76043673Y-110982589D01*
X76141959Y-111206493D01*
X76147060Y-111215868D01*
X76260275Y-111387568D01*
X76379321Y-111399660D01*
X77236790Y-110542191D01*
X77236790Y-110437809D01*
X77703210Y-110437809D01*
X77703210Y-110542191D01*
X78564748Y-111403729D01*
X78687715Y-111387758D01*
X78831397Y-111140888D01*
X78835966Y-111131243D01*
X78921600Y-110902202D01*
X78924479Y-110891926D01*
X78970357Y-110651432D01*
X78971472Y-110640209D01*
X78973001Y-110480851D01*
X84851037Y-110480851D01*
X84869371Y-110724689D01*
X84871068Y-110735226D01*
X84930225Y-110972490D01*
X84933673Y-110982589D01*
X85031959Y-111206493D01*
X85037060Y-111215868D01*
X85150275Y-111387568D01*
X85269321Y-111399660D01*
X86126790Y-110542191D01*
X86126790Y-110437809D01*
X86593210Y-110437809D01*
X86593210Y-110542191D01*
X87454748Y-111403729D01*
X87577715Y-111387758D01*
X87721397Y-111140888D01*
X87725966Y-111131243D01*
X87811600Y-110902202D01*
X87814479Y-110891926D01*
X87860357Y-110651432D01*
X87861472Y-110640209D01*
X87863001Y-110480851D01*
X93741037Y-110480851D01*
X93759371Y-110724689D01*
X93761068Y-110735226D01*
X93820225Y-110972490D01*
X93823673Y-110982589D01*
X93921959Y-111206493D01*
X93927060Y-111215868D01*
X94040275Y-111387568D01*
X94159321Y-111399660D01*
X95016790Y-110542191D01*
X95016790Y-110437809D01*
X95483210Y-110437809D01*
X95483210Y-110542191D01*
X96344748Y-111403729D01*
X96467715Y-111387758D01*
X96611397Y-111140888D01*
X96615966Y-111131243D01*
X96701600Y-110902202D01*
X96704479Y-110891926D01*
X96750357Y-110651432D01*
X96751472Y-110640209D01*
X96753001Y-110480851D01*
X102631037Y-110480851D01*
X102649371Y-110724689D01*
X102651068Y-110735226D01*
X102710225Y-110972490D01*
X102713673Y-110982589D01*
X102811959Y-111206493D01*
X102817060Y-111215868D01*
X102930275Y-111387568D01*
X103049321Y-111399660D01*
X103906790Y-110542191D01*
X103906790Y-110437809D01*
X104373210Y-110437809D01*
X104373210Y-110542191D01*
X105234748Y-111403729D01*
X105357715Y-111387758D01*
X105501397Y-111140888D01*
X105505966Y-111131243D01*
X105591600Y-110902202D01*
X105594479Y-110891926D01*
X105640357Y-110651432D01*
X105641472Y-110640209D01*
X105643001Y-110480851D01*
X111521037Y-110480851D01*
X111539371Y-110724689D01*
X111541068Y-110735226D01*
X111600225Y-110972490D01*
X111603673Y-110982589D01*
X111701959Y-111206493D01*
X111707060Y-111215868D01*
X111820275Y-111387568D01*
X111939321Y-111399660D01*
X112796790Y-110542191D01*
X112796790Y-110437809D01*
X113263210Y-110437809D01*
X113263210Y-110542191D01*
X114124748Y-111403729D01*
X114247715Y-111387758D01*
X114391397Y-111140888D01*
X114395966Y-111131243D01*
X114481600Y-110902202D01*
X114484479Y-110891926D01*
X114530357Y-110651432D01*
X114531472Y-110640209D01*
X114533001Y-110480851D01*
X120411037Y-110480851D01*
X120429371Y-110724689D01*
X120431068Y-110735226D01*
X120490225Y-110972490D01*
X120493673Y-110982589D01*
X120591959Y-111206493D01*
X120597060Y-111215868D01*
X120710275Y-111387568D01*
X120829321Y-111399660D01*
X121686790Y-110542191D01*
X121686790Y-110437809D01*
X122153210Y-110437809D01*
X122153210Y-110542191D01*
X123014748Y-111403729D01*
X123137715Y-111387758D01*
X123281397Y-111140888D01*
X123285966Y-111131243D01*
X123371600Y-110902202D01*
X123374479Y-110891926D01*
X123420357Y-110651432D01*
X123421472Y-110640209D01*
X123423001Y-110480851D01*
X129301037Y-110480851D01*
X129319371Y-110724689D01*
X129321068Y-110735226D01*
X129380225Y-110972490D01*
X129383673Y-110982589D01*
X129481959Y-111206493D01*
X129487060Y-111215868D01*
X129600275Y-111387568D01*
X129719321Y-111399660D01*
X130576790Y-110542191D01*
X130576790Y-110437809D01*
X131043210Y-110437809D01*
X131043210Y-110542191D01*
X131904748Y-111403729D01*
X132027715Y-111387758D01*
X132171397Y-111140888D01*
X132175966Y-111131243D01*
X132261600Y-110902202D01*
X132264479Y-110891926D01*
X132310357Y-110651432D01*
X132311472Y-110640209D01*
X132313001Y-110480851D01*
X138191037Y-110480851D01*
X138209371Y-110724689D01*
X138211068Y-110735226D01*
X138270225Y-110972490D01*
X138273673Y-110982589D01*
X138371959Y-111206493D01*
X138377060Y-111215868D01*
X138490275Y-111387568D01*
X138609321Y-111399660D01*
X139466790Y-110542191D01*
X139466790Y-110437809D01*
X139933210Y-110437809D01*
X139933210Y-110542191D01*
X140794748Y-111403729D01*
X140917715Y-111387758D01*
X141061397Y-111140888D01*
X141065966Y-111131243D01*
X141151600Y-110902202D01*
X141154479Y-110891926D01*
X141200357Y-110651432D01*
X141201472Y-110640209D01*
X141204078Y-110368643D01*
X141203179Y-110357401D01*
X141161928Y-110116072D01*
X141159246Y-110105742D01*
X141078024Y-109875098D01*
X141073640Y-109865367D01*
X140954718Y-109651707D01*
X140948759Y-109642855D01*
X140903205Y-109586195D01*
X140790907Y-109580112D01*
X139933210Y-110437809D01*
X139466790Y-110437809D01*
X138609987Y-109581006D01*
X138492303Y-109591819D01*
X138391239Y-109738868D01*
X138385959Y-109748143D01*
X138283392Y-109970120D01*
X138279751Y-109980151D01*
X138216049Y-110216235D01*
X138214150Y-110226737D01*
X138191139Y-110470180D01*
X138191037Y-110480851D01*
X132313001Y-110480851D01*
X132314078Y-110368643D01*
X132313179Y-110357401D01*
X132271928Y-110116072D01*
X132269246Y-110105742D01*
X132188024Y-109875098D01*
X132183640Y-109865367D01*
X132064718Y-109651707D01*
X132058759Y-109642855D01*
X132013205Y-109586195D01*
X131900907Y-109580112D01*
X131043210Y-110437809D01*
X130576790Y-110437809D01*
X129719987Y-109581006D01*
X129602303Y-109591819D01*
X129501239Y-109738868D01*
X129495959Y-109748143D01*
X129393392Y-109970120D01*
X129389751Y-109980151D01*
X129326049Y-110216235D01*
X129324150Y-110226737D01*
X129301139Y-110470180D01*
X129301037Y-110480851D01*
X123423001Y-110480851D01*
X123424078Y-110368643D01*
X123423179Y-110357401D01*
X123381928Y-110116072D01*
X123379246Y-110105742D01*
X123298024Y-109875098D01*
X123293640Y-109865367D01*
X123174718Y-109651707D01*
X123168759Y-109642855D01*
X123123205Y-109586195D01*
X123010907Y-109580112D01*
X122153210Y-110437809D01*
X121686790Y-110437809D01*
X120829987Y-109581006D01*
X120712303Y-109591819D01*
X120611239Y-109738868D01*
X120605959Y-109748143D01*
X120503392Y-109970120D01*
X120499751Y-109980151D01*
X120436049Y-110216235D01*
X120434150Y-110226737D01*
X120411139Y-110470180D01*
X120411037Y-110480851D01*
X114533001Y-110480851D01*
X114534078Y-110368643D01*
X114533179Y-110357401D01*
X114491928Y-110116072D01*
X114489246Y-110105742D01*
X114408024Y-109875098D01*
X114403640Y-109865367D01*
X114284718Y-109651707D01*
X114278759Y-109642855D01*
X114233205Y-109586195D01*
X114120907Y-109580112D01*
X113263210Y-110437809D01*
X112796790Y-110437809D01*
X111939987Y-109581006D01*
X111822303Y-109591819D01*
X111721239Y-109738868D01*
X111715959Y-109748143D01*
X111613392Y-109970120D01*
X111609751Y-109980151D01*
X111546049Y-110216235D01*
X111544150Y-110226737D01*
X111521139Y-110470180D01*
X111521037Y-110480851D01*
X105643001Y-110480851D01*
X105644078Y-110368643D01*
X105643179Y-110357401D01*
X105601928Y-110116072D01*
X105599246Y-110105742D01*
X105518024Y-109875098D01*
X105513640Y-109865367D01*
X105394718Y-109651707D01*
X105388759Y-109642855D01*
X105343205Y-109586195D01*
X105230907Y-109580112D01*
X104373210Y-110437809D01*
X103906790Y-110437809D01*
X103049987Y-109581006D01*
X102932303Y-109591819D01*
X102831239Y-109738868D01*
X102825959Y-109748143D01*
X102723392Y-109970120D01*
X102719751Y-109980151D01*
X102656049Y-110216235D01*
X102654150Y-110226737D01*
X102631139Y-110470180D01*
X102631037Y-110480851D01*
X96753001Y-110480851D01*
X96754078Y-110368643D01*
X96753179Y-110357401D01*
X96711928Y-110116072D01*
X96709246Y-110105742D01*
X96628024Y-109875098D01*
X96623640Y-109865367D01*
X96504718Y-109651707D01*
X96498759Y-109642855D01*
X96453205Y-109586195D01*
X96340907Y-109580112D01*
X95483210Y-110437809D01*
X95016790Y-110437809D01*
X94159987Y-109581006D01*
X94042303Y-109591819D01*
X93941239Y-109738868D01*
X93935959Y-109748143D01*
X93833392Y-109970120D01*
X93829751Y-109980151D01*
X93766049Y-110216235D01*
X93764150Y-110226737D01*
X93741139Y-110470180D01*
X93741037Y-110480851D01*
X87863001Y-110480851D01*
X87864078Y-110368643D01*
X87863179Y-110357401D01*
X87821928Y-110116072D01*
X87819246Y-110105742D01*
X87738024Y-109875098D01*
X87733640Y-109865367D01*
X87614718Y-109651707D01*
X87608759Y-109642855D01*
X87563205Y-109586195D01*
X87450907Y-109580112D01*
X86593210Y-110437809D01*
X86126790Y-110437809D01*
X85269987Y-109581006D01*
X85152303Y-109591819D01*
X85051239Y-109738868D01*
X85045959Y-109748143D01*
X84943392Y-109970120D01*
X84939751Y-109980151D01*
X84876049Y-110216235D01*
X84874150Y-110226737D01*
X84851139Y-110470180D01*
X84851037Y-110480851D01*
X78973001Y-110480851D01*
X78974078Y-110368643D01*
X78973179Y-110357401D01*
X78931928Y-110116072D01*
X78929246Y-110105742D01*
X78848024Y-109875098D01*
X78843640Y-109865367D01*
X78724718Y-109651707D01*
X78718759Y-109642855D01*
X78673205Y-109586195D01*
X78560907Y-109580112D01*
X77703210Y-110437809D01*
X77236790Y-110437809D01*
X76379987Y-109581006D01*
X76262303Y-109591819D01*
X76161239Y-109738868D01*
X76155959Y-109748143D01*
X76053392Y-109970120D01*
X76049751Y-109980151D01*
X75986049Y-110216235D01*
X75984150Y-110226737D01*
X75961139Y-110470180D01*
X75961037Y-110480851D01*
X65531000Y-110480851D01*
X65531000Y-107328070D01*
X75960776Y-107328070D01*
X75960776Y-108574184D01*
X75962220Y-108587614D01*
X76035255Y-108923353D01*
X76043885Y-108944188D01*
X76172696Y-109144620D01*
X76184499Y-109158241D01*
X76362849Y-109312783D01*
X76378011Y-109322527D01*
X76572253Y-109411234D01*
X77417809Y-110256790D01*
X77522191Y-110256790D01*
X78380581Y-109398400D01*
X78443353Y-109384745D01*
X78464188Y-109376115D01*
X78664620Y-109247304D01*
X78678241Y-109235501D01*
X78832783Y-109057151D01*
X78842527Y-109041989D01*
X78940561Y-108827324D01*
X78945639Y-108810031D01*
X78978582Y-108580907D01*
X78979224Y-108571930D01*
X78979224Y-107328070D01*
X84850776Y-107328070D01*
X84850776Y-108574184D01*
X84852220Y-108587614D01*
X84925255Y-108923353D01*
X84933885Y-108944188D01*
X85062696Y-109144620D01*
X85074499Y-109158241D01*
X85252849Y-109312783D01*
X85268011Y-109322527D01*
X85462253Y-109411234D01*
X86307809Y-110256790D01*
X86412191Y-110256790D01*
X87270581Y-109398400D01*
X87333353Y-109384745D01*
X87354188Y-109376115D01*
X87554620Y-109247304D01*
X87568241Y-109235501D01*
X87722783Y-109057151D01*
X87732527Y-109041989D01*
X87830561Y-108827324D01*
X87835639Y-108810031D01*
X87868582Y-108580907D01*
X87869224Y-108571930D01*
X87869224Y-107328070D01*
X93740776Y-107328070D01*
X93740776Y-108574184D01*
X93742220Y-108587614D01*
X93815255Y-108923353D01*
X93823885Y-108944188D01*
X93952696Y-109144620D01*
X93964499Y-109158241D01*
X94142849Y-109312783D01*
X94158011Y-109322527D01*
X94352253Y-109411234D01*
X95197809Y-110256790D01*
X95302191Y-110256790D01*
X96160581Y-109398400D01*
X96223353Y-109384745D01*
X96244188Y-109376115D01*
X96444620Y-109247304D01*
X96458241Y-109235501D01*
X96612783Y-109057151D01*
X96622527Y-109041989D01*
X96720561Y-108827324D01*
X96725639Y-108810031D01*
X96758582Y-108580907D01*
X96759224Y-108571930D01*
X96759224Y-107328070D01*
X102630776Y-107328070D01*
X102630776Y-108574184D01*
X102632220Y-108587614D01*
X102705255Y-108923353D01*
X102713885Y-108944188D01*
X102842696Y-109144620D01*
X102854499Y-109158241D01*
X103032849Y-109312783D01*
X103048011Y-109322527D01*
X103242253Y-109411234D01*
X104087809Y-110256790D01*
X104192191Y-110256790D01*
X105050581Y-109398400D01*
X105113353Y-109384745D01*
X105134188Y-109376115D01*
X105334620Y-109247304D01*
X105348241Y-109235501D01*
X105502783Y-109057151D01*
X105512527Y-109041989D01*
X105610561Y-108827324D01*
X105615639Y-108810031D01*
X105648582Y-108580907D01*
X105649224Y-108571930D01*
X105649224Y-107328070D01*
X111520776Y-107328070D01*
X111520776Y-108574184D01*
X111522220Y-108587614D01*
X111595255Y-108923353D01*
X111603885Y-108944188D01*
X111732696Y-109144620D01*
X111744499Y-109158241D01*
X111922849Y-109312783D01*
X111938011Y-109322527D01*
X112132253Y-109411234D01*
X112977809Y-110256790D01*
X113082191Y-110256790D01*
X113940581Y-109398400D01*
X114003353Y-109384745D01*
X114024188Y-109376115D01*
X114224620Y-109247304D01*
X114238241Y-109235501D01*
X114392783Y-109057151D01*
X114402527Y-109041989D01*
X114500561Y-108827324D01*
X114505639Y-108810031D01*
X114538582Y-108580907D01*
X114539224Y-108571930D01*
X114539224Y-107328070D01*
X120410776Y-107328070D01*
X120410776Y-108574184D01*
X120412220Y-108587614D01*
X120485255Y-108923353D01*
X120493885Y-108944188D01*
X120622696Y-109144620D01*
X120634499Y-109158241D01*
X120812849Y-109312783D01*
X120828011Y-109322527D01*
X121022253Y-109411234D01*
X121867809Y-110256790D01*
X121972191Y-110256790D01*
X122830581Y-109398400D01*
X122893353Y-109384745D01*
X122914188Y-109376115D01*
X123114620Y-109247304D01*
X123128241Y-109235501D01*
X123282783Y-109057151D01*
X123292527Y-109041989D01*
X123390561Y-108827324D01*
X123395639Y-108810031D01*
X123428582Y-108580907D01*
X123429224Y-108571930D01*
X123429224Y-107328070D01*
X129300776Y-107328070D01*
X129300776Y-108574184D01*
X129302220Y-108587614D01*
X129375255Y-108923353D01*
X129383885Y-108944188D01*
X129512696Y-109144620D01*
X129524499Y-109158241D01*
X129702849Y-109312783D01*
X129718011Y-109322527D01*
X129912253Y-109411234D01*
X130757809Y-110256790D01*
X130862191Y-110256790D01*
X131720581Y-109398400D01*
X131783353Y-109384745D01*
X131804188Y-109376115D01*
X132004620Y-109247304D01*
X132018241Y-109235501D01*
X132172783Y-109057151D01*
X132182527Y-109041989D01*
X132280561Y-108827324D01*
X132285639Y-108810031D01*
X132318582Y-108580907D01*
X132319224Y-108571930D01*
X132319224Y-107328070D01*
X138190776Y-107328070D01*
X138190776Y-108574184D01*
X138192220Y-108587614D01*
X138265255Y-108923353D01*
X138273885Y-108944188D01*
X138402696Y-109144620D01*
X138414499Y-109158241D01*
X138592849Y-109312783D01*
X138608011Y-109322527D01*
X138802253Y-109411234D01*
X139647809Y-110256790D01*
X139752191Y-110256790D01*
X140610581Y-109398400D01*
X140673353Y-109384745D01*
X140694188Y-109376115D01*
X140894620Y-109247304D01*
X140908241Y-109235501D01*
X141062783Y-109057151D01*
X141072527Y-109041989D01*
X141170561Y-108827324D01*
X141175639Y-108810031D01*
X141208582Y-108580907D01*
X141209224Y-108571930D01*
X141209224Y-107325816D01*
X141207780Y-107312386D01*
X141134745Y-106976647D01*
X141126115Y-106955812D01*
X140997304Y-106755380D01*
X140985501Y-106741759D01*
X140807151Y-106587217D01*
X140791989Y-106577473D01*
X140577324Y-106479439D01*
X140560031Y-106474361D01*
X140330907Y-106441418D01*
X140321930Y-106440776D01*
X139075816Y-106440776D01*
X139062386Y-106442220D01*
X138726647Y-106515255D01*
X138705812Y-106523885D01*
X138505380Y-106652696D01*
X138491759Y-106664499D01*
X138337217Y-106842849D01*
X138327473Y-106858011D01*
X138229439Y-107072676D01*
X138224361Y-107089969D01*
X138191418Y-107319093D01*
X138190776Y-107328070D01*
X132319224Y-107328070D01*
X132319224Y-107325816D01*
X132317780Y-107312386D01*
X132244745Y-106976647D01*
X132236115Y-106955812D01*
X132107304Y-106755380D01*
X132095501Y-106741759D01*
X131917151Y-106587217D01*
X131901989Y-106577473D01*
X131687324Y-106479439D01*
X131670031Y-106474361D01*
X131440907Y-106441418D01*
X131431930Y-106440776D01*
X130185816Y-106440776D01*
X130172386Y-106442220D01*
X129836647Y-106515255D01*
X129815812Y-106523885D01*
X129615380Y-106652696D01*
X129601759Y-106664499D01*
X129447217Y-106842849D01*
X129437473Y-106858011D01*
X129339439Y-107072676D01*
X129334361Y-107089969D01*
X129301418Y-107319093D01*
X129300776Y-107328070D01*
X123429224Y-107328070D01*
X123429224Y-107325816D01*
X123427780Y-107312386D01*
X123354745Y-106976647D01*
X123346115Y-106955812D01*
X123217304Y-106755380D01*
X123205501Y-106741759D01*
X123027151Y-106587217D01*
X123011989Y-106577473D01*
X122797324Y-106479439D01*
X122780031Y-106474361D01*
X122550907Y-106441418D01*
X122541930Y-106440776D01*
X121295816Y-106440776D01*
X121282386Y-106442220D01*
X120946647Y-106515255D01*
X120925812Y-106523885D01*
X120725380Y-106652696D01*
X120711759Y-106664499D01*
X120557217Y-106842849D01*
X120547473Y-106858011D01*
X120449439Y-107072676D01*
X120444361Y-107089969D01*
X120411418Y-107319093D01*
X120410776Y-107328070D01*
X114539224Y-107328070D01*
X114539224Y-107325816D01*
X114537780Y-107312386D01*
X114464745Y-106976647D01*
X114456115Y-106955812D01*
X114327304Y-106755380D01*
X114315501Y-106741759D01*
X114137151Y-106587217D01*
X114121989Y-106577473D01*
X113907324Y-106479439D01*
X113890031Y-106474361D01*
X113660907Y-106441418D01*
X113651930Y-106440776D01*
X112405816Y-106440776D01*
X112392386Y-106442220D01*
X112056647Y-106515255D01*
X112035812Y-106523885D01*
X111835380Y-106652696D01*
X111821759Y-106664499D01*
X111667217Y-106842849D01*
X111657473Y-106858011D01*
X111559439Y-107072676D01*
X111554361Y-107089969D01*
X111521418Y-107319093D01*
X111520776Y-107328070D01*
X105649224Y-107328070D01*
X105649224Y-107325816D01*
X105647780Y-107312386D01*
X105574745Y-106976647D01*
X105566115Y-106955812D01*
X105437304Y-106755380D01*
X105425501Y-106741759D01*
X105247151Y-106587217D01*
X105231989Y-106577473D01*
X105017324Y-106479439D01*
X105000031Y-106474361D01*
X104770907Y-106441418D01*
X104761930Y-106440776D01*
X103515816Y-106440776D01*
X103502386Y-106442220D01*
X103166647Y-106515255D01*
X103145812Y-106523885D01*
X102945380Y-106652696D01*
X102931759Y-106664499D01*
X102777217Y-106842849D01*
X102767473Y-106858011D01*
X102669439Y-107072676D01*
X102664361Y-107089969D01*
X102631418Y-107319093D01*
X102630776Y-107328070D01*
X96759224Y-107328070D01*
X96759224Y-107325816D01*
X96757780Y-107312386D01*
X96684745Y-106976647D01*
X96676115Y-106955812D01*
X96547304Y-106755380D01*
X96535501Y-106741759D01*
X96357151Y-106587217D01*
X96341989Y-106577473D01*
X96127324Y-106479439D01*
X96110031Y-106474361D01*
X95880907Y-106441418D01*
X95871930Y-106440776D01*
X94625816Y-106440776D01*
X94612386Y-106442220D01*
X94276647Y-106515255D01*
X94255812Y-106523885D01*
X94055380Y-106652696D01*
X94041759Y-106664499D01*
X93887217Y-106842849D01*
X93877473Y-106858011D01*
X93779439Y-107072676D01*
X93774361Y-107089969D01*
X93741418Y-107319093D01*
X93740776Y-107328070D01*
X87869224Y-107328070D01*
X87869224Y-107325816D01*
X87867780Y-107312386D01*
X87794745Y-106976647D01*
X87786115Y-106955812D01*
X87657304Y-106755380D01*
X87645501Y-106741759D01*
X87467151Y-106587217D01*
X87451989Y-106577473D01*
X87237324Y-106479439D01*
X87220031Y-106474361D01*
X86990907Y-106441418D01*
X86981930Y-106440776D01*
X85735816Y-106440776D01*
X85722386Y-106442220D01*
X85386647Y-106515255D01*
X85365812Y-106523885D01*
X85165380Y-106652696D01*
X85151759Y-106664499D01*
X84997217Y-106842849D01*
X84987473Y-106858011D01*
X84889439Y-107072676D01*
X84884361Y-107089969D01*
X84851418Y-107319093D01*
X84850776Y-107328070D01*
X78979224Y-107328070D01*
X78979224Y-107325816D01*
X78977780Y-107312386D01*
X78904745Y-106976647D01*
X78896115Y-106955812D01*
X78767304Y-106755380D01*
X78755501Y-106741759D01*
X78577151Y-106587217D01*
X78561989Y-106577473D01*
X78347324Y-106479439D01*
X78330031Y-106474361D01*
X78100907Y-106441418D01*
X78091930Y-106440776D01*
X76845816Y-106440776D01*
X76832386Y-106442220D01*
X76496647Y-106515255D01*
X76475812Y-106523885D01*
X76275380Y-106652696D01*
X76261759Y-106664499D01*
X76107217Y-106842849D01*
X76097473Y-106858011D01*
X75999439Y-107072676D01*
X75994361Y-107089969D01*
X75961418Y-107319093D01*
X75960776Y-107328070D01*
X65531000Y-107328070D01*
X65531000Y-103631000D01*
X180085731Y-103631000D01*
X179859473Y-103770196D01*
M02*
